<?xml version="1.0" encoding="UTF-8" standalone="no"?>
<!DOCTYPE svg PUBLIC "-//W3C//DTD SVG 1.1//EN"
 "http://www.w3.org/Graphics/SVG/1.1/DTD/svg11.dtd">
<!-- Generated by graphviz version 2.36.0 (20140111.2315)
 -->
<svg width="846pt" height="490pt"
 viewBox="0.00 0.00 846.00 490.00" xmlns="http://www.w3.org/2000/svg" xmlns:xlink="http://www.w3.org/1999/xlink">
<g id="graph0" class="graph" transform="scale(1 1) rotate(0) translate(4 486)">
<title>cats 2015-02-06</title>
<polygon fill="white" stroke="none" points="-4,4 -4,-486 842,-486 842,4 -4,4"/>
<!-- cats.Applicative -->
<g id="node1" class="node"><title>cats.Applicative</title>
<g id="a_node1"><a xlink:href="https://github.com/non/cats/tree/master/core/src/main/scala/cats/Applicative.scala" xlink:title="\N" target="_blank">
<polygon fill="#799f5a" stroke="black" points="168.712,-223 168.712,-259 275.288,-259 275.288,-223 168.712,-223"/>
<text text-anchor="middle" x="222" y="-236.8" font-family="Times,serif" font-size="14.00">cats.Applicative</text>
</a>
</g>
</g>
<!-- cats.Apply -->
<g id="node2" class="node"><title>cats.Apply</title>
<g id="a_node2"><a xlink:href="https://github.com/non/cats/tree/master/core/src/main/scala/cats/Apply.scala" xlink:title="\N" target="_blank">
<polygon fill="#799f5a" stroke="black" points="183.867,-149 183.867,-185 260.133,-185 260.133,-149 183.867,-149"/>
<text text-anchor="middle" x="222" y="-162.8" font-family="Times,serif" font-size="14.00">cats.Apply</text>
</a>
</g>
</g>
<!-- cats.Applicative&#45;&gt;cats.Apply -->
<g id="edge8" class="edge"><title>cats.Applicative&#45;&gt;cats.Apply</title>
<path fill="none" stroke="black" d="M222,-222.937C222,-214.807 222,-204.876 222,-195.705"/>
<polygon fill="black" stroke="black" points="225.5,-195.441 222,-185.441 218.5,-195.441 225.5,-195.441"/>
</g>
<!-- cats.Functor -->
<g id="node8" class="node"><title>cats.Functor</title>
<g id="a_node8"><a xlink:href="https://github.com/non/cats/tree/master/core/src/main/scala/cats/Functor.scala" xlink:title="\N" target="_blank">
<polygon fill="#799f5a" stroke="black" points="178.591,-75 178.591,-111 263.409,-111 263.409,-75 178.591,-75"/>
<text text-anchor="middle" x="221" y="-88.8" font-family="Times,serif" font-size="14.00">cats.Functor</text>
</a>
</g>
</g>
<!-- cats.Apply&#45;&gt;cats.Functor -->
<g id="edge1" class="edge"><title>cats.Apply&#45;&gt;cats.Functor</title>
<path fill="none" stroke="black" d="M221.763,-148.937C221.65,-140.807 221.512,-130.876 221.385,-121.705"/>
<polygon fill="black" stroke="black" points="224.881,-121.391 221.242,-111.441 217.882,-121.488 224.881,-121.391"/>
</g>
<!-- cats.Bimonad -->
<g id="node3" class="node"><title>cats.Bimonad</title>
<g id="a_node3"><a xlink:href="https://github.com/non/cats/tree/master/core/src/main/scala/cats/Bimonad.scala" xlink:title="\N" target="_blank">
<polygon fill="#799f5a" stroke="black" points="56.7017,-371 56.7017,-407 149.298,-407 149.298,-371 56.7017,-371"/>
<text text-anchor="middle" x="103" y="-384.8" font-family="Times,serif" font-size="14.00">cats.Bimonad</text>
</a>
</g>
</g>
<!-- cats.Comonad -->
<g id="node5" class="node"><title>cats.Comonad</title>
<g id="a_node5"><a xlink:href="https://github.com/non/cats/tree/master/core/src/main/scala/cats/Comonad.scala" xlink:title="\N" target="_blank">
<polygon fill="#799f5a" stroke="black" points="55.1465,-223 55.1465,-259 150.854,-259 150.854,-223 55.1465,-223"/>
<text text-anchor="middle" x="103" y="-236.8" font-family="Times,serif" font-size="14.00">cats.Comonad</text>
</a>
</g>
</g>
<!-- cats.Bimonad&#45;&gt;cats.Comonad -->
<g id="edge15" class="edge"><title>cats.Bimonad&#45;&gt;cats.Comonad</title>
<path fill="none" stroke="black" d="M103,-370.966C103,-346.045 103,-299.374 103,-269.537"/>
<polygon fill="black" stroke="black" points="106.5,-269.378 103,-259.378 99.5001,-269.378 106.5,-269.378"/>
</g>
<!-- cats.Monad -->
<g id="node9" class="node"><title>cats.Monad</title>
<g id="a_node9"><a xlink:href="https://github.com/non/cats/tree/master/core/src/main/scala/cats/Monad.scala" xlink:title="\N" target="_blank">
<polygon fill="#799f5a" stroke="black" points="181.536,-297 181.536,-333 262.464,-333 262.464,-297 181.536,-297"/>
<text text-anchor="middle" x="222" y="-310.8" font-family="Times,serif" font-size="14.00">cats.Monad</text>
</a>
</g>
</g>
<!-- cats.Bimonad&#45;&gt;cats.Monad -->
<g id="edge14" class="edge"><title>cats.Bimonad&#45;&gt;cats.Monad</title>
<path fill="none" stroke="black" d="M131.201,-370.937C147.238,-361.234 167.515,-348.966 184.838,-338.485"/>
<polygon fill="black" stroke="black" points="186.845,-341.361 193.589,-333.19 183.221,-335.372 186.845,-341.361"/>
</g>
<!-- cats.CoFlatMap -->
<g id="node4" class="node"><title>cats.CoFlatMap</title>
<g id="a_node4"><a xlink:href="https://github.com/non/cats/tree/master/core/src/main/scala/cats/CoFlatMap.scala" xlink:title="\N" target="_blank">
<polygon fill="#799f5a" stroke="black" points="55.4775,-149 55.4775,-185 160.522,-185 160.522,-149 55.4775,-149"/>
<text text-anchor="middle" x="108" y="-162.8" font-family="Times,serif" font-size="14.00">cats.CoFlatMap</text>
</a>
</g>
</g>
<!-- cats.CoFlatMap&#45;&gt;cats.Functor -->
<g id="edge2" class="edge"><title>cats.CoFlatMap&#45;&gt;cats.Functor</title>
<path fill="none" stroke="black" d="M134.779,-148.937C149.868,-139.323 168.91,-127.19 185.258,-116.774"/>
<polygon fill="black" stroke="black" points="187.468,-119.515 194.021,-111.19 183.707,-113.612 187.468,-119.515"/>
</g>
<!-- cats.Comonad&#45;&gt;cats.CoFlatMap -->
<g id="edge4" class="edge"><title>cats.Comonad&#45;&gt;cats.CoFlatMap</title>
<path fill="none" stroke="black" d="M104.185,-222.937C104.75,-214.807 105.439,-204.876 106.076,-195.705"/>
<polygon fill="black" stroke="black" points="109.588,-195.659 106.789,-185.441 102.604,-195.174 109.588,-195.659"/>
</g>
<!-- cats.FlatMap -->
<g id="node6" class="node"><title>cats.FlatMap</title>
<g id="a_node6"><a xlink:href="https://github.com/non/cats/tree/master/core/src/main/scala/cats/FlatMap.scala" xlink:title="\N" target="_blank">
<polygon fill="#799f5a" stroke="black" points="293.646,-223 293.646,-259 382.354,-259 382.354,-223 293.646,-223"/>
<text text-anchor="middle" x="338" y="-236.8" font-family="Times,serif" font-size="14.00">cats.FlatMap</text>
</a>
</g>
</g>
<!-- cats.FlatMap&#45;&gt;cats.Apply -->
<g id="edge3" class="edge"><title>cats.FlatMap&#45;&gt;cats.Apply</title>
<path fill="none" stroke="black" d="M310.51,-222.937C294.877,-213.234 275.111,-200.966 258.225,-190.485"/>
<polygon fill="black" stroke="black" points="260.037,-187.49 249.695,-185.19 256.346,-193.437 260.037,-187.49"/>
</g>
<!-- cats.Foldable -->
<g id="node7" class="node"><title>cats.Foldable</title>
<g id="a_node7"><a xlink:href="https://github.com/non/cats/tree/master/core/src/main/scala/cats/Foldable.scala" xlink:title="\N" target="_blank">
<polygon fill="#799f5a" stroke="black" points="281.871,-75 281.871,-111 372.129,-111 372.129,-75 281.871,-75"/>
<text text-anchor="middle" x="327" y="-88.8" font-family="Times,serif" font-size="14.00">cats.Foldable</text>
</a>
</g>
</g>
<!-- cats.functor.Invariant -->
<g id="node20" class="node"><title>cats.functor.Invariant</title>
<g id="a_node20"><a xlink:href="https://github.com/non/cats/tree/master/core/src/main/scala/cats/functor/Invariant.scala" xlink:title="\N" target="_blank">
<polygon fill="#799f5a" stroke="black" points="82.5205,-1 82.5205,-37 217.479,-37 217.479,-1 82.5205,-1"/>
<text text-anchor="middle" x="150" y="-14.8" font-family="Times,serif" font-size="14.00">cats.functor.Invariant</text>
</a>
</g>
</g>
<!-- cats.Functor&#45;&gt;cats.functor.Invariant -->
<g id="edge5" class="edge"><title>cats.Functor&#45;&gt;cats.functor.Invariant</title>
<path fill="none" stroke="black" d="M204.174,-74.937C195.286,-65.9235 184.214,-54.6959 174.401,-44.7443"/>
<polygon fill="black" stroke="black" points="176.712,-42.1035 167.198,-37.4407 171.728,-47.0186 176.712,-42.1035"/>
</g>
<!-- cats.Monad&#45;&gt;cats.Applicative -->
<g id="edge7" class="edge"><title>cats.Monad&#45;&gt;cats.Applicative</title>
<path fill="none" stroke="black" d="M222,-296.937C222,-288.807 222,-278.876 222,-269.705"/>
<polygon fill="black" stroke="black" points="225.5,-269.441 222,-259.441 218.5,-269.441 225.5,-269.441"/>
</g>
<!-- cats.Monad&#45;&gt;cats.FlatMap -->
<g id="edge6" class="edge"><title>cats.Monad&#45;&gt;cats.FlatMap</title>
<path fill="none" stroke="black" d="M249.49,-296.937C265.123,-287.234 284.889,-274.966 301.775,-264.485"/>
<polygon fill="black" stroke="black" points="303.654,-267.437 310.305,-259.19 299.963,-261.49 303.654,-267.437"/>
</g>
<!-- cats.MonadCombine -->
<g id="node10" class="node"><title>cats.MonadCombine</title>
<g id="a_node10"><a xlink:href="https://github.com/non/cats/tree/master/core/src/main/scala/cats/MonadCombine.scala" xlink:title="\N" target="_blank">
<polygon fill="#799f5a" stroke="black" points="217.871,-445 217.871,-481 350.129,-481 350.129,-445 217.871,-445"/>
<text text-anchor="middle" x="284" y="-458.8" font-family="Times,serif" font-size="14.00">cats.MonadCombine</text>
</a>
</g>
</g>
<!-- cats.MonadFilter -->
<g id="node11" class="node"><title>cats.MonadFilter</title>
<g id="a_node11"><a xlink:href="https://github.com/non/cats/tree/master/core/src/main/scala/cats/MonadFilter.scala" xlink:title="\N" target="_blank">
<polygon fill="#799f5a" stroke="black" points="167.371,-371 167.371,-407 278.629,-407 278.629,-371 167.371,-371"/>
<text text-anchor="middle" x="223" y="-384.8" font-family="Times,serif" font-size="14.00">cats.MonadFilter</text>
</a>
</g>
</g>
<!-- cats.MonadCombine&#45;&gt;cats.MonadFilter -->
<g id="edge18" class="edge"><title>cats.MonadCombine&#45;&gt;cats.MonadFilter</title>
<path fill="none" stroke="black" d="M269.544,-444.937C262.057,-436.1 252.767,-425.135 244.461,-415.331"/>
<polygon fill="black" stroke="black" points="246.911,-412.808 237.776,-407.441 241.57,-417.333 246.911,-412.808"/>
</g>
<!-- cats.MonoidK -->
<g id="node12" class="node"><title>cats.MonoidK</title>
<g id="a_node12"><a xlink:href="https://github.com/non/cats/tree/master/core/src/main/scala/cats/MonoidK.scala" xlink:title="\N" target="_blank">
<polygon fill="#799f5a" stroke="black" points="296.143,-371 296.143,-407 391.857,-407 391.857,-371 296.143,-371"/>
<text text-anchor="middle" x="344" y="-384.8" font-family="Times,serif" font-size="14.00">cats.MonoidK</text>
</a>
</g>
</g>
<!-- cats.MonadCombine&#45;&gt;cats.MonoidK -->
<g id="edge19" class="edge"><title>cats.MonadCombine&#45;&gt;cats.MonoidK</title>
<path fill="none" stroke="black" d="M298.219,-444.937C305.583,-436.1 314.721,-425.135 322.891,-415.331"/>
<polygon fill="black" stroke="black" points="325.753,-417.364 329.466,-407.441 320.375,-412.882 325.753,-417.364"/>
</g>
<!-- cats.MonadFilter&#45;&gt;cats.Monad -->
<g id="edge10" class="edge"><title>cats.MonadFilter&#45;&gt;cats.Monad</title>
<path fill="none" stroke="black" d="M222.763,-370.937C222.65,-362.807 222.512,-352.876 222.385,-343.705"/>
<polygon fill="black" stroke="black" points="225.881,-343.391 222.242,-333.441 218.882,-343.488 225.881,-343.391"/>
</g>
<!-- cats.SemigroupK -->
<g id="node13" class="node"><title>cats.SemigroupK</title>
<g id="a_node13"><a xlink:href="https://github.com/non/cats/tree/master/core/src/main/scala/cats/SemigroupK.scala" xlink:title="\N" target="_blank">
<polygon fill="#799f5a" stroke="black" points="287.591,-297 287.591,-333 400.409,-333 400.409,-297 287.591,-297"/>
<text text-anchor="middle" x="344" y="-310.8" font-family="Times,serif" font-size="14.00">cats.SemigroupK</text>
</a>
</g>
</g>
<!-- cats.MonoidK&#45;&gt;cats.SemigroupK -->
<g id="edge9" class="edge"><title>cats.MonoidK&#45;&gt;cats.SemigroupK</title>
<path fill="none" stroke="black" d="M344,-370.937C344,-362.807 344,-352.876 344,-343.705"/>
<polygon fill="black" stroke="black" points="347.5,-343.441 344,-333.441 340.5,-343.441 347.5,-343.441"/>
</g>
<!-- cats.Traverse -->
<g id="node14" class="node"><title>cats.Traverse</title>
<g id="a_node14"><a xlink:href="https://github.com/non/cats/tree/master/core/src/main/scala/cats/Traverse.scala" xlink:title="\N" target="_blank">
<polygon fill="#799f5a" stroke="black" points="280.127,-149 280.127,-185 369.873,-185 369.873,-149 280.127,-149"/>
<text text-anchor="middle" x="325" y="-162.8" font-family="Times,serif" font-size="14.00">cats.Traverse</text>
</a>
</g>
</g>
<!-- cats.Traverse&#45;&gt;cats.Foldable -->
<g id="edge17" class="edge"><title>cats.Traverse&#45;&gt;cats.Foldable</title>
<path fill="none" stroke="black" d="M325.474,-148.937C325.7,-140.807 325.976,-130.876 326.23,-121.705"/>
<polygon fill="black" stroke="black" points="329.736,-121.534 326.516,-111.441 322.739,-121.34 329.736,-121.534"/>
</g>
<!-- cats.Traverse&#45;&gt;cats.Functor -->
<g id="edge16" class="edge"><title>cats.Traverse&#45;&gt;cats.Functor</title>
<path fill="none" stroke="black" d="M300.353,-148.937C286.595,-139.412 269.266,-127.415 254.314,-117.063"/>
<polygon fill="black" stroke="black" points="256.044,-114.004 245.83,-111.19 252.06,-119.76 256.044,-114.004"/>
</g>
<!-- cats.arrow.Arrow -->
<g id="node15" class="node"><title>cats.arrow.Arrow</title>
<g id="a_node15"><a xlink:href="https://github.com/non/cats/tree/master/core/src/main/scala/cats/arrow/Arrow.scala" xlink:title="\N" target="_blank">
<polygon fill="#799f5a" stroke="black" points="579.475,-445 579.475,-481 692.525,-481 692.525,-445 579.475,-445"/>
<text text-anchor="middle" x="636" y="-458.8" font-family="Times,serif" font-size="14.00">cats.arrow.Arrow</text>
</a>
</g>
</g>
<!-- cats.arrow.Category -->
<g id="node16" class="node"><title>cats.arrow.Category</title>
<g id="a_node16"><a xlink:href="https://github.com/non/cats/tree/master/core/src/main/scala/cats/arrow/Category.scala" xlink:title="\N" target="_blank">
<polygon fill="#799f5a" stroke="black" points="439.089,-371 439.089,-407 566.911,-407 566.911,-371 439.089,-371"/>
<text text-anchor="middle" x="503" y="-384.8" font-family="Times,serif" font-size="14.00">cats.arrow.Category</text>
</a>
</g>
</g>
<!-- cats.arrow.Arrow&#45;&gt;cats.arrow.Category -->
<g id="edge22" class="edge"><title>cats.arrow.Arrow&#45;&gt;cats.arrow.Category</title>
<path fill="none" stroke="black" d="M604.481,-444.937C586.311,-435.101 563.27,-422.627 543.737,-412.053"/>
<polygon fill="black" stroke="black" points="545.214,-408.873 534.754,-407.19 541.882,-415.029 545.214,-408.873"/>
</g>
<!-- cats.arrow.Split -->
<g id="node18" class="node"><title>cats.arrow.Split</title>
<g id="a_node18"><a xlink:href="https://github.com/non/cats/tree/master/core/src/main/scala/cats/arrow/Split.scala" xlink:title="\N" target="_blank">
<polygon fill="#799f5a" stroke="black" points="584.52,-371 584.52,-407 687.48,-407 687.48,-371 584.52,-371"/>
<text text-anchor="middle" x="636" y="-384.8" font-family="Times,serif" font-size="14.00">cats.arrow.Split</text>
</a>
</g>
</g>
<!-- cats.arrow.Arrow&#45;&gt;cats.arrow.Split -->
<g id="edge20" class="edge"><title>cats.arrow.Arrow&#45;&gt;cats.arrow.Split</title>
<path fill="none" stroke="black" d="M636,-444.937C636,-436.807 636,-426.876 636,-417.705"/>
<polygon fill="black" stroke="black" points="639.5,-417.441 636,-407.441 632.5,-417.441 639.5,-417.441"/>
</g>
<!-- cats.functor.Strong -->
<g id="node22" class="node"><title>cats.functor.Strong</title>
<g id="a_node22"><a xlink:href="https://github.com/non/cats/tree/master/core/src/main/scala/cats/functor/Strong.scala" xlink:title="\N" target="_blank">
<polygon fill="#799f5a" stroke="black" points="705.117,-371 705.117,-407 826.883,-407 826.883,-371 705.117,-371"/>
<text text-anchor="middle" x="766" y="-384.8" font-family="Times,serif" font-size="14.00">cats.functor.Strong</text>
</a>
</g>
</g>
<!-- cats.arrow.Arrow&#45;&gt;cats.functor.Strong -->
<g id="edge21" class="edge"><title>cats.arrow.Arrow&#45;&gt;cats.functor.Strong</title>
<path fill="none" stroke="black" d="M666.808,-444.937C684.568,-435.101 707.09,-422.627 726.182,-412.053"/>
<polygon fill="black" stroke="black" points="727.91,-415.097 734.962,-407.19 724.519,-408.973 727.91,-415.097"/>
</g>
<!-- cats.arrow.Compose -->
<g id="node17" class="node"><title>cats.arrow.Compose</title>
<g id="a_node17"><a xlink:href="https://github.com/non/cats/tree/master/core/src/main/scala/cats/arrow/Compose.scala" xlink:title="\N" target="_blank">
<polygon fill="#799f5a" stroke="black" points="467.303,-297 467.303,-333 596.697,-333 596.697,-297 467.303,-297"/>
<text text-anchor="middle" x="532" y="-310.8" font-family="Times,serif" font-size="14.00">cats.arrow.Compose</text>
</a>
</g>
</g>
<!-- cats.arrow.Category&#45;&gt;cats.arrow.Compose -->
<g id="edge12" class="edge"><title>cats.arrow.Category&#45;&gt;cats.arrow.Compose</title>
<path fill="none" stroke="black" d="M509.873,-370.937C513.254,-362.542 517.409,-352.227 521.202,-342.81"/>
<polygon fill="black" stroke="black" points="524.486,-344.024 524.975,-333.441 517.993,-341.409 524.486,-344.024"/>
</g>
<!-- cats.arrow.Split&#45;&gt;cats.arrow.Compose -->
<g id="edge13" class="edge"><title>cats.arrow.Split&#45;&gt;cats.arrow.Compose</title>
<path fill="none" stroke="black" d="M611.353,-370.937C597.595,-361.412 580.266,-349.415 565.314,-339.063"/>
<polygon fill="black" stroke="black" points="567.044,-336.004 556.83,-333.19 563.06,-341.76 567.044,-336.004"/>
</g>
<!-- cats.functor.Contravariant -->
<g id="node19" class="node"><title>cats.functor.Contravariant</title>
<g id="a_node19"><a xlink:href="https://github.com/non/cats/tree/master/core/src/main/scala/cats/functor/Contravariant.scala" xlink:title="\N" target="_blank">
<polygon fill="#799f5a" stroke="black" points="-0.700195,-75 -0.700195,-111 160.7,-111 160.7,-75 -0.700195,-75"/>
<text text-anchor="middle" x="80" y="-88.8" font-family="Times,serif" font-size="14.00">cats.functor.Contravariant</text>
</a>
</g>
</g>
<!-- cats.functor.Contravariant&#45;&gt;cats.functor.Invariant -->
<g id="edge23" class="edge"><title>cats.functor.Contravariant&#45;&gt;cats.functor.Invariant</title>
<path fill="none" stroke="black" d="M96.589,-74.937C105.352,-65.9235 116.268,-54.6959 125.943,-44.7443"/>
<polygon fill="black" stroke="black" points="128.582,-47.0504 133.044,-37.4407 123.563,-42.1709 128.582,-47.0504"/>
</g>
<!-- cats.functor.Profunctor -->
<g id="node21" class="node"><title>cats.functor.Profunctor</title>
<g id="a_node21"><a xlink:href="https://github.com/non/cats/tree/master/core/src/main/scala/cats/functor/Profunctor.scala" xlink:title="\N" target="_blank">
<polygon fill="#799f5a" stroke="black" points="693.848,-297 693.848,-333 838.152,-333 838.152,-297 693.848,-297"/>
<text text-anchor="middle" x="766" y="-310.8" font-family="Times,serif" font-size="14.00">cats.functor.Profunctor</text>
</a>
</g>
</g>
<!-- cats.functor.Strong&#45;&gt;cats.functor.Profunctor -->
<g id="edge11" class="edge"><title>cats.functor.Strong&#45;&gt;cats.functor.Profunctor</title>
<path fill="none" stroke="black" d="M766,-370.937C766,-362.807 766,-352.876 766,-343.705"/>
<polygon fill="black" stroke="black" points="769.5,-343.441 766,-333.441 762.5,-343.441 769.5,-343.441"/>
</g>
</g>
</svg>

