<?xml version="1.0" encoding="UTF-8" standalone="no"?>
<!DOCTYPE svg PUBLIC "-//W3C//DTD SVG 1.1//EN"
 "http://www.w3.org/Graphics/SVG/1.1/DTD/svg11.dtd">
<!-- Generated by graphviz version 2.38.0 (20140413.2041)
 -->
<!-- Title: diagram Pages: 1 -->
<svg width="939pt" height="483pt"
 viewBox="0.00 0.00 938.85 483.00" xmlns="http://www.w3.org/2000/svg" xmlns:xlink="http://www.w3.org/1999/xlink">
<g id="graph0" class="graph" transform="scale(1 1) rotate(0) translate(4 479)">
<title>Cats class diagram</title>
<polygon fill="white" stroke="none" points="-4,4 -4,-479 934.852,-479 934.852,4 -4,4"/>
<!-- cats.Alternative -->
<g id="node1" class="node"><title>cats.Alternative</title>
<g id="a_node1"><a xlink:href="https://github.com/non/cats/tree/master/core/src/main/scala/cats/Alternative.scala" xlink:title="\N" target="_blank">
<polygon fill="#799f5a" stroke="black" points="361.581,-365.5 361.581,-401.5 465.819,-401.5 465.819,-365.5 361.581,-365.5"/>
<text text-anchor="middle" x="413.7" y="-379.3" font-family="Times,serif" font-size="14.00">cats.Alternative</text>
</a>
</g>
</g>
<!-- cats.Applicative -->
<g id="node2" class="node"><title>cats.Applicative</title>
<g id="a_node2"><a xlink:href="https://github.com/non/cats/tree/master/core/src/main/scala/cats/Applicative.scala" xlink:title="\N" target="_blank">
<polygon fill="#799f5a" stroke="black" points="314.412,-219.5 314.412,-255.5 420.988,-255.5 420.988,-219.5 314.412,-219.5"/>
<text text-anchor="middle" x="367.7" y="-233.3" font-family="Times,serif" font-size="14.00">cats.Applicative</text>
</a>
</g>
</g>
<!-- cats.Alternative&#45;&gt;cats.Applicative -->
<g id="edge4" class="edge"><title>cats.Alternative&#45;&gt;cats.Applicative</title>
<path fill="none" stroke="black" d="M408.243,-365.416C400.323,-340.625 385.572,-294.448 376.215,-265.156"/>
<polygon fill="black" stroke="black" points="379.528,-264.023 373.151,-255.562 372.86,-266.153 379.528,-264.023"/>
</g>
<!-- cats.MonoidK -->
<g id="node12" class="node"><title>cats.MonoidK</title>
<g id="a_node12"><a xlink:href="https://github.com/non/cats/tree/master/core/src/main/scala/cats/MonoidK.scala" xlink:title="\N" target="_blank">
<polygon fill="#799f5a" stroke="black" points="432.843,-292.5 432.843,-328.5 528.557,-328.5 528.557,-292.5 432.843,-292.5"/>
<text text-anchor="middle" x="480.7" y="-306.3" font-family="Times,serif" font-size="14.00">cats.MonoidK</text>
</a>
</g>
</g>
<!-- cats.Alternative&#45;&gt;cats.MonoidK -->
<g id="edge5" class="edge"><title>cats.Alternative&#45;&gt;cats.MonoidK</title>
<path fill="none" stroke="black" d="M429.919,-365.313C438.231,-356.505 448.498,-345.625 457.62,-335.958"/>
<polygon fill="black" stroke="black" points="460.313,-338.204 464.631,-328.529 455.222,-333.4 460.313,-338.204"/>
</g>
<!-- cats.Apply -->
<g id="node3" class="node"><title>cats.Apply</title>
<g id="a_node3"><a xlink:href="https://github.com/non/cats/tree/master/core/src/main/scala/cats/Apply.scala" xlink:title="\N" target="_blank">
<polygon fill="#799f5a" stroke="black" points="236.567,-146.5 236.567,-182.5 312.833,-182.5 312.833,-146.5 236.567,-146.5"/>
<text text-anchor="middle" x="274.7" y="-160.3" font-family="Times,serif" font-size="14.00">cats.Apply</text>
</a>
</g>
</g>
<!-- cats.Applicative&#45;&gt;cats.Apply -->
<g id="edge6" class="edge"><title>cats.Applicative&#45;&gt;cats.Apply</title>
<path fill="none" stroke="black" d="M345.187,-219.313C333.193,-210.156 318.266,-198.76 305.241,-188.816"/>
<polygon fill="black" stroke="black" points="307.078,-185.815 297.006,-182.529 302.83,-191.379 307.078,-185.815"/>
</g>
<!-- cats.Functor -->
<g id="node8" class="node"><title>cats.Functor</title>
<g id="a_node8"><a xlink:href="https://github.com/non/cats/tree/master/core/src/main/scala/cats/Functor.scala" xlink:title="\N" target="_blank">
<polygon fill="#799f5a" stroke="black" points="179.292,-73.5 179.292,-109.5 264.109,-109.5 264.109,-73.5 179.292,-73.5"/>
<text text-anchor="middle" x="221.7" y="-87.3" font-family="Times,serif" font-size="14.00">cats.Functor</text>
</a>
</g>
</g>
<!-- cats.Apply&#45;&gt;cats.Functor -->
<g id="edge1" class="edge"><title>cats.Apply&#45;&gt;cats.Functor</title>
<path fill="none" stroke="black" d="M261.87,-146.313C255.49,-137.766 247.655,-127.269 240.603,-117.823"/>
<polygon fill="black" stroke="black" points="243.199,-115.449 234.412,-109.529 237.589,-119.636 243.199,-115.449"/>
</g>
<!-- cats.Bimonad -->
<g id="node4" class="node"><title>cats.Bimonad</title>
<g id="a_node4"><a xlink:href="https://github.com/non/cats/tree/master/core/src/main/scala/cats/Bimonad.scala" xlink:title="\N" target="_blank">
<polygon fill="#799f5a" stroke="black" points="121.402,-365.5 121.402,-401.5 213.999,-401.5 213.999,-365.5 121.402,-365.5"/>
<text text-anchor="middle" x="167.7" y="-379.3" font-family="Times,serif" font-size="14.00">cats.Bimonad</text>
</a>
</g>
</g>
<!-- cats.Comonad -->
<g id="node6" class="node"><title>cats.Comonad</title>
<g id="a_node6"><a xlink:href="https://github.com/non/cats/tree/master/core/src/main/scala/cats/Comonad.scala" xlink:title="\N" target="_blank">
<polygon fill="#799f5a" stroke="black" points="119.847,-292.5 119.847,-328.5 215.554,-328.5 215.554,-292.5 119.847,-292.5"/>
<text text-anchor="middle" x="167.7" y="-306.3" font-family="Times,serif" font-size="14.00">cats.Comonad</text>
</a>
</g>
</g>
<!-- cats.Bimonad&#45;&gt;cats.Comonad -->
<g id="edge19" class="edge"><title>cats.Bimonad&#45;&gt;cats.Comonad</title>
<path fill="none" stroke="black" d="M167.7,-365.313C167.7,-357.289 167.7,-347.547 167.7,-338.569"/>
<polygon fill="black" stroke="black" points="171.2,-338.529 167.7,-328.529 164.2,-338.529 171.2,-338.529"/>
</g>
<!-- cats.Monad -->
<g id="node9" class="node"><title>cats.Monad</title>
<g id="a_node9"><a xlink:href="https://github.com/non/cats/tree/master/core/src/main/scala/cats/Monad.scala" xlink:title="\N" target="_blank">
<polygon fill="#799f5a" stroke="black" points="240.236,-292.5 240.236,-328.5 321.164,-328.5 321.164,-292.5 240.236,-292.5"/>
<text text-anchor="middle" x="280.7" y="-306.3" font-family="Times,serif" font-size="14.00">cats.Monad</text>
</a>
</g>
</g>
<!-- cats.Bimonad&#45;&gt;cats.Monad -->
<g id="edge18" class="edge"><title>cats.Bimonad&#45;&gt;cats.Monad</title>
<path fill="none" stroke="black" d="M194.767,-365.494C209.751,-356.079 228.568,-344.255 244.771,-334.075"/>
<polygon fill="black" stroke="black" points="246.858,-336.897 253.463,-328.614 243.134,-330.97 246.858,-336.897"/>
</g>
<!-- cats.CoflatMap -->
<g id="node5" class="node"><title>cats.CoflatMap</title>
<g id="a_node5"><a xlink:href="https://github.com/non/cats/tree/master/core/src/main/scala/cats/CoflatMap.scala" xlink:title="\N" target="_blank">
<polygon fill="#799f5a" stroke="black" points="117.123,-146.5 117.123,-182.5 218.278,-182.5 218.278,-146.5 117.123,-146.5"/>
<text text-anchor="middle" x="167.7" y="-160.3" font-family="Times,serif" font-size="14.00">cats.CoflatMap</text>
</a>
</g>
</g>
<!-- cats.CoflatMap&#45;&gt;cats.Functor -->
<g id="edge12" class="edge"><title>cats.CoflatMap&#45;&gt;cats.Functor</title>
<path fill="none" stroke="black" d="M180.772,-146.313C187.339,-137.679 195.419,-127.055 202.66,-117.534"/>
<polygon fill="black" stroke="black" points="205.481,-119.607 208.749,-109.529 199.909,-115.37 205.481,-119.607"/>
</g>
<!-- cats.Comonad&#45;&gt;cats.CoflatMap -->
<g id="edge11" class="edge"><title>cats.Comonad&#45;&gt;cats.CoflatMap</title>
<path fill="none" stroke="black" d="M167.7,-292.416C167.7,-267.841 167.7,-222.253 167.7,-192.927"/>
<polygon fill="black" stroke="black" points="171.2,-192.562 167.7,-182.562 164.2,-192.562 171.2,-192.562"/>
</g>
<!-- cats.FlatMap -->
<g id="node7" class="node"><title>cats.FlatMap</title>
<g id="a_node7"><a xlink:href="https://github.com/non/cats/tree/master/core/src/main/scala/cats/FlatMap.scala" xlink:title="\N" target="_blank">
<polygon fill="#799f5a" stroke="black" points="207.347,-219.5 207.347,-255.5 296.054,-255.5 296.054,-219.5 207.347,-219.5"/>
<text text-anchor="middle" x="251.7" y="-233.3" font-family="Times,serif" font-size="14.00">cats.FlatMap</text>
</a>
</g>
</g>
<!-- cats.FlatMap&#45;&gt;cats.Apply -->
<g id="edge9" class="edge"><title>cats.FlatMap&#45;&gt;cats.Apply</title>
<path fill="none" stroke="black" d="M257.268,-219.313C259.895,-211.202 263.092,-201.336 266.026,-192.277"/>
<polygon fill="black" stroke="black" points="269.432,-193.121 269.184,-182.529 262.772,-190.963 269.432,-193.121"/>
</g>
<!-- cats.functor.Invariant -->
<g id="node19" class="node"><title>cats.functor.Invariant</title>
<g id="a_node19"><a xlink:href="https://github.com/non/cats/tree/master/core/src/main/scala/cats/functor/Invariant.scala" xlink:title="\N" target="_blank">
<polygon fill="#799f5a" stroke="black" points="83.2207,-0.5 83.2207,-36.5 218.18,-36.5 218.18,-0.5 83.2207,-0.5"/>
<text text-anchor="middle" x="150.7" y="-14.3" font-family="Times,serif" font-size="14.00">cats.functor.Invariant</text>
</a>
</g>
</g>
<!-- cats.Functor&#45;&gt;cats.functor.Invariant -->
<g id="edge10" class="edge"><title>cats.Functor&#45;&gt;cats.functor.Invariant</title>
<path fill="none" stroke="black" d="M204.513,-73.3129C195.618,-64.4174 184.61,-53.4094 174.872,-43.6717"/>
<polygon fill="black" stroke="black" points="177.275,-41.1251 167.729,-36.5288 172.325,-46.0748 177.275,-41.1251"/>
</g>
<!-- cats.Monad&#45;&gt;cats.Applicative -->
<g id="edge8" class="edge"><title>cats.Monad&#45;&gt;cats.Applicative</title>
<path fill="none" stroke="black" d="M301.76,-292.313C312.874,-283.243 326.679,-271.977 338.781,-262.1"/>
<polygon fill="black" stroke="black" points="341.299,-264.563 346.834,-255.529 336.873,-259.14 341.299,-264.563"/>
</g>
<!-- cats.Monad&#45;&gt;cats.FlatMap -->
<g id="edge7" class="edge"><title>cats.Monad&#45;&gt;cats.FlatMap</title>
<path fill="none" stroke="black" d="M273.68,-292.313C270.332,-284.115 266.25,-274.123 262.518,-264.985"/>
<polygon fill="black" stroke="black" points="265.677,-263.463 258.656,-255.529 259.197,-266.11 265.677,-263.463"/>
</g>
<!-- cats.MonadCombine -->
<g id="node10" class="node"><title>cats.MonadCombine</title>
<g id="a_node10"><a xlink:href="https://github.com/non/cats/tree/master/core/src/main/scala/cats/MonadCombine.scala" xlink:title="\N" target="_blank">
<polygon fill="#799f5a" stroke="black" points="284.571,-438.5 284.571,-474.5 416.83,-474.5 416.83,-438.5 284.571,-438.5"/>
<text text-anchor="middle" x="350.7" y="-452.3" font-family="Times,serif" font-size="14.00">cats.MonadCombine</text>
</a>
</g>
</g>
<!-- cats.MonadCombine&#45;&gt;cats.Alternative -->
<g id="edge17" class="edge"><title>cats.MonadCombine&#45;&gt;cats.Alternative</title>
<path fill="none" stroke="black" d="M365.951,-438.313C373.689,-429.592 383.229,-418.84 391.743,-409.246"/>
<polygon fill="black" stroke="black" points="394.571,-411.332 398.59,-401.529 389.335,-406.686 394.571,-411.332"/>
</g>
<!-- cats.MonadFilter -->
<g id="node11" class="node"><title>cats.MonadFilter</title>
<g id="a_node11"><a xlink:href="https://github.com/non/cats/tree/master/core/src/main/scala/cats/MonadFilter.scala" xlink:title="\N" target="_blank">
<polygon fill="#799f5a" stroke="black" points="232.071,-365.5 232.071,-401.5 343.33,-401.5 343.33,-365.5 232.071,-365.5"/>
<text text-anchor="middle" x="287.7" y="-379.3" font-family="Times,serif" font-size="14.00">cats.MonadFilter</text>
</a>
</g>
</g>
<!-- cats.MonadCombine&#45;&gt;cats.MonadFilter -->
<g id="edge16" class="edge"><title>cats.MonadCombine&#45;&gt;cats.MonadFilter</title>
<path fill="none" stroke="black" d="M335.45,-438.313C327.711,-429.592 318.171,-418.84 309.658,-409.246"/>
<polygon fill="black" stroke="black" points="312.065,-406.686 302.81,-401.529 306.829,-411.332 312.065,-406.686"/>
</g>
<!-- cats.MonadFilter&#45;&gt;cats.Monad -->
<g id="edge3" class="edge"><title>cats.MonadFilter&#45;&gt;cats.Monad</title>
<path fill="none" stroke="black" d="M286.006,-365.313C285.215,-357.289 284.254,-347.547 283.369,-338.569"/>
<polygon fill="black" stroke="black" points="286.843,-338.137 282.379,-328.529 279.877,-338.824 286.843,-338.137"/>
</g>
<!-- cats.SemigroupK -->
<g id="node13" class="node"><title>cats.SemigroupK</title>
<g id="a_node13"><a xlink:href="https://github.com/non/cats/tree/master/core/src/main/scala/cats/SemigroupK.scala" xlink:title="\N" target="_blank">
<polygon fill="#799f5a" stroke="black" points="439.292,-219.5 439.292,-255.5 552.109,-255.5 552.109,-219.5 439.292,-219.5"/>
<text text-anchor="middle" x="495.7" y="-233.3" font-family="Times,serif" font-size="14.00">cats.SemigroupK</text>
</a>
</g>
</g>
<!-- cats.MonoidK&#45;&gt;cats.SemigroupK -->
<g id="edge2" class="edge"><title>cats.MonoidK&#45;&gt;cats.SemigroupK</title>
<path fill="none" stroke="black" d="M484.331,-292.313C486.026,-284.289 488.085,-274.547 489.981,-265.569"/>
<polygon fill="black" stroke="black" points="493.46,-266.036 492.103,-255.529 486.611,-264.589 493.46,-266.036"/>
</g>
<!-- cats.arrow.Arrow -->
<g id="node14" class="node"><title>cats.arrow.Arrow</title>
<g id="a_node14"><a xlink:href="https://github.com/non/cats/tree/master/core/src/main/scala/cats/arrow/Arrow.scala" xlink:title="\N" target="_blank">
<polygon fill="#799f5a" stroke="black" points="672.175,-438.5 672.175,-474.5 785.225,-474.5 785.225,-438.5 672.175,-438.5"/>
<text text-anchor="middle" x="728.7" y="-452.3" font-family="Times,serif" font-size="14.00">cats.arrow.Arrow</text>
</a>
</g>
</g>
<!-- cats.arrow.Category -->
<g id="node15" class="node"><title>cats.arrow.Category</title>
<g id="a_node15"><a xlink:href="https://github.com/non/cats/tree/master/core/src/main/scala/cats/arrow/Category.scala" xlink:title="\N" target="_blank">
<polygon fill="#799f5a" stroke="black" points="531.789,-365.5 531.789,-401.5 659.611,-401.5 659.611,-365.5 531.789,-365.5"/>
<text text-anchor="middle" x="595.7" y="-379.3" font-family="Times,serif" font-size="14.00">cats.arrow.Category</text>
</a>
</g>
</g>
<!-- cats.arrow.Arrow&#45;&gt;cats.arrow.Category -->
<g id="edge23" class="edge"><title>cats.arrow.Arrow&#45;&gt;cats.arrow.Category</title>
<path fill="none" stroke="black" d="M696.843,-438.494C678.798,-428.861 656.031,-416.707 636.669,-406.37"/>
<polygon fill="black" stroke="black" points="638.228,-403.235 627.758,-401.614 634.931,-409.411 638.228,-403.235"/>
</g>
<!-- cats.arrow.Split -->
<g id="node17" class="node"><title>cats.arrow.Split</title>
<g id="a_node17"><a xlink:href="https://github.com/non/cats/tree/master/core/src/main/scala/cats/arrow/Split.scala" xlink:title="\N" target="_blank">
<polygon fill="#799f5a" stroke="black" points="677.22,-365.5 677.22,-401.5 780.18,-401.5 780.18,-365.5 677.22,-365.5"/>
<text text-anchor="middle" x="728.7" y="-379.3" font-family="Times,serif" font-size="14.00">cats.arrow.Split</text>
</a>
</g>
</g>
<!-- cats.arrow.Arrow&#45;&gt;cats.arrow.Split -->
<g id="edge21" class="edge"><title>cats.arrow.Arrow&#45;&gt;cats.arrow.Split</title>
<path fill="none" stroke="black" d="M728.7,-438.313C728.7,-430.289 728.7,-420.547 728.7,-411.569"/>
<polygon fill="black" stroke="black" points="732.2,-411.529 728.7,-401.529 725.2,-411.529 732.2,-411.529"/>
</g>
<!-- cats.functor.Strong -->
<g id="node21" class="node"><title>cats.functor.Strong</title>
<g id="a_node21"><a xlink:href="https://github.com/non/cats/tree/master/core/src/main/scala/cats/functor/Strong.scala" xlink:title="\N" target="_blank">
<polygon fill="#799f5a" stroke="black" points="797.817,-365.5 797.817,-401.5 919.583,-401.5 919.583,-365.5 797.817,-365.5"/>
<text text-anchor="middle" x="858.7" y="-379.3" font-family="Times,serif" font-size="14.00">cats.functor.Strong</text>
</a>
</g>
</g>
<!-- cats.arrow.Arrow&#45;&gt;cats.functor.Strong -->
<g id="edge22" class="edge"><title>cats.arrow.Arrow&#45;&gt;cats.functor.Strong</title>
<path fill="none" stroke="black" d="M759.838,-438.494C777.397,-428.904 799.529,-416.817 818.399,-406.511"/>
<polygon fill="black" stroke="black" points="820.267,-409.479 827.365,-401.614 816.911,-403.335 820.267,-409.479"/>
</g>
<!-- cats.arrow.Compose -->
<g id="node16" class="node"><title>cats.arrow.Compose</title>
<g id="a_node16"><a xlink:href="https://github.com/non/cats/tree/master/core/src/main/scala/cats/arrow/Compose.scala" xlink:title="\N" target="_blank">
<polygon fill="#799f5a" stroke="black" points="593.003,-292.5 593.003,-328.5 722.397,-328.5 722.397,-292.5 593.003,-292.5"/>
<text text-anchor="middle" x="657.7" y="-306.3" font-family="Times,serif" font-size="14.00">cats.arrow.Compose</text>
</a>
</g>
</g>
<!-- cats.arrow.Category&#45;&gt;cats.arrow.Compose -->
<g id="edge13" class="edge"><title>cats.arrow.Category&#45;&gt;cats.arrow.Compose</title>
<path fill="none" stroke="black" d="M610.709,-365.313C618.324,-356.592 627.713,-345.84 636.091,-336.246"/>
<polygon fill="black" stroke="black" points="638.889,-338.363 642.83,-328.529 633.616,-333.759 638.889,-338.363"/>
</g>
<!-- cats.arrow.Split&#45;&gt;cats.arrow.Compose -->
<g id="edge15" class="edge"><title>cats.arrow.Split&#45;&gt;cats.arrow.Compose</title>
<path fill="none" stroke="black" d="M711.513,-365.313C702.618,-356.417 691.61,-345.409 681.872,-335.672"/>
<polygon fill="black" stroke="black" points="684.275,-333.125 674.729,-328.529 679.325,-338.075 684.275,-333.125"/>
</g>
<!-- cats.functor.Contravariant -->
<g id="node18" class="node"><title>cats.functor.Contravariant</title>
<g id="a_node18"><a xlink:href="https://github.com/non/cats/tree/master/core/src/main/scala/cats/functor/Contravariant.scala" xlink:title="\N" target="_blank">
<polygon fill="#799f5a" stroke="black" points="0,-73.5 0,-109.5 161.4,-109.5 161.4,-73.5 0,-73.5"/>
<text text-anchor="middle" x="80.7002" y="-87.3" font-family="Times,serif" font-size="14.00">cats.functor.Contravariant</text>
</a>
</g>
</g>
<!-- cats.functor.Contravariant&#45;&gt;cats.functor.Invariant -->
<g id="edge20" class="edge"><title>cats.functor.Contravariant&#45;&gt;cats.functor.Invariant</title>
<path fill="none" stroke="black" d="M97.6452,-73.3129C106.415,-64.4174 117.268,-53.4094 126.869,-43.6717"/>
<polygon fill="black" stroke="black" points="129.383,-46.1072 133.911,-36.5288 124.398,-41.1926 129.383,-46.1072"/>
</g>
<!-- cats.functor.Profunctor -->
<g id="node20" class="node"><title>cats.functor.Profunctor</title>
<g id="a_node20"><a xlink:href="https://github.com/non/cats/tree/master/core/src/main/scala/cats/functor/Profunctor.scala" xlink:title="\N" target="_blank">
<polygon fill="#799f5a" stroke="black" points="786.548,-292.5 786.548,-328.5 930.852,-328.5 930.852,-292.5 786.548,-292.5"/>
<text text-anchor="middle" x="858.7" y="-306.3" font-family="Times,serif" font-size="14.00">cats.functor.Profunctor</text>
</a>
</g>
</g>
<!-- cats.functor.Strong&#45;&gt;cats.functor.Profunctor -->
<g id="edge14" class="edge"><title>cats.functor.Strong&#45;&gt;cats.functor.Profunctor</title>
<path fill="none" stroke="black" d="M858.7,-365.313C858.7,-357.289 858.7,-347.547 858.7,-338.569"/>
<polygon fill="black" stroke="black" points="862.2,-338.529 858.7,-328.529 855.2,-338.529 862.2,-338.529"/>
</g>
</g>
</svg>

