<?xml version="1.0" encoding="UTF-8" standalone="no"?>
<!DOCTYPE svg PUBLIC "-//W3C//DTD SVG 1.1//EN"
 "http://www.w3.org/Graphics/SVG/1.1/DTD/svg11.dtd">
<!-- Generated by graphviz version 2.38.0 (20140413.2041)
 -->
<!-- Title: dependency&#45;graph Pages: 1 -->
<svg width="1437pt" height="754pt"
 viewBox="0.00 0.00 1436.75 754.00" xmlns="http://www.w3.org/2000/svg" xmlns:xlink="http://www.w3.org/1999/xlink">
<g id="graph0" class="graph" transform="scale(1 1) rotate(0) translate(4 750)">
<title>grpc-all 0.9.0 dependency graph</title>
<polygon fill="white" stroke="none" points="-4,4 -4,-750 1432.75,-750 1432.75,4 -4,4"/>
<!-- io.grpc:grpc&#45;all:0.9.0 -->
<g id="node1" class="node"><title>io.grpc:grpc&#45;all:0.9.0</title>
<polygon fill="none" stroke="black" points="0,-468.5 0,-518.5 59.5312,-518.5 59.5312,-468.5 0,-468.5"/>
<text text-anchor="start" x="10.1328" y="-504.3" font-family="Times,serif" font-size="14.00">io.grpc</text>
<text text-anchor="start" x="8" y="-490.3" font-family="Times,serif" font-weight="bold" font-size="14.00">grpc&#45;all</text>
<text text-anchor="start" x="15.7656" y="-476.3" font-family="Times,serif" font-size="14.00">0.9.0</text>
</g>
<!-- io.grpc:grpc&#45;protobuf&#45;nano:0.9.0 -->
<g id="node2" class="node"><title>io.grpc:grpc&#45;protobuf&#45;nano:0.9.0</title>
<polygon fill="none" stroke="black" points="95.5312,-645.5 95.5312,-695.5 221.159,-695.5 221.159,-645.5 95.5312,-645.5"/>
<text text-anchor="start" x="138.712" y="-681.3" font-family="Times,serif" font-size="14.00">io.grpc</text>
<text text-anchor="start" x="103.531" y="-667.3" font-family="Times,serif" font-weight="bold" font-size="14.00">grpc&#45;protobuf&#45;nano</text>
<text text-anchor="start" x="144.345" y="-653.3" font-family="Times,serif" font-size="14.00">0.9.0</text>
</g>
<!-- io.grpc:grpc&#45;all:0.9.0&#45;&gt;io.grpc:grpc&#45;protobuf&#45;nano:0.9.0 -->
<g id="edge1" class="edge"><title>io.grpc:grpc&#45;all:0.9.0&#45;&gt;io.grpc:grpc&#45;protobuf&#45;nano:0.9.0</title>
<path fill="none" stroke="black" d="M36.9008,-518.741C45.509,-549.674 63.7877,-602.192 95.5312,-636.5 96.2799,-637.309 97.0523,-638.103 97.8458,-638.883"/>
<polygon fill="black" stroke="black" points="95.6375,-641.6 105.489,-645.498 100.219,-636.308 95.6375,-641.6"/>
</g>
<!-- io.grpc:grpc&#45;stub:0.9.0 -->
<g id="node4" class="node"><title>io.grpc:grpc&#45;stub:0.9.0</title>
<polygon fill="none" stroke="black" points="123.907,-468.5 123.907,-518.5 192.783,-518.5 192.783,-468.5 123.907,-468.5"/>
<text text-anchor="start" x="138.712" y="-504.3" font-family="Times,serif" font-size="14.00">io.grpc</text>
<text text-anchor="start" x="131.907" y="-490.3" font-family="Times,serif" font-weight="bold" font-size="14.00">grpc&#45;stub</text>
<text text-anchor="start" x="144.345" y="-476.3" font-family="Times,serif" font-size="14.00">0.9.0</text>
</g>
<!-- io.grpc:grpc&#45;all:0.9.0&#45;&gt;io.grpc:grpc&#45;stub:0.9.0 -->
<g id="edge3" class="edge"><title>io.grpc:grpc&#45;all:0.9.0&#45;&gt;io.grpc:grpc&#45;stub:0.9.0</title>
<path fill="none" stroke="black" d="M59.8055,-493.5C75.6694,-493.5 95.6414,-493.5 113.375,-493.5"/>
<polygon fill="black" stroke="black" points="113.51,-497 123.51,-493.5 113.51,-490 113.51,-497"/>
</g>
<!-- io.grpc:grpc&#45;okhttp:0.9.0 -->
<g id="node5" class="node"><title>io.grpc:grpc&#45;okhttp:0.9.0</title>
<polygon fill="none" stroke="black" points="117.687,-399.5 117.687,-449.5 199.004,-449.5 199.004,-399.5 117.687,-399.5"/>
<text text-anchor="start" x="138.712" y="-435.3" font-family="Times,serif" font-size="14.00">io.grpc</text>
<text text-anchor="start" x="125.687" y="-421.3" font-family="Times,serif" font-weight="bold" font-size="14.00">grpc&#45;okhttp</text>
<text text-anchor="start" x="144.345" y="-407.3" font-family="Times,serif" font-size="14.00">0.9.0</text>
</g>
<!-- io.grpc:grpc&#45;all:0.9.0&#45;&gt;io.grpc:grpc&#45;okhttp:0.9.0 -->
<g id="edge4" class="edge"><title>io.grpc:grpc&#45;all:0.9.0&#45;&gt;io.grpc:grpc&#45;okhttp:0.9.0</title>
<path fill="none" stroke="black" d="M59.8055,-477.67C74.2164,-469.814 92.0175,-460.111 108.451,-451.153"/>
<polygon fill="black" stroke="black" points="110.305,-454.128 117.41,-446.269 106.955,-447.982 110.305,-454.128"/>
</g>
<!-- io.grpc:grpc&#45;auth:0.9.0 -->
<g id="node8" class="node"><title>io.grpc:grpc&#45;auth:0.9.0</title>
<polygon fill="none" stroke="black" points="123.524,-330.5 123.524,-380.5 193.166,-380.5 193.166,-330.5 123.524,-330.5"/>
<text text-anchor="start" x="138.712" y="-366.3" font-family="Times,serif" font-size="14.00">io.grpc</text>
<text text-anchor="start" x="131.524" y="-352.3" font-family="Times,serif" font-weight="bold" font-size="14.00">grpc&#45;auth</text>
<text text-anchor="start" x="144.345" y="-338.3" font-family="Times,serif" font-size="14.00">0.9.0</text>
</g>
<!-- io.grpc:grpc&#45;all:0.9.0&#45;&gt;io.grpc:grpc&#45;auth:0.9.0 -->
<g id="edge7" class="edge"><title>io.grpc:grpc&#45;all:0.9.0&#45;&gt;io.grpc:grpc&#45;auth:0.9.0</title>
<path fill="none" stroke="black" d="M41.8776,-468.297C52.9026,-445.517 71.5965,-412.174 95.5312,-389.5 101.221,-384.111 107.927,-379.291 114.788,-375.094"/>
<polygon fill="black" stroke="black" points="116.552,-378.117 123.494,-370.113 113.076,-372.04 116.552,-378.117"/>
</g>
<!-- io.grpc:grpc&#45;netty:0.9.0 -->
<g id="node18" class="node"><title>io.grpc:grpc&#45;netty:0.9.0</title>
<polygon fill="none" stroke="black" points="121.58,-207.5 121.58,-257.5 195.111,-257.5 195.111,-207.5 121.58,-207.5"/>
<text text-anchor="start" x="138.712" y="-243.3" font-family="Times,serif" font-size="14.00">io.grpc</text>
<text text-anchor="start" x="129.58" y="-229.3" font-family="Times,serif" font-weight="bold" font-size="14.00">grpc&#45;netty</text>
<text text-anchor="start" x="144.345" y="-215.3" font-family="Times,serif" font-size="14.00">0.9.0</text>
</g>
<!-- io.grpc:grpc&#45;all:0.9.0&#45;&gt;io.grpc:grpc&#45;netty:0.9.0 -->
<g id="edge18" class="edge"><title>io.grpc:grpc&#45;all:0.9.0&#45;&gt;io.grpc:grpc&#45;netty:0.9.0</title>
<path fill="none" stroke="black" d="M37.9851,-468.296C48.346,-433.832 69.1275,-370.569 95.5312,-320.5 105.617,-301.374 119.228,-281.543 131.111,-265.559"/>
<polygon fill="black" stroke="black" points="133.907,-267.665 137.139,-257.575 128.32,-263.447 133.907,-267.665"/>
</g>
<!-- io.grpc:grpc&#45;protobuf:0.9.0 -->
<g id="node29" class="node"><title>io.grpc:grpc&#45;protobuf:0.9.0</title>
<polygon fill="none" stroke="black" points="111.469,-576.5 111.469,-626.5 205.221,-626.5 205.221,-576.5 111.469,-576.5"/>
<text text-anchor="start" x="138.712" y="-612.3" font-family="Times,serif" font-size="14.00">io.grpc</text>
<text text-anchor="start" x="119.469" y="-598.3" font-family="Times,serif" font-weight="bold" font-size="14.00">grpc&#45;protobuf</text>
<text text-anchor="start" x="144.345" y="-584.3" font-family="Times,serif" font-size="14.00">0.9.0</text>
</g>
<!-- io.grpc:grpc&#45;all:0.9.0&#45;&gt;io.grpc:grpc&#45;protobuf:0.9.0 -->
<g id="edge35" class="edge"><title>io.grpc:grpc&#45;all:0.9.0&#45;&gt;io.grpc:grpc&#45;protobuf:0.9.0</title>
<path fill="none" stroke="black" d="M52.2509,-518.804C64.2843,-532.243 79.966,-548.6 95.5312,-561.5 99.2127,-564.551 103.138,-567.565 107.157,-570.486"/>
<polygon fill="black" stroke="black" points="105.296,-573.456 115.492,-576.337 109.318,-567.727 105.296,-573.456"/>
</g>
<!-- io.grpc:grpc&#45;core:0.9.0 -->
<g id="node30" class="node"><title>io.grpc:grpc&#45;core:0.9.0</title>
<polygon fill="none" stroke="black" points="319.373,-480.5 319.373,-530.5 389.001,-530.5 389.001,-480.5 319.373,-480.5"/>
<text text-anchor="start" x="334.554" y="-516.3" font-family="Times,serif" font-size="14.00">io.grpc</text>
<text text-anchor="start" x="327.373" y="-502.3" font-family="Times,serif" font-weight="bold" font-size="14.00">grpc&#45;core</text>
<text text-anchor="start" x="340.187" y="-488.3" font-family="Times,serif" font-size="14.00">0.9.0</text>
</g>
<!-- io.grpc:grpc&#45;all:0.9.0&#45;&gt;io.grpc:grpc&#45;core:0.9.0 -->
<g id="edge36" class="edge"><title>io.grpc:grpc&#45;all:0.9.0&#45;&gt;io.grpc:grpc&#45;core:0.9.0</title>
<path fill="none" stroke="black" d="M59.5466,-512.423C70.3699,-518.49 83.0779,-524.43 95.5312,-527.5 169.089,-545.634 257.627,-530.302 309.434,-517.744"/>
<polygon fill="black" stroke="black" points="310.438,-521.101 319.29,-515.28 308.74,-514.31 310.438,-521.101"/>
</g>
<!-- com.google.protobuf.nano:protobuf&#45;javanano:3.0.0&#45;alpha&#45;4 -->
<g id="node3" class="node"><title>com.google.protobuf.nano:protobuf&#45;javanano:3.0.0&#45;alpha&#45;4</title>
<polygon fill="none" stroke="black" points="272.12,-695.5 272.12,-745.5 436.254,-745.5 436.254,-695.5 272.12,-695.5"/>
<text text-anchor="start" x="280.12" y="-731.3" font-family="Times,serif" font-size="14.00">com.google.protobuf.nano</text>
<text text-anchor="start" x="302.483" y="-717.3" font-family="Times,serif" font-weight="bold" font-size="14.00">protobuf&#45;javanano</text>
<text text-anchor="start" x="316.866" y="-703.3" font-family="Times,serif" font-size="14.00">3.0.0&#45;alpha&#45;4</text>
</g>
<!-- io.grpc:grpc&#45;protobuf&#45;nano:0.9.0&#45;&gt;com.google.protobuf.nano:protobuf&#45;javanano:3.0.0&#45;alpha&#45;4 -->
<g id="edge2" class="edge"><title>io.grpc:grpc&#45;protobuf&#45;nano:0.9.0&#45;&gt;com.google.protobuf.nano:protobuf&#45;javanano:3.0.0&#45;alpha&#45;4</title>
<path fill="none" stroke="black" d="M221.211,-686.458C234.228,-689.815 248.22,-693.425 262.055,-696.993"/>
<polygon fill="black" stroke="black" points="261.527,-700.471 272.084,-699.58 263.275,-693.693 261.527,-700.471"/>
</g>
<!-- io.grpc:grpc&#45;protobuf&#45;nano:0.9.0&#45;&gt;io.grpc:grpc&#45;core:0.9.0 -->
<g id="edge42" class="edge"><title>io.grpc:grpc&#45;protobuf&#45;nano:0.9.0&#45;&gt;io.grpc:grpc&#45;core:0.9.0</title>
<path fill="none" stroke="black" d="M211.75,-645.491C215.17,-642.74 218.36,-639.746 221.159,-636.5 251.191,-601.677 224.399,-571.77 257.159,-539.5 271.192,-525.677 291.19,-517.447 309.308,-512.558"/>
<polygon fill="black" stroke="black" points="310.238,-515.934 319.129,-510.172 308.586,-509.132 310.238,-515.934"/>
</g>
<!-- com.google.guava:guava:18.0 -->
<g id="node33" class="node"><title>com.google.guava:guava:18.0</title>
<polygon fill="none" stroke="black" points="522.97,-603.5 522.97,-653.5 641.605,-653.5 641.605,-603.5 522.97,-603.5"/>
<text text-anchor="start" x="530.97" y="-639.3" font-family="Times,serif" font-size="14.00">com.google.guava</text>
<text text-anchor="start" x="565.574" y="-625.3" font-family="Times,serif" font-weight="bold" font-size="14.00">guava</text>
<text text-anchor="start" x="570.038" y="-611.3" font-family="Times,serif" font-size="14.00">18.0</text>
</g>
<!-- io.grpc:grpc&#45;protobuf&#45;nano:0.9.0&#45;&gt;com.google.guava:guava:18.0 -->
<g id="edge48" class="edge"><title>io.grpc:grpc&#45;protobuf&#45;nano:0.9.0&#45;&gt;com.google.guava:guava:18.0</title>
<path fill="none" stroke="black" d="M221.604,-664.303C299.426,-656.556 432.177,-643.342 512.803,-635.317"/>
<polygon fill="black" stroke="black" points="513.25,-638.79 522.854,-634.316 512.556,-631.824 513.25,-638.79"/>
</g>
<!-- io.grpc:grpc&#45;stub:0.9.0&#45;&gt;io.grpc:grpc&#45;core:0.9.0 -->
<g id="edge39" class="edge"><title>io.grpc:grpc&#45;stub:0.9.0&#45;&gt;io.grpc:grpc&#45;core:0.9.0</title>
<path fill="none" stroke="black" d="M193.11,-495.59C225.294,-497.583 273.936,-500.594 309.151,-502.774"/>
<polygon fill="black" stroke="black" points="308.962,-506.269 319.159,-503.393 309.394,-499.282 308.962,-506.269"/>
</g>
<!-- com.squareup.okhttp:okhttp:2.4.0 -->
<g id="node6" class="node"><title>com.squareup.okhttp:okhttp:2.4.0</title>
<polygon fill="none" stroke="black" points="287.477,-403.5 287.477,-453.5 420.897,-453.5 420.897,-403.5 287.477,-403.5"/>
<text text-anchor="start" x="295.477" y="-439.3" font-family="Times,serif" font-size="14.00">com.squareup.okhttp</text>
<text text-anchor="start" x="336.297" y="-425.3" font-family="Times,serif" font-weight="bold" font-size="14.00">okhttp</text>
<text text-anchor="start" x="340.187" y="-411.3" font-family="Times,serif" font-size="14.00">2.4.0</text>
</g>
<!-- io.grpc:grpc&#45;okhttp:0.9.0&#45;&gt;com.squareup.okhttp:okhttp:2.4.0 -->
<g id="edge5" class="edge"><title>io.grpc:grpc&#45;okhttp:0.9.0&#45;&gt;com.squareup.okhttp:okhttp:2.4.0</title>
<path fill="none" stroke="black" d="M199.04,-425.319C221.531,-425.783 250.428,-426.38 277.113,-426.93"/>
<polygon fill="black" stroke="black" points="277.143,-430.431 287.213,-427.139 277.288,-423.433 277.143,-430.431"/>
</g>
<!-- io.grpc:grpc&#45;okhttp:0.9.0&#45;&gt;io.grpc:grpc&#45;core:0.9.0 -->
<g id="edge40" class="edge"><title>io.grpc:grpc&#45;okhttp:0.9.0&#45;&gt;io.grpc:grpc&#45;core:0.9.0</title>
<path fill="none" stroke="black" d="M199.04,-441.087C231.3,-454.567 276.738,-473.554 309.922,-487.421"/>
<polygon fill="black" stroke="black" points="308.791,-490.741 319.367,-491.368 311.49,-484.283 308.791,-490.741"/>
</g>
<!-- com.squareup.okio:okio:1.4.0 -->
<g id="node7" class="node"><title>com.squareup.okio:okio:1.4.0</title>
<polygon fill="none" stroke="black" points="521.022,-453.5 521.022,-503.5 643.553,-503.5 643.553,-453.5 521.022,-453.5"/>
<text text-anchor="start" x="529.022" y="-489.3" font-family="Times,serif" font-size="14.00">com.squareup.okio</text>
<text text-anchor="start" x="569.843" y="-475.3" font-family="Times,serif" font-weight="bold" font-size="14.00">okio</text>
<text text-anchor="start" x="568.288" y="-461.3" font-family="Times,serif" font-size="14.00">1.4.0</text>
</g>
<!-- com.squareup.okhttp:okhttp:2.4.0&#45;&gt;com.squareup.okio:okio:1.4.0 -->
<g id="edge6" class="edge"><title>com.squareup.okhttp:okhttp:2.4.0&#45;&gt;com.squareup.okio:okio:1.4.0</title>
<path fill="none" stroke="black" d="M421.192,-443.096C449.409,-449.336 482.385,-456.629 511.051,-462.968"/>
<polygon fill="black" stroke="black" points="510.476,-466.425 520.996,-465.167 511.988,-459.59 510.476,-466.425"/>
</g>
<!-- com.google.auth:google&#45;auth&#45;library&#45;oauth2&#45;http:0.3.0 -->
<g id="node9" class="node"><title>com.google.auth:google&#45;auth&#45;library&#45;oauth2&#45;http:0.3.0</title>
<polygon fill="none" stroke="black" points="257.159,-330.5 257.159,-380.5 451.215,-380.5 451.215,-330.5 257.159,-330.5"/>
<text text-anchor="start" x="307.532" y="-366.3" font-family="Times,serif" font-size="14.00">com.google.auth</text>
<text text-anchor="start" x="265.159" y="-352.3" font-family="Times,serif" font-weight="bold" font-size="14.00">google&#45;auth&#45;library&#45;oauth2&#45;http</text>
<text text-anchor="start" x="340.187" y="-338.3" font-family="Times,serif" font-size="14.00">0.3.0</text>
</g>
<!-- io.grpc:grpc&#45;auth:0.9.0&#45;&gt;com.google.auth:google&#45;auth&#45;library&#45;oauth2&#45;http:0.3.0 -->
<g id="edge8" class="edge"><title>io.grpc:grpc&#45;auth:0.9.0&#45;&gt;com.google.auth:google&#45;auth&#45;library&#45;oauth2&#45;http:0.3.0</title>
<path fill="none" stroke="black" d="M193.554,-355.5C208.733,-355.5 227.508,-355.5 246.789,-355.5"/>
<polygon fill="black" stroke="black" points="246.901,-359 256.901,-355.5 246.901,-352 246.901,-359"/>
</g>
<!-- io.grpc:grpc&#45;auth:0.9.0&#45;&gt;io.grpc:grpc&#45;core:0.9.0 -->
<g id="edge38" class="edge"><title>io.grpc:grpc&#45;auth:0.9.0&#45;&gt;io.grpc:grpc&#45;core:0.9.0</title>
<path fill="none" stroke="black" d="M193.359,-369.456C203.198,-374.675 213.372,-381.356 221.159,-389.5 246.161,-415.645 231.109,-437.4 257.159,-462.5 271.699,-476.509 291.584,-486.437 309.489,-493.196"/>
<polygon fill="black" stroke="black" points="308.591,-496.591 319.186,-496.631 310.929,-489.993 308.591,-496.591"/>
</g>
<!-- com.google.http&#45;client:google&#45;http&#45;client&#45;jackson2:1.19.0 -->
<g id="node10" class="node"><title>com.google.http&#45;client:google&#45;http&#45;client&#45;jackson2:1.19.0</title>
<polygon fill="none" stroke="black" points="496.922,-384.5 496.922,-434.5 667.653,-434.5 667.653,-384.5 496.922,-384.5"/>
<text text-anchor="start" x="518.915" y="-420.3" font-family="Times,serif" font-size="14.00">com.google.http&#45;client</text>
<text text-anchor="start" x="504.922" y="-406.3" font-family="Times,serif" font-weight="bold" font-size="14.00">google&#45;http&#45;client&#45;jackson2</text>
<text text-anchor="start" x="564.788" y="-392.3" font-family="Times,serif" font-size="14.00">1.19.0</text>
</g>
<!-- com.google.auth:google&#45;auth&#45;library&#45;oauth2&#45;http:0.3.0&#45;&gt;com.google.http&#45;client:google&#45;http&#45;client&#45;jackson2:1.19.0 -->
<g id="edge9" class="edge"><title>com.google.auth:google&#45;auth&#45;library&#45;oauth2&#45;http:0.3.0&#45;&gt;com.google.http&#45;client:google&#45;http&#45;client&#45;jackson2:1.19.0</title>
<path fill="none" stroke="black" d="M451.402,-378.479C463.139,-381.282 475.125,-384.145 486.836,-386.942"/>
<polygon fill="black" stroke="black" points="486.058,-390.355 496.598,-389.273 487.685,-383.546 486.058,-390.355"/>
</g>
<!-- com.google.http&#45;client:google&#45;http&#45;client:1.19.0 -->
<g id="node12" class="node"><title>com.google.http&#45;client:google&#45;http&#45;client:1.19.0</title>
<polygon fill="none" stroke="black" points="727.152,-370.5 727.152,-420.5 869.897,-420.5 869.897,-370.5 727.152,-370.5"/>
<text text-anchor="start" x="735.152" y="-406.3" font-family="Times,serif" font-size="14.00">com.google.http&#45;client</text>
<text text-anchor="start" x="748.373" y="-392.3" font-family="Times,serif" font-weight="bold" font-size="14.00">google&#45;http&#45;client</text>
<text text-anchor="start" x="781.024" y="-378.3" font-family="Times,serif" font-size="14.00">1.19.0</text>
</g>
<!-- com.google.auth:google&#45;auth&#45;library&#45;oauth2&#45;http:0.3.0&#45;&gt;com.google.http&#45;client:google&#45;http&#45;client:1.19.0 -->
<g id="edge11" class="edge"><title>com.google.auth:google&#45;auth&#45;library&#45;oauth2&#45;http:0.3.0&#45;&gt;com.google.http&#45;client:google&#45;http&#45;client:1.19.0</title>
<path fill="none" stroke="black" d="M451.299,-358.299C515.476,-360.872 601.671,-365.684 677.36,-374.5 690.184,-375.994 703.714,-377.967 716.887,-380.106"/>
<polygon fill="black" stroke="black" points="716.434,-383.579 726.874,-381.77 717.585,-376.674 716.434,-383.579"/>
</g>
<!-- com.google.auth:google&#45;auth&#45;library&#45;credentials:0.3.0 -->
<g id="node17" class="node"><title>com.google.auth:google&#45;auth&#45;library&#45;credentials:0.3.0</title>
<polygon fill="none" stroke="black" points="487.215,-276.5 487.215,-326.5 677.36,-326.5 677.36,-276.5 487.215,-276.5"/>
<text text-anchor="start" x="535.632" y="-312.3" font-family="Times,serif" font-size="14.00">com.google.auth</text>
<text text-anchor="start" x="495.215" y="-298.3" font-family="Times,serif" font-weight="bold" font-size="14.00">google&#45;auth&#45;library&#45;credentials</text>
<text text-anchor="start" x="568.288" y="-284.3" font-family="Times,serif" font-size="14.00">0.3.0</text>
</g>
<!-- com.google.auth:google&#45;auth&#45;library&#45;oauth2&#45;http:0.3.0&#45;&gt;com.google.auth:google&#45;auth&#45;library&#45;credentials:0.3.0 -->
<g id="edge17" class="edge"><title>com.google.auth:google&#45;auth&#45;library&#45;oauth2&#45;http:0.3.0&#45;&gt;com.google.auth:google&#45;auth&#45;library&#45;credentials:0.3.0</title>
<path fill="none" stroke="black" d="M451.402,-332.521C459.868,-330.499 468.463,-328.446 476.991,-326.409"/>
<polygon fill="black" stroke="black" points="478.047,-329.756 486.96,-324.028 476.42,-322.947 478.047,-329.756"/>
</g>
<!-- com.fasterxml.jackson.core:jackson&#45;core:2.1.3 -->
<g id="node11" class="node"><title>com.fasterxml.jackson.core:jackson&#45;core:2.1.3</title>
<polygon fill="none" stroke="black" points="713.36,-439.5 713.36,-489.5 883.688,-489.5 883.688,-439.5 713.36,-439.5"/>
<text text-anchor="start" x="721.36" y="-475.3" font-family="Times,serif" font-size="14.00">com.fasterxml.jackson.core</text>
<text text-anchor="start" x="762.766" y="-461.3" font-family="Times,serif" font-weight="bold" font-size="14.00">jackson&#45;core</text>
<text text-anchor="start" x="784.524" y="-447.3" font-family="Times,serif" font-size="14.00">2.1.3</text>
</g>
<!-- com.google.http&#45;client:google&#45;http&#45;client&#45;jackson2:1.19.0&#45;&gt;com.fasterxml.jackson.core:jackson&#45;core:2.1.3 -->
<g id="edge10" class="edge"><title>com.google.http&#45;client:google&#45;http&#45;client&#45;jackson2:1.19.0&#45;&gt;com.fasterxml.jackson.core:jackson&#45;core:2.1.3</title>
<path fill="none" stroke="black" d="M667.96,-431.237C679.564,-434.217 691.537,-437.29 703.299,-440.31"/>
<polygon fill="black" stroke="black" points="702.56,-443.734 713.117,-442.83 704.301,-436.954 702.56,-443.734"/>
</g>
<!-- com.google.http&#45;client:google&#45;http&#45;client&#45;jackson2:1.19.0&#45;&gt;com.google.http&#45;client:google&#45;http&#45;client:1.19.0 -->
<g id="edge12" class="edge"><title>com.google.http&#45;client:google&#45;http&#45;client&#45;jackson2:1.19.0&#45;&gt;com.google.http&#45;client:google&#45;http&#45;client:1.19.0</title>
<path fill="none" stroke="black" d="M667.96,-403.967C683.982,-402.92 700.706,-401.827 716.609,-400.788"/>
<polygon fill="black" stroke="black" points="717.175,-404.258 726.925,-400.114 716.718,-397.273 717.175,-404.258"/>
</g>
<!-- org.apache.httpcomponents:httpclient:4.0.1 -->
<g id="node14" class="node"><title>org.apache.httpcomponents:httpclient:4.0.1</title>
<polygon fill="none" stroke="black" points="919.688,-320.5 919.688,-370.5 1089.39,-370.5 1089.39,-320.5 919.688,-320.5"/>
<text text-anchor="start" x="927.688" y="-356.3" font-family="Times,serif" font-size="14.00">org.apache.httpcomponents</text>
<text text-anchor="start" x="978.104" y="-342.3" font-family="Times,serif" font-weight="bold" font-size="14.00">httpclient</text>
<text text-anchor="start" x="990.542" y="-328.3" font-family="Times,serif" font-size="14.00">4.0.1</text>
</g>
<!-- com.google.http&#45;client:google&#45;http&#45;client:1.19.0&#45;&gt;org.apache.httpcomponents:httpclient:4.0.1 -->
<g id="edge14" class="edge"><title>com.google.http&#45;client:google&#45;http&#45;client:1.19.0&#45;&gt;org.apache.httpcomponents:httpclient:4.0.1</title>
<path fill="none" stroke="black" d="M870.021,-378.223C882.687,-375.119 896.072,-371.838 909.282,-368.601"/>
<polygon fill="black" stroke="black" points="910.455,-371.917 919.335,-366.137 908.789,-365.118 910.455,-371.917"/>
</g>
<!-- com.google.code.findbugs:jsr305:3.0.0 -->
<g id="node31" class="node"><title>com.google.code.findbugs:jsr305:3.0.0</title>
<polygon fill="none" stroke="black" points="922.857,-493.5 922.857,-543.5 1086.23,-543.5 1086.23,-493.5 922.857,-493.5"/>
<text text-anchor="start" x="930.857" y="-529.3" font-family="Times,serif" font-size="14.00">com.google.code.findbugs</text>
<text text-anchor="start" x="987.042" y="-515.3" font-family="Times,serif" font-weight="bold" font-size="14.00">jsr305</text>
<text text-anchor="start" x="990.542" y="-501.3" font-family="Times,serif" font-size="14.00">3.0.0</text>
</g>
<!-- com.google.http&#45;client:google&#45;http&#45;client:1.19.0&#45;&gt;com.google.code.findbugs:jsr305:3.0.0 -->
<g id="edge43" class="edge"><title>com.google.http&#45;client:google&#45;http&#45;client:1.19.0&#45;&gt;com.google.code.findbugs:jsr305:3.0.0</title>
<path fill="none" stroke="black" d="M866.425,-420.681C872.357,-423.465 878.191,-426.415 883.688,-429.5 912.877,-445.878 943.117,-468.38 965.919,-486.66"/>
<polygon fill="black" stroke="black" points="963.996,-489.607 973.968,-493.185 968.404,-484.169 963.996,-489.607"/>
</g>
<!-- com.google.code.findbugs:jsr305:1.3.9 -->
<g id="node32" class="node"><title>com.google.code.findbugs:jsr305:1.3.9</title>
<polygon fill="none" stroke="black" points="922.857,-389.5 922.857,-439.5 1086.23,-439.5 1086.23,-389.5 922.857,-389.5"/>
<text text-anchor="start" x="930.857" y="-425.3" font-family="Times,serif" font-size="14.00">com.google.code.findbugs</text>
<text text-anchor="start" x="987.042" y="-411.3" font-family="Times,serif" font-weight="bold" font-size="14.00">jsr305</text>
<text text-anchor="start" x="990.542" y="-397.3" font-family="Times,serif" font-size="14.00">1.3.9</text>
</g>
<!-- com.google.http&#45;client:google&#45;http&#45;client:1.19.0&#45;&gt;com.google.code.findbugs:jsr305:1.3.9 -->
<g id="edge45" class="edge"><title>com.google.http&#45;client:google&#45;http&#45;client:1.19.0&#45;&gt;com.google.code.findbugs:jsr305:1.3.9</title>
<path fill="none" stroke="black" d="M870.021,-402.065C883.645,-403.334 898.101,-404.68 912.277,-406.001"/>
<polygon fill="black" stroke="black" points="912.252,-409.513 922.534,-406.956 912.901,-402.543 912.252,-409.513"/>
</g>
<!-- commons&#45;codec:commons&#45;codec:1.6 -->
<g id="node13" class="node"><title>commons&#45;codec:commons&#45;codec:1.6</title>
<polygon fill="none" stroke="black" points="1156.38,-389.5 1156.38,-439.5 1264.12,-439.5 1264.12,-389.5 1156.38,-389.5"/>
<text text-anchor="start" x="1164.38" y="-425.3" font-family="Times,serif" font-size="14.00">commons&#45;codec</text>
<text text-anchor="start" x="1164.38" y="-411.3" font-family="Times,serif" font-weight="bold" font-size="14.00">commons&#45;codec</text>
<text text-anchor="start" x="1201.5" y="-397.3" font-family="Times,serif" font-size="14.00">1.6</text>
</g>
<!-- org.apache.httpcomponents:httpclient:4.0.1&#45;&gt;commons&#45;codec:commons&#45;codec:1.6 -->
<g id="edge13" class="edge"><title>org.apache.httpcomponents:httpclient:4.0.1&#45;&gt;commons&#45;codec:commons&#45;codec:1.6</title>
<path fill="none" stroke="black" d="M1079.37,-370.508C1101.39,-377.966 1125.3,-386.067 1146.54,-393.26"/>
<polygon fill="black" stroke="black" points="1145.5,-396.602 1156.09,-396.495 1147.74,-389.972 1145.5,-396.602"/>
</g>
<!-- commons&#45;logging:commons&#45;logging:1.1.1 -->
<g id="node15" class="node"><title>commons&#45;logging:commons&#45;logging:1.1.1</title>
<polygon fill="none" stroke="black" points="1151.31,-320.5 1151.31,-370.5 1269.19,-370.5 1269.19,-320.5 1151.31,-320.5"/>
<text text-anchor="start" x="1159.31" y="-356.3" font-family="Times,serif" font-size="14.00">commons&#45;logging</text>
<text text-anchor="start" x="1159.31" y="-342.3" font-family="Times,serif" font-weight="bold" font-size="14.00">commons&#45;logging</text>
<text text-anchor="start" x="1196.25" y="-328.3" font-family="Times,serif" font-size="14.00">1.1.1</text>
</g>
<!-- org.apache.httpcomponents:httpclient:4.0.1&#45;&gt;commons&#45;logging:commons&#45;logging:1.1.1 -->
<g id="edge15" class="edge"><title>org.apache.httpcomponents:httpclient:4.0.1&#45;&gt;commons&#45;logging:commons&#45;logging:1.1.1</title>
<path fill="none" stroke="black" d="M1089.57,-345.5C1106.73,-345.5 1124.58,-345.5 1141.09,-345.5"/>
<polygon fill="black" stroke="black" points="1141.19,-349 1151.19,-345.5 1141.19,-342 1141.19,-349"/>
</g>
<!-- org.apache.httpcomponents:httpcore:4.0.1 -->
<g id="node16" class="node"><title>org.apache.httpcomponents:httpcore:4.0.1</title>
<polygon fill="none" stroke="black" points="1125.39,-251.5 1125.39,-301.5 1295.1,-301.5 1295.1,-251.5 1125.39,-251.5"/>
<text text-anchor="start" x="1133.39" y="-287.3" font-family="Times,serif" font-size="14.00">org.apache.httpcomponents</text>
<text text-anchor="start" x="1187.31" y="-273.3" font-family="Times,serif" font-weight="bold" font-size="14.00">httpcore</text>
<text text-anchor="start" x="1196.25" y="-259.3" font-family="Times,serif" font-size="14.00">4.0.1</text>
</g>
<!-- org.apache.httpcomponents:httpclient:4.0.1&#45;&gt;org.apache.httpcomponents:httpcore:4.0.1 -->
<g id="edge16" class="edge"><title>org.apache.httpcomponents:httpclient:4.0.1&#45;&gt;org.apache.httpcomponents:httpcore:4.0.1</title>
<path fill="none" stroke="black" d="M1079.37,-320.492C1094.46,-315.382 1110.43,-309.97 1125.83,-304.756"/>
<polygon fill="black" stroke="black" points="1126.98,-308.062 1135.33,-301.539 1124.73,-301.432 1126.98,-308.062"/>
</g>
<!-- io.netty:netty&#45;codec&#45;http2:4.1.0.Beta6 -->
<g id="node19" class="node"><title>io.netty:netty&#45;codec&#45;http2:4.1.0.Beta6</title>
<polygon fill="none" stroke="black" points="296.818,-138.5 296.818,-188.5 411.556,-188.5 411.556,-138.5 296.818,-138.5"/>
<text text-anchor="start" x="332.996" y="-174.3" font-family="Times,serif" font-size="14.00">io.netty</text>
<text text-anchor="start" x="304.818" y="-160.3" font-family="Times,serif" font-weight="bold" font-size="14.00">netty&#45;codec&#45;http2</text>
<text text-anchor="start" x="322.109" y="-146.3" font-family="Times,serif" font-size="14.00">4.1.0.Beta6</text>
</g>
<!-- io.grpc:grpc&#45;netty:0.9.0&#45;&gt;io.netty:netty&#45;codec&#45;http2:4.1.0.Beta6 -->
<g id="edge19" class="edge"><title>io.grpc:grpc&#45;netty:0.9.0&#45;&gt;io.netty:netty&#45;codec&#45;http2:4.1.0.Beta6</title>
<path fill="none" stroke="black" d="M195.351,-219.683C221.038,-210.54 256.325,-197.979 287.02,-187.053"/>
<polygon fill="black" stroke="black" points="288.559,-190.22 296.807,-183.569 286.212,-183.625 288.559,-190.22"/>
</g>
<!-- com.twitter:hpack:0.11.0 -->
<g id="node20" class="node"><title>com.twitter:hpack:0.11.0</title>
<polygon fill="none" stroke="black" points="542.213,-207.5 542.213,-257.5 622.362,-257.5 622.362,-207.5 542.213,-207.5"/>
<text text-anchor="start" x="550.213" y="-243.3" font-family="Times,serif" font-size="14.00">com.twitter</text>
<text text-anchor="start" x="565.574" y="-229.3" font-family="Times,serif" font-weight="bold" font-size="14.00">hpack</text>
<text text-anchor="start" x="565.044" y="-215.3" font-family="Times,serif" font-size="14.00">0.11.0</text>
</g>
<!-- io.grpc:grpc&#45;netty:0.9.0&#45;&gt;com.twitter:hpack:0.11.0 -->
<g id="edge21" class="edge"><title>io.grpc:grpc&#45;netty:0.9.0&#45;&gt;com.twitter:hpack:0.11.0</title>
<path fill="none" stroke="black" d="M195.32,-232.5C270.869,-232.5 446.134,-232.5 532.037,-232.5"/>
<polygon fill="black" stroke="black" points="532.057,-236 542.057,-232.5 532.057,-229 532.057,-236"/>
</g>
<!-- com.twitter:hpack:0.10.1 -->
<g id="node21" class="node"><title>com.twitter:hpack:0.10.1</title>
<polygon fill="none" stroke="black" points="542.213,-0.5 542.213,-50.5 622.362,-50.5 622.362,-0.5 542.213,-0.5"/>
<text text-anchor="start" x="550.213" y="-36.3" font-family="Times,serif" font-size="14.00">com.twitter</text>
<text text-anchor="start" x="565.574" y="-22.3" font-family="Times,serif" font-weight="bold" font-size="14.00">hpack</text>
<text text-anchor="start" x="564.788" y="-8.3" font-family="Times,serif" font-size="14.00">0.10.1</text>
</g>
<!-- io.grpc:grpc&#45;netty:0.9.0&#45;&gt;com.twitter:hpack:0.10.1 -->
<g id="edge23" class="edge"><title>io.grpc:grpc&#45;netty:0.9.0&#45;&gt;com.twitter:hpack:0.10.1</title>
<path fill="none" stroke="black" d="M177.141,-207.171C194.899,-183.651 224.227,-149.232 257.159,-128.5 345.143,-73.1103 465.435,-45.1882 531.967,-33.1527"/>
<polygon fill="black" stroke="black" points="532.929,-36.5372 542.17,-31.3557 531.715,-29.6433 532.929,-36.5372"/>
</g>
<!-- io.grpc:grpc&#45;netty:0.9.0&#45;&gt;io.grpc:grpc&#45;core:0.9.0 -->
<g id="edge41" class="edge"><title>io.grpc:grpc&#45;netty:0.9.0&#45;&gt;io.grpc:grpc&#45;core:0.9.0</title>
<path fill="none" stroke="black" d="M180.672,-257.542C194.03,-274.374 210.645,-297.593 221.159,-320.5 248.32,-379.672 215.264,-412.663 257.159,-462.5 270.572,-478.455 291.107,-488.73 309.749,-495.219"/>
<polygon fill="black" stroke="black" points="308.687,-498.553 319.278,-498.276 310.826,-491.888 308.687,-498.553"/>
</g>
<!-- io.netty:netty&#45;codec&#45;http2:4.1.0.Beta6&#45;&gt;com.twitter:hpack:0.11.0 -->
<g id="edge20" class="edge"><title>io.netty:netty&#45;codec&#45;http2:4.1.0.Beta6&#45;&gt;com.twitter:hpack:0.11.0</title>
<path fill="none" stroke="black" d="M411.658,-180.734C448.841,-192.081 497.026,-206.786 532.534,-217.622"/>
<polygon fill="black" stroke="black" points="531.607,-220.998 542.193,-220.569 533.65,-214.303 531.607,-220.998"/>
</g>
<!-- io.netty:netty&#45;codec&#45;http2:4.1.0.Beta6&#45;&gt;com.twitter:hpack:0.10.1 -->
<g id="edge22" class="edge"><title>io.netty:netty&#45;codec&#45;http2:4.1.0.Beta6&#45;&gt;com.twitter:hpack:0.10.1</title>
<path fill="none" stroke="black" d="M381.67,-138.408C407.1,-115.387 447.422,-81.6023 487.215,-59.5 501.287,-51.6836 517.503,-45.07 532.464,-39.8129"/>
<polygon fill="black" stroke="black" points="533.731,-43.079 542.079,-36.5551 531.485,-36.4491 533.731,-43.079"/>
</g>
<!-- io.netty:netty&#45;codec&#45;http:4.1.0.Beta6 -->
<g id="node22" class="node"><title>io.netty:netty&#45;codec&#45;http:4.1.0.Beta6</title>
<polygon fill="none" stroke="black" points="528.418,-69.5 528.418,-119.5 636.157,-119.5 636.157,-69.5 528.418,-69.5"/>
<text text-anchor="start" x="561.096" y="-105.3" font-family="Times,serif" font-size="14.00">io.netty</text>
<text text-anchor="start" x="536.418" y="-91.3" font-family="Times,serif" font-weight="bold" font-size="14.00">netty&#45;codec&#45;http</text>
<text text-anchor="start" x="550.21" y="-77.3" font-family="Times,serif" font-size="14.00">4.1.0.Beta6</text>
</g>
<!-- io.netty:netty&#45;codec&#45;http2:4.1.0.Beta6&#45;&gt;io.netty:netty&#45;codec&#45;http:4.1.0.Beta6 -->
<g id="edge24" class="edge"><title>io.netty:netty&#45;codec&#45;http2:4.1.0.Beta6&#45;&gt;io.netty:netty&#45;codec&#45;http:4.1.0.Beta6</title>
<path fill="none" stroke="black" d="M411.658,-146.266C444.159,-136.348 485.064,-123.865 518.563,-113.642"/>
<polygon fill="black" stroke="black" points="519.708,-116.952 528.251,-110.685 517.665,-110.257 519.708,-116.952"/>
</g>
<!-- io.netty:netty&#45;handler:4.1.0.Beta6 -->
<g id="node23" class="node"><title>io.netty:netty&#45;handler:4.1.0.Beta6</title>
<polygon fill="none" stroke="black" points="536.97,-138.5 536.97,-188.5 627.605,-188.5 627.605,-138.5 536.97,-138.5"/>
<text text-anchor="start" x="561.096" y="-174.3" font-family="Times,serif" font-size="14.00">io.netty</text>
<text text-anchor="start" x="544.97" y="-160.3" font-family="Times,serif" font-weight="bold" font-size="14.00">netty&#45;handler</text>
<text text-anchor="start" x="550.21" y="-146.3" font-family="Times,serif" font-size="14.00">4.1.0.Beta6</text>
</g>
<!-- io.netty:netty&#45;codec&#45;http2:4.1.0.Beta6&#45;&gt;io.netty:netty&#45;handler:4.1.0.Beta6 -->
<g id="edge25" class="edge"><title>io.netty:netty&#45;codec&#45;http2:4.1.0.Beta6&#45;&gt;io.netty:netty&#45;handler:4.1.0.Beta6</title>
<path fill="none" stroke="black" d="M411.658,-163.5C446.745,-163.5 491.629,-163.5 526.413,-163.5"/>
<polygon fill="black" stroke="black" points="526.862,-167 536.862,-163.5 526.862,-160 526.862,-167"/>
</g>
<!-- io.netty:netty&#45;codec:4.1.0.Beta6 -->
<g id="node24" class="node"><title>io.netty:netty&#45;codec:4.1.0.Beta6</title>
<polygon fill="none" stroke="black" points="757.876,-76.5 757.876,-126.5 839.173,-126.5 839.173,-76.5 757.876,-76.5"/>
<text text-anchor="start" x="777.333" y="-112.3" font-family="Times,serif" font-size="14.00">io.netty</text>
<text text-anchor="start" x="765.876" y="-98.3" font-family="Times,serif" font-weight="bold" font-size="14.00">netty&#45;codec</text>
<text text-anchor="start" x="766.447" y="-84.3" font-family="Times,serif" font-size="14.00">4.1.0.Beta6</text>
</g>
<!-- io.netty:netty&#45;codec&#45;http:4.1.0.Beta6&#45;&gt;io.netty:netty&#45;codec:4.1.0.Beta6 -->
<g id="edge27" class="edge"><title>io.netty:netty&#45;codec&#45;http:4.1.0.Beta6&#45;&gt;io.netty:netty&#45;codec:4.1.0.Beta6</title>
<path fill="none" stroke="black" d="M636.245,-96.2303C670.27,-97.3421 714.188,-98.7771 747.601,-99.8688"/>
<polygon fill="black" stroke="black" points="747.502,-103.367 757.611,-100.196 747.73,-96.3711 747.502,-103.367"/>
</g>
<!-- io.netty:netty&#45;handler:4.1.0.Beta6&#45;&gt;io.netty:netty&#45;codec:4.1.0.Beta6 -->
<g id="edge26" class="edge"><title>io.netty:netty&#45;handler:4.1.0.Beta6&#45;&gt;io.netty:netty&#45;codec:4.1.0.Beta6</title>
<path fill="none" stroke="black" d="M627.678,-150.654C662.63,-140.538 711.341,-126.441 747.639,-115.937"/>
<polygon fill="black" stroke="black" points="748.894,-119.217 757.526,-113.075 746.948,-112.493 748.894,-119.217"/>
</g>
<!-- io.netty:netty&#45;transport:4.1.0.Beta6 -->
<g id="node25" class="node"><title>io.netty:netty&#45;transport:4.1.0.Beta6</title>
<polygon fill="none" stroke="black" points="955.331,-106.5 955.331,-156.5 1053.75,-156.5 1053.75,-106.5 955.331,-106.5"/>
<text text-anchor="start" x="983.35" y="-142.3" font-family="Times,serif" font-size="14.00">io.netty</text>
<text text-anchor="start" x="963.331" y="-128.3" font-family="Times,serif" font-weight="bold" font-size="14.00">netty&#45;transport</text>
<text text-anchor="start" x="972.464" y="-114.3" font-family="Times,serif" font-size="14.00">4.1.0.Beta6</text>
</g>
<!-- io.netty:netty&#45;handler:4.1.0.Beta6&#45;&gt;io.netty:netty&#45;transport:4.1.0.Beta6 -->
<g id="edge29" class="edge"><title>io.netty:netty&#45;handler:4.1.0.Beta6&#45;&gt;io.netty:netty&#45;transport:4.1.0.Beta6</title>
<path fill="none" stroke="black" d="M627.864,-160.106C704.291,-154.286 860.291,-142.408 945.246,-135.939"/>
<polygon fill="black" stroke="black" points="945.538,-139.427 955.244,-135.178 945.007,-132.447 945.538,-139.427"/>
</g>
<!-- io.netty:netty&#45;buffer:4.1.0.Beta6 -->
<g id="node27" class="node"><title>io.netty:netty&#45;buffer:4.1.0.Beta6</title>
<polygon fill="none" stroke="black" points="1168.94,-168.5 1168.94,-218.5 1251.55,-218.5 1251.55,-168.5 1168.94,-168.5"/>
<text text-anchor="start" x="1189.06" y="-204.3" font-family="Times,serif" font-size="14.00">io.netty</text>
<text text-anchor="start" x="1176.94" y="-190.3" font-family="Times,serif" font-weight="bold" font-size="14.00">netty&#45;buffer</text>
<text text-anchor="start" x="1178.17" y="-176.3" font-family="Times,serif" font-size="14.00">4.1.0.Beta6</text>
</g>
<!-- io.netty:netty&#45;handler:4.1.0.Beta6&#45;&gt;io.netty:netty&#45;buffer:4.1.0.Beta6 -->
<g id="edge31" class="edge"><title>io.netty:netty&#45;handler:4.1.0.Beta6&#45;&gt;io.netty:netty&#45;buffer:4.1.0.Beta6</title>
<path fill="none" stroke="black" d="M627.803,-165.633C740.863,-171.052 1038.58,-185.32 1158.31,-191.059"/>
<polygon fill="black" stroke="black" points="1158.5,-194.572 1168.65,-191.554 1158.83,-187.58 1158.5,-194.572"/>
</g>
<!-- io.netty:netty&#45;codec:4.1.0.Beta6&#45;&gt;io.netty:netty&#45;transport:4.1.0.Beta6 -->
<g id="edge28" class="edge"><title>io.netty:netty&#45;codec:4.1.0.Beta6&#45;&gt;io.netty:netty&#45;transport:4.1.0.Beta6</title>
<path fill="none" stroke="black" d="M839.345,-107.356C869.401,-111.775 911.105,-117.907 944.961,-122.886"/>
<polygon fill="black" stroke="black" points="944.791,-126.399 955.194,-124.391 945.81,-119.473 944.791,-126.399"/>
</g>
<!-- io.netty:netty&#45;resolver:4.1.0.Beta6 -->
<g id="node26" class="node"><title>io.netty:netty&#45;resolver:4.1.0.Beta6</title>
<polygon fill="none" stroke="black" points="1163.38,-99.5 1163.38,-149.5 1257.12,-149.5 1257.12,-99.5 1163.38,-99.5"/>
<text text-anchor="start" x="1189.06" y="-135.3" font-family="Times,serif" font-size="14.00">io.netty</text>
<text text-anchor="start" x="1171.38" y="-121.3" font-family="Times,serif" font-weight="bold" font-size="14.00">netty&#45;resolver</text>
<text text-anchor="start" x="1178.17" y="-107.3" font-family="Times,serif" font-size="14.00">4.1.0.Beta6</text>
</g>
<!-- io.netty:netty&#45;transport:4.1.0.Beta6&#45;&gt;io.netty:netty&#45;resolver:4.1.0.Beta6 -->
<g id="edge30" class="edge"><title>io.netty:netty&#45;transport:4.1.0.Beta6&#45;&gt;io.netty:netty&#45;resolver:4.1.0.Beta6</title>
<path fill="none" stroke="black" d="M1053.82,-129.841C1083.52,-128.82 1121.72,-127.508 1152.82,-126.439"/>
<polygon fill="black" stroke="black" points="1153.2,-129.928 1163.07,-126.087 1152.95,-122.932 1153.2,-129.928"/>
</g>
<!-- io.netty:netty&#45;transport:4.1.0.Beta6&#45;&gt;io.netty:netty&#45;buffer:4.1.0.Beta6 -->
<g id="edge32" class="edge"><title>io.netty:netty&#45;transport:4.1.0.Beta6&#45;&gt;io.netty:netty&#45;buffer:4.1.0.Beta6</title>
<path fill="none" stroke="black" d="M1053.82,-146.193C1085.59,-155.864 1127.09,-168.494 1159.21,-178.272"/>
<polygon fill="black" stroke="black" points="1158.28,-181.645 1168.86,-181.208 1160.31,-174.948 1158.28,-181.645"/>
</g>
<!-- io.netty:netty&#45;common:4.1.0.Beta6 -->
<g id="node28" class="node"><title>io.netty:netty&#45;common:4.1.0.Beta6</title>
<polygon fill="none" stroke="black" points="1331.1,-133.5 1331.1,-183.5 1428.75,-183.5 1428.75,-133.5 1331.1,-133.5"/>
<text text-anchor="start" x="1358.73" y="-169.3" font-family="Times,serif" font-size="14.00">io.netty</text>
<text text-anchor="start" x="1339.1" y="-155.3" font-family="Times,serif" font-weight="bold" font-size="14.00">netty&#45;common</text>
<text text-anchor="start" x="1347.85" y="-141.3" font-family="Times,serif" font-size="14.00">4.1.0.Beta6</text>
</g>
<!-- io.netty:netty&#45;resolver:4.1.0.Beta6&#45;&gt;io.netty:netty&#45;common:4.1.0.Beta6 -->
<g id="edge33" class="edge"><title>io.netty:netty&#45;resolver:4.1.0.Beta6&#45;&gt;io.netty:netty&#45;common:4.1.0.Beta6</title>
<path fill="none" stroke="black" d="M1257.51,-133.881C1277.17,-137.867 1300.31,-142.558 1321.08,-146.771"/>
<polygon fill="black" stroke="black" points="1320.56,-150.238 1331.06,-148.795 1321.96,-143.377 1320.56,-150.238"/>
</g>
<!-- io.netty:netty&#45;buffer:4.1.0.Beta6&#45;&gt;io.netty:netty&#45;common:4.1.0.Beta6 -->
<g id="edge34" class="edge"><title>io.netty:netty&#45;buffer:4.1.0.Beta6&#45;&gt;io.netty:netty&#45;common:4.1.0.Beta6</title>
<path fill="none" stroke="black" d="M1251.84,-185.027C1272.61,-180.692 1298.25,-175.339 1321.06,-170.579"/>
<polygon fill="black" stroke="black" points="1321.89,-173.98 1330.97,-168.511 1320.46,-167.128 1321.89,-173.98"/>
</g>
<!-- io.grpc:grpc&#45;protobuf:0.9.0&#45;&gt;io.grpc:grpc&#45;core:0.9.0 -->
<g id="edge37" class="edge"><title>io.grpc:grpc&#45;protobuf:0.9.0&#45;&gt;io.grpc:grpc&#45;core:0.9.0</title>
<path fill="none" stroke="black" d="M198.026,-576.401C222.579,-560.571 250.876,-542.555 257.159,-539.5 273.778,-531.418 292.829,-524.269 309.558,-518.638"/>
<polygon fill="black" stroke="black" points="310.695,-521.949 319.103,-515.503 308.51,-515.299 310.695,-521.949"/>
</g>
<!-- io.grpc:grpc&#45;protobuf:0.9.0&#45;&gt;com.google.guava:guava:18.0 -->
<g id="edge46" class="edge"><title>io.grpc:grpc&#45;protobuf:0.9.0&#45;&gt;com.google.guava:guava:18.0</title>
<path fill="none" stroke="black" d="M205.602,-605.503C221.892,-606.855 240.333,-608.319 257.159,-609.5 345.228,-615.682 446.857,-621.411 512.49,-624.928"/>
<polygon fill="black" stroke="black" points="512.535,-628.435 522.707,-625.473 512.908,-621.445 512.535,-628.435"/>
</g>
<!-- com.google.protobuf:protobuf&#45;java:3.0.0&#45;beta&#45;1 -->
<g id="node34" class="node"><title>com.google.protobuf:protobuf&#45;java:3.0.0&#45;beta&#45;1</title>
<polygon fill="none" stroke="black" points="287.477,-549.5 287.477,-599.5 420.897,-599.5 420.897,-549.5 287.477,-549.5"/>
<text text-anchor="start" x="295.477" y="-585.3" font-family="Times,serif" font-size="14.00">com.google.protobuf</text>
<text text-anchor="start" x="316.09" y="-571.3" font-family="Times,serif" font-weight="bold" font-size="14.00">protobuf&#45;java</text>
<text text-anchor="start" x="320.366" y="-557.3" font-family="Times,serif" font-size="14.00">3.0.0&#45;beta&#45;1</text>
</g>
<!-- io.grpc:grpc&#45;protobuf:0.9.0&#45;&gt;com.google.protobuf:protobuf&#45;java:3.0.0&#45;beta&#45;1 -->
<g id="edge49" class="edge"><title>io.grpc:grpc&#45;protobuf:0.9.0&#45;&gt;com.google.protobuf:protobuf&#45;java:3.0.0&#45;beta&#45;1</title>
<path fill="none" stroke="black" d="M205.283,-595.101C226.832,-592.1 253.083,-588.443 277.453,-585.049"/>
<polygon fill="black" stroke="black" points="277.981,-588.509 287.403,-583.663 277.015,-581.576 277.981,-588.509"/>
</g>
<!-- io.grpc:grpc&#45;core:0.9.0&#45;&gt;com.google.code.findbugs:jsr305:3.0.0 -->
<g id="edge44" class="edge"><title>io.grpc:grpc&#45;core:0.9.0&#45;&gt;com.google.code.findbugs:jsr305:3.0.0</title>
<path fill="none" stroke="black" d="M389.09,-507.684C415.749,-509.308 453.835,-511.422 487.215,-512.5 636.142,-517.311 809.343,-518.404 912.514,-518.579"/>
<polygon fill="black" stroke="black" points="912.579,-522.079 922.584,-518.594 912.59,-515.079 912.579,-522.079"/>
</g>
<!-- io.grpc:grpc&#45;core:0.9.0&#45;&gt;com.google.guava:guava:18.0 -->
<g id="edge47" class="edge"><title>io.grpc:grpc&#45;core:0.9.0&#45;&gt;com.google.guava:guava:18.0</title>
<path fill="none" stroke="black" d="M389.407,-515.23C408.15,-521.144 431.507,-529.485 451.215,-539.5 483.212,-555.761 516.569,-578.724 541.491,-597.252"/>
<polygon fill="black" stroke="black" points="539.509,-600.14 549.606,-603.35 543.714,-594.544 539.509,-600.14"/>
</g>
</g>
</svg>
