<?xml version="1.0" encoding="UTF-8" standalone="no"?>
<!DOCTYPE svg PUBLIC "-//W3C//DTD SVG 1.1//EN"
 "http://www.w3.org/Graphics/SVG/1.1/DTD/svg11.dtd">
<!-- Generated by graphviz version 2.38.0 (20140413.2041)
 -->
<!-- Title: dependency&#45;graph Pages: 1 -->
<svg width="1147pt" height="680pt"
 viewBox="0.00 0.00 1147.45 679.88" xmlns="http://www.w3.org/2000/svg" xmlns:xlink="http://www.w3.org/1999/xlink">
<g id="graph0" class="graph" transform="scale(1 1) rotate(0) translate(4 675.876)">
<title>dependency&#45;graph</title>
<polygon fill="white" stroke="none" points="-4,4 -4,-675.876 1143.45,-675.876 1143.45,4 -4,4"/>
<!-- com.github.fge:json&#45;schema&#45;validator:2.2.6 -->
<g id="node1" class="node"><title>com.github.fge:json&#45;schema&#45;validator:2.2.6</title>
<polygon fill="none" stroke="black" points="0,-471.376 0,-521.376 140.4,-521.376 140.4,-471.376 0,-471.376"/>
<text text-anchor="start" x="27.8208" y="-507.176" font-family="Times,serif" font-size="14.00">com.github.fge</text>
<text text-anchor="start" x="8" y="-493.176" font-family="Times,serif" font-weight="bold" font-size="14.00">json&#45;schema&#45;validator</text>
<text text-anchor="start" x="56.2002" y="-479.176" font-family="Times,serif" font-size="14.00">2.2.6</text>
</g>
<!-- net.sf.jopt&#45;simple:jopt&#45;simple:4.6 -->
<g id="node2" class="node"><title>net.sf.jopt&#45;simple:jopt&#45;simple:4.6</title>
<polygon fill="none" stroke="black" points="221.104,-621.376 221.104,-671.376 335.09,-671.376 335.09,-621.376 221.104,-621.376"/>
<text text-anchor="start" x="229.104" y="-657.176" font-family="Times,serif" font-size="14.00">net.sf.jopt&#45;simple</text>
<text text-anchor="start" x="246.211" y="-643.176" font-family="Times,serif" font-weight="bold" font-size="14.00">jopt&#45;simple</text>
<text text-anchor="start" x="269.347" y="-629.176" font-family="Times,serif" font-size="14.00">4.6</text>
</g>
<!-- com.github.fge:json&#45;schema&#45;validator:2.2.6&#45;&gt;net.sf.jopt&#45;simple:jopt&#45;simple:4.6 -->
<g id="edge1" class="edge"><title>com.github.fge:json&#45;schema&#45;validator:2.2.6&#45;&gt;net.sf.jopt&#45;simple:jopt&#45;simple:4.6</title>
<path fill="none" stroke="black" d="M88.5258,-521.756C107.384,-547.624 139.787,-587.273 176.4,-611.376 187.013,-618.363 199.174,-624.119 211.292,-628.802"/>
<polygon fill="black" stroke="black" points="210.375,-632.194 220.969,-632.331 212.773,-625.617 210.375,-632.194"/>
</g>
<!-- javax.mail:mailapi:1.4.3 -->
<g id="node3" class="node"><title>javax.mail:mailapi:1.4.3</title>
<polygon fill="none" stroke="black" points="240.747,-552.376 240.747,-602.376 315.447,-602.376 315.447,-552.376 240.747,-552.376"/>
<text text-anchor="start" x="248.747" y="-588.176" font-family="Times,serif" font-size="14.00">javax.mail</text>
<text text-anchor="start" x="257.104" y="-574.176" font-family="Times,serif" font-weight="bold" font-size="14.00">mailapi</text>
<text text-anchor="start" x="264.097" y="-560.176" font-family="Times,serif" font-size="14.00">1.4.3</text>
</g>
<!-- com.github.fge:json&#45;schema&#45;validator:2.2.6&#45;&gt;javax.mail:mailapi:1.4.3 -->
<g id="edge2" class="edge"><title>com.github.fge:json&#45;schema&#45;validator:2.2.6&#45;&gt;javax.mail:mailapi:1.4.3</title>
<path fill="none" stroke="black" d="M134.937,-521.451C165.998,-533.67 202.658,-548.092 230.969,-559.23"/>
<polygon fill="black" stroke="black" points="230.025,-562.619 240.612,-563.023 232.588,-556.105 230.025,-562.619"/>
</g>
<!-- com.github.fge:json&#45;schema&#45;core:1.2.5 -->
<g id="node5" class="node"><title>com.github.fge:json&#45;schema&#45;core:1.2.5</title>
<polygon fill="none" stroke="black" points="220.731,-288.376 220.731,-338.376 335.463,-338.376 335.463,-288.376 220.731,-288.376"/>
<text text-anchor="start" x="235.718" y="-324.176" font-family="Times,serif" font-size="14.00">com.github.fge</text>
<text text-anchor="start" x="228.731" y="-310.176" font-family="Times,serif" font-weight="bold" font-size="14.00">json&#45;schema&#45;core</text>
<text text-anchor="start" x="264.097" y="-296.176" font-family="Times,serif" font-size="14.00">1.2.5</text>
</g>
<!-- com.github.fge:json&#45;schema&#45;validator:2.2.6&#45;&gt;com.github.fge:json&#45;schema&#45;core:1.2.5 -->
<g id="edge4" class="edge"><title>com.github.fge:json&#45;schema&#45;validator:2.2.6&#45;&gt;com.github.fge:json&#45;schema&#45;core:1.2.5</title>
<path fill="none" stroke="black" d="M86.6644,-471.322C105.213,-442.842 138.578,-396.304 176.4,-365.376 187.064,-356.657 199.425,-348.818 211.759,-342.03"/>
<polygon fill="black" stroke="black" points="213.521,-345.057 220.711,-337.275 210.237,-338.875 213.521,-345.057"/>
</g>
<!-- com.googlecode.libphonenumber:libphonenumber:6.2 -->
<g id="node15" class="node"><title>com.googlecode.libphonenumber:libphonenumber:6.2</title>
<polygon fill="none" stroke="black" points="176.4,-444.376 176.4,-494.376 379.794,-494.376 379.794,-444.376 176.4,-444.376"/>
<text text-anchor="start" x="184.4" y="-480.176" font-family="Times,serif" font-size="14.00">com.googlecode.libphonenumber</text>
<text text-anchor="start" x="232.218" y="-466.176" font-family="Times,serif" font-weight="bold" font-size="14.00">libphonenumber</text>
<text text-anchor="start" x="269.347" y="-452.176" font-family="Times,serif" font-size="14.00">6.2</text>
</g>
<!-- com.github.fge:json&#45;schema&#45;validator:2.2.6&#45;&gt;com.googlecode.libphonenumber:libphonenumber:6.2 -->
<g id="edge16" class="edge"><title>com.github.fge:json&#45;schema&#45;validator:2.2.6&#45;&gt;com.googlecode.libphonenumber:libphonenumber:6.2</title>
<path fill="none" stroke="black" d="M140.62,-487.273C148.844,-486.195 157.388,-485.074 166.008,-483.944"/>
<polygon fill="black" stroke="black" points="166.688,-487.385 176.148,-482.614 165.778,-480.444 166.688,-487.385"/>
</g>
<!-- joda&#45;time:joda&#45;time:2.3 -->
<g id="node16" class="node"><title>joda&#45;time:joda&#45;time:2.3</title>
<polygon fill="none" stroke="black" points="243.273,-375.376 243.273,-425.376 312.921,-425.376 312.921,-375.376 243.273,-375.376"/>
<text text-anchor="start" x="251.273" y="-411.176" font-family="Times,serif" font-size="14.00">joda&#45;time</text>
<text text-anchor="start" x="251.273" y="-397.176" font-family="Times,serif" font-weight="bold" font-size="14.00">joda&#45;time</text>
<text text-anchor="start" x="269.347" y="-383.176" font-family="Times,serif" font-size="14.00">2.3</text>
</g>
<!-- com.github.fge:json&#45;schema&#45;validator:2.2.6&#45;&gt;joda&#45;time:joda&#45;time:2.3 -->
<g id="edge17" class="edge"><title>com.github.fge:json&#45;schema&#45;validator:2.2.6&#45;&gt;joda&#45;time:joda&#45;time:2.3</title>
<path fill="none" stroke="black" d="M109.629,-471.13C129.115,-459.007 153.46,-444.872 176.4,-434.376 194.522,-426.086 215.275,-418.739 233.214,-413.015"/>
<polygon fill="black" stroke="black" points="234.353,-416.327 242.857,-410.007 232.268,-409.644 234.353,-416.327"/>
</g>
<!-- com.google.code.findbugs:jsr305:3.0.0 -->
<g id="node17" class="node"><title>com.google.code.findbugs:jsr305:3.0.0</title>
<polygon fill="none" stroke="black" points="976.085,-403.376 976.085,-453.376 1139.45,-453.376 1139.45,-403.376 976.085,-403.376"/>
<text text-anchor="start" x="984.085" y="-439.176" font-family="Times,serif" font-size="14.00">com.google.code.findbugs</text>
<text text-anchor="start" x="1040.27" y="-425.176" font-family="Times,serif" font-weight="bold" font-size="14.00">jsr305</text>
<text text-anchor="start" x="1043.77" y="-411.176" font-family="Times,serif" font-size="14.00">3.0.0</text>
</g>
<!-- com.github.fge:json&#45;schema&#45;validator:2.2.6&#45;&gt;com.google.code.findbugs:jsr305:3.0.0 -->
<g id="edge23" class="edge"><title>com.github.fge:json&#45;schema&#45;validator:2.2.6&#45;&gt;com.google.code.findbugs:jsr305:3.0.0</title>
<path fill="none" stroke="black" d="M140.731,-503.933C220.342,-511.921 354.719,-523.376 470.611,-523.376 470.611,-523.376 470.611,-523.376 649.593,-523.376 779.688,-523.376 815.637,-525.29 940.085,-487.376 962.964,-480.406 986.776,-469.179 1006.88,-458.38"/>
<polygon fill="black" stroke="black" points="1008.75,-461.344 1015.84,-453.465 1005.38,-455.207 1008.75,-461.344"/>
</g>
<!-- javax.activation:activation:1.1 -->
<g id="node4" class="node"><title>javax.activation:activation:1.1</title>
<polygon fill="none" stroke="black" points="419.103,-552.376 419.103,-602.376 524.12,-602.376 524.12,-552.376 419.103,-552.376"/>
<text text-anchor="start" x="427.103" y="-588.176" font-family="Times,serif" font-size="14.00">javax.activation</text>
<text text-anchor="start" x="444.011" y="-574.176" font-family="Times,serif" font-weight="bold" font-size="14.00">activation</text>
<text text-anchor="start" x="462.861" y="-560.176" font-family="Times,serif" font-size="14.00">1.1</text>
</g>
<!-- javax.mail:mailapi:1.4.3&#45;&gt;javax.activation:activation:1.1 -->
<g id="edge3" class="edge"><title>javax.mail:mailapi:1.4.3&#45;&gt;javax.activation:activation:1.1</title>
<path fill="none" stroke="black" d="M315.57,-577.376C341.897,-577.376 378.079,-577.376 408.869,-577.376"/>
<polygon fill="black" stroke="black" points="409.082,-580.877 419.082,-577.376 409.082,-573.877 409.082,-580.877"/>
</g>
<!-- org.mozilla:rhino:1.7R4 -->
<g id="node6" class="node"><title>org.mozilla:rhino:1.7R4</title>
<polygon fill="none" stroke="black" points="431.66,-200.376 431.66,-250.376 511.562,-250.376 511.562,-200.376 431.66,-200.376"/>
<text text-anchor="start" x="439.66" y="-236.176" font-family="Times,serif" font-size="14.00">org.mozilla</text>
<text text-anchor="start" x="456.835" y="-222.176" font-family="Times,serif" font-weight="bold" font-size="14.00">rhino</text>
<text text-anchor="start" x="454.692" y="-208.176" font-family="Times,serif" font-size="14.00">1.7R4</text>
</g>
<!-- com.github.fge:json&#45;schema&#45;core:1.2.5&#45;&gt;org.mozilla:rhino:1.7R4 -->
<g id="edge5" class="edge"><title>com.github.fge:json&#45;schema&#45;core:1.2.5&#45;&gt;org.mozilla:rhino:1.7R4</title>
<path fill="none" stroke="black" d="M333.721,-288.277C361.611,-275.462 395.248,-260.006 422.199,-247.622"/>
<polygon fill="black" stroke="black" points="423.807,-250.735 431.432,-243.379 420.884,-244.374 423.807,-250.735"/>
</g>
<!-- com.github.fge:jackson&#45;coreutils:1.8 -->
<g id="node7" class="node"><title>com.github.fge:jackson&#45;coreutils:1.8</title>
<polygon fill="none" stroke="black" points="415.794,-269.376 415.794,-319.376 527.429,-319.376 527.429,-269.376 415.794,-269.376"/>
<text text-anchor="start" x="429.232" y="-305.176" font-family="Times,serif" font-size="14.00">com.github.fge</text>
<text text-anchor="start" x="423.794" y="-291.176" font-family="Times,serif" font-weight="bold" font-size="14.00">jackson&#45;coreutils</text>
<text text-anchor="start" x="462.861" y="-277.176" font-family="Times,serif" font-size="14.00">1.8</text>
</g>
<!-- com.github.fge:json&#45;schema&#45;core:1.2.5&#45;&gt;com.github.fge:jackson&#45;coreutils:1.8 -->
<g id="edge6" class="edge"><title>com.github.fge:json&#45;schema&#45;core:1.2.5&#45;&gt;com.github.fge:jackson&#45;coreutils:1.8</title>
<path fill="none" stroke="black" d="M335.522,-307.779C357.433,-305.605 382.67,-303.101 405.356,-300.85"/>
<polygon fill="black" stroke="black" points="405.973,-304.306 415.579,-299.836 405.282,-297.341 405.973,-304.306"/>
</g>
<!-- com.github.fge:uri&#45;template:0.9 -->
<g id="node11" class="node"><title>com.github.fge:uri&#45;template:0.9</title>
<polygon fill="none" stroke="black" points="421.232,-338.376 421.232,-388.376 521.991,-388.376 521.991,-338.376 421.232,-338.376"/>
<text text-anchor="start" x="429.232" y="-374.176" font-family="Times,serif" font-size="14.00">com.github.fge</text>
<text text-anchor="start" x="437.404" y="-360.176" font-family="Times,serif" font-weight="bold" font-size="14.00">uri&#45;template</text>
<text text-anchor="start" x="462.861" y="-346.176" font-family="Times,serif" font-size="14.00">0.9</text>
</g>
<!-- com.github.fge:json&#45;schema&#45;core:1.2.5&#45;&gt;com.github.fge:uri&#45;template:0.9 -->
<g id="edge10" class="edge"><title>com.github.fge:json&#45;schema&#45;core:1.2.5&#45;&gt;com.github.fge:uri&#45;template:0.9</title>
<path fill="none" stroke="black" d="M335.522,-328.108C359.378,-334.336 387.176,-341.593 411.332,-347.9"/>
<polygon fill="black" stroke="black" points="410.529,-351.308 421.089,-350.447 412.298,-344.535 410.529,-351.308"/>
</g>
<!-- com.github.fge:json&#45;schema&#45;core:1.2.5&#45;&gt;com.google.code.findbugs:jsr305:3.0.0 -->
<g id="edge22" class="edge"><title>com.github.fge:json&#45;schema&#45;core:1.2.5&#45;&gt;com.google.code.findbugs:jsr305:3.0.0</title>
<path fill="none" stroke="black" d="M333.836,-338.505C349.161,-346.369 365.52,-355.576 379.794,-365.376 397.442,-377.493 397.451,-386.34 415.794,-397.376 475.793,-433.474 494.908,-437.961 563.429,-452.376 727.329,-486.857 774.469,-489.344 940.085,-464.376 952.408,-462.519 965.225,-459.616 977.658,-456.246"/>
<polygon fill="black" stroke="black" points="978.86,-459.543 987.53,-453.454 976.955,-452.807 978.86,-459.543"/>
</g>
<!-- com.google.code.findbugs:jsr305:2.0.1 -->
<g id="node18" class="node"><title>com.google.code.findbugs:jsr305:2.0.1</title>
<polygon fill="none" stroke="black" points="976.085,-200.376 976.085,-250.376 1139.45,-250.376 1139.45,-200.376 976.085,-200.376"/>
<text text-anchor="start" x="984.085" y="-236.176" font-family="Times,serif" font-size="14.00">com.google.code.findbugs</text>
<text text-anchor="start" x="1040.27" y="-222.176" font-family="Times,serif" font-weight="bold" font-size="14.00">jsr305</text>
<text text-anchor="start" x="1043.77" y="-208.176" font-family="Times,serif" font-size="14.00">2.0.1</text>
</g>
<!-- com.github.fge:json&#45;schema&#45;core:1.2.5&#45;&gt;com.google.code.findbugs:jsr305:2.0.1 -->
<g id="edge28" class="edge"><title>com.github.fge:json&#45;schema&#45;core:1.2.5&#45;&gt;com.google.code.findbugs:jsr305:2.0.1</title>
<path fill="none" stroke="black" d="M298.967,-288.05C341.209,-236.338 445.759,-119.291 563.429,-69.3765 717.852,-3.8714 792.703,34.7234 940.085,-45.3765 996.7,-76.146 1030.09,-147.547 1045.78,-190.601"/>
<polygon fill="black" stroke="black" points="1042.51,-191.843 1049.13,-200.113 1049.11,-189.518 1042.51,-191.843"/>
</g>
<!-- com.fasterxml.jackson.core:jackson&#45;databind:2.2.3 -->
<g id="node8" class="node"><title>com.fasterxml.jackson.core:jackson&#45;databind:2.2.3</title>
<polygon fill="none" stroke="black" points="563.429,-146.376 563.429,-196.376 733.757,-196.376 733.757,-146.376 563.429,-146.376"/>
<text text-anchor="start" x="571.429" y="-182.176" font-family="Times,serif" font-size="14.00">com.fasterxml.jackson.core</text>
<text text-anchor="start" x="600.775" y="-168.176" font-family="Times,serif" font-weight="bold" font-size="14.00">jackson&#45;databind</text>
<text text-anchor="start" x="634.593" y="-154.176" font-family="Times,serif" font-size="14.00">2.2.3</text>
</g>
<!-- com.github.fge:jackson&#45;coreutils:1.8&#45;&gt;com.fasterxml.jackson.core:jackson&#45;databind:2.2.3 -->
<g id="edge7" class="edge"><title>com.github.fge:jackson&#45;coreutils:1.8&#45;&gt;com.fasterxml.jackson.core:jackson&#45;databind:2.2.3</title>
<path fill="none" stroke="black" d="M515.315,-269.244C519.565,-266.122 523.686,-262.813 527.429,-259.376 546.812,-241.582 543.056,-229.028 563.429,-212.376 568.024,-208.62 573.021,-205.102 578.211,-201.829"/>
<polygon fill="black" stroke="black" points="580.281,-204.671 587.092,-196.555 576.706,-198.652 580.281,-204.671"/>
</g>
<!-- com.google.guava:guava:16.0.1 -->
<g id="node12" class="node"><title>com.google.guava:guava:16.0.1</title>
<polygon fill="none" stroke="black" points="589.275,-330.376 589.275,-380.376 707.91,-380.376 707.91,-330.376 589.275,-330.376"/>
<text text-anchor="start" x="597.275" y="-366.176" font-family="Times,serif" font-size="14.00">com.google.guava</text>
<text text-anchor="start" x="631.879" y="-352.176" font-family="Times,serif" font-weight="bold" font-size="14.00">guava</text>
<text text-anchor="start" x="631.093" y="-338.176" font-family="Times,serif" font-size="14.00">16.0.1</text>
</g>
<!-- com.github.fge:jackson&#45;coreutils:1.8&#45;&gt;com.google.guava:guava:16.0.1 -->
<g id="edge12" class="edge"><title>com.github.fge:jackson&#45;coreutils:1.8&#45;&gt;com.google.guava:guava:16.0.1</title>
<path fill="none" stroke="black" d="M527.496,-313.51C544.072,-319.288 562.469,-325.701 579.781,-331.737"/>
<polygon fill="black" stroke="black" points="578.675,-335.058 589.269,-335.045 580.979,-328.448 578.675,-335.058"/>
</g>
<!-- com.github.fge:msg&#45;simple:1.1 -->
<g id="node13" class="node"><title>com.github.fge:msg&#45;simple:1.1</title>
<polygon fill="none" stroke="black" points="598.213,-222.376 598.213,-272.376 698.972,-272.376 698.972,-222.376 598.213,-222.376"/>
<text text-anchor="start" x="606.213" y="-258.176" font-family="Times,serif" font-size="14.00">com.github.fge</text>
<text text-anchor="start" x="615.927" y="-244.176" font-family="Times,serif" font-weight="bold" font-size="14.00">msg&#45;simple</text>
<text text-anchor="start" x="639.843" y="-230.176" font-family="Times,serif" font-size="14.00">1.1</text>
</g>
<!-- com.github.fge:jackson&#45;coreutils:1.8&#45;&gt;com.github.fge:msg&#45;simple:1.1 -->
<g id="edge14" class="edge"><title>com.github.fge:jackson&#45;coreutils:1.8&#45;&gt;com.github.fge:msg&#45;simple:1.1</title>
<path fill="none" stroke="black" d="M527.496,-279.634C546.788,-274.453 568.548,-268.608 588.194,-263.331"/>
<polygon fill="black" stroke="black" points="589.199,-266.685 597.948,-260.711 587.383,-259.925 589.199,-266.685"/>
</g>
<!-- com.github.fge:jackson&#45;coreutils:1.8&#45;&gt;com.google.code.findbugs:jsr305:3.0.0 -->
<g id="edge20" class="edge"><title>com.github.fge:jackson&#45;coreutils:1.8&#45;&gt;com.google.code.findbugs:jsr305:3.0.0</title>
<path fill="none" stroke="black" d="M527.437,-287.976C582.897,-284.108 669.399,-285.414 733.757,-320.376 756.263,-332.603 748.003,-351.857 769.757,-365.376 828.738,-402.032 906.146,-417.519 965.707,-423.984"/>
<polygon fill="black" stroke="black" points="965.555,-427.487 975.858,-425.018 966.264,-420.523 965.555,-427.487"/>
</g>
<!-- com.github.fge:jackson&#45;coreutils:1.8&#45;&gt;com.google.code.findbugs:jsr305:2.0.1 -->
<g id="edge26" class="edge"><title>com.github.fge:jackson&#45;coreutils:1.8&#45;&gt;com.google.code.findbugs:jsr305:2.0.1</title>
<path fill="none" stroke="black" d="M518.303,-269.159C521.676,-266.161 524.786,-262.899 527.429,-259.376 561.611,-213.813 523.924,-177.411 563.429,-136.376 630.49,-66.7175 674.32,-82.9116 769.757,-67.3765 844.475,-55.214 872.501,-33.2717 940.085,-67.3765 991.023,-93.0813 1025.22,-152.681 1042.8,-190.887"/>
<polygon fill="black" stroke="black" points="1039.64,-192.399 1046.91,-200.106 1046.04,-189.547 1039.64,-192.399"/>
</g>
<!-- com.fasterxml.jackson.core:jackson&#45;core:2.2.3 -->
<g id="node9" class="node"><title>com.fasterxml.jackson.core:jackson&#45;core:2.2.3</title>
<polygon fill="none" stroke="black" points="769.757,-146.376 769.757,-196.376 940.085,-196.376 940.085,-146.376 769.757,-146.376"/>
<text text-anchor="start" x="777.757" y="-182.176" font-family="Times,serif" font-size="14.00">com.fasterxml.jackson.core</text>
<text text-anchor="start" x="819.162" y="-168.176" font-family="Times,serif" font-weight="bold" font-size="14.00">jackson&#45;core</text>
<text text-anchor="start" x="840.921" y="-154.176" font-family="Times,serif" font-size="14.00">2.2.3</text>
</g>
<!-- com.fasterxml.jackson.core:jackson&#45;databind:2.2.3&#45;&gt;com.fasterxml.jackson.core:jackson&#45;core:2.2.3 -->
<g id="edge8" class="edge"><title>com.fasterxml.jackson.core:jackson&#45;databind:2.2.3&#45;&gt;com.fasterxml.jackson.core:jackson&#45;core:2.2.3</title>
<path fill="none" stroke="black" d="M733.881,-171.376C742.243,-171.376 750.77,-171.376 759.229,-171.376"/>
<polygon fill="black" stroke="black" points="759.497,-174.877 769.497,-171.376 759.497,-167.877 759.497,-174.877"/>
</g>
<!-- com.fasterxml.jackson.core:jackson&#45;annotations:2.2.3 -->
<g id="node10" class="node"><title>com.fasterxml.jackson.core:jackson&#45;annotations:2.2.3</title>
<polygon fill="none" stroke="black" points="769.757,-77.3765 769.757,-127.376 940.085,-127.376 940.085,-77.3765 769.757,-77.3765"/>
<text text-anchor="start" x="777.757" y="-113.176" font-family="Times,serif" font-size="14.00">com.fasterxml.jackson.core</text>
<text text-anchor="start" x="798.935" y="-99.1765" font-family="Times,serif" font-weight="bold" font-size="14.00">jackson&#45;annotations</text>
<text text-anchor="start" x="840.921" y="-85.1765" font-family="Times,serif" font-size="14.00">2.2.3</text>
</g>
<!-- com.fasterxml.jackson.core:jackson&#45;databind:2.2.3&#45;&gt;com.fasterxml.jackson.core:jackson&#45;annotations:2.2.3 -->
<g id="edge9" class="edge"><title>com.fasterxml.jackson.core:jackson&#45;databind:2.2.3&#45;&gt;com.fasterxml.jackson.core:jackson&#45;annotations:2.2.3</title>
<path fill="none" stroke="black" d="M723.649,-146.368C738.782,-141.258 754.806,-135.847 770.248,-130.632"/>
<polygon fill="black" stroke="black" points="771.42,-133.931 779.775,-127.415 769.18,-127.299 771.42,-133.931"/>
</g>
<!-- com.github.fge:uri&#45;template:0.9&#45;&gt;com.google.guava:guava:16.0.1 -->
<g id="edge11" class="edge"><title>com.github.fge:uri&#45;template:0.9&#45;&gt;com.google.guava:guava:16.0.1</title>
<path fill="none" stroke="black" d="M522.286,-361.105C539.929,-360.299 560.113,-359.376 579.052,-358.51"/>
<polygon fill="black" stroke="black" points="579.292,-362.003 589.121,-358.05 578.972,-355.01 579.292,-362.003"/>
</g>
<!-- com.github.fge:uri&#45;template:0.9&#45;&gt;com.github.fge:msg&#45;simple:1.1 -->
<g id="edge13" class="edge"><title>com.github.fge:uri&#45;template:0.9&#45;&gt;com.github.fge:msg&#45;simple:1.1</title>
<path fill="none" stroke="black" d="M512.21,-338.258C517.343,-334.954 522.52,-331.598 527.429,-328.376 552.423,-311.977 580.102,-293.351 602.589,-278.099"/>
<polygon fill="black" stroke="black" points="604.63,-280.943 610.937,-272.43 600.698,-275.152 604.63,-280.943"/>
</g>
<!-- com.github.fge:uri&#45;template:0.9&#45;&gt;com.google.code.findbugs:jsr305:3.0.0 -->
<g id="edge18" class="edge"><title>com.github.fge:uri&#45;template:0.9&#45;&gt;com.google.code.findbugs:jsr305:3.0.0</title>
<path fill="none" stroke="black" d="M501.071,-388.378C517.95,-401.532 540.48,-416.353 563.429,-423.376 698.835,-464.816 865.098,-454.818 965.894,-442.536"/>
<polygon fill="black" stroke="black" points="966.556,-445.981 976.043,-441.265 965.686,-439.035 966.556,-445.981"/>
</g>
<!-- com.github.fge:uri&#45;template:0.9&#45;&gt;com.google.code.findbugs:jsr305:2.0.1 -->
<g id="edge24" class="edge"><title>com.github.fge:uri&#45;template:0.9&#45;&gt;com.google.code.findbugs:jsr305:2.0.1</title>
<path fill="none" stroke="black" d="M522.036,-380.223C535.319,-384.005 549.786,-387.462 563.429,-389.376 638.396,-399.896 659.231,-402.666 733.757,-389.376 829.964,-372.221 854.302,-360.189 940.085,-313.376 968.848,-297.68 998.285,-275.426 1020.4,-257.225"/>
<polygon fill="black" stroke="black" points="1022.76,-259.814 1028.2,-250.722 1018.27,-254.437 1022.76,-259.814"/>
</g>
<!-- com.github.fge:btf:1.2 -->
<g id="node14" class="node"><title>com.github.fge:btf:1.2</title>
<polygon fill="none" stroke="black" points="804.542,-254.376 804.542,-304.376 905.3,-304.376 905.3,-254.376 804.542,-254.376"/>
<text text-anchor="start" x="812.542" y="-290.176" font-family="Times,serif" font-size="14.00">com.github.fge</text>
<text text-anchor="start" x="847.145" y="-276.176" font-family="Times,serif" font-weight="bold" font-size="14.00">btf</text>
<text text-anchor="start" x="846.171" y="-262.176" font-family="Times,serif" font-size="14.00">1.2</text>
</g>
<!-- com.github.fge:msg&#45;simple:1.1&#45;&gt;com.github.fge:btf:1.2 -->
<g id="edge15" class="edge"><title>com.github.fge:msg&#45;simple:1.1&#45;&gt;com.github.fge:btf:1.2</title>
<path fill="none" stroke="black" d="M699.055,-255.123C727.705,-259.61 763.971,-265.289 794.204,-270.024"/>
<polygon fill="black" stroke="black" points="793.785,-273.501 804.206,-271.591 794.868,-266.585 793.785,-273.501"/>
</g>
<!-- com.github.fge:msg&#45;simple:1.1&#45;&gt;com.google.code.findbugs:jsr305:3.0.0 -->
<g id="edge19" class="edge"><title>com.github.fge:msg&#45;simple:1.1&#45;&gt;com.google.code.findbugs:jsr305:3.0.0</title>
<path fill="none" stroke="black" d="M699.329,-269.175C710.844,-274.723 722.898,-280.947 733.757,-287.376 750.74,-297.432 752.468,-303.857 769.757,-313.376 834.234,-348.876 911.98,-379.339 970.283,-399.976"/>
<polygon fill="black" stroke="black" points="969.24,-403.319 979.834,-403.331 971.559,-396.715 969.24,-403.319"/>
</g>
<!-- com.github.fge:msg&#45;simple:1.1&#45;&gt;com.google.code.findbugs:jsr305:2.0.1 -->
<g id="edge25" class="edge"><title>com.github.fge:msg&#45;simple:1.1&#45;&gt;com.google.code.findbugs:jsr305:2.0.1</title>
<path fill="none" stroke="black" d="M699.114,-244.701C765.236,-241.128 883.576,-234.734 965.943,-230.284"/>
<polygon fill="black" stroke="black" points="966.259,-233.772 976.056,-229.738 965.881,-226.782 966.259,-233.772"/>
</g>
<!-- com.github.fge:btf:1.2&#45;&gt;com.google.code.findbugs:jsr305:3.0.0 -->
<g id="edge21" class="edge"><title>com.github.fge:btf:1.2&#45;&gt;com.google.code.findbugs:jsr305:3.0.0</title>
<path fill="none" stroke="black" d="M889.992,-304.652C924.433,-330.202 977.72,-369.733 1014.76,-397.21"/>
<polygon fill="black" stroke="black" points="1012.75,-400.079 1022.87,-403.226 1016.92,-394.457 1012.75,-400.079"/>
</g>
<!-- com.github.fge:btf:1.2&#45;&gt;com.google.code.findbugs:jsr305:2.0.1 -->
<g id="edge27" class="edge"><title>com.github.fge:btf:1.2&#45;&gt;com.google.code.findbugs:jsr305:2.0.1</title>
<path fill="none" stroke="black" d="M905.311,-266.097C923.661,-261.164 945.107,-255.398 965.991,-249.783"/>
<polygon fill="black" stroke="black" points="967.108,-253.107 975.856,-247.131 965.29,-246.347 967.108,-253.107"/>
</g>
</g>
</svg>
