<?xml version="1.0" encoding="UTF-8" standalone="no"?>
<!DOCTYPE svg PUBLIC "-//W3C//DTD SVG 1.1//EN"
 "http://www.w3.org/Graphics/SVG/1.1/DTD/svg11.dtd">
<!-- Generated by graphviz version 2.36.0 (20140111.2315)
 -->
<!-- Title: org.apache.kafka/kafka_2.11/0.9.0.0 dependency graph Pages: 1 -->
<svg width="918pt" height="1015pt"
 viewBox="0.00 0.00 918.00 1015.00" xmlns="http://www.w3.org/2000/svg" xmlns:xlink="http://www.w3.org/1999/xlink">
<g id="graph0" class="graph" transform="scale(1 1) rotate(0) translate(4 1011)">
<title>org.apache.kafka/kafka_2.11/0.9.0.0 dependency graph</title>
<polygon fill="white" stroke="none" points="-4,4 -4,-1011 914,-1011 914,4 -4,4"/>
<!-- org.apache.kafka:kafka_2.11:0.9.0.0 -->
<g id="node1" class="node"><title>org.apache.kafka:kafka_2.11:0.9.0.0</title>
<g id="a_node1"><a xlink:href="http://kafka.apache.org" xlink:title="org.apache.kafka/kafka_2.11/0.9.0.0" target="_blank">
<polygon fill="none" stroke="black" points="0,-576 0,-626 110,-626 110,-576 0,-576"/>
<text text-anchor="start" x="8" y="-611.8" font-family="Times,serif" font-size="14.00">org.apache.kafka</text>
<text text-anchor="start" x="23" y="-597.8" font-family="Times,serif" font-weight="bold" font-size="14.00">kafka_2.11</text>
<text text-anchor="start" x="35.5" y="-583.8" font-family="Times,serif" font-size="14.00">0.9.0.0</text>
</a>
</g>
</g>
<!-- net.sf.jopt&#45;simple:jopt&#45;simple:3.2 -->
<g id="node2" class="node"><title>net.sf.jopt&#45;simple:jopt&#45;simple:3.2</title>
<g id="a_node2"><a xlink:href="http://jopt-simple.sourceforge.net" xlink:title="net.sf.jopt&#45;simple/jopt&#45;simple/3.2" target="_blank">
<polygon fill="none" stroke="black" points="187.5,-903 187.5,-953 300.5,-953 300.5,-903 187.5,-903"/>
<text text-anchor="start" x="195.5" y="-938.8" font-family="Times,serif" font-size="14.00">net.sf.jopt&#45;simple</text>
<text text-anchor="start" x="210.5" y="-924.8" font-family="Times,serif" font-weight="bold" font-size="14.00">jopt&#45;simple</text>
<text text-anchor="start" x="235" y="-910.8" font-family="Times,serif" font-size="14.00">3.2</text>
</a>
</g>
</g>
<!-- org.apache.kafka:kafka_2.11:0.9.0.0&#45;&gt;net.sf.jopt&#45;simple:jopt&#45;simple:3.2 -->
<g id="edge1" class="edge"><title>org.apache.kafka:kafka_2.11:0.9.0.0&#45;&gt;net.sf.jopt&#45;simple:jopt&#45;simple:3.2</title>
<path fill="none" stroke="black" d="M56.5429,-626.201C59.1012,-681.863 72.9574,-816.418 146,-893 154.726,-902.149 166.02,-908.914 177.8,-913.914"/>
<polygon fill="black" stroke="black" points="176.722,-917.249 187.312,-917.557 179.225,-910.712 176.722,-917.249"/>
</g>
<!-- org.apache.kafka:kafka&#45;clients:0.9.0.0 -->
<g id="node3" class="node"><title>org.apache.kafka:kafka&#45;clients:0.9.0.0</title>
<g id="a_node3"><a xlink:href="http://kafka.apache.org" xlink:title="org.apache.kafka/kafka&#45;clients/0.9.0.0" target="_blank">
<polygon fill="none" stroke="black" points="189,-834 189,-884 299,-884 299,-834 189,-834"/>
<text text-anchor="start" x="197" y="-869.8" font-family="Times,serif" font-size="14.00">org.apache.kafka</text>
<text text-anchor="start" x="206.5" y="-855.8" font-family="Times,serif" font-weight="bold" font-size="14.00">kafka&#45;clients</text>
<text text-anchor="start" x="224.5" y="-841.8" font-family="Times,serif" font-size="14.00">0.9.0.0</text>
</a>
</g>
</g>
<!-- org.apache.kafka:kafka_2.11:0.9.0.0&#45;&gt;org.apache.kafka:kafka&#45;clients:0.9.0.0 -->
<g id="edge2" class="edge"><title>org.apache.kafka:kafka_2.11:0.9.0.0&#45;&gt;org.apache.kafka:kafka&#45;clients:0.9.0.0</title>
<path fill="none" stroke="black" d="M69.5327,-626.212C86.1256,-656.377 115.784,-707.949 146,-749 166.164,-776.394 191.699,-805.153 211.507,-826.392"/>
<polygon fill="black" stroke="black" points="209.127,-828.97 218.526,-833.861 214.228,-824.177 209.127,-828.97"/>
</g>
<!-- org.slf4j:slf4j&#45;log4j12:1.7.6 -->
<g id="node6" class="node"><title>org.slf4j:slf4j&#45;log4j12:1.7.6</title>
<g id="a_node6"><a xlink:href="http://www.slf4j.org" xlink:title="org.slf4j/slf4j&#45;log4j12/1.7.6" target="_blank">
<polygon fill="none" stroke="black" points="550,-634 550,-684 638,-684 638,-634 550,-634"/>
<text text-anchor="start" x="571" y="-669.8" font-family="Times,serif" font-size="14.00">org.slf4j</text>
<text text-anchor="start" x="558" y="-655.8" font-family="Times,serif" font-weight="bold" font-size="14.00">slf4j&#45;log4j12</text>
<text text-anchor="start" x="580" y="-641.8" font-family="Times,serif" font-size="14.00">1.7.6</text>
</a>
</g>
</g>
<!-- org.apache.kafka:kafka_2.11:0.9.0.0&#45;&gt;org.slf4j:slf4j&#45;log4j12:1.7.6 -->
<g id="edge7" class="edge"><title>org.apache.kafka:kafka_2.11:0.9.0.0&#45;&gt;org.slf4j:slf4j&#45;log4j12:1.7.6</title>
<path fill="none" stroke="black" d="M110.446,-606.881C213.819,-618.046 437.316,-642.185 539.753,-653.249"/>
<polygon fill="black" stroke="black" points="539.551,-656.747 549.869,-654.342 540.303,-649.788 539.551,-656.747"/>
</g>
<!-- org.scala&#45;lang.modules:scala&#45;parser&#45;combinators_2.11:1.0.4 -->
<g id="node14" class="node"><title>org.scala&#45;lang.modules:scala&#45;parser&#45;combinators_2.11:1.0.4</title>
<g id="a_node14"><a xlink:href="http://www.scala-lang.org/" xlink:title="org.scala&#45;lang.modules/scala&#45;parser&#45;combinators_2.11/1.0.4" target="_blank">
<polygon fill="none" stroke="black" points="146.5,-419 146.5,-469 341.5,-469 341.5,-419 146.5,-419"/>
<text text-anchor="start" x="180.5" y="-454.8" font-family="Times,serif" font-size="14.00">org.scala&#45;lang.modules</text>
<text text-anchor="start" x="154.5" y="-440.8" font-family="Times,serif" font-weight="bold" font-size="14.00">scala&#45;parser&#45;combinators_2.11</text>
<text text-anchor="start" x="230" y="-426.8" font-family="Times,serif" font-size="14.00">1.0.4</text>
</a>
</g>
</g>
<!-- org.apache.kafka:kafka_2.11:0.9.0.0&#45;&gt;org.scala&#45;lang.modules:scala&#45;parser&#45;combinators_2.11:1.0.4 -->
<g id="edge27" class="edge"><title>org.apache.kafka:kafka_2.11:0.9.0.0&#45;&gt;org.scala&#45;lang.modules:scala&#45;parser&#45;combinators_2.11:1.0.4</title>
<path fill="none" stroke="black" d="M68.4681,-575.784C83.351,-548.115 110.72,-504.165 146,-478 147.612,-476.804 149.271,-475.648 150.967,-474.53"/>
<polygon fill="black" stroke="black" points="152.974,-477.407 159.738,-469.253 149.365,-471.409 152.974,-477.407"/>
</g>
<!-- org.scala&#45;lang.modules:scala&#45;xml_2.11:1.0.4 -->
<g id="node15" class="node"><title>org.scala&#45;lang.modules:scala&#45;xml_2.11:1.0.4</title>
<g id="a_node15"><a xlink:href="http://www.scala-lang.org/" xlink:title="org.scala&#45;lang.modules/scala&#45;xml_2.11/1.0.4" target="_blank">
<polygon fill="none" stroke="black" points="172.5,-350 172.5,-400 315.5,-400 315.5,-350 172.5,-350"/>
<text text-anchor="start" x="180.5" y="-385.8" font-family="Times,serif" font-size="14.00">org.scala&#45;lang.modules</text>
<text text-anchor="start" x="200.5" y="-371.8" font-family="Times,serif" font-weight="bold" font-size="14.00">scala&#45;xml_2.11</text>
<text text-anchor="start" x="230" y="-357.8" font-family="Times,serif" font-size="14.00">1.0.4</text>
</a>
</g>
</g>
<!-- org.apache.kafka:kafka_2.11:0.9.0.0&#45;&gt;org.scala&#45;lang.modules:scala&#45;xml_2.11:1.0.4 -->
<g id="edge28" class="edge"><title>org.apache.kafka:kafka_2.11:0.9.0.0&#45;&gt;org.scala&#45;lang.modules:scala&#45;xml_2.11:1.0.4</title>
<path fill="none" stroke="black" d="M61.1893,-575.753C70.8374,-535.028 95.3315,-454.784 146,-409 151.16,-404.338 156.996,-400.307 163.184,-396.824"/>
<polygon fill="black" stroke="black" points="165.137,-399.757 172.463,-392.102 161.963,-393.518 165.137,-399.757"/>
</g>
<!-- com.yammer.metrics:metrics&#45;core:2.2.0 -->
<g id="node16" class="node"><title>com.yammer.metrics:metrics&#45;core:2.2.0</title>
<g id="a_node16"><a xlink:href="http://repo1.maven.org/maven2/com/yammer/metrics/metrics-core/2.2.0/metrics-core-2.2.0.pom" xlink:title="com.yammer.metrics/metrics&#45;core/2.2.0" target="_blank">
<polygon fill="none" stroke="black" points="379,-780 379,-830 513,-830 513,-780 379,-780"/>
<text text-anchor="start" x="387" y="-815.8" font-family="Times,serif" font-size="14.00">com.yammer.metrics</text>
<text text-anchor="start" x="409.5" y="-801.8" font-family="Times,serif" font-weight="bold" font-size="14.00">metrics&#45;core</text>
<text text-anchor="start" x="432" y="-787.8" font-family="Times,serif" font-size="14.00">2.2.0</text>
</a>
</g>
</g>
<!-- org.apache.kafka:kafka_2.11:0.9.0.0&#45;&gt;com.yammer.metrics:metrics&#45;core:2.2.0 -->
<g id="edge29" class="edge"><title>org.apache.kafka:kafka_2.11:0.9.0.0&#45;&gt;com.yammer.metrics:metrics&#45;core:2.2.0</title>
<path fill="none" stroke="black" d="M103.699,-626.014C175.54,-663.689 311.262,-734.865 388.14,-775.182"/>
<polygon fill="black" stroke="black" points="386.734,-778.396 397.216,-779.941 389.985,-772.197 386.734,-778.396"/>
</g>
<!-- com.101tec:zkclient:0.7 -->
<g id="node17" class="node"><title>com.101tec:zkclient:0.7</title>
<g id="a_node17"><a xlink:href="https://github.com/sgroschupf/zkclient" xlink:title="com.101tec/zkclient/0.7" target="_blank">
<polygon fill="none" stroke="black" points="204,-488 204,-538 284,-538 284,-488 204,-488"/>
<text text-anchor="start" x="212" y="-523.8" font-family="Times,serif" font-size="14.00">com.101tec</text>
<text text-anchor="start" x="221" y="-509.8" font-family="Times,serif" font-weight="bold" font-size="14.00">zkclient</text>
<text text-anchor="start" x="235" y="-495.8" font-family="Times,serif" font-size="14.00">0.7</text>
</a>
</g>
</g>
<!-- org.apache.kafka:kafka_2.11:0.9.0.0&#45;&gt;com.101tec:zkclient:0.7 -->
<g id="edge30" class="edge"><title>org.apache.kafka:kafka_2.11:0.9.0.0&#45;&gt;com.101tec:zkclient:0.7</title>
<path fill="none" stroke="black" d="M109.336,-575.901C136.161,-563.277 168.431,-548.091 194.543,-535.803"/>
<polygon fill="black" stroke="black" points="196.305,-538.842 203.863,-531.417 193.325,-532.508 196.305,-538.842"/>
</g>
<!-- org.apache.zookeeper:zookeeper:3.4.6 -->
<g id="node18" class="node"><title>org.apache.zookeeper:zookeeper:3.4.6</title>
<g id="a_node18"><a xlink:href="http://repo1.maven.org/maven2/org/apache/zookeeper/zookeeper/3.4.6/zookeeper-3.4.6.pom" xlink:title="org.apache.zookeeper/zookeeper/3.4.6" target="_blank">
<polygon fill="none" stroke="black" points="378.5,-459 378.5,-509 513.5,-509 513.5,-459 378.5,-459"/>
<text text-anchor="start" x="386.5" y="-494.8" font-family="Times,serif" font-size="14.00">org.apache.zookeeper</text>
<text text-anchor="start" x="416.5" y="-480.8" font-family="Times,serif" font-weight="bold" font-size="14.00">zookeeper</text>
<text text-anchor="start" x="432" y="-466.8" font-family="Times,serif" font-size="14.00">3.4.6</text>
</a>
</g>
</g>
<!-- org.apache.kafka:kafka_2.11:0.9.0.0&#45;&gt;org.apache.zookeeper:zookeeper:3.4.6 -->
<g id="edge32" class="edge"><title>org.apache.kafka:kafka_2.11:0.9.0.0&#45;&gt;org.apache.zookeeper:zookeeper:3.4.6</title>
<path fill="none" stroke="black" d="M110.033,-596.662C168.755,-590.619 264.554,-576.841 342,-547 363.012,-538.904 384.526,-526.51 402.421,-514.849"/>
<polygon fill="black" stroke="black" points="404.512,-517.662 410.897,-509.207 400.633,-511.835 404.512,-517.662"/>
</g>
<!-- net.jpountz.lz4:lz4:1.2.0 -->
<g id="node4" class="node"><title>net.jpountz.lz4:lz4:1.2.0</title>
<g id="a_node4"><a xlink:href="https://github.com/jpountz/lz4-java" xlink:title="net.jpountz.lz4/lz4/1.2.0" target="_blank">
<polygon fill="none" stroke="black" points="397,-888 397,-938 495,-938 495,-888 397,-888"/>
<text text-anchor="start" x="405" y="-923.8" font-family="Times,serif" font-size="14.00">net.jpountz.lz4</text>
<text text-anchor="start" x="437.5" y="-909.8" font-family="Times,serif" font-weight="bold" font-size="14.00">lz4</text>
<text text-anchor="start" x="432" y="-895.8" font-family="Times,serif" font-size="14.00">1.2.0</text>
</a>
</g>
</g>
<!-- org.apache.kafka:kafka&#45;clients:0.9.0.0&#45;&gt;net.jpountz.lz4:lz4:1.2.0 -->
<g id="edge3" class="edge"><title>org.apache.kafka:kafka&#45;clients:0.9.0.0&#45;&gt;net.jpountz.lz4:lz4:1.2.0</title>
<path fill="none" stroke="black" d="M299.123,-873.613C326.323,-880.957 359.306,-889.862 387.023,-897.346"/>
<polygon fill="black" stroke="black" points="386.409,-900.806 396.976,-900.033 388.234,-894.048 386.409,-900.806"/>
</g>
<!-- org.xerial.snappy:snappy&#45;java:1.1.1.7 -->
<g id="node5" class="node"><title>org.xerial.snappy:snappy&#45;java:1.1.1.7</title>
<g id="a_node5"><a xlink:href="https://github.comm/xerial/snappy-java" xlink:title="org.xerial.snappy/snappy&#45;java/1.1.1.7" target="_blank">
<polygon fill="none" stroke="black" points="390.5,-957 390.5,-1007 501.5,-1007 501.5,-957 390.5,-957"/>
<text text-anchor="start" x="398.5" y="-992.8" font-family="Times,serif" font-size="14.00">org.xerial.snappy</text>
<text text-anchor="start" x="410.5" y="-978.8" font-family="Times,serif" font-weight="bold" font-size="14.00">snappy&#45;java</text>
<text text-anchor="start" x="426.5" y="-964.8" font-family="Times,serif" font-size="14.00">1.1.1.7</text>
</a>
</g>
</g>
<!-- org.apache.kafka:kafka&#45;clients:0.9.0.0&#45;&gt;org.xerial.snappy:snappy&#45;java:1.1.1.7 -->
<g id="edge4" class="edge"><title>org.apache.kafka:kafka&#45;clients:0.9.0.0&#45;&gt;org.xerial.snappy:snappy&#45;java:1.1.1.7</title>
<path fill="none" stroke="black" d="M299.165,-871.864C314.031,-877.102 329.485,-884.283 342,-894 364.492,-911.464 356.738,-928.058 378,-947 379.507,-948.342 381.074,-949.649 382.689,-950.921"/>
<polygon fill="black" stroke="black" points="380.945,-953.978 391.106,-956.979 385.035,-948.297 380.945,-953.978"/>
</g>
<!-- org.slf4j:slf4j&#45;api:1.7.6 -->
<g id="node11" class="node"><title>org.slf4j:slf4j&#45;api:1.7.6</title>
<g id="a_node11"><a xlink:href="http://www.slf4j.org" xlink:title="org.slf4j/slf4j&#45;api/1.7.6" target="_blank">
<polygon fill="none" stroke="black" points="690,-688 690,-738 754,-738 754,-688 690,-688"/>
<text text-anchor="start" x="699" y="-723.8" font-family="Times,serif" font-size="14.00">org.slf4j</text>
<text text-anchor="start" x="698" y="-709.8" font-family="Times,serif" font-weight="bold" font-size="14.00">slf4j&#45;api</text>
<text text-anchor="start" x="708" y="-695.8" font-family="Times,serif" font-size="14.00">1.7.6</text>
</a>
</g>
</g>
<!-- org.apache.kafka:kafka&#45;clients:0.9.0.0&#45;&gt;org.slf4j:slf4j&#45;api:1.7.6 -->
<g id="edge20" class="edge"><title>org.apache.kafka:kafka&#45;clients:0.9.0.0&#45;&gt;org.slf4j:slf4j&#45;api:1.7.6</title>
<path fill="none" stroke="black" d="M299.151,-867.624C379.134,-877.523 530.922,-885.216 638,-823 668.029,-805.552 690.692,-772.519 704.686,-747.188"/>
<polygon fill="black" stroke="black" points="707.836,-748.719 709.447,-738.247 701.657,-745.429 707.836,-748.719"/>
</g>
<!-- log4j:log4j:1.2.17 -->
<g id="node8" class="node"><title>log4j:log4j:1.2.17</title>
<g id="a_node8"><a xlink:href="http://logging.apache.org/log4j/1.2/" xlink:title="log4j/log4j/1.2.17" target="_blank">
<polygon fill="none" stroke="black" points="695,-395 695,-445 749,-445 749,-395 695,-395"/>
<text text-anchor="start" x="708" y="-430.8" font-family="Times,serif" font-size="14.00">log4j</text>
<text text-anchor="start" x="707.5" y="-416.8" font-family="Times,serif" font-weight="bold" font-size="14.00">log4j</text>
<text text-anchor="start" x="704.5" y="-402.8" font-family="Times,serif" font-size="14.00">1.2.17</text>
</a>
</g>
</g>
<!-- org.slf4j:slf4j&#45;log4j12:1.7.6&#45;&gt;log4j:log4j:1.2.17 -->
<g id="edge12" class="edge"><title>org.slf4j:slf4j&#45;log4j12:1.7.6&#45;&gt;log4j:log4j:1.2.17</title>
<path fill="none" stroke="black" d="M611.821,-633.817C620.56,-619.882 630.871,-601.99 638,-585 661.363,-529.322 639.59,-503.616 674,-454 677.456,-449.017 681.887,-444.496 686.643,-440.497"/>
<polygon fill="black" stroke="black" points="688.994,-443.106 694.838,-434.269 684.759,-437.533 688.994,-443.106"/>
</g>
<!-- org.slf4j:slf4j&#45;log4j12:1.7.6&#45;&gt;org.slf4j:slf4j&#45;api:1.7.6 -->
<g id="edge19" class="edge"><title>org.slf4j:slf4j&#45;log4j12:1.7.6&#45;&gt;org.slf4j:slf4j&#45;api:1.7.6</title>
<path fill="none" stroke="black" d="M638.01,-677.433C651.663,-683.284 666.714,-689.735 680.207,-695.517"/>
<polygon fill="black" stroke="black" points="679.143,-698.869 689.714,-699.592 681.901,-692.435 679.143,-698.869"/>
</g>
<!-- org.slf4j:slf4j&#45;log4j12:1.6.1 -->
<g id="node7" class="node"><title>org.slf4j:slf4j&#45;log4j12:1.6.1</title>
<g id="a_node7"><a xlink:href="http://www.slf4j.org" xlink:title="org.slf4j/slf4j&#45;log4j12/1.6.1" target="_blank">
<polygon fill="none" stroke="black" points="550,-280 550,-330 638,-330 638,-280 550,-280"/>
<text text-anchor="start" x="571" y="-315.8" font-family="Times,serif" font-size="14.00">org.slf4j</text>
<text text-anchor="start" x="558" y="-301.8" font-family="Times,serif" font-weight="bold" font-size="14.00">slf4j&#45;log4j12</text>
<text text-anchor="start" x="580" y="-287.8" font-family="Times,serif" font-size="14.00">1.6.1</text>
</a>
</g>
</g>
<!-- log4j:log4j:1.2.15 -->
<g id="node9" class="node"><title>log4j:log4j:1.2.15</title>
<g id="a_node9"><a xlink:href="http://logging.apache.org:80/log4j/1.2/" xlink:title="log4j/log4j/1.2.15" target="_blank">
<polygon fill="none" stroke="black" points="567,-103 567,-153 621,-153 621,-103 567,-103"/>
<text text-anchor="start" x="580" y="-138.8" font-family="Times,serif" font-size="14.00">log4j</text>
<text text-anchor="start" x="579.5" y="-124.8" font-family="Times,serif" font-weight="bold" font-size="14.00">log4j</text>
<text text-anchor="start" x="576.5" y="-110.8" font-family="Times,serif" font-size="14.00">1.2.15</text>
</a>
</g>
</g>
<!-- com.sun.jmx:jmxri:1.2.1 -->
<g id="node21" class="node"><title>com.sun.jmx:jmxri:1.2.1</title>
<g id="a_node21"><a xlink:href="http://repo1.maven.org/maven2/com/sun/jmx/jmxri/1.2.1/jmxri-1.2.1.pom" xlink:title="com.sun.jmx/jmxri/1.2.1" target="_blank">
<polygon fill="none" stroke="black" points="677.5,-207 677.5,-257 766.5,-257 766.5,-207 677.5,-207"/>
<text text-anchor="start" x="685.5" y="-242.8" font-family="Times,serif" font-size="14.00">com.sun.jmx</text>
<text text-anchor="start" x="705" y="-228.8" font-family="Times,serif" font-weight="bold" font-size="14.00">jmxri</text>
<text text-anchor="start" x="708" y="-214.8" font-family="Times,serif" font-size="14.00">1.2.1</text>
</a>
</g>
</g>
<!-- log4j:log4j:1.2.15&#45;&gt;com.sun.jmx:jmxri:1.2.1 -->
<g id="edge35" class="edge"><title>log4j:log4j:1.2.15&#45;&gt;com.sun.jmx:jmxri:1.2.1</title>
<path fill="none" stroke="black" d="M621.253,-151.84C636.42,-165.381 656.003,-182.476 674,-197 675.514,-198.222 677.064,-199.457 678.637,-200.695"/>
<polygon fill="black" stroke="black" points="676.572,-203.523 686.62,-206.882 680.86,-197.99 676.572,-203.523"/>
</g>
<!-- com.sun.jdmk:jmxtools:1.2.1 -->
<g id="node22" class="node"><title>com.sun.jdmk:jmxtools:1.2.1</title>
<g id="a_node22"><a xlink:href="http://java.sun.com/products/JavaManagement/" xlink:title="com.sun.jdmk/jmxtools/1.2.1" target="_blank">
<polygon fill="none" stroke="black" points="674.5,-138 674.5,-188 769.5,-188 769.5,-138 674.5,-138"/>
<text text-anchor="start" x="682.5" y="-173.8" font-family="Times,serif" font-size="14.00">com.sun.jdmk</text>
<text text-anchor="start" x="696.5" y="-159.8" font-family="Times,serif" font-weight="bold" font-size="14.00">jmxtools</text>
<text text-anchor="start" x="708" y="-145.8" font-family="Times,serif" font-size="14.00">1.2.1</text>
</a>
</g>
</g>
<!-- log4j:log4j:1.2.15&#45;&gt;com.sun.jdmk:jmxtools:1.2.1 -->
<g id="edge36" class="edge"><title>log4j:log4j:1.2.15&#45;&gt;com.sun.jdmk:jmxtools:1.2.1</title>
<path fill="none" stroke="black" d="M621.107,-135.252C633.702,-138.751 649.334,-143.093 664.464,-147.295"/>
<polygon fill="black" stroke="black" points="663.724,-150.723 674.296,-150.027 665.598,-143.978 663.724,-150.723"/>
</g>
<!-- javax.jms:jms:1.1 -->
<g id="node23" class="node"><title>javax.jms:jms:1.1</title>
<g id="a_node23"><a xlink:href="http://java.sun.com/products/jms" xlink:title="javax.jms/jms/1.1" target="_blank">
<polygon fill="none" stroke="black" points="687,-69 687,-119 757,-119 757,-69 687,-69"/>
<text text-anchor="start" x="695" y="-104.8" font-family="Times,serif" font-size="14.00">javax.jms</text>
<text text-anchor="start" x="711" y="-90.8" font-family="Times,serif" font-weight="bold" font-size="14.00">jms</text>
<text text-anchor="start" x="713" y="-76.8" font-family="Times,serif" font-size="14.00">1.1</text>
</a>
</g>
</g>
<!-- log4j:log4j:1.2.15&#45;&gt;javax.jms:jms:1.1 -->
<g id="edge37" class="edge"><title>log4j:log4j:1.2.15&#45;&gt;javax.jms:jms:1.1</title>
<path fill="none" stroke="black" d="M621.107,-120.955C637.238,-116.602 658.351,-110.905 677.009,-105.871"/>
<polygon fill="black" stroke="black" points="678.046,-109.216 686.788,-103.232 676.222,-102.458 678.046,-109.216"/>
</g>
<!-- javax.mail:mail:1.4 -->
<g id="node24" class="node"><title>javax.mail:mail:1.4</title>
<g id="a_node24"><a xlink:href="https://glassfish.dev.java.net/javaee5/mail/" xlink:title="javax.mail/mail/1.4" target="_blank">
<polygon fill="none" stroke="black" points="685,-0 685,-50 759,-50 759,-0 685,-0"/>
<text text-anchor="start" x="693" y="-35.8" font-family="Times,serif" font-size="14.00">javax.mail</text>
<text text-anchor="start" x="708.5" y="-21.8" font-family="Times,serif" font-weight="bold" font-size="14.00">mail</text>
<text text-anchor="start" x="713" y="-7.8" font-family="Times,serif" font-size="14.00">1.4</text>
</a>
</g>
</g>
<!-- log4j:log4j:1.2.15&#45;&gt;javax.mail:mail:1.4 -->
<g id="edge38" class="edge"><title>log4j:log4j:1.2.15&#45;&gt;javax.mail:mail:1.4</title>
<path fill="none" stroke="black" d="M621.177,-104.065C636.319,-90.4935 655.903,-73.3995 674,-59 675.157,-58.079 676.337,-57.1518 677.532,-56.2221"/>
<polygon fill="black" stroke="black" points="679.746,-58.9354 685.577,-50.0898 675.502,-53.3682 679.746,-58.9354"/>
</g>
<!-- log4j:log4j:1.2.16 -->
<g id="node10" class="node"><title>log4j:log4j:1.2.16</title>
<g id="a_node10"><a xlink:href="http://logging.apache.org/log4j/1.2/" xlink:title="log4j/log4j/1.2.16" target="_blank">
<polygon fill="none" stroke="black" points="567,-211 567,-261 621,-261 621,-211 567,-211"/>
<text text-anchor="start" x="580" y="-246.8" font-family="Times,serif" font-size="14.00">log4j</text>
<text text-anchor="start" x="579.5" y="-232.8" font-family="Times,serif" font-weight="bold" font-size="14.00">log4j</text>
<text text-anchor="start" x="576.5" y="-218.8" font-family="Times,serif" font-size="14.00">1.2.16</text>
</a>
</g>
</g>
<!-- org.slf4j:slf4j&#45;api:1.7.2 -->
<g id="node12" class="node"><title>org.slf4j:slf4j&#45;api:1.7.2</title>
<g id="a_node12"><a xlink:href="http://www.slf4j.org" xlink:title="org.slf4j/slf4j&#45;api/1.7.2" target="_blank">
<polygon fill="none" stroke="black" points="562,-742 562,-792 626,-792 626,-742 562,-742"/>
<text text-anchor="start" x="571" y="-777.8" font-family="Times,serif" font-size="14.00">org.slf4j</text>
<text text-anchor="start" x="570" y="-763.8" font-family="Times,serif" font-weight="bold" font-size="14.00">slf4j&#45;api</text>
<text text-anchor="start" x="580" y="-749.8" font-family="Times,serif" font-size="14.00">1.7.2</text>
</a>
</g>
</g>
<!-- org.slf4j:slf4j&#45;api:1.6.1 -->
<g id="node13" class="node"><title>org.slf4j:slf4j&#45;api:1.6.1</title>
<g id="a_node13"><a xlink:href="http://www.slf4j.org" xlink:title="org.slf4j/slf4j&#45;api/1.6.1" target="_blank">
<polygon fill="none" stroke="black" points="562,-349 562,-399 626,-399 626,-349 562,-349"/>
<text text-anchor="start" x="571" y="-384.8" font-family="Times,serif" font-size="14.00">org.slf4j</text>
<text text-anchor="start" x="570" y="-370.8" font-family="Times,serif" font-weight="bold" font-size="14.00">slf4j&#45;api</text>
<text text-anchor="start" x="580" y="-356.8" font-family="Times,serif" font-size="14.00">1.6.1</text>
</a>
</g>
</g>
<!-- com.yammer.metrics:metrics&#45;core:2.2.0&#45;&gt;org.slf4j:slf4j&#45;api:1.7.6 -->
<g id="edge21" class="edge"><title>com.yammer.metrics:metrics&#45;core:2.2.0&#45;&gt;org.slf4j:slf4j&#45;api:1.7.6</title>
<path fill="none" stroke="black" d="M513.398,-815.919C551.448,-819.225 599.198,-818.225 638,-801 663.529,-789.667 684.935,-766.358 699.611,-746.575"/>
<polygon fill="black" stroke="black" points="702.516,-748.529 705.481,-738.357 696.82,-744.46 702.516,-748.529"/>
</g>
<!-- com.yammer.metrics:metrics&#45;core:2.2.0&#45;&gt;org.slf4j:slf4j&#45;api:1.7.2 -->
<g id="edge24" class="edge"><title>com.yammer.metrics:metrics&#45;core:2.2.0&#45;&gt;org.slf4j:slf4j&#45;api:1.7.2</title>
<path fill="none" stroke="black" d="M513.165,-787.779C526.369,-784.342 539.873,-780.828 551.93,-777.689"/>
<polygon fill="black" stroke="black" points="552.883,-781.058 561.679,-775.152 551.12,-774.284 552.883,-781.058"/>
</g>
<!-- com.101tec:zkclient:0.7&#45;&gt;org.slf4j:slf4j&#45;log4j12:1.7.6 -->
<g id="edge5" class="edge"><title>com.101tec:zkclient:0.7&#45;&gt;org.slf4j:slf4j&#45;log4j12:1.7.6</title>
<path fill="none" stroke="black" d="M284.102,-525.505C337.173,-542.965 434.509,-576.725 514,-614 523.53,-618.469 533.456,-623.663 542.925,-628.902"/>
<polygon fill="black" stroke="black" points="541.404,-632.062 551.835,-633.916 544.837,-625.961 541.404,-632.062"/>
</g>
<!-- com.101tec:zkclient:0.7&#45;&gt;org.slf4j:slf4j&#45;log4j12:1.6.1 -->
<g id="edge8" class="edge"><title>com.101tec:zkclient:0.7&#45;&gt;org.slf4j:slf4j&#45;log4j12:1.6.1</title>
<path fill="none" stroke="black" d="M284.404,-506.547C303.807,-501.598 326.334,-492.961 342,-478 372.263,-449.099 348.236,-420.414 378,-391 422.448,-347.074 492.188,-324.785 540.117,-314.051"/>
<polygon fill="black" stroke="black" points="540.952,-317.451 549.996,-311.932 539.484,-310.607 540.952,-317.451"/>
</g>
<!-- com.101tec:zkclient:0.7&#45;&gt;log4j:log4j:1.2.17 -->
<g id="edge10" class="edge"><title>com.101tec:zkclient:0.7&#45;&gt;log4j:log4j:1.2.17</title>
<path fill="none" stroke="black" d="M284.034,-508.459C304.32,-504.029 327.78,-495.28 342,-478 408.863,-396.752 307.109,-321.759 378,-244 431.087,-185.77 471.793,-210.628 550,-201 588.818,-196.221 605.815,-178.779 638,-201 653.815,-211.919 691.54,-326.157 710.187,-385.151"/>
<polygon fill="black" stroke="black" points="706.885,-386.316 713.224,-394.804 713.562,-384.215 706.885,-386.316"/>
</g>
<!-- com.101tec:zkclient:0.7&#45;&gt;log4j:log4j:1.2.15 -->
<g id="edge13" class="edge"><title>com.101tec:zkclient:0.7&#45;&gt;log4j:log4j:1.2.15</title>
<path fill="none" stroke="black" d="M284.287,-508.664C304.65,-504.296 328.102,-495.54 342,-478 428.14,-369.286 283.329,-269.371 378,-168 423.75,-119.012 508.651,-118.568 556.945,-123.011"/>
<polygon fill="black" stroke="black" points="556.647,-126.499 566.955,-124.051 557.37,-119.536 556.647,-126.499"/>
</g>
<!-- com.101tec:zkclient:0.7&#45;&gt;log4j:log4j:1.2.16 -->
<g id="edge15" class="edge"><title>com.101tec:zkclient:0.7&#45;&gt;log4j:log4j:1.2.16</title>
<path fill="none" stroke="black" d="M284.067,-507.966C304.108,-503.389 327.324,-494.657 342,-478 390.472,-422.984 329.915,-372.354 378,-317 424.059,-263.978 508.472,-245.574 556.688,-239.251"/>
<polygon fill="black" stroke="black" points="557.178,-242.718 566.687,-238.046 556.34,-235.768 557.178,-242.718"/>
</g>
<!-- com.101tec:zkclient:0.7&#45;&gt;org.slf4j:slf4j&#45;api:1.7.6 -->
<g id="edge17" class="edge"><title>com.101tec:zkclient:0.7&#45;&gt;org.slf4j:slf4j&#45;api:1.7.6</title>
<path fill="none" stroke="black" d="M276.022,-538.067C328.673,-578.977 440.504,-658.945 550,-693 592.808,-706.314 644.151,-710.892 679.335,-712.401"/>
<polygon fill="black" stroke="black" points="679.588,-715.912 689.708,-712.777 679.841,-708.917 679.588,-715.912"/>
</g>
<!-- com.101tec:zkclient:0.7&#45;&gt;org.slf4j:slf4j&#45;api:1.7.2 -->
<g id="edge22" class="edge"><title>com.101tec:zkclient:0.7&#45;&gt;org.slf4j:slf4j&#45;api:1.7.2</title>
<path fill="none" stroke="black" d="M266.036,-538.381C286.945,-564.357 319.114,-606.413 342,-646 361.718,-680.106 347.078,-702.59 378,-727 428.007,-766.477 504.837,-771.387 551.837,-770.085"/>
<polygon fill="black" stroke="black" points="552.107,-773.577 561.965,-769.695 551.837,-766.582 552.107,-773.577"/>
</g>
<!-- com.101tec:zkclient:0.7&#45;&gt;org.slf4j:slf4j&#45;api:1.6.1 -->
<g id="edge25" class="edge"><title>com.101tec:zkclient:0.7&#45;&gt;org.slf4j:slf4j&#45;api:1.6.1</title>
<path fill="none" stroke="black" d="M284.059,-502.178C302.284,-496.319 323.898,-488.178 342,-478 359.909,-467.931 360.038,-458.974 378,-449 434.753,-417.487 507.16,-395.543 551.787,-383.858"/>
<polygon fill="black" stroke="black" points="552.875,-387.192 561.69,-381.314 551.134,-380.412 552.875,-387.192"/>
</g>
<!-- com.101tec:zkclient:0.7&#45;&gt;org.apache.zookeeper:zookeeper:3.4.6 -->
<g id="edge31" class="edge"><title>com.101tec:zkclient:0.7&#45;&gt;org.apache.zookeeper:zookeeper:3.4.6</title>
<path fill="none" stroke="black" d="M284.037,-507.34C308.035,-503.86 339.609,-499.282 368.431,-495.102"/>
<polygon fill="black" stroke="black" points="369.1,-498.542 378.494,-493.643 368.095,-491.615 369.1,-498.542"/>
</g>
<!-- org.apache.zookeeper:zookeeper:3.4.6&#45;&gt;org.slf4j:slf4j&#45;log4j12:1.7.6 -->
<g id="edge6" class="edge"><title>org.apache.zookeeper:zookeeper:3.4.6&#45;&gt;org.slf4j:slf4j&#45;log4j12:1.7.6</title>
<path fill="none" stroke="black" d="M493.699,-509.216C501.16,-514.695 508.29,-520.985 514,-528 541.457,-561.732 525.473,-583.081 550,-619 551.671,-621.447 553.517,-623.854 555.476,-626.199"/>
<polygon fill="black" stroke="black" points="553.165,-628.859 562.486,-633.896 558.341,-624.146 553.165,-628.859"/>
</g>
<!-- org.apache.zookeeper:zookeeper:3.4.6&#45;&gt;org.slf4j:slf4j&#45;log4j12:1.6.1 -->
<g id="edge9" class="edge"><title>org.apache.zookeeper:zookeeper:3.4.6&#45;&gt;org.slf4j:slf4j&#45;log4j12:1.6.1</title>
<path fill="none" stroke="black" d="M461.822,-458.789C480.289,-428.514 513.848,-377.06 550,-339 550.631,-338.336 551.275,-337.674 551.931,-337.014"/>
<polygon fill="black" stroke="black" points="554.414,-339.483 559.307,-330.086 549.622,-334.381 554.414,-339.483"/>
</g>
<!-- org.apache.zookeeper:zookeeper:3.4.6&#45;&gt;log4j:log4j:1.2.17 -->
<g id="edge11" class="edge"><title>org.apache.zookeeper:zookeeper:3.4.6&#45;&gt;log4j:log4j:1.2.17</title>
<path fill="none" stroke="black" d="M510.979,-458.917C523.769,-454.501 537.207,-450.276 550,-447 595.78,-435.275 649.831,-427.767 684.724,-423.72"/>
<polygon fill="black" stroke="black" points="685.362,-427.17 694.908,-422.574 684.579,-420.214 685.362,-427.17"/>
</g>
<!-- org.apache.zookeeper:zookeeper:3.4.6&#45;&gt;log4j:log4j:1.2.15 -->
<g id="edge14" class="edge"><title>org.apache.zookeeper:zookeeper:3.4.6&#45;&gt;log4j:log4j:1.2.15</title>
<path fill="none" stroke="black" d="M454.467,-458.774C469.702,-408.553 506.621,-292.978 550,-201 556.2,-187.854 564.02,-173.981 571.286,-161.9"/>
<polygon fill="black" stroke="black" points="574.465,-163.41 576.698,-153.053 568.494,-159.757 574.465,-163.41"/>
</g>
<!-- org.apache.zookeeper:zookeeper:3.4.6&#45;&gt;log4j:log4j:1.2.16 -->
<g id="edge16" class="edge"><title>org.apache.zookeeper:zookeeper:3.4.6&#45;&gt;log4j:log4j:1.2.16</title>
<path fill="none" stroke="black" d="M454.911,-458.858C469.062,-416.632 501.808,-330.188 550,-270 552.677,-266.657 555.741,-263.439 558.974,-260.404"/>
<polygon fill="black" stroke="black" points="561.459,-262.883 566.721,-253.687 556.873,-257.594 561.459,-262.883"/>
</g>
<!-- org.apache.zookeeper:zookeeper:3.4.6&#45;&gt;org.slf4j:slf4j&#45;api:1.7.6 -->
<g id="edge18" class="edge"><title>org.apache.zookeeper:zookeeper:3.4.6&#45;&gt;org.slf4j:slf4j&#45;api:1.7.6</title>
<path fill="none" stroke="black" d="M468.257,-509.369C487.78,-531.485 518.399,-563.329 550,-585 585.431,-609.298 603.05,-600.016 638,-625 659.483,-640.357 679.886,-661.859 695.088,-679.764"/>
<polygon fill="black" stroke="black" points="692.605,-682.253 701.691,-687.702 697.987,-677.776 692.605,-682.253"/>
</g>
<!-- org.apache.zookeeper:zookeeper:3.4.6&#45;&gt;org.slf4j:slf4j&#45;api:1.7.2 -->
<g id="edge23" class="edge"><title>org.apache.zookeeper:zookeeper:3.4.6&#45;&gt;org.slf4j:slf4j&#45;api:1.7.2</title>
<path fill="none" stroke="black" d="M458.665,-509.053C477.213,-548.562 514.926,-627.58 550,-693 557.119,-706.277 565.343,-720.645 572.682,-733.157"/>
<polygon fill="black" stroke="black" points="569.743,-735.064 577.84,-741.898 575.772,-731.507 569.743,-735.064"/>
</g>
<!-- org.apache.zookeeper:zookeeper:3.4.6&#45;&gt;org.slf4j:slf4j&#45;api:1.6.1 -->
<g id="edge26" class="edge"><title>org.apache.zookeeper:zookeeper:3.4.6&#45;&gt;org.slf4j:slf4j&#45;api:1.6.1</title>
<path fill="none" stroke="black" d="M480.495,-458.764C502.239,-442.381 530.675,-420.957 553.518,-403.746"/>
<polygon fill="black" stroke="black" points="555.778,-406.427 561.658,-397.614 551.565,-400.836 555.778,-406.427"/>
</g>
<!-- io.netty:netty:3.7.0.Final -->
<g id="node19" class="node"><title>io.netty:netty:3.7.0.Final</title>
<g id="a_node19"><a xlink:href="http://netty.io/" xlink:title="io.netty/netty/3.7.0.Final" target="_blank">
<polygon fill="none" stroke="black" points="556,-526 556,-576 632,-576 632,-526 556,-526"/>
<text text-anchor="start" x="573" y="-561.8" font-family="Times,serif" font-size="14.00">io.netty</text>
<text text-anchor="start" x="579" y="-547.8" font-family="Times,serif" font-weight="bold" font-size="14.00">netty</text>
<text text-anchor="start" x="564" y="-533.8" font-family="Times,serif" font-size="14.00">3.7.0.Final</text>
</a>
</g>
</g>
<!-- org.apache.zookeeper:zookeeper:3.4.6&#45;&gt;io.netty:netty:3.7.0.Final -->
<g id="edge33" class="edge"><title>org.apache.zookeeper:zookeeper:3.4.6&#45;&gt;io.netty:netty:3.7.0.Final</title>
<path fill="none" stroke="black" d="M501.78,-509.139C516.516,-515.901 532.309,-523.149 546.543,-529.681"/>
<polygon fill="black" stroke="black" points="545.097,-532.868 555.646,-533.858 548.017,-526.506 545.097,-532.868"/>
</g>
<!-- jline:jline:0.9.94 -->
<g id="node20" class="node"><title>jline:jline:0.9.94</title>
<g id="a_node20"><a xlink:href="http://jline.sourceforge.net" xlink:title="jline/jline/0.9.94" target="_blank">
<polygon fill="none" stroke="black" points="567,-457 567,-507 621,-507 621,-457 567,-457"/>
<text text-anchor="start" x="581.5" y="-492.8" font-family="Times,serif" font-size="14.00">jline</text>
<text text-anchor="start" x="581" y="-478.8" font-family="Times,serif" font-weight="bold" font-size="14.00">jline</text>
<text text-anchor="start" x="576.5" y="-464.8" font-family="Times,serif" font-size="14.00">0.9.94</text>
</a>
</g>
</g>
<!-- org.apache.zookeeper:zookeeper:3.4.6&#45;&gt;jline:jline:0.9.94 -->
<g id="edge34" class="edge"><title>org.apache.zookeeper:zookeeper:3.4.6&#45;&gt;jline:jline:0.9.94</title>
<path fill="none" stroke="black" d="M513.591,-483.088C528.28,-482.887 543.318,-482.681 556.301,-482.503"/>
<polygon fill="black" stroke="black" points="556.719,-485.997 566.67,-482.361 556.623,-478.998 556.719,-485.997"/>
</g>
<!-- junit:junit:3.8.1 -->
<g id="node26" class="node"><title>junit:junit:3.8.1</title>
<g id="a_node26"><a xlink:href="http://junit.org" xlink:title="junit/junit/3.8.1" target="_blank">
<polygon fill="none" stroke="black" points="695,-464 695,-514 749,-514 749,-464 695,-464"/>
<text text-anchor="start" x="709.5" y="-499.8" font-family="Times,serif" font-size="14.00">junit</text>
<text text-anchor="start" x="708" y="-485.8" font-family="Times,serif" font-weight="bold" font-size="14.00">junit</text>
<text text-anchor="start" x="708" y="-471.8" font-family="Times,serif" font-size="14.00">3.8.1</text>
</a>
</g>
</g>
<!-- jline:jline:0.9.94&#45;&gt;junit:junit:3.8.1 -->
<g id="edge40" class="edge"><title>jline:jline:0.9.94&#45;&gt;junit:junit:3.8.1</title>
<path fill="none" stroke="black" d="M621.107,-483.45C639.522,-484.473 664.43,-485.857 684.767,-486.987"/>
<polygon fill="black" stroke="black" points="684.747,-490.491 694.926,-487.551 685.136,-483.502 684.747,-490.491"/>
</g>
<!-- javax.activation:activation:1.1 -->
<g id="node25" class="node"><title>javax.activation:activation:1.1</title>
<g id="a_node25"><a xlink:href="http://java.sun.com/products/javabeans/jaf/index.jsp" xlink:title="javax.activation/activation/1.1" target="_blank">
<polygon fill="none" stroke="black" points="806.5,-0 806.5,-50 909.5,-50 909.5,-0 806.5,-0"/>
<text text-anchor="start" x="814.5" y="-35.8" font-family="Times,serif" font-size="14.00">javax.activation</text>
<text text-anchor="start" x="829" y="-21.8" font-family="Times,serif" font-weight="bold" font-size="14.00">activation</text>
<text text-anchor="start" x="849" y="-7.8" font-family="Times,serif" font-size="14.00">1.1</text>
</a>
</g>
</g>
<!-- javax.mail:mail:1.4&#45;&gt;javax.activation:activation:1.1 -->
<g id="edge39" class="edge"><title>javax.mail:mail:1.4&#45;&gt;javax.activation:activation:1.1</title>
<path fill="none" stroke="black" d="M759.262,-25C770.699,-25 783.662,-25 796.32,-25"/>
<polygon fill="black" stroke="black" points="796.372,-28.5001 806.372,-25 796.372,-21.5001 796.372,-28.5001"/>
</g>
</g>
</svg>
