<?xml version="1.0" encoding="UTF-8" standalone="no"?>
<!DOCTYPE svg PUBLIC "-//W3C//DTD SVG 1.1//EN"
 "http://www.w3.org/Graphics/SVG/1.1/DTD/svg11.dtd">
<!-- Generated by graphviz version 2.36.0 (20140111.2315)
 -->
<!-- Title: org.apache.kafka/kafka_2.11/0.8.2.1 dependency graph Pages: 1 -->
<svg width="746pt" height="558pt"
 viewBox="0.00 0.00 746.00 558.19" xmlns="http://www.w3.org/2000/svg" xmlns:xlink="http://www.w3.org/1999/xlink">
<g id="graph0" class="graph" transform="scale(1 1) rotate(0) translate(4 554.191)">
<title>org.apache.kafka/kafka_2.11/0.8.2.1 dependency graph</title>
<polygon fill="white" stroke="none" points="-4,4 -4,-554.191 742,-554.191 742,4 -4,4"/>
<!-- org.apache.kafka:kafka_2.11:0.8.2.1 -->
<g id="node1" class="node"><title>org.apache.kafka:kafka_2.11:0.8.2.1</title>
<g id="a_node1"><a xlink:href="http://kafka.apache.org" xlink:title="org.apache.kafka/kafka_2.11/0.8.2.1" target="_blank">
<polygon fill="none" stroke="black" points="0,-239.316 0,-289.316 110,-289.316 110,-239.316 0,-239.316"/>
<text text-anchor="start" x="8" y="-275.116" font-family="Times,serif" font-size="14.00">org.apache.kafka</text>
<text text-anchor="start" x="23" y="-261.116" font-family="Times,serif" font-weight="bold" font-size="14.00">kafka_2.11</text>
<text text-anchor="start" x="35.5" y="-247.116" font-family="Times,serif" font-size="14.00">0.8.2.1</text>
</a>
</g>
</g>
<!-- org.apache.zookeeper:zookeeper:3.4.6 -->
<g id="node2" class="node"><title>org.apache.zookeeper:zookeeper:3.4.6</title>
<g id="a_node2"><a xlink:href="http://repo1.maven.org/maven2/org/apache/zookeeper/zookeeper/3.4.6/zookeeper-3.4.6.pom" xlink:title="org.apache.zookeeper/zookeeper/3.4.6" target="_blank">
<polygon fill="none" stroke="black" points="378.5,-202.316 378.5,-252.316 513.5,-252.316 513.5,-202.316 378.5,-202.316"/>
<text text-anchor="start" x="386.5" y="-238.116" font-family="Times,serif" font-size="14.00">org.apache.zookeeper</text>
<text text-anchor="start" x="416.5" y="-224.116" font-family="Times,serif" font-weight="bold" font-size="14.00">zookeeper</text>
<text text-anchor="start" x="432" y="-210.116" font-family="Times,serif" font-size="14.00">3.4.6</text>
</a>
</g>
</g>
<!-- org.apache.kafka:kafka_2.11:0.8.2.1&#45;&gt;org.apache.zookeeper:zookeeper:3.4.6 -->
<g id="edge1" class="edge"><title>org.apache.kafka:kafka_2.11:0.8.2.1&#45;&gt;org.apache.zookeeper:zookeeper:3.4.6</title>
<path fill="none" stroke="black" d="M110.312,-288.413C121.875,-292.521 134.17,-296.156 146,-298.316 231.694,-313.963 258.825,-324.206 342,-298.316 367.109,-290.5 391.508,-274.195 410.251,-259.179"/>
<polygon fill="black" stroke="black" points="412.702,-261.694 418.185,-252.629 408.245,-256.296 412.702,-261.694"/>
</g>
<!-- org.apache.kafka:kafka&#45;clients:0.8.2.1 -->
<g id="node10" class="node"><title>org.apache.kafka:kafka&#45;clients:0.8.2.1</title>
<g id="a_node10"><a xlink:href="http://kafka.apache.org" xlink:title="org.apache.kafka/kafka&#45;clients/0.8.2.1" target="_blank">
<polygon fill="none" stroke="black" points="189,-446.316 189,-496.316 299,-496.316 299,-446.316 189,-446.316"/>
<text text-anchor="start" x="197" y="-482.116" font-family="Times,serif" font-size="14.00">org.apache.kafka</text>
<text text-anchor="start" x="206.5" y="-468.116" font-family="Times,serif" font-weight="bold" font-size="14.00">kafka&#45;clients</text>
<text text-anchor="start" x="224.5" y="-454.116" font-family="Times,serif" font-size="14.00">0.8.2.1</text>
</a>
</g>
</g>
<!-- org.apache.kafka:kafka_2.11:0.8.2.1&#45;&gt;org.apache.kafka:kafka&#45;clients:0.8.2.1 -->
<g id="edge12" class="edge"><title>org.apache.kafka:kafka_2.11:0.8.2.1&#45;&gt;org.apache.kafka:kafka&#45;clients:0.8.2.1</title>
<path fill="none" stroke="black" d="M67.787,-289.33C82.8744,-319.526 111.262,-370.682 146,-406.316 158.42,-419.057 173.727,-430.702 188.48,-440.505"/>
<polygon fill="black" stroke="black" points="186.777,-443.572 197.076,-446.059 190.576,-437.692 186.777,-443.572"/>
</g>
<!-- com.101tec:zkclient:0.3 -->
<g id="node16" class="node"><title>com.101tec:zkclient:0.3</title>
<g id="a_node16"><a xlink:href="https://github.com/sgroschupf/zkclient" xlink:title="com.101tec/zkclient/0.3" target="_blank">
<polygon fill="none" stroke="black" points="204,-101.316 204,-151.316 284,-151.316 284,-101.316 204,-101.316"/>
<text text-anchor="start" x="212" y="-137.116" font-family="Times,serif" font-size="14.00">com.101tec</text>
<text text-anchor="start" x="221" y="-123.116" font-family="Times,serif" font-weight="bold" font-size="14.00">zkclient</text>
<text text-anchor="start" x="235" y="-109.116" font-family="Times,serif" font-size="14.00">0.3</text>
</a>
</g>
</g>
<!-- org.apache.kafka:kafka_2.11:0.8.2.1&#45;&gt;com.101tec:zkclient:0.3 -->
<g id="edge22" class="edge"><title>org.apache.kafka:kafka_2.11:0.8.2.1&#45;&gt;com.101tec:zkclient:0.3</title>
<path fill="none" stroke="black" d="M72.469,-239.012C88.6847,-215.892 115.415,-182.217 146,-161.316 160.322,-151.529 177.697,-144.137 193.764,-138.728"/>
<polygon fill="black" stroke="black" points="195.09,-141.98 203.559,-135.614 192.969,-135.309 195.09,-141.98"/>
</g>
<!-- org.scala&#45;lang.modules:scala&#45;parser&#45;combinators_2.11:1.0.2 -->
<g id="node17" class="node"><title>org.scala&#45;lang.modules:scala&#45;parser&#45;combinators_2.11:1.0.2</title>
<g id="a_node17"><a xlink:href="http://www.scala-lang.org/" xlink:title="org.scala&#45;lang.modules/scala&#45;parser&#45;combinators_2.11/1.0.2" target="_blank">
<polygon fill="none" stroke="black" points="146.5,-239.316 146.5,-289.316 341.5,-289.316 341.5,-239.316 146.5,-239.316"/>
<text text-anchor="start" x="180.5" y="-275.116" font-family="Times,serif" font-size="14.00">org.scala&#45;lang.modules</text>
<text text-anchor="start" x="154.5" y="-261.116" font-family="Times,serif" font-weight="bold" font-size="14.00">scala&#45;parser&#45;combinators_2.11</text>
<text text-anchor="start" x="230" y="-247.116" font-family="Times,serif" font-size="14.00">1.0.2</text>
</a>
</g>
</g>
<!-- org.apache.kafka:kafka_2.11:0.8.2.1&#45;&gt;org.scala&#45;lang.modules:scala&#45;parser&#45;combinators_2.11:1.0.2 -->
<g id="edge23" class="edge"><title>org.apache.kafka:kafka_2.11:0.8.2.1&#45;&gt;org.scala&#45;lang.modules:scala&#45;parser&#45;combinators_2.11:1.0.2</title>
<path fill="none" stroke="black" d="M110.088,-264.316C118.396,-264.316 127.211,-264.316 136.194,-264.316"/>
<polygon fill="black" stroke="black" points="136.389,-267.816 146.389,-264.316 136.389,-260.816 136.389,-267.816"/>
</g>
<!-- net.sf.jopt&#45;simple:jopt&#45;simple:3.2 -->
<g id="node18" class="node"><title>net.sf.jopt&#45;simple:jopt&#45;simple:3.2</title>
<g id="a_node18"><a xlink:href="http://jopt-simple.sourceforge.net" xlink:title="net.sf.jopt&#45;simple/jopt&#45;simple/3.2" target="_blank">
<polygon fill="none" stroke="black" points="187.5,-170.316 187.5,-220.316 300.5,-220.316 300.5,-170.316 187.5,-170.316"/>
<text text-anchor="start" x="195.5" y="-206.116" font-family="Times,serif" font-size="14.00">net.sf.jopt&#45;simple</text>
<text text-anchor="start" x="210.5" y="-192.116" font-family="Times,serif" font-weight="bold" font-size="14.00">jopt&#45;simple</text>
<text text-anchor="start" x="235" y="-178.116" font-family="Times,serif" font-size="14.00">3.2</text>
</a>
</g>
</g>
<!-- org.apache.kafka:kafka_2.11:0.8.2.1&#45;&gt;net.sf.jopt&#45;simple:jopt&#45;simple:3.2 -->
<g id="edge24" class="edge"><title>org.apache.kafka:kafka_2.11:0.8.2.1&#45;&gt;net.sf.jopt&#45;simple:jopt&#45;simple:3.2</title>
<path fill="none" stroke="black" d="M110.206,-243.689C121.994,-239.245 134.405,-234.598 146,-230.316 156.222,-226.541 167.067,-222.583 177.661,-218.741"/>
<polygon fill="black" stroke="black" points="179.082,-221.949 187.294,-215.255 176.699,-215.367 179.082,-221.949"/>
</g>
<!-- com.yammer.metrics:metrics&#45;core:2.2.0 -->
<g id="node19" class="node"><title>com.yammer.metrics:metrics&#45;core:2.2.0</title>
<g id="a_node19"><a xlink:href="http://repo1.maven.org/maven2/com/yammer/metrics/metrics-core/2.2.0/metrics-core-2.2.0.pom" xlink:title="com.yammer.metrics/metrics&#45;core/2.2.0" target="_blank">
<polygon fill="none" stroke="black" points="177,-347.316 177,-397.316 311,-397.316 311,-347.316 177,-347.316"/>
<text text-anchor="start" x="185" y="-383.116" font-family="Times,serif" font-size="14.00">com.yammer.metrics</text>
<text text-anchor="start" x="207.5" y="-369.116" font-family="Times,serif" font-weight="bold" font-size="14.00">metrics&#45;core</text>
<text text-anchor="start" x="230" y="-355.116" font-family="Times,serif" font-size="14.00">2.2.0</text>
</a>
</g>
</g>
<!-- org.apache.kafka:kafka_2.11:0.8.2.1&#45;&gt;com.yammer.metrics:metrics&#45;core:2.2.0 -->
<g id="edge25" class="edge"><title>org.apache.kafka:kafka_2.11:0.8.2.1&#45;&gt;com.yammer.metrics:metrics&#45;core:2.2.0</title>
<path fill="none" stroke="black" d="M85.48,-289.643C102.438,-303.411 124.575,-320.075 146,-332.316 152.839,-336.224 160.136,-339.952 167.54,-343.451"/>
<polygon fill="black" stroke="black" points="166.4,-346.779 176.949,-347.756 169.312,-340.413 166.4,-346.779"/>
</g>
<!-- org.scala&#45;lang.modules:scala&#45;xml_2.11:1.0.2 -->
<g id="node20" class="node"><title>org.scala&#45;lang.modules:scala&#45;xml_2.11:1.0.2</title>
<g id="a_node20"><a xlink:href="http://www.scala-lang.org/" xlink:title="org.scala&#45;lang.modules/scala&#45;xml_2.11/1.0.2" target="_blank">
<polygon fill="none" stroke="black" points="172.5,-32.3159 172.5,-82.3159 315.5,-82.3159 315.5,-32.3159 172.5,-32.3159"/>
<text text-anchor="start" x="180.5" y="-68.1159" font-family="Times,serif" font-size="14.00">org.scala&#45;lang.modules</text>
<text text-anchor="start" x="200.5" y="-54.1159" font-family="Times,serif" font-weight="bold" font-size="14.00">scala&#45;xml_2.11</text>
<text text-anchor="start" x="230" y="-40.1159" font-family="Times,serif" font-size="14.00">1.0.2</text>
</a>
</g>
</g>
<!-- org.apache.kafka:kafka_2.11:0.8.2.1&#45;&gt;org.scala&#45;lang.modules:scala&#45;xml_2.11:1.0.2 -->
<g id="edge26" class="edge"><title>org.apache.kafka:kafka_2.11:0.8.2.1&#45;&gt;org.scala&#45;lang.modules:scala&#45;xml_2.11:1.0.2</title>
<path fill="none" stroke="black" d="M62.6323,-239.115C73.7341,-201.7 99.565,-131.562 146,-91.3159 151.164,-86.84 156.954,-82.9423 163.067,-79.5501"/>
<polygon fill="black" stroke="black" points="164.867,-82.5623 172.219,-74.9333 161.714,-76.3125 164.867,-82.5623"/>
</g>
<!-- io.netty:netty:3.7.0.Final -->
<g id="node4" class="node"><title>io.netty:netty:3.7.0.Final</title>
<g id="a_node4"><a xlink:href="http://netty.io/" xlink:title="io.netty/netty/3.7.0.Final" target="_blank">
<polygon fill="none" stroke="black" points="556,-262.316 556,-312.316 632,-312.316 632,-262.316 556,-262.316"/>
<text text-anchor="start" x="573" y="-298.116" font-family="Times,serif" font-size="14.00">io.netty</text>
<text text-anchor="start" x="579" y="-284.116" font-family="Times,serif" font-weight="bold" font-size="14.00">netty</text>
<text text-anchor="start" x="564" y="-270.116" font-family="Times,serif" font-size="14.00">3.7.0.Final</text>
</a>
</g>
</g>
<!-- org.apache.zookeeper:zookeeper:3.4.6&#45;&gt;io.netty:netty:3.7.0.Final -->
<g id="edge4" class="edge"><title>org.apache.zookeeper:zookeeper:3.4.6&#45;&gt;io.netty:netty:3.7.0.Final</title>
<path fill="none" stroke="black" d="M508.071,-252.414C520.896,-257.684 534.226,-263.162 546.419,-268.173"/>
<polygon fill="black" stroke="black" points="545.342,-271.514 555.922,-272.078 548.003,-265.04 545.342,-271.514"/>
</g>
<!-- jline:jline:0.9.94 -->
<g id="node5" class="node"><title>jline:jline:0.9.94</title>
<g id="a_node5"><a xlink:href="http://jline.sourceforge.net" xlink:title="jline/jline/0.9.94" target="_blank">
<polygon fill="none" stroke="black" points="567,-46.3159 567,-96.3159 621,-96.3159 621,-46.3159 567,-46.3159"/>
<text text-anchor="start" x="581.5" y="-82.1159" font-family="Times,serif" font-size="14.00">jline</text>
<text text-anchor="start" x="581" y="-68.1159" font-family="Times,serif" font-weight="bold" font-size="14.00">jline</text>
<text text-anchor="start" x="576.5" y="-54.1159" font-family="Times,serif" font-size="14.00">0.9.94</text>
</a>
</g>
</g>
<!-- org.apache.zookeeper:zookeeper:3.4.6&#45;&gt;jline:jline:0.9.94 -->
<g id="edge5" class="edge"><title>org.apache.zookeeper:zookeeper:3.4.6&#45;&gt;jline:jline:0.9.94</title>
<path fill="none" stroke="black" d="M495.727,-202.21C502.36,-197.5 508.698,-192.186 514,-186.316 538.783,-158.877 528.082,-141.093 550,-111.316 552.871,-107.416 556.157,-103.585 559.605,-99.9339"/>
<polygon fill="black" stroke="black" points="562.224,-102.265 566.829,-92.7239 557.279,-97.3106 562.224,-102.265"/>
</g>
<!-- org.slf4j:slf4j&#45;log4j12:1.6.1 -->
<g id="node6" class="node"><title>org.slf4j:slf4j&#45;log4j12:1.6.1</title>
<g id="a_node6"><a xlink:href="http://www.slf4j.org" xlink:title="org.slf4j/slf4j&#45;log4j12/1.6.1" target="_blank">
<polygon fill="none" stroke="black" points="550,-154.316 550,-204.316 638,-204.316 638,-154.316 550,-154.316"/>
<text text-anchor="start" x="571" y="-190.116" font-family="Times,serif" font-size="14.00">org.slf4j</text>
<text text-anchor="start" x="558" y="-176.116" font-family="Times,serif" font-weight="bold" font-size="14.00">slf4j&#45;log4j12</text>
<text text-anchor="start" x="580" y="-162.116" font-family="Times,serif" font-size="14.00">1.6.1</text>
</a>
</g>
</g>
<!-- org.apache.zookeeper:zookeeper:3.4.6&#45;&gt;org.slf4j:slf4j&#45;log4j12:1.6.1 -->
<g id="edge6" class="edge"><title>org.apache.zookeeper:zookeeper:3.4.6&#45;&gt;org.slf4j:slf4j&#45;log4j12:1.6.1</title>
<path fill="none" stroke="black" d="M513.591,-205.423C522.553,-202.477 531.644,-199.488 540.319,-196.636"/>
<polygon fill="black" stroke="black" points="541.501,-199.931 549.908,-193.483 539.315,-193.282 541.501,-199.931"/>
</g>
<!-- log4j:log4j:1.2.16 -->
<g id="node8" class="node"><title>log4j:log4j:1.2.16</title>
<g id="a_node8"><a xlink:href="http://logging.apache.org/log4j/1.2/" xlink:title="log4j/log4j/1.2.16" target="_blank">
<polygon fill="none" stroke="black" points="679,-108.316 679,-158.316 733,-158.316 733,-108.316 679,-108.316"/>
<text text-anchor="start" x="692" y="-144.116" font-family="Times,serif" font-size="14.00">log4j</text>
<text text-anchor="start" x="691.5" y="-130.116" font-family="Times,serif" font-weight="bold" font-size="14.00">log4j</text>
<text text-anchor="start" x="688.5" y="-116.116" font-family="Times,serif" font-size="14.00">1.2.16</text>
</a>
</g>
</g>
<!-- org.apache.zookeeper:zookeeper:3.4.6&#45;&gt;log4j:log4j:1.2.16 -->
<g id="edge8" class="edge"><title>org.apache.zookeeper:zookeeper:3.4.6&#45;&gt;log4j:log4j:1.2.16</title>
<path fill="none" stroke="black" d="M492.264,-202.207C499.797,-197.309 507.323,-191.936 514,-186.316 532.552,-170.699 528.312,-156.163 550,-145.316 587.247,-126.687 635.904,-126.155 668.685,-128.673"/>
<polygon fill="black" stroke="black" points="668.462,-132.167 678.736,-129.578 669.09,-125.195 668.462,-132.167"/>
</g>
<!-- org.slf4j:slf4j&#45;api:1.7.6 -->
<g id="node13" class="node"><title>org.slf4j:slf4j&#45;api:1.7.6</title>
<g id="a_node13"><a xlink:href="http://www.slf4j.org" xlink:title="org.slf4j/slf4j&#45;api/1.7.6" target="_blank">
<polygon fill="none" stroke="black" points="674,-335.316 674,-385.316 738,-385.316 738,-335.316 674,-335.316"/>
<text text-anchor="start" x="683" y="-371.116" font-family="Times,serif" font-size="14.00">org.slf4j</text>
<text text-anchor="start" x="682" y="-357.116" font-family="Times,serif" font-weight="bold" font-size="14.00">slf4j&#45;api</text>
<text text-anchor="start" x="692" y="-343.116" font-family="Times,serif" font-size="14.00">1.7.6</text>
</a>
</g>
</g>
<!-- org.apache.zookeeper:zookeeper:3.4.6&#45;&gt;org.slf4j:slf4j&#45;api:1.7.6 -->
<g id="edge15" class="edge"><title>org.apache.zookeeper:zookeeper:3.4.6&#45;&gt;org.slf4j:slf4j&#45;api:1.7.6</title>
<path fill="none" stroke="black" d="M473.457,-252.713C500.958,-278.906 541.203,-316.589 550,-321.316 585.84,-340.577 631.475,-350.568 663.926,-355.59"/>
<polygon fill="black" stroke="black" points="663.57,-359.075 673.969,-357.051 664.577,-352.148 663.57,-359.075"/>
</g>
<!-- org.slf4j:slf4j&#45;api:1.6.1 -->
<g id="node15" class="node"><title>org.slf4j:slf4j&#45;api:1.6.1</title>
<g id="a_node15"><a xlink:href="http://www.slf4j.org" xlink:title="org.slf4j/slf4j&#45;api/1.6.1" target="_blank">
<polygon fill="none" stroke="black" points="674,-189.316 674,-239.316 738,-239.316 738,-189.316 674,-189.316"/>
<text text-anchor="start" x="683" y="-225.116" font-family="Times,serif" font-size="14.00">org.slf4j</text>
<text text-anchor="start" x="682" y="-211.116" font-family="Times,serif" font-weight="bold" font-size="14.00">slf4j&#45;api</text>
<text text-anchor="start" x="692" y="-197.116" font-family="Times,serif" font-size="14.00">1.6.1</text>
</a>
</g>
</g>
<!-- org.apache.zookeeper:zookeeper:3.4.6&#45;&gt;org.slf4j:slf4j&#45;api:1.6.1 -->
<g id="edge20" class="edge"><title>org.apache.zookeeper:zookeeper:3.4.6&#45;&gt;org.slf4j:slf4j&#45;api:1.6.1</title>
<path fill="none" stroke="black" d="M513.777,-223.951C561.162,-221.564 623.277,-218.434 663.654,-216.399"/>
<polygon fill="black" stroke="black" points="663.869,-219.893 673.68,-215.894 663.516,-212.902 663.869,-219.893"/>
</g>
<!-- org.apache.zookeeper:zookeeper:3.3.1 -->
<g id="node3" class="node"><title>org.apache.zookeeper:zookeeper:3.3.1</title>
<g id="a_node3"><a xlink:href="http://repo1.maven.org/maven2/org/apache/zookeeper/zookeeper/3.3.1/zookeeper-3.3.1.pom" xlink:title="org.apache.zookeeper/zookeeper/3.3.1" target="_blank">
<polygon fill="none" stroke="black" points="378.5,-127.316 378.5,-177.316 513.5,-177.316 513.5,-127.316 378.5,-127.316"/>
<text text-anchor="start" x="386.5" y="-163.116" font-family="Times,serif" font-size="14.00">org.apache.zookeeper</text>
<text text-anchor="start" x="416.5" y="-149.116" font-family="Times,serif" font-weight="bold" font-size="14.00">zookeeper</text>
<text text-anchor="start" x="432" y="-135.116" font-family="Times,serif" font-size="14.00">3.3.1</text>
</a>
</g>
</g>
<!-- junit:junit:3.8.1 -->
<g id="node7" class="node"><title>junit:junit:3.8.1</title>
<g id="a_node7"><a xlink:href="http://junit.org" xlink:title="junit/junit/3.8.1" target="_blank">
<polygon fill="none" stroke="black" points="679,-39.3159 679,-89.3159 733,-89.3159 733,-39.3159 679,-39.3159"/>
<text text-anchor="start" x="693.5" y="-75.1159" font-family="Times,serif" font-size="14.00">junit</text>
<text text-anchor="start" x="692" y="-61.1159" font-family="Times,serif" font-weight="bold" font-size="14.00">junit</text>
<text text-anchor="start" x="692" y="-47.1159" font-family="Times,serif" font-size="14.00">3.8.1</text>
</a>
</g>
</g>
<!-- jline:jline:0.9.94&#45;&gt;junit:junit:3.8.1 -->
<g id="edge7" class="edge"><title>jline:jline:0.9.94&#45;&gt;junit:junit:3.8.1</title>
<path fill="none" stroke="black" d="M621.068,-69.657C635.212,-68.7569 652.925,-67.6298 668.428,-66.6432"/>
<polygon fill="black" stroke="black" points="668.98,-70.1153 678.737,-65.9871 668.535,-63.1294 668.98,-70.1153"/>
</g>
<!-- org.slf4j:slf4j&#45;log4j12:1.6.1&#45;&gt;log4j:log4j:1.2.16 -->
<g id="edge10" class="edge"><title>org.slf4j:slf4j&#45;log4j12:1.6.1&#45;&gt;log4j:log4j:1.2.16</title>
<path fill="none" stroke="black" d="M638.159,-161.268C648.559,-156.919 659.551,-152.322 669.552,-148.139"/>
<polygon fill="black" stroke="black" points="670.91,-151.365 678.785,-144.278 668.209,-144.907 670.91,-151.365"/>
</g>
<!-- org.slf4j:slf4j&#45;log4j12:1.6.1&#45;&gt;org.slf4j:slf4j&#45;api:1.7.6 -->
<g id="edge17" class="edge"><title>org.slf4j:slf4j&#45;log4j12:1.6.1&#45;&gt;org.slf4j:slf4j&#45;api:1.7.6</title>
<path fill="none" stroke="black" d="M610.295,-204.483C629.615,-236.273 662.929,-291.091 684.455,-326.51"/>
<polygon fill="black" stroke="black" points="681.473,-328.343 689.658,-335.071 687.455,-324.708 681.473,-328.343"/>
</g>
<!-- org.slf4j:slf4j&#45;log4j12:1.6.1&#45;&gt;org.slf4j:slf4j&#45;api:1.6.1 -->
<g id="edge21" class="edge"><title>org.slf4j:slf4j&#45;log4j12:1.6.1&#45;&gt;org.slf4j:slf4j&#45;api:1.6.1</title>
<path fill="none" stroke="black" d="M638.159,-193.048C646.725,-195.774 655.693,-198.627 664.178,-201.327"/>
<polygon fill="black" stroke="black" points="663.273,-204.712 673.863,-204.409 665.395,-198.041 663.273,-204.712"/>
</g>
<!-- log4j:log4j:1.2.14 -->
<g id="node9" class="node"><title>log4j:log4j:1.2.14</title>
<g id="a_node9"><a xlink:href="http://logging.apache.org/log4j/docs/" xlink:title="log4j/log4j/1.2.14" target="_blank">
<polygon fill="none" stroke="black" points="419,-58.3159 419,-108.316 473,-108.316 473,-58.3159 419,-58.3159"/>
<text text-anchor="start" x="432" y="-94.1159" font-family="Times,serif" font-size="14.00">log4j</text>
<text text-anchor="start" x="431.5" y="-80.1159" font-family="Times,serif" font-weight="bold" font-size="14.00">log4j</text>
<text text-anchor="start" x="428.5" y="-66.1159" font-family="Times,serif" font-size="14.00">1.2.14</text>
</a>
</g>
</g>
<!-- org.xerial.snappy:snappy&#45;java:1.1.1.6 -->
<g id="node11" class="node"><title>org.xerial.snappy:snappy&#45;java:1.1.1.6</title>
<g id="a_node11"><a xlink:href="https://github.comm/xerial/snappy-java" xlink:title="org.xerial.snappy/snappy&#45;java/1.1.1.6" target="_blank">
<polygon fill="none" stroke="black" points="390.5,-477.316 390.5,-527.316 501.5,-527.316 501.5,-477.316 390.5,-477.316"/>
<text text-anchor="start" x="398.5" y="-513.116" font-family="Times,serif" font-size="14.00">org.xerial.snappy</text>
<text text-anchor="start" x="410.5" y="-499.116" font-family="Times,serif" font-weight="bold" font-size="14.00">snappy&#45;java</text>
<text text-anchor="start" x="426.5" y="-485.116" font-family="Times,serif" font-size="14.00">1.1.1.6</text>
</a>
</g>
</g>
<!-- org.apache.kafka:kafka&#45;clients:0.8.2.1&#45;&gt;org.xerial.snappy:snappy&#45;java:1.1.1.6 -->
<g id="edge13" class="edge"><title>org.apache.kafka:kafka&#45;clients:0.8.2.1&#45;&gt;org.xerial.snappy:snappy&#45;java:1.1.1.6</title>
<path fill="none" stroke="black" d="M299.123,-479.705C324.144,-483.583 354.058,-488.22 380.266,-492.282"/>
<polygon fill="black" stroke="black" points="380.068,-495.793 390.486,-493.866 381.141,-488.876 380.068,-495.793"/>
</g>
<!-- net.jpountz.lz4:lz4:1.2.0 -->
<g id="node12" class="node"><title>net.jpountz.lz4:lz4:1.2.0</title>
<g id="a_node12"><a xlink:href="https://github.com/jpountz/lz4-java" xlink:title="net.jpountz.lz4/lz4/1.2.0" target="_blank">
<polygon fill="none" stroke="black" points="397,-408.316 397,-458.316 495,-458.316 495,-408.316 397,-408.316"/>
<text text-anchor="start" x="405" y="-444.116" font-family="Times,serif" font-size="14.00">net.jpountz.lz4</text>
<text text-anchor="start" x="437.5" y="-430.116" font-family="Times,serif" font-weight="bold" font-size="14.00">lz4</text>
<text text-anchor="start" x="432" y="-416.116" font-family="Times,serif" font-size="14.00">1.2.0</text>
</a>
</g>
</g>
<!-- org.apache.kafka:kafka&#45;clients:0.8.2.1&#45;&gt;net.jpountz.lz4:lz4:1.2.0 -->
<g id="edge14" class="edge"><title>org.apache.kafka:kafka&#45;clients:0.8.2.1&#45;&gt;net.jpountz.lz4:lz4:1.2.0</title>
<path fill="none" stroke="black" d="M299.123,-461.033C326.323,-455.864 359.306,-449.598 387.023,-444.332"/>
<polygon fill="black" stroke="black" points="387.805,-447.746 396.976,-442.44 386.498,-440.869 387.805,-447.746"/>
</g>
<!-- org.apache.kafka:kafka&#45;clients:0.8.2.1&#45;&gt;org.slf4j:slf4j&#45;api:1.7.6 -->
<g id="edge18" class="edge"><title>org.apache.kafka:kafka&#45;clients:0.8.2.1&#45;&gt;org.slf4j:slf4j&#45;api:1.7.6</title>
<path fill="none" stroke="black" d="M284.254,-496.412C309.84,-511.24 344.573,-528.584 378,-536.316 436.89,-549.936 457.696,-558.302 514,-536.316 587.439,-507.639 649.658,-436.036 681.726,-393.519"/>
<polygon fill="black" stroke="black" points="684.584,-395.541 687.732,-385.425 678.962,-391.37 684.584,-395.541"/>
</g>
<!-- org.slf4j:slf4j&#45;api:1.7.2 -->
<g id="node14" class="node"><title>org.slf4j:slf4j&#45;api:1.7.2</title>
<g id="a_node14"><a xlink:href="http://www.slf4j.org" xlink:title="org.slf4j/slf4j&#45;api/1.7.2" target="_blank">
<polygon fill="none" stroke="black" points="414,-300.316 414,-350.316 478,-350.316 478,-300.316 414,-300.316"/>
<text text-anchor="start" x="423" y="-336.116" font-family="Times,serif" font-size="14.00">org.slf4j</text>
<text text-anchor="start" x="422" y="-322.116" font-family="Times,serif" font-weight="bold" font-size="14.00">slf4j&#45;api</text>
<text text-anchor="start" x="432" y="-308.116" font-family="Times,serif" font-size="14.00">1.7.2</text>
</a>
</g>
</g>
<!-- com.101tec:zkclient:0.3&#45;&gt;org.apache.zookeeper:zookeeper:3.4.6 -->
<g id="edge2" class="edge"><title>com.101tec:zkclient:0.3&#45;&gt;org.apache.zookeeper:zookeeper:3.4.6</title>
<path fill="none" stroke="black" d="M284.215,-137.876C302.274,-143.848 323.706,-151.87 342,-161.316 359.309,-170.253 361.685,-175.672 378,-186.316 383.247,-189.739 388.768,-193.254 394.296,-196.717"/>
<polygon fill="black" stroke="black" points="392.609,-199.79 402.95,-202.096 396.305,-193.845 392.609,-199.79"/>
</g>
<!-- com.101tec:zkclient:0.3&#45;&gt;org.apache.zookeeper:zookeeper:3.3.1 -->
<g id="edge3" class="edge"><title>com.101tec:zkclient:0.3&#45;&gt;org.apache.zookeeper:zookeeper:3.3.1</title>
<path fill="none" stroke="black" d="M284.037,-131.391C308.035,-134.511 339.609,-138.615 368.431,-142.362"/>
<polygon fill="black" stroke="black" points="368.126,-145.852 378.494,-143.67 369.029,-138.91 368.126,-145.852"/>
</g>
<!-- com.101tec:zkclient:0.3&#45;&gt;log4j:log4j:1.2.16 -->
<g id="edge9" class="edge"><title>com.101tec:zkclient:0.3&#45;&gt;log4j:log4j:1.2.16</title>
<path fill="none" stroke="black" d="M284.077,-117.32C302.723,-111.8 324.685,-103.419 342,-91.3159 362.429,-77.0368 355.797,-59.642 378,-48.3159 481.045,4.25012 537.748,21.3997 638,-36.3159 665.615,-52.2138 655.344,-72.4841 674,-98.3159 674.446,-98.9328 674.9,-99.5515 675.362,-100.171"/>
<polygon fill="black" stroke="black" points="672.755,-102.516 681.702,-108.191 678.246,-98.1757 672.755,-102.516"/>
</g>
<!-- com.101tec:zkclient:0.3&#45;&gt;log4j:log4j:1.2.14 -->
<g id="edge11" class="edge"><title>com.101tec:zkclient:0.3&#45;&gt;log4j:log4j:1.2.14</title>
<path fill="none" stroke="black" d="M284.037,-117.923C320.25,-110.137 373.711,-98.6431 408.939,-91.0691"/>
<polygon fill="black" stroke="black" points="409.763,-94.4719 418.804,-88.9481 408.291,-87.6283 409.763,-94.4719"/>
</g>
<!-- com.yammer.metrics:metrics&#45;core:2.2.0&#45;&gt;org.slf4j:slf4j&#45;api:1.7.6 -->
<g id="edge16" class="edge"><title>com.yammer.metrics:metrics&#45;core:2.2.0&#45;&gt;org.slf4j:slf4j&#45;api:1.7.6</title>
<path fill="none" stroke="black" d="M311.397,-370.584C407.833,-368.068 583.829,-363.477 663.661,-361.394"/>
<polygon fill="black" stroke="black" points="663.911,-364.889 673.817,-361.129 663.729,-357.891 663.911,-364.889"/>
</g>
<!-- com.yammer.metrics:metrics&#45;core:2.2.0&#45;&gt;org.slf4j:slf4j&#45;api:1.7.2 -->
<g id="edge19" class="edge"><title>com.yammer.metrics:metrics&#45;core:2.2.0&#45;&gt;org.slf4j:slf4j&#45;api:1.7.2</title>
<path fill="none" stroke="black" d="M311.042,-356.796C341.713,-349.588 377.22,-341.244 403.969,-334.958"/>
<polygon fill="black" stroke="black" points="404.83,-338.351 413.764,-332.656 403.228,-331.537 404.83,-338.351"/>
</g>
</g>
</svg>
