<?xml version="1.0" encoding="UTF-8" standalone="no"?>
<!DOCTYPE svg PUBLIC "-//W3C//DTD SVG 1.1//EN"
 "http://www.w3.org/Graphics/SVG/1.1/DTD/svg11.dtd">
<!-- Generated by graphviz version 2.38.0 (20140413.2041)
 -->
<!-- Title: diagram Pages: 1 -->
<svg width="755pt" height="1255pt"
 viewBox="0.00 0.00 754.75 1255.00" xmlns="http://www.w3.org/2000/svg" xmlns:xlink="http://www.w3.org/1999/xlink">
<g id="graph0" class="graph" transform="scale(1 1) rotate(0) translate(4 1251)">
<title>kafka 0.8.2.1 protocol</title>
<polygon fill="white" stroke="none" points="-4,4 -4,-1251 750.746,-1251 750.746,4 -4,4"/>
<!-- kafka.api.ConsumerMetadataRequest -->
<g id="node1" class="node"><title>kafka.api.ConsumerMetadataRequest</title>
<g id="a_node1"><a xlink:href="https://github.com/apache/kafka/blob/0.8.2.1/core/src/main/scala/kafka/api/ConsumerMetadataRequest.scala" xlink:title="\N" target="_blank">
<polygon fill="#7996ac" stroke="black" points="292.287,-1210.5 292.287,-1246.5 518.218,-1246.5 518.218,-1210.5 292.287,-1210.5"/>
<text text-anchor="middle" x="405.252" y="-1224.3" font-family="Times,serif" font-size="14.00">kafka.api.ConsumerMetadataRequest</text>
</a>
</g>
</g>
<!-- kafka.api.RequestOrResponse -->
<g id="node21" class="node"><title>kafka.api.RequestOrResponse</title>
<g id="a_node21"><a xlink:href="https://github.com/apache/kafka/blob/0.8.2.1/core/src/main/scala/kafka/api/RequestOrResponse.scala" xlink:title="\N" target="_blank">
<polygon fill="#7996ac" stroke="black" points="562.015,-605.5 562.015,-641.5 746.746,-641.5 746.746,-605.5 562.015,-605.5"/>
<text text-anchor="middle" x="654.38" y="-619.3" font-family="Times,serif" font-size="14.00">kafka.api.RequestOrResponse</text>
</a>
</g>
</g>
<!-- kafka.api.ConsumerMetadataRequest&#45;&gt;kafka.api.RequestOrResponse -->
<g id="edge16" class="edge"><title>kafka.api.ConsumerMetadataRequest&#45;&gt;kafka.api.RequestOrResponse</title>
<path fill="none" stroke="black" d="M515.223,-1210.39C519.083,-1207.78 522.707,-1204.82 526.015,-1201.5 605.207,-1121.92 642.004,-757.065 651.082,-651.927"/>
<polygon fill="black" stroke="black" points="654.586,-652.025 651.942,-641.765 647.611,-651.434 654.586,-652.025"/>
</g>
<!-- kafka.api.ConsumerMetadataResponse -->
<g id="node2" class="node"><title>kafka.api.ConsumerMetadataResponse</title>
<g id="a_node2"><a xlink:href="https://github.com/apache/kafka/blob/0.8.2.1/core/src/main/scala/kafka/api/ConsumerMetadataResponse.scala" xlink:title="\N" target="_blank">
<polygon fill="#7996ac" stroke="black" points="288.007,-1155.5 288.007,-1191.5 522.498,-1191.5 522.498,-1155.5 288.007,-1155.5"/>
<text text-anchor="middle" x="405.252" y="-1169.3" font-family="Times,serif" font-size="14.00">kafka.api.ConsumerMetadataResponse</text>
</a>
</g>
</g>
<!-- kafka.api.ConsumerMetadataResponse&#45;&gt;kafka.api.RequestOrResponse -->
<g id="edge4" class="edge"><title>kafka.api.ConsumerMetadataResponse&#45;&gt;kafka.api.RequestOrResponse</title>
<path fill="none" stroke="black" d="M514.866,-1155.48C518.851,-1152.84 522.595,-1149.86 526.015,-1146.5 598.2,-1075.54 639.42,-750.171 650.392,-651.77"/>
<polygon fill="black" stroke="black" points="653.886,-652.008 651.498,-641.686 646.928,-651.245 653.886,-652.008"/>
</g>
<!-- kafka.api.ControlledShutdownRequest -->
<g id="node3" class="node"><title>kafka.api.ControlledShutdownRequest</title>
<g id="a_node3"><a xlink:href="https://github.com/apache/kafka/blob/0.8.2.1/core/src/main/scala/kafka/api/ControlledShutdownRequest.scala" xlink:title="\N" target="_blank">
<polygon fill="#7996ac" stroke="black" points="288.77,-1100.5 288.77,-1136.5 521.735,-1136.5 521.735,-1100.5 288.77,-1100.5"/>
<text text-anchor="middle" x="405.252" y="-1114.3" font-family="Times,serif" font-size="14.00">kafka.api.ControlledShutdownRequest</text>
</a>
</g>
</g>
<!-- kafka.api.ControlledShutdownRequest&#45;&gt;kafka.api.RequestOrResponse -->
<g id="edge17" class="edge"><title>kafka.api.ControlledShutdownRequest&#45;&gt;kafka.api.RequestOrResponse</title>
<path fill="none" stroke="black" d="M514.754,-1100.36C518.769,-1097.76 522.55,-1094.82 526.015,-1091.5 591.198,-1029.12 636.498,-743.255 649.53,-651.756"/>
<polygon fill="black" stroke="black" points="653.033,-651.979 650.958,-641.589 646.101,-651.005 653.033,-651.979"/>
</g>
<!-- kafka.api.ControlledShutdownResponse -->
<g id="node4" class="node"><title>kafka.api.ControlledShutdownResponse</title>
<g id="a_node4"><a xlink:href="https://github.com/apache/kafka/blob/0.8.2.1/core/src/main/scala/kafka/api/ControlledShutdownResponse.scala" xlink:title="\N" target="_blank">
<polygon fill="#7996ac" stroke="black" points="284.49,-1045.5 284.49,-1081.5 526.015,-1081.5 526.015,-1045.5 284.49,-1045.5"/>
<text text-anchor="middle" x="405.252" y="-1059.3" font-family="Times,serif" font-size="14.00">kafka.api.ControlledShutdownResponse</text>
</a>
</g>
</g>
<!-- kafka.api.ControlledShutdownResponse&#45;&gt;kafka.api.RequestOrResponse -->
<g id="edge5" class="edge"><title>kafka.api.ControlledShutdownResponse&#45;&gt;kafka.api.RequestOrResponse</title>
<path fill="none" stroke="black" d="M514.347,-1045.39C518.499,-1042.78 522.417,-1039.83 526.015,-1036.5 639.914,-931.092 652.906,-726.426 653.695,-651.691"/>
<polygon fill="black" stroke="black" points="657.195,-651.648 653.733,-641.635 650.195,-651.621 657.195,-651.648"/>
</g>
<!-- kafka.api.FetchRequest -->
<g id="node5" class="node"><title>kafka.api.FetchRequest</title>
<g id="a_node5"><a xlink:href="https://github.com/apache/kafka/blob/0.8.2.1/core/src/main/scala/kafka/api/FetchRequest.scala" xlink:title="\N" target="_blank">
<polygon fill="#7996ac" stroke="black" points="331.552,-990.5 331.552,-1026.5 478.953,-1026.5 478.953,-990.5 331.552,-990.5"/>
<text text-anchor="middle" x="405.252" y="-1004.3" font-family="Times,serif" font-size="14.00">kafka.api.FetchRequest</text>
</a>
</g>
</g>
<!-- kafka.api.FetchRequest&#45;&gt;kafka.api.RequestOrResponse -->
<g id="edge15" class="edge"><title>kafka.api.FetchRequest&#45;&gt;kafka.api.RequestOrResponse</title>
<path fill="none" stroke="black" d="M479.211,-1004.03C496.157,-999.947 513.017,-993.024 526.015,-981.5 626.078,-892.783 647.533,-720.09 652.129,-652.043"/>
<polygon fill="black" stroke="black" points="655.645,-651.876 652.75,-641.684 648.658,-651.456 655.645,-651.876"/>
</g>
<!-- kafka.api.FetchResponse -->
<g id="node6" class="node"><title>kafka.api.FetchResponse</title>
<g id="a_node6"><a xlink:href="https://github.com/apache/kafka/blob/0.8.2.1/core/src/main/scala/kafka/api/FetchResponse.scala" xlink:title="\N" target="_blank">
<polygon fill="#7996ac" stroke="black" points="327.273,-935.5 327.273,-971.5 483.232,-971.5 483.232,-935.5 327.273,-935.5"/>
<text text-anchor="middle" x="405.252" y="-949.3" font-family="Times,serif" font-size="14.00">kafka.api.FetchResponse</text>
</a>
</g>
</g>
<!-- kafka.api.FetchResponse&#45;&gt;kafka.api.RequestOrResponse -->
<g id="edge3" class="edge"><title>kafka.api.FetchResponse&#45;&gt;kafka.api.RequestOrResponse</title>
<path fill="none" stroke="black" d="M483.446,-947.321C498.816,-943.157 513.924,-936.628 526.015,-926.5 612.698,-853.886 641.499,-712.131 650.088,-651.788"/>
<polygon fill="black" stroke="black" points="653.607,-651.879 651.466,-641.503 646.669,-650.949 653.607,-651.879"/>
</g>
<!-- kafka.api.GenericRequestAndHeader -->
<g id="node7" class="node"><title>kafka.api.GenericRequestAndHeader</title>
<g id="a_node7"><a xlink:href="https://github.com/apache/kafka/blob/0.8.2.1/core/src/main/scala/kafka/api/GenericRequestAndHeader.scala" xlink:title="\N" target="_blank">
<polygon fill="#7996ac" stroke="black" points="292.69,-880.5 292.69,-916.5 517.815,-916.5 517.815,-880.5 292.69,-880.5"/>
<text text-anchor="middle" x="405.252" y="-894.3" font-family="Times,serif" font-size="14.00">kafka.api.GenericRequestAndHeader</text>
</a>
</g>
</g>
<!-- kafka.api.GenericRequestAndHeader&#45;&gt;kafka.api.RequestOrResponse -->
<g id="edge2" class="edge"><title>kafka.api.GenericRequestAndHeader&#45;&gt;kafka.api.RequestOrResponse</title>
<path fill="none" stroke="black" d="M511.95,-880.496C516.907,-877.876 521.634,-874.893 526.015,-871.5 599.582,-814.517 634.485,-703.251 647.306,-651.373"/>
<polygon fill="black" stroke="black" points="650.737,-652.072 649.647,-641.534 643.927,-650.452 650.737,-652.072"/>
</g>
<!-- kafka.api.GenericResponseAndHeader -->
<g id="node8" class="node"><title>kafka.api.GenericResponseAndHeader</title>
<g id="a_node8"><a xlink:href="https://github.com/apache/kafka/blob/0.8.2.1/core/src/main/scala/kafka/api/GenericResponseAndHeader.scala" xlink:title="\N" target="_blank">
<polygon fill="#7996ac" stroke="black" points="288.411,-825.5 288.411,-861.5 522.094,-861.5 522.094,-825.5 288.411,-825.5"/>
<text text-anchor="middle" x="405.252" y="-839.3" font-family="Times,serif" font-size="14.00">kafka.api.GenericResponseAndHeader</text>
</a>
</g>
</g>
<!-- kafka.api.GenericResponseAndHeader&#45;&gt;kafka.api.RequestOrResponse -->
<g id="edge1" class="edge"><title>kafka.api.GenericResponseAndHeader&#45;&gt;kafka.api.RequestOrResponse</title>
<path fill="none" stroke="black" d="M508.575,-825.387C514.704,-822.551 520.579,-819.278 526.015,-815.5 586.224,-773.653 625.51,-693.295 642.967,-651.031"/>
<polygon fill="black" stroke="black" points="646.26,-652.224 646.745,-641.64 639.766,-649.612 646.26,-652.224"/>
</g>
<!-- kafka.api.JoinGroupRequestAndHeader -->
<g id="node9" class="node"><title>kafka.api.JoinGroupRequestAndHeader</title>
<g id="a_node9"><a xlink:href="https://github.com/apache/kafka/blob/0.8.2.1/core/src/main/scala/kafka/api/JoinGroupRequestAndHeader.scala" xlink:title="\N" target="_blank">
<polygon fill="#7996ac" stroke="black" points="4.2793,-880.5 4.2793,-916.5 244.211,-916.5 244.211,-880.5 4.2793,-880.5"/>
<text text-anchor="middle" x="124.245" y="-894.3" font-family="Times,serif" font-size="14.00">kafka.api.JoinGroupRequestAndHeader</text>
</a>
</g>
</g>
<!-- kafka.api.JoinGroupRequestAndHeader&#45;&gt;kafka.api.GenericRequestAndHeader -->
<g id="edge18" class="edge"><title>kafka.api.JoinGroupRequestAndHeader&#45;&gt;kafka.api.GenericRequestAndHeader</title>
<path fill="none" stroke="black" d="M244.379,-898.5C257.001,-898.5 269.85,-898.5 282.501,-898.5"/>
<polygon fill="black" stroke="black" points="282.597,-902 292.597,-898.5 282.597,-895 282.597,-902"/>
</g>
<!-- kafka.api.JoinGroupResponseAndHeader -->
<g id="node10" class="node"><title>kafka.api.JoinGroupResponseAndHeader</title>
<g id="a_node10"><a xlink:href="https://github.com/apache/kafka/blob/0.8.2.1/core/src/main/scala/kafka/api/JoinGroupResponseAndHeader.scala" xlink:title="\N" target="_blank">
<polygon fill="#7996ac" stroke="black" points="0,-825.5 0,-861.5 248.49,-861.5 248.49,-825.5 0,-825.5"/>
<text text-anchor="middle" x="124.245" y="-839.3" font-family="Times,serif" font-size="14.00">kafka.api.JoinGroupResponseAndHeader</text>
</a>
</g>
</g>
<!-- kafka.api.JoinGroupResponseAndHeader&#45;&gt;kafka.api.GenericResponseAndHeader -->
<g id="edge6" class="edge"><title>kafka.api.JoinGroupResponseAndHeader&#45;&gt;kafka.api.GenericResponseAndHeader</title>
<path fill="none" stroke="black" d="M248.84,-843.5C258.577,-843.5 268.418,-843.5 278.17,-843.5"/>
<polygon fill="black" stroke="black" points="278.294,-847 288.294,-843.5 278.294,-840 278.294,-847"/>
</g>
<!-- kafka.api.LeaderAndIsrRequest -->
<g id="node11" class="node"><title>kafka.api.LeaderAndIsrRequest</title>
<g id="a_node11"><a xlink:href="https://github.com/apache/kafka/blob/0.8.2.1/core/src/main/scala/kafka/api/LeaderAndIsrRequest.scala" xlink:title="\N" target="_blank">
<polygon fill="#7996ac" stroke="black" points="308.235,-770.5 308.235,-806.5 502.27,-806.5 502.27,-770.5 308.235,-770.5"/>
<text text-anchor="middle" x="405.252" y="-784.3" font-family="Times,serif" font-size="14.00">kafka.api.LeaderAndIsrRequest</text>
</a>
</g>
</g>
<!-- kafka.api.LeaderAndIsrRequest&#45;&gt;kafka.api.RequestOrResponse -->
<g id="edge19" class="edge"><title>kafka.api.LeaderAndIsrRequest&#45;&gt;kafka.api.RequestOrResponse</title>
<path fill="none" stroke="black" d="M502.379,-771.492C510.624,-768.417 518.627,-764.786 526.015,-760.5 573.771,-732.791 614.271,-681.461 636.09,-650.106"/>
<polygon fill="black" stroke="black" points="638.993,-652.061 641.739,-641.828 633.211,-648.115 638.993,-652.061"/>
</g>
<!-- kafka.api.LeaderAndIsrResponse -->
<g id="node12" class="node"><title>kafka.api.LeaderAndIsrResponse</title>
<g id="a_node12"><a xlink:href="https://github.com/apache/kafka/blob/0.8.2.1/core/src/main/scala/kafka/api/LeaderAndIsrResponse.scala" xlink:title="\N" target="_blank">
<polygon fill="#7996ac" stroke="black" points="303.956,-715.5 303.956,-751.5 506.549,-751.5 506.549,-715.5 303.956,-715.5"/>
<text text-anchor="middle" x="405.252" y="-729.3" font-family="Times,serif" font-size="14.00">kafka.api.LeaderAndIsrResponse</text>
</a>
</g>
</g>
<!-- kafka.api.LeaderAndIsrResponse&#45;&gt;kafka.api.RequestOrResponse -->
<g id="edge7" class="edge"><title>kafka.api.LeaderAndIsrResponse&#45;&gt;kafka.api.RequestOrResponse</title>
<path fill="none" stroke="black" d="M498.184,-715.432C507.73,-712.546 517.168,-709.249 526.015,-705.5 561.104,-690.63 597.28,-666.319 622.068,-648.021"/>
<polygon fill="black" stroke="black" points="624.435,-650.621 630.341,-641.824 620.239,-645.018 624.435,-650.621"/>
</g>
<!-- kafka.api.OffsetCommitRequest -->
<g id="node13" class="node"><title>kafka.api.OffsetCommitRequest</title>
<g id="a_node13"><a xlink:href="https://github.com/apache/kafka/blob/0.8.2.1/core/src/main/scala/kafka/api/OffsetCommitRequest.scala" xlink:title="\N" target="_blank">
<polygon fill="#7996ac" stroke="black" points="306.786,-660.5 306.786,-696.5 503.719,-696.5 503.719,-660.5 306.786,-660.5"/>
<text text-anchor="middle" x="405.252" y="-674.3" font-family="Times,serif" font-size="14.00">kafka.api.OffsetCommitRequest</text>
</a>
</g>
</g>
<!-- kafka.api.OffsetCommitRequest&#45;&gt;kafka.api.RequestOrResponse -->
<g id="edge20" class="edge"><title>kafka.api.OffsetCommitRequest&#45;&gt;kafka.api.RequestOrResponse</title>
<path fill="none" stroke="black" d="M487.171,-660.491C511.173,-655.149 537.622,-649.263 562.226,-643.787"/>
<polygon fill="black" stroke="black" points="563.279,-647.138 572.28,-641.55 561.758,-640.306 563.279,-647.138"/>
</g>
<!-- kafka.api.OffsetCommitResponse -->
<g id="node14" class="node"><title>kafka.api.OffsetCommitResponse</title>
<g id="a_node14"><a xlink:href="https://github.com/apache/kafka/blob/0.8.2.1/core/src/main/scala/kafka/api/OffsetCommitResponse.scala" xlink:title="\N" target="_blank">
<polygon fill="#7996ac" stroke="black" points="302.506,-605.5 302.506,-641.5 507.999,-641.5 507.999,-605.5 302.506,-605.5"/>
<text text-anchor="middle" x="405.252" y="-619.3" font-family="Times,serif" font-size="14.00">kafka.api.OffsetCommitResponse</text>
</a>
</g>
</g>
<!-- kafka.api.OffsetCommitResponse&#45;&gt;kafka.api.RequestOrResponse -->
<g id="edge8" class="edge"><title>kafka.api.OffsetCommitResponse&#45;&gt;kafka.api.RequestOrResponse</title>
<path fill="none" stroke="black" d="M508.196,-623.5C522.532,-623.5 537.269,-623.5 551.603,-623.5"/>
<polygon fill="black" stroke="black" points="551.957,-627 561.957,-623.5 551.957,-620 551.957,-627"/>
</g>
<!-- kafka.api.OffsetFetchRequest -->
<g id="node15" class="node"><title>kafka.api.OffsetFetchRequest</title>
<g id="a_node15"><a xlink:href="https://github.com/apache/kafka/blob/0.8.2.1/core/src/main/scala/kafka/api/OffsetFetchRequest.scala" xlink:title="\N" target="_blank">
<polygon fill="#7996ac" stroke="black" points="314.182,-550.5 314.182,-586.5 496.323,-586.5 496.323,-550.5 314.182,-550.5"/>
<text text-anchor="middle" x="405.252" y="-564.3" font-family="Times,serif" font-size="14.00">kafka.api.OffsetFetchRequest</text>
</a>
</g>
</g>
<!-- kafka.api.OffsetFetchRequest&#45;&gt;kafka.api.RequestOrResponse -->
<g id="edge21" class="edge"><title>kafka.api.OffsetFetchRequest&#45;&gt;kafka.api.RequestOrResponse</title>
<path fill="none" stroke="black" d="M487.171,-586.509C511.173,-591.851 537.622,-597.737 562.226,-603.213"/>
<polygon fill="black" stroke="black" points="561.758,-606.694 572.28,-605.45 563.279,-599.862 561.758,-606.694"/>
</g>
<!-- kafka.api.OffsetFetchResponse -->
<g id="node16" class="node"><title>kafka.api.OffsetFetchResponse</title>
<g id="a_node16"><a xlink:href="https://github.com/apache/kafka/blob/0.8.2.1/core/src/main/scala/kafka/api/OffsetFetchResponse.scala" xlink:title="\N" target="_blank">
<polygon fill="#7996ac" stroke="black" points="309.903,-495.5 309.903,-531.5 500.602,-531.5 500.602,-495.5 309.903,-495.5"/>
<text text-anchor="middle" x="405.252" y="-509.3" font-family="Times,serif" font-size="14.00">kafka.api.OffsetFetchResponse</text>
</a>
</g>
</g>
<!-- kafka.api.OffsetFetchResponse&#45;&gt;kafka.api.RequestOrResponse -->
<g id="edge9" class="edge"><title>kafka.api.OffsetFetchResponse&#45;&gt;kafka.api.RequestOrResponse</title>
<path fill="none" stroke="black" d="M500.749,-531.449C509.421,-534.096 517.965,-537.1 526.015,-540.5 561.465,-555.473 597.851,-580.316 622.606,-598.927"/>
<polygon fill="black" stroke="black" points="620.784,-601.94 630.857,-605.224 625.031,-596.375 620.784,-601.94"/>
</g>
<!-- kafka.api.OffsetRequest -->
<g id="node17" class="node"><title>kafka.api.OffsetRequest</title>
<g id="a_node17"><a xlink:href="https://github.com/apache/kafka/blob/0.8.2.1/core/src/main/scala/kafka/api/OffsetRequest.scala" xlink:title="\N" target="_blank">
<polygon fill="#7996ac" stroke="black" points="329.734,-440.5 329.734,-476.5 480.771,-476.5 480.771,-440.5 329.734,-440.5"/>
<text text-anchor="middle" x="405.252" y="-454.3" font-family="Times,serif" font-size="14.00">kafka.api.OffsetRequest</text>
</a>
</g>
</g>
<!-- kafka.api.OffsetRequest&#45;&gt;kafka.api.RequestOrResponse -->
<g id="edge22" class="edge"><title>kafka.api.OffsetRequest&#45;&gt;kafka.api.RequestOrResponse</title>
<path fill="none" stroke="black" d="M481.068,-468.078C496.586,-472.031 512.355,-477.614 526.015,-485.5 574.277,-513.364 614.872,-565.541 636.522,-597.142"/>
<polygon fill="black" stroke="black" points="633.636,-599.122 642.117,-605.472 639.447,-595.219 633.636,-599.122"/>
</g>
<!-- kafka.api.OffsetResponse -->
<g id="node18" class="node"><title>kafka.api.OffsetResponse</title>
<g id="a_node18"><a xlink:href="https://github.com/apache/kafka/blob/0.8.2.1/core/src/main/scala/kafka/api/OffsetResponse.scala" xlink:title="\N" target="_blank">
<polygon fill="#7996ac" stroke="black" points="325.455,-385.5 325.455,-421.5 485.05,-421.5 485.05,-385.5 325.455,-385.5"/>
<text text-anchor="middle" x="405.252" y="-399.3" font-family="Times,serif" font-size="14.00">kafka.api.OffsetResponse</text>
</a>
</g>
</g>
<!-- kafka.api.OffsetResponse&#45;&gt;kafka.api.RequestOrResponse -->
<g id="edge10" class="edge"><title>kafka.api.OffsetResponse&#45;&gt;kafka.api.RequestOrResponse</title>
<path fill="none" stroke="black" d="M485.235,-412.291C499.638,-416.325 513.915,-422.14 526.015,-430.5 586.558,-472.331 625.7,-553.209 643.048,-595.769"/>
<polygon fill="black" stroke="black" points="639.859,-597.222 646.8,-605.227 646.366,-594.641 639.859,-597.222"/>
</g>
<!-- kafka.api.ProducerRequest -->
<g id="node19" class="node"><title>kafka.api.ProducerRequest</title>
<g id="a_node19"><a xlink:href="https://github.com/apache/kafka/blob/0.8.2.1/core/src/main/scala/kafka/api/ProducerRequest.scala" xlink:title="\N" target="_blank">
<polygon fill="#7996ac" stroke="black" points="321.835,-330.5 321.835,-366.5 488.67,-366.5 488.67,-330.5 321.835,-330.5"/>
<text text-anchor="middle" x="405.252" y="-344.3" font-family="Times,serif" font-size="14.00">kafka.api.ProducerRequest</text>
</a>
</g>
</g>
<!-- kafka.api.ProducerRequest&#45;&gt;kafka.api.RequestOrResponse -->
<g id="edge23" class="edge"><title>kafka.api.ProducerRequest&#45;&gt;kafka.api.RequestOrResponse</title>
<path fill="none" stroke="black" d="M488.793,-357.09C502.152,-361.191 515.146,-367.082 526.015,-375.5 599.582,-432.483 634.485,-543.749 647.306,-595.627"/>
<polygon fill="black" stroke="black" points="643.927,-596.548 649.647,-605.466 650.737,-594.928 643.927,-596.548"/>
</g>
<!-- kafka.api.ProducerResponse -->
<g id="node20" class="node"><title>kafka.api.ProducerResponse</title>
<g id="a_node20"><a xlink:href="https://github.com/apache/kafka/blob/0.8.2.1/core/src/main/scala/kafka/api/ProducerResponse.scala" xlink:title="\N" target="_blank">
<polygon fill="#7996ac" stroke="black" points="317.556,-275.5 317.556,-311.5 492.949,-311.5 492.949,-275.5 317.556,-275.5"/>
<text text-anchor="middle" x="405.252" y="-289.3" font-family="Times,serif" font-size="14.00">kafka.api.ProducerResponse</text>
</a>
</g>
</g>
<!-- kafka.api.ProducerResponse&#45;&gt;kafka.api.RequestOrResponse -->
<g id="edge11" class="edge"><title>kafka.api.ProducerResponse&#45;&gt;kafka.api.RequestOrResponse</title>
<path fill="none" stroke="black" d="M493.044,-302.618C505.013,-306.736 516.457,-312.493 526.015,-320.5 612.698,-393.114 641.499,-534.869 650.088,-595.212"/>
<polygon fill="black" stroke="black" points="646.669,-596.051 651.466,-605.497 653.607,-595.121 646.669,-596.051"/>
</g>
<!-- kafka.api.StopReplicaRequest -->
<g id="node22" class="node"><title>kafka.api.StopReplicaRequest</title>
<g id="a_node22"><a xlink:href="https://github.com/apache/kafka/blob/0.8.2.1/core/src/main/scala/kafka/api/StopReplicaRequest.scala" xlink:title="\N" target="_blank">
<polygon fill="#7996ac" stroke="black" points="312.887,-220.5 312.887,-256.5 497.618,-256.5 497.618,-220.5 312.887,-220.5"/>
<text text-anchor="middle" x="405.252" y="-234.3" font-family="Times,serif" font-size="14.00">kafka.api.StopReplicaRequest</text>
</a>
</g>
</g>
<!-- kafka.api.StopReplicaRequest&#45;&gt;kafka.api.RequestOrResponse -->
<g id="edge24" class="edge"><title>kafka.api.StopReplicaRequest&#45;&gt;kafka.api.RequestOrResponse</title>
<path fill="none" stroke="black" d="M497.701,-248.721C508.046,-252.773 517.801,-258.218 526.015,-265.5 626.078,-354.217 647.533,-526.91 652.129,-594.957"/>
<polygon fill="black" stroke="black" points="648.658,-595.544 652.75,-605.316 655.645,-595.124 648.658,-595.544"/>
</g>
<!-- kafka.api.StopReplicaResponse -->
<g id="node23" class="node"><title>kafka.api.StopReplicaResponse</title>
<g id="a_node23"><a xlink:href="https://github.com/apache/kafka/blob/0.8.2.1/core/src/main/scala/kafka/api/StopReplicaResponse.scala" xlink:title="\N" target="_blank">
<polygon fill="#7996ac" stroke="black" points="308.607,-165.5 308.607,-201.5 501.897,-201.5 501.897,-165.5 308.607,-165.5"/>
<text text-anchor="middle" x="405.252" y="-179.3" font-family="Times,serif" font-size="14.00">kafka.api.StopReplicaResponse</text>
</a>
</g>
</g>
<!-- kafka.api.StopReplicaResponse&#45;&gt;kafka.api.RequestOrResponse -->
<g id="edge12" class="edge"><title>kafka.api.StopReplicaResponse&#45;&gt;kafka.api.RequestOrResponse</title>
<path fill="none" stroke="black" d="M502.162,-195.145C510.894,-199.039 519.054,-204.058 526.015,-210.5 639.914,-315.908 652.906,-520.574 653.695,-595.309"/>
<polygon fill="black" stroke="black" points="650.195,-595.379 653.733,-605.365 657.195,-595.352 650.195,-595.379"/>
</g>
<!-- kafka.api.TopicMetadataRequest -->
<g id="node24" class="node"><title>kafka.api.TopicMetadataRequest</title>
<g id="a_node24"><a xlink:href="https://github.com/apache/kafka/blob/0.8.2.1/core/src/main/scala/kafka/api/TopicMetadataRequest.scala" xlink:title="\N" target="_blank">
<polygon fill="#7996ac" stroke="black" points="305.224,-110.5 305.224,-146.5 505.281,-146.5 505.281,-110.5 305.224,-110.5"/>
<text text-anchor="middle" x="405.252" y="-124.3" font-family="Times,serif" font-size="14.00">kafka.api.TopicMetadataRequest</text>
</a>
</g>
</g>
<!-- kafka.api.TopicMetadataRequest&#45;&gt;kafka.api.RequestOrResponse -->
<g id="edge25" class="edge"><title>kafka.api.TopicMetadataRequest&#45;&gt;kafka.api.RequestOrResponse</title>
<path fill="none" stroke="black" d="M505.29,-141.281C512.875,-145.012 519.932,-149.679 526.015,-155.5 591.198,-217.878 636.498,-503.745 649.53,-595.244"/>
<polygon fill="black" stroke="black" points="646.101,-595.995 650.958,-605.411 653.033,-595.021 646.101,-595.995"/>
</g>
<!-- kafka.api.TopicMetadataResponse -->
<g id="node25" class="node"><title>kafka.api.TopicMetadataResponse</title>
<g id="a_node25"><a xlink:href="https://github.com/apache/kafka/blob/0.8.2.1/core/src/main/scala/kafka/api/TopicMetadataResponse.scala" xlink:title="\N" target="_blank">
<polygon fill="#7996ac" stroke="black" points="300.944,-55.5 300.944,-91.5 509.561,-91.5 509.561,-55.5 300.944,-55.5"/>
<text text-anchor="middle" x="405.252" y="-69.3" font-family="Times,serif" font-size="14.00">kafka.api.TopicMetadataResponse</text>
</a>
</g>
</g>
<!-- kafka.api.TopicMetadataResponse&#45;&gt;kafka.api.RequestOrResponse -->
<g id="edge13" class="edge"><title>kafka.api.TopicMetadataResponse&#45;&gt;kafka.api.RequestOrResponse</title>
<path fill="none" stroke="black" d="M509.697,-88.3578C515.631,-91.7109 521.151,-95.7187 526.015,-100.5 598.2,-171.459 639.42,-496.829 650.392,-595.23"/>
<polygon fill="black" stroke="black" points="646.928,-595.755 651.498,-605.314 653.886,-594.992 646.928,-595.755"/>
</g>
<!-- kafka.api.UpdateMetadataResponse -->
<g id="node26" class="node"><title>kafka.api.UpdateMetadataResponse</title>
<g id="a_node26"><a xlink:href="https://github.com/apache/kafka/blob/0.8.2.1/core/src/main/scala/kafka/api/UpdateMetadataResponse.scala" xlink:title="\N" target="_blank">
<polygon fill="#7996ac" stroke="black" points="296.569,-0.5 296.569,-36.5 513.936,-36.5 513.936,-0.5 296.569,-0.5"/>
<text text-anchor="middle" x="405.252" y="-14.3" font-family="Times,serif" font-size="14.00">kafka.api.UpdateMetadataResponse</text>
</a>
</g>
</g>
<!-- kafka.api.UpdateMetadataResponse&#45;&gt;kafka.api.RequestOrResponse -->
<g id="edge14" class="edge"><title>kafka.api.UpdateMetadataResponse&#45;&gt;kafka.api.RequestOrResponse</title>
<path fill="none" stroke="black" d="M514.164,-35.899C518.422,-38.6908 522.406,-41.8742 526.015,-45.5 605.207,-125.078 642.004,-489.935 651.082,-595.073"/>
<polygon fill="black" stroke="black" points="647.611,-595.566 651.942,-605.235 654.586,-594.975 647.611,-595.566"/>
</g>
</g>
</svg>
