<?xml version="1.0" encoding="UTF-8" standalone="no"?>
<!DOCTYPE svg PUBLIC "-//W3C//DTD SVG 1.1//EN"
 "http://www.w3.org/Graphics/SVG/1.1/DTD/svg11.dtd">
<!-- Generated by graphviz version 2.38.0 (20140413.2041)
 -->
<!-- Title: dependency&#45;graph Pages: 1 -->
<svg width="913pt" height="1016pt"
 viewBox="0.00 0.00 913.25 1016.00" xmlns="http://www.w3.org/2000/svg" xmlns:xlink="http://www.w3.org/1999/xlink">
<g id="graph0" class="graph" transform="scale(1 1) rotate(0) translate(4 1012)">
<title>kafka 0.9.0.0 dependency graph</title>
<polygon fill="white" stroke="none" points="-4,4 -4,-1012 909.255,-1012 909.255,4 -4,4"/>
<!-- org.apache.kafka:kafka_2.11:0.9.0.0 -->
<g id="node1" class="node"><title>org.apache.kafka:kafka_2.11:0.9.0.0</title>
<polygon fill="none" stroke="black" points="0,-576.5 0,-626.5 111.361,-626.5 111.361,-576.5 0,-576.5"/>
<text text-anchor="start" x="8" y="-612.3" font-family="Times,serif" font-size="14.00">org.apache.kafka</text>
<text text-anchor="start" x="24.6421" y="-598.3" font-family="Times,serif" font-weight="bold" font-size="14.00">kafka_2.11</text>
<text text-anchor="start" x="36.4307" y="-584.3" font-family="Times,serif" font-size="14.00">0.9.0.0</text>
</g>
<!-- net.sf.jopt&#45;simple:jopt&#45;simple:3.2 -->
<g id="node2" class="node"><title>net.sf.jopt&#45;simple:jopt&#45;simple:3.2</title>
<polygon fill="none" stroke="black" points="184.081,-903.5 184.081,-953.5 298.067,-953.5 298.067,-903.5 184.081,-903.5"/>
<text text-anchor="start" x="192.081" y="-939.3" font-family="Times,serif" font-size="14.00">net.sf.jopt&#45;simple</text>
<text text-anchor="start" x="209.188" y="-925.3" font-family="Times,serif" font-weight="bold" font-size="14.00">jopt&#45;simple</text>
<text text-anchor="start" x="232.324" y="-911.3" font-family="Times,serif" font-size="14.00">3.2</text>
</g>
<!-- org.apache.kafka:kafka_2.11:0.9.0.0&#45;&gt;net.sf.jopt&#45;simple:jopt&#45;simple:3.2 -->
<g id="edge1" class="edge"><title>org.apache.kafka:kafka_2.11:0.9.0.0&#45;&gt;net.sf.jopt&#45;simple:jopt&#45;simple:3.2</title>
<path fill="none" stroke="black" d="M57.2908,-626.761C59.996,-682.563 74.1982,-817.48 147.361,-894.5 154.865,-902.399 164.356,-908.471 174.385,-913.137"/>
<polygon fill="black" stroke="black" points="173.13,-916.406 183.706,-917.039 175.833,-909.949 173.13,-916.406"/>
</g>
<!-- org.apache.kafka:kafka&#45;clients:0.9.0.0 -->
<g id="node3" class="node"><title>org.apache.kafka:kafka&#45;clients:0.9.0.0</title>
<polygon fill="none" stroke="black" points="185.393,-834.5 185.393,-884.5 296.754,-884.5 296.754,-834.5 185.393,-834.5"/>
<text text-anchor="start" x="193.393" y="-870.3" font-family="Times,serif" font-size="14.00">org.apache.kafka</text>
<text text-anchor="start" x="204.925" y="-856.3" font-family="Times,serif" font-weight="bold" font-size="14.00">kafka&#45;clients</text>
<text text-anchor="start" x="221.824" y="-842.3" font-family="Times,serif" font-size="14.00">0.9.0.0</text>
</g>
<!-- org.apache.kafka:kafka_2.11:0.9.0.0&#45;&gt;org.apache.kafka:kafka&#45;clients:0.9.0.0 -->
<g id="edge2" class="edge"><title>org.apache.kafka:kafka_2.11:0.9.0.0&#45;&gt;org.apache.kafka:kafka&#45;clients:0.9.0.0</title>
<path fill="none" stroke="black" d="M70.5072,-626.586C87.4118,-656.627 117.476,-708.079 147.361,-749.5 166.884,-776.558 191.279,-805.332 210.145,-826.662"/>
<polygon fill="black" stroke="black" points="207.562,-829.025 216.826,-834.166 212.79,-824.37 207.562,-829.025"/>
</g>
<!-- org.slf4j:slf4j&#45;log4j12:1.7.6 -->
<g id="node6" class="node"><title>org.slf4j:slf4j&#45;log4j12:1.7.6</title>
<polygon fill="none" stroke="black" points="544.575,-634.5 544.575,-684.5 632.906,-684.5 632.906,-634.5 544.575,-634.5"/>
<text text-anchor="start" x="565.338" y="-670.3" font-family="Times,serif" font-size="14.00">org.slf4j</text>
<text text-anchor="start" x="552.575" y="-656.3" font-family="Times,serif" font-weight="bold" font-size="14.00">slf4j&#45;log4j12</text>
<text text-anchor="start" x="574.741" y="-642.3" font-family="Times,serif" font-size="14.00">1.7.6</text>
</g>
<!-- org.apache.kafka:kafka_2.11:0.9.0.0&#45;&gt;org.slf4j:slf4j&#45;log4j12:1.7.6 -->
<g id="edge7" class="edge"><title>org.apache.kafka:kafka_2.11:0.9.0.0&#45;&gt;org.slf4j:slf4j&#45;log4j12:1.7.6</title>
<path fill="none" stroke="black" d="M111.513,-607.489C213.997,-618.681 433.352,-642.638 534.563,-653.692"/>
<polygon fill="black" stroke="black" points="534.242,-657.178 544.563,-654.784 535.002,-650.219 534.242,-657.178"/>
</g>
<!-- org.scala&#45;lang.modules:scala&#45;parser&#45;combinators_2.11:1.0.4 -->
<g id="node14" class="node"><title>org.scala&#45;lang.modules:scala&#45;parser&#45;combinators_2.11:1.0.4</title>
<polygon fill="none" stroke="black" points="147.361,-419.5 147.361,-469.5 334.786,-469.5 334.786,-419.5 147.361,-419.5"/>
<text text-anchor="start" x="176.272" y="-455.3" font-family="Times,serif" font-size="14.00">org.scala&#45;lang.modules</text>
<text text-anchor="start" x="155.361" y="-441.3" font-family="Times,serif" font-weight="bold" font-size="14.00">scala&#45;parser&#45;combinators_2.11</text>
<text text-anchor="start" x="227.074" y="-427.3" font-family="Times,serif" font-size="14.00">1.0.4</text>
</g>
<!-- org.apache.kafka:kafka_2.11:0.9.0.0&#45;&gt;org.scala&#45;lang.modules:scala&#45;parser&#45;combinators_2.11:1.0.4 -->
<g id="edge27" class="edge"><title>org.apache.kafka:kafka_2.11:0.9.0.0&#45;&gt;org.scala&#45;lang.modules:scala&#45;parser&#45;combinators_2.11:1.0.4</title>
<path fill="none" stroke="black" d="M69.3599,-576.38C84.4603,-548.797 112.129,-504.924 147.361,-478.5 148.956,-477.304 150.597,-476.147 152.276,-475.027"/>
<polygon fill="black" stroke="black" points="154.244,-477.927 160.964,-469.735 150.603,-471.948 154.244,-477.927"/>
</g>
<!-- org.scala&#45;lang.modules:scala&#45;xml_2.11:1.0.4 -->
<g id="node15" class="node"><title>org.scala&#45;lang.modules:scala&#45;xml_2.11:1.0.4</title>
<polygon fill="none" stroke="black" points="168.272,-350.5 168.272,-400.5 313.875,-400.5 313.875,-350.5 168.272,-350.5"/>
<text text-anchor="start" x="176.272" y="-386.3" font-family="Times,serif" font-size="14.00">org.scala&#45;lang.modules</text>
<text text-anchor="start" x="198.37" y="-372.3" font-family="Times,serif" font-weight="bold" font-size="14.00">scala&#45;xml_2.11</text>
<text text-anchor="start" x="227.074" y="-358.3" font-family="Times,serif" font-size="14.00">1.0.4</text>
</g>
<!-- org.apache.kafka:kafka_2.11:0.9.0.0&#45;&gt;org.scala&#45;lang.modules:scala&#45;xml_2.11:1.0.4 -->
<g id="edge28" class="edge"><title>org.apache.kafka:kafka_2.11:0.9.0.0&#45;&gt;org.scala&#45;lang.modules:scala&#45;xml_2.11:1.0.4</title>
<path fill="none" stroke="black" d="M62.0406,-576.333C71.9484,-535.722 96.8871,-455.636 147.361,-409.5 150.968,-406.203 154.92,-403.22 159.097,-400.519"/>
<polygon fill="black" stroke="black" points="161.066,-403.423 167.947,-395.367 157.544,-397.374 161.066,-403.423"/>
</g>
<!-- com.yammer.metrics:metrics&#45;core:2.2.0 -->
<g id="node16" class="node"><title>com.yammer.metrics:metrics&#45;core:2.2.0</title>
<polygon fill="none" stroke="black" points="372.974,-780.5 372.974,-830.5 506.388,-830.5 506.388,-780.5 372.974,-780.5"/>
<text text-anchor="start" x="380.974" y="-816.3" font-family="Times,serif" font-size="14.00">com.yammer.metrics</text>
<text text-anchor="start" x="404.701" y="-802.3" font-family="Times,serif" font-weight="bold" font-size="14.00">metrics&#45;core</text>
<text text-anchor="start" x="425.681" y="-788.3" font-family="Times,serif" font-size="14.00">2.2.0</text>
</g>
<!-- org.apache.kafka:kafka_2.11:0.9.0.0&#45;&gt;com.yammer.metrics:metrics&#45;core:2.2.0 -->
<g id="edge29" class="edge"><title>org.apache.kafka:kafka_2.11:0.9.0.0&#45;&gt;com.yammer.metrics:metrics&#45;core:2.2.0</title>
<path fill="none" stroke="black" d="M103.521,-626.514C174.069,-664.189 307.349,-735.365 382.844,-775.682"/>
<polygon fill="black" stroke="black" points="381.287,-778.818 391.756,-780.441 384.584,-772.643 381.287,-778.818"/>
</g>
<!-- com.101tec:zkclient:0.7 -->
<g id="node17" class="node"><title>com.101tec:zkclient:0.7</title>
<polygon fill="none" stroke="black" points="200.613,-488.5 200.613,-538.5 281.534,-538.5 281.534,-488.5 200.613,-488.5"/>
<text text-anchor="start" x="208.613" y="-524.3" font-family="Times,serif" font-size="14.00">com.101tec</text>
<text text-anchor="start" x="218.918" y="-510.3" font-family="Times,serif" font-weight="bold" font-size="14.00">zkclient</text>
<text text-anchor="start" x="232.324" y="-496.3" font-family="Times,serif" font-size="14.00">0.7</text>
</g>
<!-- org.apache.kafka:kafka_2.11:0.9.0.0&#45;&gt;com.101tec:zkclient:0.7 -->
<g id="edge30" class="edge"><title>org.apache.kafka:kafka_2.11:0.9.0.0&#45;&gt;com.101tec:zkclient:0.7</title>
<path fill="none" stroke="black" d="M109.234,-576.283C135.063,-563.889 165.994,-549.047 191.295,-536.906"/>
<polygon fill="black" stroke="black" points="192.84,-540.047 200.342,-532.565 189.812,-533.736 192.84,-540.047"/>
</g>
<!-- org.apache.zookeeper:zookeeper:3.4.6 -->
<g id="node18" class="node"><title>org.apache.zookeeper:zookeeper:3.4.6</title>
<polygon fill="none" stroke="black" points="370.786,-459.5 370.786,-509.5 508.575,-509.5 508.575,-459.5 370.786,-459.5"/>
<text text-anchor="start" x="378.786" y="-495.3" font-family="Times,serif" font-size="14.00">org.apache.zookeeper</text>
<text text-anchor="start" x="410.922" y="-481.3" font-family="Times,serif" font-weight="bold" font-size="14.00">zookeeper</text>
<text text-anchor="start" x="425.681" y="-467.3" font-family="Times,serif" font-size="14.00">3.4.6</text>
</g>
<!-- org.apache.kafka:kafka_2.11:0.9.0.0&#45;&gt;org.apache.zookeeper:zookeeper:3.4.6 -->
<g id="edge32" class="edge"><title>org.apache.kafka:kafka_2.11:0.9.0.0&#45;&gt;org.apache.zookeeper:zookeeper:3.4.6</title>
<path fill="none" stroke="black" d="M111.567,-596.612C168.832,-590.199 260.455,-576.197 334.786,-547.5 355.925,-539.339 377.617,-526.934 395.676,-515.284"/>
<polygon fill="black" stroke="black" points="397.806,-518.071 404.231,-509.647 393.955,-512.226 397.806,-518.071"/>
</g>
<!-- net.jpountz.lz4:lz4:1.2.0 -->
<g id="node4" class="node"><title>net.jpountz.lz4:lz4:1.2.0</title>
<polygon fill="none" stroke="black" points="390.081,-888.5 390.081,-938.5 489.281,-938.5 489.281,-888.5 390.081,-888.5"/>
<text text-anchor="start" x="398.081" y="-924.3" font-family="Times,serif" font-size="14.00">net.jpountz.lz4</text>
<text text-anchor="start" x="431.129" y="-910.3" font-family="Times,serif" font-weight="bold" font-size="14.00">lz4</text>
<text text-anchor="start" x="425.681" y="-896.3" font-family="Times,serif" font-size="14.00">1.2.0</text>
</g>
<!-- org.apache.kafka:kafka&#45;clients:0.9.0.0&#45;&gt;net.jpountz.lz4:lz4:1.2.0 -->
<g id="edge3" class="edge"><title>org.apache.kafka:kafka&#45;clients:0.9.0.0&#45;&gt;net.jpountz.lz4:lz4:1.2.0</title>
<path fill="none" stroke="black" d="M296.84,-874.542C322.733,-881.654 353.676,-890.153 380.044,-897.395"/>
<polygon fill="black" stroke="black" points="379.336,-900.83 389.906,-900.103 381.19,-894.08 379.336,-900.83"/>
</g>
<!-- org.xerial.snappy:snappy&#45;java:1.1.1.7 -->
<g id="node5" class="node"><title>org.xerial.snappy:snappy&#45;java:1.1.1.7</title>
<polygon fill="none" stroke="black" points="383.207,-957.5 383.207,-1007.5 496.154,-1007.5 496.154,-957.5 383.207,-957.5"/>
<text text-anchor="start" x="391.207" y="-993.3" font-family="Times,serif" font-size="14.00">org.xerial.snappy</text>
<text text-anchor="start" x="405.86" y="-979.3" font-family="Times,serif" font-weight="bold" font-size="14.00">snappy&#45;java</text>
<text text-anchor="start" x="420.431" y="-965.3" font-family="Times,serif" font-size="14.00">1.1.1.7</text>
</g>
<!-- org.apache.kafka:kafka&#45;clients:0.9.0.0&#45;&gt;org.xerial.snappy:snappy&#45;java:1.1.1.7 -->
<g id="edge4" class="edge"><title>org.apache.kafka:kafka&#45;clients:0.9.0.0&#45;&gt;org.xerial.snappy:snappy&#45;java:1.1.1.7</title>
<path fill="none" stroke="black" d="M297.04,-873.857C310.264,-878.972 323.745,-885.718 334.786,-894.5 357.361,-912.454 349.168,-929.404 370.786,-948.5 372.077,-949.64 373.412,-950.752 374.785,-951.836"/>
<polygon fill="black" stroke="black" points="372.835,-954.745 382.998,-957.74 376.921,-949.061 372.835,-954.745"/>
</g>
<!-- org.slf4j:slf4j&#45;api:1.7.6 -->
<g id="node11" class="node"><title>org.slf4j:slf4j&#45;api:1.7.6</title>
<polygon fill="none" stroke="black" points="685.169,-688.5 685.169,-738.5 747.975,-738.5 747.975,-688.5 685.169,-688.5"/>
<text text-anchor="start" x="693.169" y="-724.3" font-family="Times,serif" font-size="14.00">org.slf4j</text>
<text text-anchor="start" x="693.244" y="-710.3" font-family="Times,serif" font-weight="bold" font-size="14.00">slf4j&#45;api</text>
<text text-anchor="start" x="702.572" y="-696.3" font-family="Times,serif" font-size="14.00">1.7.6</text>
</g>
<!-- org.apache.kafka:kafka&#45;clients:0.9.0.0&#45;&gt;org.slf4j:slf4j&#45;api:1.7.6 -->
<g id="edge20" class="edge"><title>org.apache.kafka:kafka&#45;clients:0.9.0.0&#45;&gt;org.slf4j:slf4j&#45;api:1.7.6</title>
<path fill="none" stroke="black" d="M296.974,-868.449C376.841,-878.568 527.064,-886.42 632.906,-824.5 663.014,-806.886 685.558,-773.554 699.435,-747.995"/>
<polygon fill="black" stroke="black" points="702.62,-749.457 704.154,-738.974 696.418,-746.213 702.62,-749.457"/>
</g>
<!-- log4j:log4j:1.2.17 -->
<g id="node8" class="node"><title>log4j:log4j:1.2.17</title>
<polygon fill="none" stroke="black" points="689.572,-395.5 689.572,-445.5 743.572,-445.5 743.572,-395.5 689.572,-395.5"/>
<text text-anchor="start" x="702.182" y="-431.3" font-family="Times,serif" font-size="14.00">log4j</text>
<text text-anchor="start" x="702.182" y="-417.3" font-family="Times,serif" font-weight="bold" font-size="14.00">log4j</text>
<text text-anchor="start" x="699.072" y="-403.3" font-family="Times,serif" font-size="14.00">1.2.17</text>
</g>
<!-- org.slf4j:slf4j&#45;log4j12:1.7.6&#45;&gt;log4j:log4j:1.2.17 -->
<g id="edge12" class="edge"><title>org.slf4j:slf4j&#45;log4j12:1.7.6&#45;&gt;log4j:log4j:1.2.17</title>
<path fill="none" stroke="black" d="M606.632,-634.326C615.405,-620.393 625.756,-602.5 632.906,-585.5 656.315,-529.842 634.581,-504.175 668.906,-454.5 672.265,-449.64 676.55,-445.215 681.158,-441.283"/>
<polygon fill="black" stroke="black" points="683.335,-444.024 689.11,-435.142 679.056,-438.484 683.335,-444.024"/>
</g>
<!-- org.slf4j:slf4j&#45;log4j12:1.7.6&#45;&gt;org.slf4j:slf4j&#45;api:1.7.6 -->
<g id="edge19" class="edge"><title>org.slf4j:slf4j&#45;log4j12:1.7.6&#45;&gt;org.slf4j:slf4j&#45;api:1.7.6</title>
<path fill="none" stroke="black" d="M633.045,-678.084C646.774,-683.976 661.888,-690.462 675.388,-696.255"/>
<polygon fill="black" stroke="black" points="674.321,-699.606 684.891,-700.333 677.081,-693.173 674.321,-699.606"/>
</g>
<!-- org.slf4j:slf4j&#45;log4j12:1.6.1 -->
<g id="node7" class="node"><title>org.slf4j:slf4j&#45;log4j12:1.6.1</title>
<polygon fill="none" stroke="black" points="544.575,-280.5 544.575,-330.5 632.906,-330.5 632.906,-280.5 544.575,-280.5"/>
<text text-anchor="start" x="565.338" y="-316.3" font-family="Times,serif" font-size="14.00">org.slf4j</text>
<text text-anchor="start" x="552.575" y="-302.3" font-family="Times,serif" font-weight="bold" font-size="14.00">slf4j&#45;log4j12</text>
<text text-anchor="start" x="574.741" y="-288.3" font-family="Times,serif" font-size="14.00">1.6.1</text>
</g>
<!-- log4j:log4j:1.2.15 -->
<g id="node9" class="node"><title>log4j:log4j:1.2.15</title>
<polygon fill="none" stroke="black" points="561.741,-103.5 561.741,-153.5 615.741,-153.5 615.741,-103.5 561.741,-103.5"/>
<text text-anchor="start" x="574.351" y="-139.3" font-family="Times,serif" font-size="14.00">log4j</text>
<text text-anchor="start" x="574.351" y="-125.3" font-family="Times,serif" font-weight="bold" font-size="14.00">log4j</text>
<text text-anchor="start" x="571.241" y="-111.3" font-family="Times,serif" font-size="14.00">1.2.15</text>
</g>
<!-- com.sun.jmx:jmxri:1.2.1 -->
<g id="node21" class="node"><title>com.sun.jmx:jmxri:1.2.1</title>
<polygon fill="none" stroke="black" points="672.406,-207.5 672.406,-257.5 760.737,-257.5 760.737,-207.5 672.406,-207.5"/>
<text text-anchor="start" x="680.406" y="-243.3" font-family="Times,serif" font-size="14.00">com.sun.jmx</text>
<text text-anchor="start" x="701.406" y="-229.3" font-family="Times,serif" font-weight="bold" font-size="14.00">jmxri</text>
<text text-anchor="start" x="702.572" y="-215.3" font-family="Times,serif" font-size="14.00">1.2.1</text>
</g>
<!-- log4j:log4j:1.2.15&#45;&gt;com.sun.jmx:jmxri:1.2.1 -->
<g id="edge35" class="edge"><title>log4j:log4j:1.2.15&#45;&gt;com.sun.jmx:jmxri:1.2.1</title>
<path fill="none" stroke="black" d="M616.075,-152.311C631.281,-165.842 650.905,-182.937 668.906,-197.5 670.412,-198.718 671.953,-199.95 673.516,-201.186"/>
<polygon fill="black" stroke="black" points="671.409,-203.981 681.449,-207.363 675.709,-198.458 671.409,-203.981"/>
</g>
<!-- com.sun.jdmk:jmxtools:1.2.1 -->
<g id="node22" class="node"><title>com.sun.jdmk:jmxtools:1.2.1</title>
<polygon fill="none" stroke="black" points="668.906,-138.5 668.906,-188.5 764.237,-188.5 764.237,-138.5 668.906,-138.5"/>
<text text-anchor="start" x="676.906" y="-174.3" font-family="Times,serif" font-size="14.00">com.sun.jdmk</text>
<text text-anchor="start" x="692.068" y="-160.3" font-family="Times,serif" font-weight="bold" font-size="14.00">jmxtools</text>
<text text-anchor="start" x="702.572" y="-146.3" font-family="Times,serif" font-size="14.00">1.2.1</text>
</g>
<!-- log4j:log4j:1.2.15&#45;&gt;com.sun.jdmk:jmxtools:1.2.1 -->
<g id="edge36" class="edge"><title>log4j:log4j:1.2.15&#45;&gt;com.sun.jdmk:jmxtools:1.2.1</title>
<path fill="none" stroke="black" d="M615.813,-135.752C628.332,-139.234 643.855,-143.552 658.898,-147.736"/>
<polygon fill="black" stroke="black" points="658.106,-151.149 668.678,-150.456 659.981,-144.405 658.106,-151.149"/>
</g>
<!-- javax.jms:jms:1.1 -->
<g id="node23" class="node"><title>javax.jms:jms:1.1</title>
<polygon fill="none" stroke="black" points="681.549,-69.5 681.549,-119.5 751.594,-119.5 751.594,-69.5 681.549,-69.5"/>
<text text-anchor="start" x="689.549" y="-105.3" font-family="Times,serif" font-size="14.00">javax.jms</text>
<text text-anchor="start" x="706.458" y="-91.3" font-family="Times,serif" font-weight="bold" font-size="14.00">jms</text>
<text text-anchor="start" x="707.822" y="-77.3" font-family="Times,serif" font-size="14.00">1.1</text>
</g>
<!-- log4j:log4j:1.2.15&#45;&gt;javax.jms:jms:1.1 -->
<g id="edge37" class="edge"><title>log4j:log4j:1.2.15&#45;&gt;javax.jms:jms:1.1</title>
<path fill="none" stroke="black" d="M615.813,-121.455C631.922,-117.102 653.007,-111.405 671.64,-106.371"/>
<polygon fill="black" stroke="black" points="672.665,-109.719 681.406,-103.732 670.839,-102.961 672.665,-109.719"/>
</g>
<!-- javax.mail:mail:1.4 -->
<g id="node24" class="node"><title>javax.mail:mail:1.4</title>
<polygon fill="none" stroke="black" points="679.222,-0.5 679.222,-50.5 753.922,-50.5 753.922,-0.5 679.222,-0.5"/>
<text text-anchor="start" x="687.222" y="-36.3" font-family="Times,serif" font-size="14.00">javax.mail</text>
<text text-anchor="start" x="704.13" y="-22.3" font-family="Times,serif" font-weight="bold" font-size="14.00">mail</text>
<text text-anchor="start" x="707.822" y="-8.3" font-family="Times,serif" font-size="14.00">1.4</text>
</g>
<!-- log4j:log4j:1.2.15&#45;&gt;javax.mail:mail:1.4 -->
<g id="edge38" class="edge"><title>log4j:log4j:1.2.15&#45;&gt;javax.mail:mail:1.4</title>
<path fill="none" stroke="black" d="M615.998,-104.594C631.18,-91.0323 650.805,-73.9379 668.906,-59.5 670.057,-58.582 671.23,-57.6574 672.418,-56.7299"/>
<polygon fill="black" stroke="black" points="674.6,-59.467 680.412,-50.6086 670.345,-53.9091 674.6,-59.467"/>
</g>
<!-- log4j:log4j:1.2.16 -->
<g id="node10" class="node"><title>log4j:log4j:1.2.16</title>
<polygon fill="none" stroke="black" points="561.741,-211.5 561.741,-261.5 615.741,-261.5 615.741,-211.5 561.741,-211.5"/>
<text text-anchor="start" x="574.351" y="-247.3" font-family="Times,serif" font-size="14.00">log4j</text>
<text text-anchor="start" x="574.351" y="-233.3" font-family="Times,serif" font-weight="bold" font-size="14.00">log4j</text>
<text text-anchor="start" x="571.241" y="-219.3" font-family="Times,serif" font-size="14.00">1.2.16</text>
</g>
<!-- org.slf4j:slf4j&#45;api:1.7.2 -->
<g id="node12" class="node"><title>org.slf4j:slf4j&#45;api:1.7.2</title>
<polygon fill="none" stroke="black" points="557.338,-742.5 557.338,-792.5 620.144,-792.5 620.144,-742.5 557.338,-742.5"/>
<text text-anchor="start" x="565.338" y="-778.3" font-family="Times,serif" font-size="14.00">org.slf4j</text>
<text text-anchor="start" x="565.413" y="-764.3" font-family="Times,serif" font-weight="bold" font-size="14.00">slf4j&#45;api</text>
<text text-anchor="start" x="574.741" y="-750.3" font-family="Times,serif" font-size="14.00">1.7.2</text>
</g>
<!-- org.slf4j:slf4j&#45;api:1.6.1 -->
<g id="node13" class="node"><title>org.slf4j:slf4j&#45;api:1.6.1</title>
<polygon fill="none" stroke="black" points="557.338,-349.5 557.338,-399.5 620.144,-399.5 620.144,-349.5 557.338,-349.5"/>
<text text-anchor="start" x="565.338" y="-385.3" font-family="Times,serif" font-size="14.00">org.slf4j</text>
<text text-anchor="start" x="565.413" y="-371.3" font-family="Times,serif" font-weight="bold" font-size="14.00">slf4j&#45;api</text>
<text text-anchor="start" x="574.741" y="-357.3" font-family="Times,serif" font-size="14.00">1.6.1</text>
</g>
<!-- com.yammer.metrics:metrics&#45;core:2.2.0&#45;&gt;org.slf4j:slf4j&#45;api:1.7.6 -->
<g id="edge21" class="edge"><title>com.yammer.metrics:metrics&#45;core:2.2.0&#45;&gt;org.slf4j:slf4j&#45;api:1.7.6</title>
<path fill="none" stroke="black" d="M506.627,-816.949C545.071,-820.64 593.574,-820.015 632.906,-802.5 658.697,-791.015 680.12,-767.203 694.691,-747.098"/>
<polygon fill="black" stroke="black" points="697.659,-748.959 700.508,-738.754 691.918,-744.955 697.659,-748.959"/>
</g>
<!-- com.yammer.metrics:metrics&#45;core:2.2.0&#45;&gt;org.slf4j:slf4j&#45;api:1.7.2 -->
<g id="edge24" class="edge"><title>com.yammer.metrics:metrics&#45;core:2.2.0&#45;&gt;org.slf4j:slf4j&#45;api:1.7.2</title>
<path fill="none" stroke="black" d="M506.468,-788.501C520.468,-784.883 534.847,-781.168 547.543,-777.887"/>
<polygon fill="black" stroke="black" points="548.519,-781.25 557.326,-775.359 546.768,-774.472 548.519,-781.25"/>
</g>
<!-- com.101tec:zkclient:0.7&#45;&gt;org.slf4j:slf4j&#45;log4j12:1.7.6 -->
<g id="edge5" class="edge"><title>com.101tec:zkclient:0.7&#45;&gt;org.slf4j:slf4j&#45;log4j12:1.7.6</title>
<path fill="none" stroke="black" d="M281.697,-526.369C334.454,-543.985 430.219,-577.652 508.575,-614.5 518.116,-618.987 528.058,-624.189 537.545,-629.431"/>
<polygon fill="black" stroke="black" points="536.04,-632.6 546.473,-634.445 539.468,-626.497 536.04,-632.6"/>
</g>
<!-- com.101tec:zkclient:0.7&#45;&gt;org.slf4j:slf4j&#45;log4j12:1.6.1 -->
<g id="edge8" class="edge"><title>com.101tec:zkclient:0.7&#45;&gt;org.slf4j:slf4j&#45;log4j12:1.6.1</title>
<path fill="none" stroke="black" d="M281.606,-506.14C299.723,-501.023 320.331,-492.509 334.786,-478.5 364.836,-449.378 340.976,-420.868 370.786,-391.5 415.652,-347.3 486.022,-325.069 534.383,-314.424"/>
<polygon fill="black" stroke="black" points="535.287,-317.81 544.351,-312.324 533.844,-310.96 535.287,-317.81"/>
</g>
<!-- com.101tec:zkclient:0.7&#45;&gt;log4j:log4j:1.2.17 -->
<g id="edge10" class="edge"><title>com.101tec:zkclient:0.7&#45;&gt;log4j:log4j:1.2.17</title>
<path fill="none" stroke="black" d="M281.762,-507.94C300.6,-503.23 321.784,-494.537 334.786,-478.5 401.051,-396.763 299.801,-322.173 370.786,-244.5 424.465,-185.765 465.591,-211.126 544.575,-201.5 583.545,-196.751 600.615,-179.174 632.906,-201.5 648.706,-212.424 686.256,-326.66 704.813,-385.652"/>
<polygon fill="black" stroke="black" points="701.507,-386.808 707.835,-395.305 708.187,-384.716 701.507,-386.808"/>
</g>
<!-- com.101tec:zkclient:0.7&#45;&gt;log4j:log4j:1.2.15 -->
<g id="edge13" class="edge"><title>com.101tec:zkclient:0.7&#45;&gt;log4j:log4j:1.2.15</title>
<path fill="none" stroke="black" d="M281.543,-508.257C300.565,-503.628 321.978,-494.911 334.786,-478.5 420.125,-369.157 276.033,-269.795 370.786,-168.5 416.978,-119.119 502.641,-118.824 551.366,-123.397"/>
<polygon fill="black" stroke="black" points="551.152,-126.894 561.464,-124.465 551.888,-119.933 551.152,-126.894"/>
</g>
<!-- com.101tec:zkclient:0.7&#45;&gt;log4j:log4j:1.2.16 -->
<g id="edge15" class="edge"><title>com.101tec:zkclient:0.7&#45;&gt;log4j:log4j:1.2.16</title>
<path fill="none" stroke="black" d="M281.78,-507.441C300.388,-502.611 321.365,-493.961 334.786,-478.5 382.852,-423.13 322.619,-372.782 370.786,-317.5 417.415,-263.983 502.912,-245.757 551.492,-239.599"/>
<polygon fill="black" stroke="black" points="552.03,-243.06 561.559,-238.429 551.222,-236.107 552.03,-243.06"/>
</g>
<!-- com.101tec:zkclient:0.7&#45;&gt;org.slf4j:slf4j&#45;api:1.7.6 -->
<g id="edge17" class="edge"><title>com.101tec:zkclient:0.7&#45;&gt;org.slf4j:slf4j&#45;api:1.7.6</title>
<path fill="none" stroke="black" d="M272.768,-538.741C324.88,-579.931 435.643,-660.416 544.575,-694.5 587.589,-707.959 639.303,-712.153 674.518,-713.328"/>
<polygon fill="black" stroke="black" points="674.799,-716.836 684.889,-713.602 674.985,-709.839 674.799,-716.836"/>
</g>
<!-- com.101tec:zkclient:0.7&#45;&gt;org.slf4j:slf4j&#45;api:1.7.2 -->
<g id="edge22" class="edge"><title>com.101tec:zkclient:0.7&#45;&gt;org.slf4j:slf4j&#45;api:1.7.2</title>
<path fill="none" stroke="black" d="M261.704,-538.546C281.595,-564.6 312.526,-607.028 334.786,-646.5 354.138,-680.815 339.845,-703.115 370.786,-727.5 421.545,-767.503 499.648,-772.15 546.995,-770.67"/>
<polygon fill="black" stroke="black" points="547.341,-774.158 557.185,-770.241 547.047,-767.164 547.341,-774.158"/>
</g>
<!-- com.101tec:zkclient:0.7&#45;&gt;org.slf4j:slf4j&#45;api:1.6.1 -->
<g id="edge25" class="edge"><title>com.101tec:zkclient:0.7&#45;&gt;org.slf4j:slf4j&#45;api:1.6.1</title>
<path fill="none" stroke="black" d="M281.656,-501.66C298.577,-495.821 318.209,-487.981 334.786,-478.5 352.621,-468.299 352.81,-459.449 370.786,-449.5 428.529,-417.543 502.352,-395.547 547.288,-383.997"/>
<polygon fill="black" stroke="black" points="548.401,-387.326 557.242,-381.488 546.69,-380.538 548.401,-387.326"/>
</g>
<!-- com.101tec:zkclient:0.7&#45;&gt;org.apache.zookeeper:zookeeper:3.4.6 -->
<g id="edge31" class="edge"><title>com.101tec:zkclient:0.7&#45;&gt;org.apache.zookeeper:zookeeper:3.4.6</title>
<path fill="none" stroke="black" d="M281.86,-507.631C304.445,-504.3 333.51,-500.013 360.469,-496.036"/>
<polygon fill="black" stroke="black" points="361.298,-499.452 370.68,-494.53 360.276,-492.527 361.298,-499.452"/>
</g>
<!-- org.apache.zookeeper:zookeeper:3.4.6&#45;&gt;org.slf4j:slf4j&#45;log4j12:1.7.6 -->
<g id="edge6" class="edge"><title>org.apache.zookeeper:zookeeper:3.4.6&#45;&gt;org.slf4j:slf4j&#45;log4j12:1.7.6</title>
<path fill="none" stroke="black" d="M488.006,-509.635C495.566,-515.124 502.79,-521.437 508.575,-528.5 536.135,-562.148 520.014,-583.605 544.575,-619.5 546.252,-621.951 548.104,-624.36 550.071,-626.707"/>
<polygon fill="black" stroke="black" points="547.778,-629.387 557.107,-634.409 552.946,-624.665 547.778,-629.387"/>
</g>
<!-- org.apache.zookeeper:zookeeper:3.4.6&#45;&gt;org.slf4j:slf4j&#45;log4j12:1.6.1 -->
<g id="edge9" class="edge"><title>org.apache.zookeeper:zookeeper:3.4.6&#45;&gt;org.slf4j:slf4j&#45;log4j12:1.6.1</title>
<path fill="none" stroke="black" d="M455.664,-459.29C474.323,-429.016 508.204,-377.563 544.575,-339.5 545.21,-338.836 545.857,-338.174 546.516,-337.515"/>
<polygon fill="black" stroke="black" points="549.011,-339.973 553.928,-330.589 544.232,-334.859 549.011,-339.973"/>
</g>
<!-- org.apache.zookeeper:zookeeper:3.4.6&#45;&gt;log4j:log4j:1.2.17 -->
<g id="edge11" class="edge"><title>org.apache.zookeeper:zookeeper:3.4.6&#45;&gt;log4j:log4j:1.2.17</title>
<path fill="none" stroke="black" d="M505.228,-459.429C518.129,-455.012 531.68,-450.784 544.575,-447.5 590.37,-435.838 644.417,-428.316 679.304,-424.248"/>
<polygon fill="black" stroke="black" points="679.942,-427.698 689.485,-423.095 679.155,-420.742 679.942,-427.698"/>
</g>
<!-- org.apache.zookeeper:zookeeper:3.4.6&#45;&gt;log4j:log4j:1.2.15 -->
<g id="edge14" class="edge"><title>org.apache.zookeeper:zookeeper:3.4.6&#45;&gt;log4j:log4j:1.2.15</title>
<path fill="none" stroke="black" d="M448.234,-459.274C463.64,-409.051 500.946,-293.475 544.575,-201.5 550.81,-188.355 558.663,-174.482 565.956,-162.401"/>
<polygon fill="black" stroke="black" points="569.138,-163.907 571.388,-153.554 563.173,-160.245 569.138,-163.907"/>
</g>
<!-- org.apache.zookeeper:zookeeper:3.4.6&#45;&gt;log4j:log4j:1.2.16 -->
<g id="edge16" class="edge"><title>org.apache.zookeeper:zookeeper:3.4.6&#45;&gt;log4j:log4j:1.2.16</title>
<path fill="none" stroke="black" d="M448.7,-459.352C463.032,-417.117 496.146,-330.659 544.575,-270.5 547.267,-267.156 550.346,-263.937 553.594,-260.903"/>
<polygon fill="black" stroke="black" points="556.092,-263.37 561.373,-254.185 551.517,-258.072 556.092,-263.37"/>
</g>
<!-- org.apache.zookeeper:zookeeper:3.4.6&#45;&gt;org.slf4j:slf4j&#45;api:1.7.6 -->
<g id="edge18" class="edge"><title>org.apache.zookeeper:zookeeper:3.4.6&#45;&gt;org.slf4j:slf4j&#45;api:1.7.6</title>
<path fill="none" stroke="black" d="M464.686,-509.756C489.686,-535.7 527.53,-573.883 544.575,-585.5 580.186,-609.771 597.855,-600.427 632.906,-625.5 654.344,-640.834 674.666,-662.336 689.796,-680.246"/>
<polygon fill="black" stroke="black" points="687.296,-682.715 696.368,-688.187 692.689,-678.252 687.296,-682.715"/>
</g>
<!-- org.apache.zookeeper:zookeeper:3.4.6&#45;&gt;org.slf4j:slf4j&#45;api:1.7.2 -->
<g id="edge23" class="edge"><title>org.apache.zookeeper:zookeeper:3.4.6&#45;&gt;org.slf4j:slf4j&#45;api:1.7.2</title>
<path fill="none" stroke="black" d="M452.401,-509.7C471.048,-549.435 509.006,-628.879 544.575,-694.5 551.633,-707.52 559.808,-721.578 567.133,-733.849"/>
<polygon fill="black" stroke="black" points="564.138,-735.659 572.289,-742.428 570.138,-732.054 564.138,-735.659"/>
</g>
<!-- org.apache.zookeeper:zookeeper:3.4.6&#45;&gt;org.slf4j:slf4j&#45;api:1.6.1 -->
<g id="edge26" class="edge"><title>org.apache.zookeeper:zookeeper:3.4.6&#45;&gt;org.slf4j:slf4j&#45;api:1.6.1</title>
<path fill="none" stroke="black" d="M474.419,-459.264C496.623,-442.655 525.755,-420.865 548.921,-403.537"/>
<polygon fill="black" stroke="black" points="551.251,-406.165 557.162,-397.372 547.058,-400.559 551.251,-406.165"/>
</g>
<!-- io.netty:netty:3.7.0.Final -->
<g id="node19" class="node"><title>io.netty:netty:3.7.0.Final</title>
<polygon fill="none" stroke="black" points="550.601,-526.5 550.601,-576.5 626.88,-576.5 626.88,-526.5 550.601,-526.5"/>
<text text-anchor="start" x="567.549" y="-562.3" font-family="Times,serif" font-size="14.00">io.netty</text>
<text text-anchor="start" x="574.744" y="-548.3" font-family="Times,serif" font-weight="bold" font-size="14.00">netty</text>
<text text-anchor="start" x="558.601" y="-534.3" font-family="Times,serif" font-size="14.00">3.7.0.Final</text>
</g>
<!-- org.apache.zookeeper:zookeeper:3.4.6&#45;&gt;io.netty:netty:3.7.0.Final -->
<g id="edge33" class="edge"><title>org.apache.zookeeper:zookeeper:3.4.6&#45;&gt;io.netty:netty:3.7.0.Final</title>
<path fill="none" stroke="black" d="M495.859,-509.639C510.835,-516.462 526.896,-523.779 541.334,-530.357"/>
<polygon fill="black" stroke="black" points="540.009,-533.6 550.56,-534.561 542.911,-527.23 540.009,-533.6"/>
</g>
<!-- jline:jline:0.9.94 -->
<g id="node20" class="node"><title>jline:jline:0.9.94</title>
<polygon fill="none" stroke="black" points="561.741,-457.5 561.741,-507.5 615.741,-507.5 615.741,-457.5 561.741,-457.5"/>
<text text-anchor="start" x="576.299" y="-493.3" font-family="Times,serif" font-size="14.00">jline</text>
<text text-anchor="start" x="576.299" y="-479.3" font-family="Times,serif" font-weight="bold" font-size="14.00">jline</text>
<text text-anchor="start" x="571.241" y="-465.3" font-family="Times,serif" font-size="14.00">0.9.94</text>
</g>
<!-- org.apache.zookeeper:zookeeper:3.4.6&#45;&gt;jline:jline:0.9.94 -->
<g id="edge34" class="edge"><title>org.apache.zookeeper:zookeeper:3.4.6&#45;&gt;jline:jline:0.9.94</title>
<path fill="none" stroke="black" d="M508.615,-483.576C523.314,-483.376 538.312,-483.172 551.243,-482.996"/>
<polygon fill="black" stroke="black" points="551.616,-486.492 561.567,-482.856 551.52,-479.492 551.616,-486.492"/>
</g>
<!-- junit:junit:3.8.1 -->
<g id="node26" class="node"><title>junit:junit:3.8.1</title>
<polygon fill="none" stroke="black" points="689.572,-464.5 689.572,-514.5 743.572,-514.5 743.572,-464.5 689.572,-464.5"/>
<text text-anchor="start" x="703.737" y="-500.3" font-family="Times,serif" font-size="14.00">junit</text>
<text text-anchor="start" x="703.737" y="-486.3" font-family="Times,serif" font-weight="bold" font-size="14.00">junit</text>
<text text-anchor="start" x="702.572" y="-472.3" font-family="Times,serif" font-size="14.00">3.8.1</text>
</g>
<!-- jline:jline:0.9.94&#45;&gt;junit:junit:3.8.1 -->
<g id="edge40" class="edge"><title>jline:jline:0.9.94&#45;&gt;junit:junit:3.8.1</title>
<path fill="none" stroke="black" d="M615.813,-483.95C634.203,-484.973 659.078,-486.357 679.387,-487.487"/>
<polygon fill="black" stroke="black" points="679.354,-490.991 689.533,-488.051 679.743,-484.001 679.354,-490.991"/>
</g>
<!-- javax.activation:activation:1.1 -->
<g id="node25" class="node"><title>javax.activation:activation:1.1</title>
<polygon fill="none" stroke="black" points="800.237,-0.5 800.237,-50.5 905.255,-50.5 905.255,-0.5 800.237,-0.5"/>
<text text-anchor="start" x="808.237" y="-36.3" font-family="Times,serif" font-size="14.00">javax.activation</text>
<text text-anchor="start" x="825.146" y="-22.3" font-family="Times,serif" font-weight="bold" font-size="14.00">activation</text>
<text text-anchor="start" x="843.996" y="-8.3" font-family="Times,serif" font-size="14.00">1.1</text>
</g>
<!-- javax.mail:mail:1.4&#45;&gt;javax.activation:activation:1.1 -->
<g id="edge39" class="edge"><title>javax.mail:mail:1.4&#45;&gt;javax.activation:activation:1.1</title>
<path fill="none" stroke="black" d="M754.235,-25.5C765.268,-25.5 777.693,-25.5 789.886,-25.5"/>
<polygon fill="black" stroke="black" points="790.039,-29.0001 800.039,-25.5 790.039,-22.0001 790.039,-29.0001"/>
</g>
</g>
</svg>
