<?xml version="1.0" encoding="UTF-8" standalone="no"?>
<!DOCTYPE svg PUBLIC "-//W3C//DTD SVG 1.1//EN"
 "http://www.w3.org/Graphics/SVG/1.1/DTD/svg11.dtd">
<!-- Generated by graphviz version 2.38.0 (20140413.2041)
 -->
<!-- Title: dependency&#45;graph Pages: 1 -->
<svg width="886pt" height="560pt"
 viewBox="0.00 0.00 886.23 559.92" xmlns="http://www.w3.org/2000/svg" xmlns:xlink="http://www.w3.org/1999/xlink">
<g id="graph0" class="graph" transform="scale(1 1) rotate(0) translate(4 555.917)">
<title>dependency&#45;graph</title>
<polygon fill="white" stroke="none" points="-4,4 -4,-555.917 882.226,-555.917 882.226,4 -4,4"/>
<!-- org.apache.kafka:kafka_2.11:0.8.2.1 -->
<g id="node2" class="node"><title>org.apache.kafka:kafka_2.11:0.8.2.1</title>
<polygon fill="none" stroke="black" points="146.514,-239.637 146.514,-289.637 257.875,-289.637 257.875,-239.637 146.514,-239.637"/>
<text text-anchor="start" x="154.514" y="-275.437" font-family="Times,serif" font-size="14.00">org.apache.kafka</text>
<text text-anchor="start" x="171.156" y="-261.437" font-family="Times,serif" font-weight="bold" font-size="14.00">kafka_2.11</text>
<text text-anchor="start" x="182.944" y="-247.437" font-family="Times,serif" font-size="14.00">0.8.2.1</text>
</g>
<!-- org.apache.zookeeper:zookeeper:3.4.6 -->
<g id="node3" class="node"><title>org.apache.zookeeper:zookeeper:3.4.6</title>
<polygon fill="none" stroke="black" points="517.3,-202.637 517.3,-252.637 655.089,-252.637 655.089,-202.637 517.3,-202.637"/>
<text text-anchor="start" x="525.3" y="-238.437" font-family="Times,serif" font-size="14.00">org.apache.zookeeper</text>
<text text-anchor="start" x="557.436" y="-224.437" font-family="Times,serif" font-weight="bold" font-size="14.00">zookeeper</text>
<text text-anchor="start" x="572.194" y="-210.437" font-family="Times,serif" font-size="14.00">3.4.6</text>
</g>
<!-- org.apache.kafka:kafka_2.11:0.8.2.1&#45;&gt;org.apache.zookeeper:zookeeper:3.4.6 -->
<g id="edge2" class="edge"><title>org.apache.kafka:kafka_2.11:0.8.2.1&#45;&gt;org.apache.zookeeper:zookeeper:3.4.6</title>
<path fill="none" stroke="black" d="M257.879,-289.44C269.532,-293.67 281.93,-297.412 293.875,-299.637 375.766,-314.892 401.795,-324.493 481.3,-299.637 506.958,-291.615 531.85,-274.784 550.834,-259.411"/>
<polygon fill="black" stroke="black" points="553.154,-262.034 558.593,-252.942 548.671,-256.657 553.154,-262.034"/>
</g>
<!-- org.apache.kafka:kafka&#45;clients:0.8.2.1 -->
<g id="node11" class="node"><title>org.apache.kafka:kafka&#45;clients:0.8.2.1</title>
<polygon fill="none" stroke="black" points="331.907,-446.637 331.907,-496.637 443.268,-496.637 443.268,-446.637 331.907,-446.637"/>
<text text-anchor="start" x="339.907" y="-482.437" font-family="Times,serif" font-size="14.00">org.apache.kafka</text>
<text text-anchor="start" x="351.439" y="-468.437" font-family="Times,serif" font-weight="bold" font-size="14.00">kafka&#45;clients</text>
<text text-anchor="start" x="368.337" y="-454.437" font-family="Times,serif" font-size="14.00">0.8.2.1</text>
</g>
<!-- org.apache.kafka:kafka_2.11:0.8.2.1&#45;&gt;org.apache.kafka:kafka&#45;clients:0.8.2.1 -->
<g id="edge13" class="edge"><title>org.apache.kafka:kafka_2.11:0.8.2.1&#45;&gt;org.apache.kafka:kafka&#45;clients:0.8.2.1</title>
<path fill="none" stroke="black" d="M215.157,-289.746C230.444,-320.073 259.132,-371.51 293.875,-407.637 305.663,-419.895 320.14,-431.209 334.118,-440.807"/>
<polygon fill="black" stroke="black" points="332.469,-443.914 342.729,-446.554 336.355,-438.092 332.469,-443.914"/>
</g>
<!-- com.101tec:zkclient:0.3 -->
<g id="node17" class="node"><title>com.101tec:zkclient:0.3</title>
<polygon fill="none" stroke="black" points="347.127,-101.637 347.127,-151.637 428.048,-151.637 428.048,-101.637 347.127,-101.637"/>
<text text-anchor="start" x="355.127" y="-137.437" font-family="Times,serif" font-size="14.00">com.101tec</text>
<text text-anchor="start" x="365.432" y="-123.437" font-family="Times,serif" font-weight="bold" font-size="14.00">zkclient</text>
<text text-anchor="start" x="378.837" y="-109.437" font-family="Times,serif" font-size="14.00">0.3</text>
</g>
<!-- org.apache.kafka:kafka_2.11:0.8.2.1&#45;&gt;com.101tec:zkclient:0.3 -->
<g id="edge23" class="edge"><title>org.apache.kafka:kafka_2.11:0.8.2.1&#45;&gt;com.101tec:zkclient:0.3</title>
<path fill="none" stroke="black" d="M219.901,-239.441C236.319,-216.398 263.304,-182.774 293.875,-161.637 306.993,-152.567 322.766,-145.476 337.553,-140.121"/>
<polygon fill="black" stroke="black" points="338.766,-143.405 347.089,-136.849 336.494,-136.784 338.766,-143.405"/>
</g>
<!-- org.scala&#45;lang.modules:scala&#45;parser&#45;combinators_2.11:1.0.2 -->
<g id="node18" class="node"><title>org.scala&#45;lang.modules:scala&#45;parser&#45;combinators_2.11:1.0.2</title>
<polygon fill="none" stroke="black" points="293.875,-239.637 293.875,-289.637 481.3,-289.637 481.3,-239.637 293.875,-239.637"/>
<text text-anchor="start" x="322.786" y="-275.437" font-family="Times,serif" font-size="14.00">org.scala&#45;lang.modules</text>
<text text-anchor="start" x="301.875" y="-261.437" font-family="Times,serif" font-weight="bold" font-size="14.00">scala&#45;parser&#45;combinators_2.11</text>
<text text-anchor="start" x="373.587" y="-247.437" font-family="Times,serif" font-size="14.00">1.0.2</text>
</g>
<!-- org.apache.kafka:kafka_2.11:0.8.2.1&#45;&gt;org.scala&#45;lang.modules:scala&#45;parser&#45;combinators_2.11:1.0.2 -->
<g id="edge24" class="edge"><title>org.apache.kafka:kafka_2.11:0.8.2.1&#45;&gt;org.scala&#45;lang.modules:scala&#45;parser&#45;combinators_2.11:1.0.2</title>
<path fill="none" stroke="black" d="M258.218,-264.637C266.257,-264.637 274.745,-264.637 283.372,-264.637"/>
<polygon fill="black" stroke="black" points="283.544,-268.137 293.544,-264.637 283.543,-261.137 283.544,-268.137"/>
</g>
<!-- net.sf.jopt&#45;simple:jopt&#45;simple:3.2 -->
<g id="node19" class="node"><title>net.sf.jopt&#45;simple:jopt&#45;simple:3.2</title>
<polygon fill="none" stroke="black" points="330.594,-170.637 330.594,-220.637 444.581,-220.637 444.581,-170.637 330.594,-170.637"/>
<text text-anchor="start" x="338.594" y="-206.437" font-family="Times,serif" font-size="14.00">net.sf.jopt&#45;simple</text>
<text text-anchor="start" x="355.701" y="-192.437" font-family="Times,serif" font-weight="bold" font-size="14.00">jopt&#45;simple</text>
<text text-anchor="start" x="378.837" y="-178.437" font-family="Times,serif" font-size="14.00">3.2</text>
</g>
<!-- org.apache.kafka:kafka_2.11:0.8.2.1&#45;&gt;net.sf.jopt&#45;simple:jopt&#45;simple:3.2 -->
<g id="edge25" class="edge"><title>org.apache.kafka:kafka_2.11:0.8.2.1&#45;&gt;net.sf.jopt&#45;simple:jopt&#45;simple:3.2</title>
<path fill="none" stroke="black" d="M258.218,-243.934C277.892,-236.532 300.262,-228.116 320.756,-220.405"/>
<polygon fill="black" stroke="black" points="322.206,-223.599 330.333,-216.802 319.741,-217.048 322.206,-223.599"/>
</g>
<!-- com.yammer.metrics:metrics&#45;core:2.2.0 -->
<g id="node20" class="node"><title>com.yammer.metrics:metrics&#45;core:2.2.0</title>
<polygon fill="none" stroke="black" points="320.88,-347.637 320.88,-397.637 454.294,-397.637 454.294,-347.637 320.88,-347.637"/>
<text text-anchor="start" x="328.88" y="-383.437" font-family="Times,serif" font-size="14.00">com.yammer.metrics</text>
<text text-anchor="start" x="352.608" y="-369.437" font-family="Times,serif" font-weight="bold" font-size="14.00">metrics&#45;core</text>
<text text-anchor="start" x="373.587" y="-355.437" font-family="Times,serif" font-size="14.00">2.2.0</text>
</g>
<!-- org.apache.kafka:kafka_2.11:0.8.2.1&#45;&gt;com.yammer.metrics:metrics&#45;core:2.2.0 -->
<g id="edge26" class="edge"><title>org.apache.kafka:kafka_2.11:0.8.2.1&#45;&gt;com.yammer.metrics:metrics&#45;core:2.2.0</title>
<path fill="none" stroke="black" d="M233.003,-289.813C250.122,-303.534 272.425,-320.202 293.875,-332.637 300.131,-336.263 306.778,-339.76 313.528,-343.074"/>
<polygon fill="black" stroke="black" points="312.235,-346.335 322.768,-347.475 315.245,-340.015 312.235,-346.335"/>
</g>
<!-- org.scala&#45;lang.modules:scala&#45;xml_2.11:1.0.2 -->
<g id="node21" class="node"><title>org.scala&#45;lang.modules:scala&#45;xml_2.11:1.0.2</title>
<polygon fill="none" stroke="black" points="314.786,-32.6367 314.786,-82.6367 460.389,-82.6367 460.389,-32.6367 314.786,-32.6367"/>
<text text-anchor="start" x="322.786" y="-68.4367" font-family="Times,serif" font-size="14.00">org.scala&#45;lang.modules</text>
<text text-anchor="start" x="344.883" y="-54.4367" font-family="Times,serif" font-weight="bold" font-size="14.00">scala&#45;xml_2.11</text>
<text text-anchor="start" x="373.587" y="-40.4367" font-family="Times,serif" font-size="14.00">1.0.2</text>
</g>
<!-- org.apache.kafka:kafka_2.11:0.8.2.1&#45;&gt;org.scala&#45;lang.modules:scala&#45;xml_2.11:1.0.2 -->
<g id="edge27" class="edge"><title>org.apache.kafka:kafka_2.11:0.8.2.1&#45;&gt;org.scala&#45;lang.modules:scala&#45;xml_2.11:1.0.2</title>
<path fill="none" stroke="black" d="M210.005,-239.518C221.356,-202.211 247.593,-132.209 293.875,-91.6367 297.549,-88.4158 301.554,-85.4907 305.771,-82.8354"/>
<polygon fill="black" stroke="black" points="307.731,-85.7474 314.686,-77.7557 304.265,-79.6654 307.731,-85.7474"/>
</g>
<!-- io.netty:netty:3.7.0.Final -->
<g id="node5" class="node"><title>io.netty:netty:3.7.0.Final</title>
<polygon fill="none" stroke="black" points="697.115,-262.637 697.115,-312.637 773.394,-312.637 773.394,-262.637 697.115,-262.637"/>
<text text-anchor="start" x="714.063" y="-298.437" font-family="Times,serif" font-size="14.00">io.netty</text>
<text text-anchor="start" x="721.258" y="-284.437" font-family="Times,serif" font-weight="bold" font-size="14.00">netty</text>
<text text-anchor="start" x="705.115" y="-270.437" font-family="Times,serif" font-size="14.00">3.7.0.Final</text>
</g>
<!-- org.apache.zookeeper:zookeeper:3.4.6&#45;&gt;io.netty:netty:3.7.0.Final -->
<g id="edge5" class="edge"><title>org.apache.zookeeper:zookeeper:3.4.6&#45;&gt;io.netty:netty:3.7.0.Final</title>
<path fill="none" stroke="black" d="M648.709,-252.734C661.627,-258.005 675.053,-263.483 687.335,-268.494"/>
<polygon fill="black" stroke="black" points="686.326,-271.862 696.907,-272.399 688.97,-265.381 686.326,-271.862"/>
</g>
<!-- jline:jline:0.9.94 -->
<g id="node6" class="node"><title>jline:jline:0.9.94</title>
<polygon fill="none" stroke="black" points="708.254,-46.6367 708.254,-96.6367 762.254,-96.6367 762.254,-46.6367 708.254,-46.6367"/>
<text text-anchor="start" x="722.813" y="-82.4367" font-family="Times,serif" font-size="14.00">jline</text>
<text text-anchor="start" x="722.813" y="-68.4367" font-family="Times,serif" font-weight="bold" font-size="14.00">jline</text>
<text text-anchor="start" x="717.754" y="-54.4367" font-family="Times,serif" font-size="14.00">0.9.94</text>
</g>
<!-- org.apache.zookeeper:zookeeper:3.4.6&#45;&gt;jline:jline:0.9.94 -->
<g id="edge6" class="edge"><title>org.apache.zookeeper:zookeeper:3.4.6&#45;&gt;jline:jline:0.9.94</title>
<path fill="none" stroke="black" d="M637.992,-202.412C644.203,-198.023 650.105,-193.09 655.089,-187.637 680.301,-160.046 668.981,-141.773 691.089,-111.637 693.959,-107.724 697.251,-103.886 700.708,-100.229"/>
<polygon fill="black" stroke="black" points="703.338,-102.55 707.956,-93.0144 698.399,-97.589 703.338,-102.55"/>
</g>
<!-- org.slf4j:slf4j&#45;log4j12:1.6.1 -->
<g id="node7" class="node"><title>org.slf4j:slf4j&#45;log4j12:1.6.1</title>
<polygon fill="none" stroke="black" points="691.089,-154.637 691.089,-204.637 779.42,-204.637 779.42,-154.637 691.089,-154.637"/>
<text text-anchor="start" x="711.852" y="-190.437" font-family="Times,serif" font-size="14.00">org.slf4j</text>
<text text-anchor="start" x="699.089" y="-176.437" font-family="Times,serif" font-weight="bold" font-size="14.00">slf4j&#45;log4j12</text>
<text text-anchor="start" x="721.254" y="-162.437" font-family="Times,serif" font-size="14.00">1.6.1</text>
</g>
<!-- org.apache.zookeeper:zookeeper:3.4.6&#45;&gt;org.slf4j:slf4j&#45;log4j12:1.6.1 -->
<g id="edge7" class="edge"><title>org.apache.zookeeper:zookeeper:3.4.6&#45;&gt;org.slf4j:slf4j&#45;log4j12:1.6.1</title>
<path fill="none" stroke="black" d="M655.128,-205.463C663.891,-202.603 672.761,-199.708 681.235,-196.942"/>
<polygon fill="black" stroke="black" points="682.551,-200.194 690.972,-193.764 680.379,-193.54 682.551,-200.194"/>
</g>
<!-- log4j:log4j:1.2.16 -->
<g id="node9" class="node"><title>log4j:log4j:1.2.16</title>
<polygon fill="none" stroke="black" points="819.823,-108.637 819.823,-158.637 873.823,-158.637 873.823,-108.637 819.823,-108.637"/>
<text text-anchor="start" x="832.433" y="-144.437" font-family="Times,serif" font-size="14.00">log4j</text>
<text text-anchor="start" x="832.433" y="-130.437" font-family="Times,serif" font-weight="bold" font-size="14.00">log4j</text>
<text text-anchor="start" x="829.323" y="-116.437" font-family="Times,serif" font-size="14.00">1.2.16</text>
</g>
<!-- org.apache.zookeeper:zookeeper:3.4.6&#45;&gt;log4j:log4j:1.2.16 -->
<g id="edge9" class="edge"><title>org.apache.zookeeper:zookeeper:3.4.6&#45;&gt;log4j:log4j:1.2.16</title>
<path fill="none" stroke="black" d="M634.583,-202.468C641.724,-197.905 648.796,-192.908 655.089,-187.637 673.936,-171.849 669.167,-156.766 691.089,-145.637 728.16,-126.816 776.756,-126.324 809.517,-128.903"/>
<polygon fill="black" stroke="black" points="809.283,-132.396 819.563,-129.829 809.926,-125.425 809.283,-132.396"/>
</g>
<!-- org.slf4j:slf4j&#45;api:1.7.6 -->
<g id="node14" class="node"><title>org.slf4j:slf4j&#45;api:1.7.6</title>
<polygon fill="none" stroke="black" points="815.42,-335.637 815.42,-385.637 878.226,-385.637 878.226,-335.637 815.42,-335.637"/>
<text text-anchor="start" x="823.42" y="-371.437" font-family="Times,serif" font-size="14.00">org.slf4j</text>
<text text-anchor="start" x="823.495" y="-357.437" font-family="Times,serif" font-weight="bold" font-size="14.00">slf4j&#45;api</text>
<text text-anchor="start" x="832.823" y="-343.437" font-family="Times,serif" font-size="14.00">1.7.6</text>
</g>
<!-- org.apache.zookeeper:zookeeper:3.4.6&#45;&gt;org.slf4j:slf4j&#45;api:1.7.6 -->
<g id="edge16" class="edge"><title>org.apache.zookeeper:zookeeper:3.4.6&#45;&gt;org.slf4j:slf4j&#45;api:1.7.6</title>
<path fill="none" stroke="black" d="M613.979,-252.738C643.233,-280.061 686.562,-320.218 691.089,-322.637 726.972,-341.812 772.7,-351.497 805.115,-356.267"/>
<polygon fill="black" stroke="black" points="804.758,-359.751 815.142,-357.649 805.714,-352.816 804.758,-359.751"/>
</g>
<!-- org.slf4j:slf4j&#45;api:1.6.1 -->
<g id="node16" class="node"><title>org.slf4j:slf4j&#45;api:1.6.1</title>
<polygon fill="none" stroke="black" points="815.42,-189.637 815.42,-239.637 878.226,-239.637 878.226,-189.637 815.42,-189.637"/>
<text text-anchor="start" x="823.42" y="-225.437" font-family="Times,serif" font-size="14.00">org.slf4j</text>
<text text-anchor="start" x="823.495" y="-211.437" font-family="Times,serif" font-weight="bold" font-size="14.00">slf4j&#45;api</text>
<text text-anchor="start" x="832.823" y="-197.437" font-family="Times,serif" font-size="14.00">1.6.1</text>
</g>
<!-- org.apache.zookeeper:zookeeper:3.4.6&#45;&gt;org.slf4j:slf4j&#45;api:1.6.1 -->
<g id="edge21" class="edge"><title>org.apache.zookeeper:zookeeper:3.4.6&#45;&gt;org.slf4j:slf4j&#45;api:1.6.1</title>
<path fill="none" stroke="black" d="M655.146,-224.221C702.819,-221.825 764.976,-218.7 805.143,-216.681"/>
<polygon fill="black" stroke="black" points="805.547,-220.166 815.358,-216.168 805.195,-213.175 805.547,-220.166"/>
</g>
<!-- org.apache.zookeeper:zookeeper:3.3.1 -->
<g id="node4" class="node"><title>org.apache.zookeeper:zookeeper:3.3.1</title>
<polygon fill="none" stroke="black" points="517.3,-127.637 517.3,-177.637 655.089,-177.637 655.089,-127.637 517.3,-127.637"/>
<text text-anchor="start" x="525.3" y="-163.437" font-family="Times,serif" font-size="14.00">org.apache.zookeeper</text>
<text text-anchor="start" x="557.436" y="-149.437" font-family="Times,serif" font-weight="bold" font-size="14.00">zookeeper</text>
<text text-anchor="start" x="572.194" y="-135.437" font-family="Times,serif" font-size="14.00">3.3.1</text>
</g>
<!-- junit:junit:3.8.1 -->
<g id="node8" class="node"><title>junit:junit:3.8.1</title>
<polygon fill="none" stroke="black" points="819.823,-39.6367 819.823,-89.6367 873.823,-89.6367 873.823,-39.6367 819.823,-39.6367"/>
<text text-anchor="start" x="833.988" y="-75.4367" font-family="Times,serif" font-size="14.00">junit</text>
<text text-anchor="start" x="833.988" y="-61.4367" font-family="Times,serif" font-weight="bold" font-size="14.00">junit</text>
<text text-anchor="start" x="832.823" y="-47.4367" font-family="Times,serif" font-size="14.00">3.8.1</text>
</g>
<!-- jline:jline:0.9.94&#45;&gt;junit:junit:3.8.1 -->
<g id="edge8" class="edge"><title>jline:jline:0.9.94&#45;&gt;junit:junit:3.8.1</title>
<path fill="none" stroke="black" d="M762.499,-69.96C776.593,-69.0596 794.184,-67.9357 809.566,-66.953"/>
<polygon fill="black" stroke="black" points="810.036,-70.4302 819.793,-66.2997 809.59,-63.4445 810.036,-70.4302"/>
</g>
<!-- org.slf4j:slf4j&#45;log4j12:1.6.1&#45;&gt;log4j:log4j:1.2.16 -->
<g id="edge11" class="edge"><title>org.slf4j:slf4j&#45;log4j12:1.6.1&#45;&gt;log4j:log4j:1.2.16</title>
<path fill="none" stroke="black" d="M779.559,-161.456C789.698,-157.2 800.386,-152.712 810.148,-148.614"/>
<polygon fill="black" stroke="black" points="811.682,-151.766 819.548,-144.668 808.973,-145.312 811.682,-151.766"/>
</g>
<!-- org.slf4j:slf4j&#45;log4j12:1.6.1&#45;&gt;org.slf4j:slf4j&#45;api:1.7.6 -->
<g id="edge18" class="edge"><title>org.slf4j:slf4j&#45;log4j12:1.6.1&#45;&gt;org.slf4j:slf4j&#45;api:1.7.6</title>
<path fill="none" stroke="black" d="M751.489,-204.804C770.733,-236.593 803.917,-291.412 825.358,-326.831"/>
<polygon fill="black" stroke="black" points="822.368,-328.65 830.541,-335.392 828.356,-325.025 822.368,-328.65"/>
</g>
<!-- org.slf4j:slf4j&#45;log4j12:1.6.1&#45;&gt;org.slf4j:slf4j&#45;api:1.6.1 -->
<g id="edge22" class="edge"><title>org.slf4j:slf4j&#45;log4j12:1.6.1&#45;&gt;org.slf4j:slf4j&#45;api:1.6.1</title>
<path fill="none" stroke="black" d="M779.559,-193.47C788.157,-196.216 797.151,-199.089 805.64,-201.801"/>
<polygon fill="black" stroke="black" points="804.729,-205.184 815.32,-204.893 806.859,-198.516 804.729,-205.184"/>
</g>
<!-- log4j:log4j:1.2.14 -->
<g id="node10" class="node"><title>log4j:log4j:1.2.14</title>
<polygon fill="none" stroke="black" points="559.194,-58.6367 559.194,-108.637 613.194,-108.637 613.194,-58.6367 559.194,-58.6367"/>
<text text-anchor="start" x="571.805" y="-94.4367" font-family="Times,serif" font-size="14.00">log4j</text>
<text text-anchor="start" x="571.805" y="-80.4367" font-family="Times,serif" font-weight="bold" font-size="14.00">log4j</text>
<text text-anchor="start" x="568.694" y="-66.4367" font-family="Times,serif" font-size="14.00">1.2.14</text>
</g>
<!-- org.xerial.snappy:snappy&#45;java:1.1.1.6 -->
<g id="node12" class="node"><title>org.xerial.snappy:snappy&#45;java:1.1.1.6</title>
<polygon fill="none" stroke="black" points="529.721,-477.637 529.721,-527.637 642.668,-527.637 642.668,-477.637 529.721,-477.637"/>
<text text-anchor="start" x="537.721" y="-513.437" font-family="Times,serif" font-size="14.00">org.xerial.snappy</text>
<text text-anchor="start" x="552.374" y="-499.437" font-family="Times,serif" font-weight="bold" font-size="14.00">snappy&#45;java</text>
<text text-anchor="start" x="566.944" y="-485.437" font-family="Times,serif" font-size="14.00">1.1.1.6</text>
</g>
<!-- org.apache.kafka:kafka&#45;clients:0.8.2.1&#45;&gt;org.xerial.snappy:snappy&#45;java:1.1.1.6 -->
<g id="edge14" class="edge"><title>org.apache.kafka:kafka&#45;clients:0.8.2.1&#45;&gt;org.xerial.snappy:snappy&#45;java:1.1.1.6</title>
<path fill="none" stroke="black" d="M443.353,-480.272C467.021,-484.004 494.908,-488.401 519.664,-492.304"/>
<polygon fill="black" stroke="black" points="519.275,-495.786 529.698,-493.886 520.366,-488.871 519.275,-495.786"/>
</g>
<!-- net.jpountz.lz4:lz4:1.2.0 -->
<g id="node13" class="node"><title>net.jpountz.lz4:lz4:1.2.0</title>
<polygon fill="none" stroke="black" points="536.594,-408.637 536.594,-458.637 635.794,-458.637 635.794,-408.637 536.594,-408.637"/>
<text text-anchor="start" x="544.594" y="-444.437" font-family="Times,serif" font-size="14.00">net.jpountz.lz4</text>
<text text-anchor="start" x="577.643" y="-430.437" font-family="Times,serif" font-weight="bold" font-size="14.00">lz4</text>
<text text-anchor="start" x="572.194" y="-416.437" font-family="Times,serif" font-size="14.00">1.2.0</text>
</g>
<!-- org.apache.kafka:kafka&#45;clients:0.8.2.1&#45;&gt;net.jpountz.lz4:lz4:1.2.0 -->
<g id="edge15" class="edge"><title>org.apache.kafka:kafka&#45;clients:0.8.2.1&#45;&gt;net.jpountz.lz4:lz4:1.2.0</title>
<path fill="none" stroke="black" d="M443.353,-461.052C469.246,-456.047 500.189,-450.066 526.557,-444.97"/>
<polygon fill="black" stroke="black" points="527.265,-448.398 536.419,-443.064 525.937,-441.525 527.265,-448.398"/>
</g>
<!-- org.apache.kafka:kafka&#45;clients:0.8.2.1&#45;&gt;org.slf4j:slf4j&#45;api:1.7.6 -->
<g id="edge19" class="edge"><title>org.apache.kafka:kafka&#45;clients:0.8.2.1&#45;&gt;org.slf4j:slf4j&#45;api:1.7.6</title>
<path fill="none" stroke="black" d="M425.859,-496.768C450.605,-511.894 484.467,-529.71 517.3,-537.637 576.829,-552.009 598.083,-560.012 655.089,-537.637 728.614,-508.777 790.677,-436.774 822.638,-394.022"/>
<polygon fill="black" stroke="black" points="825.518,-396.013 828.623,-385.884 819.879,-391.866 825.518,-396.013"/>
</g>
<!-- org.slf4j:slf4j&#45;api:1.7.2 -->
<g id="node15" class="node"><title>org.slf4j:slf4j&#45;api:1.7.2</title>
<polygon fill="none" stroke="black" points="554.792,-300.637 554.792,-350.637 617.597,-350.637 617.597,-300.637 554.792,-300.637"/>
<text text-anchor="start" x="562.792" y="-336.437" font-family="Times,serif" font-size="14.00">org.slf4j</text>
<text text-anchor="start" x="562.867" y="-322.437" font-family="Times,serif" font-weight="bold" font-size="14.00">slf4j&#45;api</text>
<text text-anchor="start" x="572.194" y="-308.437" font-family="Times,serif" font-size="14.00">1.7.2</text>
</g>
<!-- com.101tec:zkclient:0.3&#45;&gt;org.apache.zookeeper:zookeeper:3.4.6 -->
<g id="edge3" class="edge"><title>com.101tec:zkclient:0.3&#45;&gt;org.apache.zookeeper:zookeeper:3.4.6</title>
<path fill="none" stroke="black" d="M428.392,-139.06C445.169,-144.954 464.63,-152.676 481.3,-161.637 498.684,-170.981 500.78,-176.838 517.3,-187.637 522.215,-190.85 527.391,-194.109 532.601,-197.31"/>
<polygon fill="black" stroke="black" points="530.997,-200.431 541.363,-202.623 534.627,-194.445 530.997,-200.431"/>
</g>
<!-- com.101tec:zkclient:0.3&#45;&gt;org.apache.zookeeper:zookeeper:3.3.1 -->
<g id="edge4" class="edge"><title>com.101tec:zkclient:0.3&#45;&gt;org.apache.zookeeper:zookeeper:3.3.1</title>
<path fill="none" stroke="black" d="M428.374,-131.898C450.959,-134.885 480.024,-138.729 506.982,-142.294"/>
<polygon fill="black" stroke="black" points="506.821,-145.803 517.194,-143.644 507.739,-138.863 506.821,-145.803"/>
</g>
<!-- com.101tec:zkclient:0.3&#45;&gt;log4j:log4j:1.2.16 -->
<g id="edge10" class="edge"><title>com.101tec:zkclient:0.3&#45;&gt;log4j:log4j:1.2.16</title>
<path fill="none" stroke="black" d="M428.216,-116.61C445.526,-111.029 465.447,-102.891 481.3,-91.6367 501.623,-77.208 495.093,-59.9549 517.3,-48.6367 621.203,4.31991 678.352,21.5486 779.42,-36.6367 807.035,-52.5346 796.889,-72.7153 815.42,-98.6367 815.859,-99.2505 816.306,-99.8664 816.761,-100.483"/>
<polygon fill="black" stroke="black" points="814.085,-102.744 822.993,-108.48 819.607,-98.441 814.085,-102.744"/>
</g>
<!-- com.101tec:zkclient:0.3&#45;&gt;log4j:log4j:1.2.14 -->
<g id="edge12" class="edge"><title>com.101tec:zkclient:0.3&#45;&gt;log4j:log4j:1.2.14</title>
<path fill="none" stroke="black" d="M428.374,-117.935C463.659,-110.218 514.759,-99.0417 548.935,-91.5669"/>
<polygon fill="black" stroke="black" points="549.941,-94.9297 558.963,-89.3739 548.446,-88.0914 549.941,-94.9297"/>
</g>
<!-- com.yammer.metrics:metrics&#45;core:2.2.0&#45;&gt;org.slf4j:slf4j&#45;api:1.7.6 -->
<g id="edge17" class="edge"><title>com.yammer.metrics:metrics&#45;core:2.2.0&#45;&gt;org.slf4j:slf4j&#45;api:1.7.6</title>
<path fill="none" stroke="black" d="M454.585,-370.905C550.678,-368.383 726.245,-363.775 805.318,-361.7"/>
<polygon fill="black" stroke="black" points="805.465,-365.197 815.37,-361.436 805.281,-358.2 805.465,-365.197"/>
</g>
<!-- com.yammer.metrics:metrics&#45;core:2.2.0&#45;&gt;org.slf4j:slf4j&#45;api:1.7.2 -->
<g id="edge20" class="edge"><title>com.yammer.metrics:metrics&#45;core:2.2.0&#45;&gt;org.slf4j:slf4j&#45;api:1.7.2</title>
<path fill="none" stroke="black" d="M454.328,-356.921C484.287,-349.759 518.795,-341.51 544.851,-335.281"/>
<polygon fill="black" stroke="black" points="545.839,-338.644 554.751,-332.914 544.211,-331.835 545.839,-338.644"/>
</g>
</g>
</svg>
