<?xml version="1.0" encoding="UTF-8" standalone="no"?>
<!DOCTYPE svg PUBLIC "-//W3C//DTD SVG 1.1//EN"
 "http://www.w3.org/Graphics/SVG/1.1/DTD/svg11.dtd">
<!-- Generated by graphviz version 2.36.0 (20140111.2315)
 -->
<!-- Title: org.apache.kafka/kafka_2.11/0.10.0.0 dependency graph Pages: 1 -->
<svg width="918pt" height="945pt"
 viewBox="0.00 0.00 918.00 945.00" xmlns="http://www.w3.org/2000/svg" xmlns:xlink="http://www.w3.org/1999/xlink">
<g id="graph0" class="graph" transform="scale(1 1) rotate(0) translate(4 941)">
<title>org.apache.kafka/kafka_2.11/0.10.0.0 dependency graph</title>
<polygon fill="white" stroke="none" points="-4,4 -4,-941 914,-941 914,4 -4,4"/>
<!-- org.apache.kafka:kafka_2.11:0.10.0.0 -->
<g id="node1" class="node"><title>org.apache.kafka:kafka_2.11:0.10.0.0</title>
<g id="a_node1"><a xlink:href="http://kafka.apache.org" xlink:title="org.apache.kafka/kafka_2.11/0.10.0.0" target="_blank">
<polygon fill="none" stroke="black" points="0,-618 0,-668 110,-668 110,-618 0,-618"/>
<text text-anchor="start" x="8" y="-653.8" font-family="Times,serif" font-size="14.00">org.apache.kafka</text>
<text text-anchor="start" x="23" y="-639.8" font-family="Times,serif" font-weight="bold" font-size="14.00">kafka_2.11</text>
<text text-anchor="start" x="32" y="-625.8" font-family="Times,serif" font-size="14.00">0.10.0.0</text>
</a>
</g>
</g>
<!-- net.sf.jopt&#45;simple:jopt&#45;simple:4.9 -->
<g id="node2" class="node"><title>net.sf.jopt&#45;simple:jopt&#45;simple:4.9</title>
<g id="a_node2"><a xlink:href="http://pholser.github.com/jopt-simple" xlink:title="net.sf.jopt&#45;simple/jopt&#45;simple/4.9" target="_blank">
<polygon fill="none" stroke="black" points="187.5,-833 187.5,-883 300.5,-883 300.5,-833 187.5,-833"/>
<text text-anchor="start" x="195.5" y="-868.8" font-family="Times,serif" font-size="14.00">net.sf.jopt&#45;simple</text>
<text text-anchor="start" x="210.5" y="-854.8" font-family="Times,serif" font-weight="bold" font-size="14.00">jopt&#45;simple</text>
<text text-anchor="start" x="235" y="-840.8" font-family="Times,serif" font-size="14.00">4.9</text>
</a>
</g>
</g>
<!-- org.apache.kafka:kafka_2.11:0.10.0.0&#45;&gt;net.sf.jopt&#45;simple:jopt&#45;simple:4.9 -->
<g id="edge1" class="edge"><title>org.apache.kafka:kafka_2.11:0.10.0.0&#45;&gt;net.sf.jopt&#45;simple:jopt&#45;simple:4.9</title>
<path fill="none" stroke="black" d="M62.1245,-668.199C72.7578,-706.792 98.2156,-780.519 146,-823 155.146,-831.131 166.325,-837.416 177.797,-842.26"/>
<polygon fill="black" stroke="black" points="176.876,-845.656 187.466,-845.999 179.401,-839.127 176.876,-845.656"/>
</g>
<!-- org.apache.kafka:kafka&#45;clients:0.10.0.0 -->
<g id="node3" class="node"><title>org.apache.kafka:kafka&#45;clients:0.10.0.0</title>
<g id="a_node3"><a xlink:href="http://kafka.apache.org" xlink:title="org.apache.kafka/kafka&#45;clients/0.10.0.0" target="_blank">
<polygon fill="none" stroke="black" points="189,-764 189,-814 299,-814 299,-764 189,-764"/>
<text text-anchor="start" x="197" y="-799.8" font-family="Times,serif" font-size="14.00">org.apache.kafka</text>
<text text-anchor="start" x="206.5" y="-785.8" font-family="Times,serif" font-weight="bold" font-size="14.00">kafka&#45;clients</text>
<text text-anchor="start" x="221" y="-771.8" font-family="Times,serif" font-size="14.00">0.10.0.0</text>
</a>
</g>
</g>
<!-- org.apache.kafka:kafka_2.11:0.10.0.0&#45;&gt;org.apache.kafka:kafka&#45;clients:0.10.0.0 -->
<g id="edge2" class="edge"><title>org.apache.kafka:kafka_2.11:0.10.0.0&#45;&gt;org.apache.kafka:kafka&#45;clients:0.10.0.0</title>
<path fill="none" stroke="black" d="M78.6573,-668.152C96.065,-686.703 121.247,-711.926 146,-731 158.749,-740.824 173.288,-750.308 187.16,-758.66"/>
<polygon fill="black" stroke="black" points="185.765,-761.901 196.154,-763.978 189.327,-755.876 185.765,-761.901"/>
</g>
<!-- org.scala&#45;lang.modules:scala&#45;parser&#45;combinators_2.11:1.0.4 -->
<g id="node6" class="node"><title>org.scala&#45;lang.modules:scala&#45;parser&#45;combinators_2.11:1.0.4</title>
<g id="a_node6"><a xlink:href="http://www.scala-lang.org/" xlink:title="org.scala&#45;lang.modules/scala&#45;parser&#45;combinators_2.11/1.0.4" target="_blank">
<polygon fill="none" stroke="black" points="146.5,-307 146.5,-357 341.5,-357 341.5,-307 146.5,-307"/>
<text text-anchor="start" x="180.5" y="-342.8" font-family="Times,serif" font-size="14.00">org.scala&#45;lang.modules</text>
<text text-anchor="start" x="154.5" y="-328.8" font-family="Times,serif" font-weight="bold" font-size="14.00">scala&#45;parser&#45;combinators_2.11</text>
<text text-anchor="start" x="230" y="-314.8" font-family="Times,serif" font-size="14.00">1.0.4</text>
</a>
</g>
</g>
<!-- org.apache.kafka:kafka_2.11:0.10.0.0&#45;&gt;org.scala&#45;lang.modules:scala&#45;parser&#45;combinators_2.11:1.0.4 -->
<g id="edge5" class="edge"><title>org.apache.kafka:kafka_2.11:0.10.0.0&#45;&gt;org.scala&#45;lang.modules:scala&#45;parser&#45;combinators_2.11:1.0.4</title>
<path fill="none" stroke="black" d="M56.9902,-617.813C60.4535,-564.148 76.0237,-437.603 146,-366 146.78,-365.202 147.579,-364.423 148.396,-363.663"/>
<polygon fill="black" stroke="black" points="150.668,-366.326 156.211,-357.297 146.247,-360.899 150.668,-366.326"/>
</g>
<!-- com.yammer.metrics:metrics&#45;core:2.2.0 -->
<g id="node7" class="node"><title>com.yammer.metrics:metrics&#45;core:2.2.0</title>
<g id="a_node7"><a xlink:href="http://repo1.maven.org/maven2/com/yammer/metrics/metrics-core/2.2.0/metrics-core-2.2.0.pom" xlink:title="com.yammer.metrics/metrics&#45;core/2.2.0" target="_blank">
<polygon fill="none" stroke="black" points="177,-672 177,-722 311,-722 311,-672 177,-672"/>
<text text-anchor="start" x="185" y="-707.8" font-family="Times,serif" font-size="14.00">com.yammer.metrics</text>
<text text-anchor="start" x="207.5" y="-693.8" font-family="Times,serif" font-weight="bold" font-size="14.00">metrics&#45;core</text>
<text text-anchor="start" x="230" y="-679.8" font-family="Times,serif" font-size="14.00">2.2.0</text>
</a>
</g>
</g>
<!-- org.apache.kafka:kafka_2.11:0.10.0.0&#45;&gt;com.yammer.metrics:metrics&#45;core:2.2.0 -->
<g id="edge6" class="edge"><title>org.apache.kafka:kafka_2.11:0.10.0.0&#45;&gt;com.yammer.metrics:metrics&#45;core:2.2.0</title>
<path fill="none" stroke="black" d="M110.088,-658.619C127.816,-663.738 147.858,-669.526 166.902,-675.025"/>
<polygon fill="black" stroke="black" points="166.174,-678.458 176.752,-677.87 168.116,-671.733 166.174,-678.458"/>
</g>
<!-- org.slf4j:slf4j&#45;log4j12:1.7.21 -->
<g id="node11" class="node"><title>org.slf4j:slf4j&#45;log4j12:1.7.21</title>
<g id="a_node11"><a xlink:href="http://www.slf4j.org" xlink:title="org.slf4j/slf4j&#45;log4j12/1.7.21" target="_blank">
<polygon fill="none" stroke="black" points="550,-634 550,-684 638,-684 638,-634 550,-634"/>
<text text-anchor="start" x="571" y="-669.8" font-family="Times,serif" font-size="14.00">org.slf4j</text>
<text text-anchor="start" x="558" y="-655.8" font-family="Times,serif" font-weight="bold" font-size="14.00">slf4j&#45;log4j12</text>
<text text-anchor="start" x="576.5" y="-641.8" font-family="Times,serif" font-size="14.00">1.7.21</text>
</a>
</g>
</g>
<!-- org.apache.kafka:kafka_2.11:0.10.0.0&#45;&gt;org.slf4j:slf4j&#45;log4j12:1.7.21 -->
<g id="edge17" class="edge"><title>org.apache.kafka:kafka_2.11:0.10.0.0&#45;&gt;org.slf4j:slf4j&#45;log4j12:1.7.21</title>
<path fill="none" stroke="black" d="M110.446,-644.622C213.819,-647.702 437.316,-654.361 539.753,-657.414"/>
<polygon fill="black" stroke="black" points="539.769,-660.915 549.869,-657.715 539.978,-653.919 539.769,-660.915"/>
</g>
<!-- com.101tec:zkclient:0.8 -->
<g id="node16" class="node"><title>com.101tec:zkclient:0.8</title>
<g id="a_node16"><a xlink:href="https://github.com/sgroschupf/zkclient" xlink:title="com.101tec/zkclient/0.8" target="_blank">
<polygon fill="none" stroke="black" points="204,-376 204,-426 284,-426 284,-376 204,-376"/>
<text text-anchor="start" x="212" y="-411.8" font-family="Times,serif" font-size="14.00">com.101tec</text>
<text text-anchor="start" x="221" y="-397.8" font-family="Times,serif" font-weight="bold" font-size="14.00">zkclient</text>
<text text-anchor="start" x="235" y="-383.8" font-family="Times,serif" font-size="14.00">0.8</text>
</a>
</g>
</g>
<!-- org.apache.kafka:kafka_2.11:0.10.0.0&#45;&gt;com.101tec:zkclient:0.8 -->
<g id="edge27" class="edge"><title>org.apache.kafka:kafka_2.11:0.10.0.0&#45;&gt;com.101tec:zkclient:0.8</title>
<path fill="none" stroke="black" d="M75.6588,-617.559C109.698,-573.508 179.586,-483.065 217.381,-434.154"/>
<polygon fill="black" stroke="black" points="220.26,-436.153 223.605,-426.1 214.721,-431.873 220.26,-436.153"/>
</g>
<!-- org.apache.zookeeper:zookeeper:3.4.6 -->
<g id="node17" class="node"><title>org.apache.zookeeper:zookeeper:3.4.6</title>
<g id="a_node17"><a xlink:href="http://repo1.maven.org/maven2/org/apache/zookeeper/zookeeper/3.4.6/zookeeper-3.4.6.pom" xlink:title="org.apache.zookeeper/zookeeper/3.4.6" target="_blank">
<polygon fill="none" stroke="black" points="378.5,-403 378.5,-453 513.5,-453 513.5,-403 378.5,-403"/>
<text text-anchor="start" x="386.5" y="-438.8" font-family="Times,serif" font-size="14.00">org.apache.zookeeper</text>
<text text-anchor="start" x="416.5" y="-424.8" font-family="Times,serif" font-weight="bold" font-size="14.00">zookeeper</text>
<text text-anchor="start" x="432" y="-410.8" font-family="Times,serif" font-size="14.00">3.4.6</text>
</a>
</g>
</g>
<!-- org.apache.kafka:kafka_2.11:0.10.0.0&#45;&gt;org.apache.zookeeper:zookeeper:3.4.6 -->
<g id="edge29" class="edge"><title>org.apache.kafka:kafka_2.11:0.10.0.0&#45;&gt;org.apache.zookeeper:zookeeper:3.4.6</title>
<path fill="none" stroke="black" d="M101.385,-617.916C173.317,-578.159 313.252,-500.817 390.503,-458.121"/>
<polygon fill="black" stroke="black" points="392.545,-460.991 399.604,-453.09 389.159,-454.864 392.545,-460.991"/>
</g>
<!-- org.xerial.snappy:snappy&#45;java:1.1.2.4 -->
<g id="node4" class="node"><title>org.xerial.snappy:snappy&#45;java:1.1.2.4</title>
<g id="a_node4"><a xlink:href="https://github.com/xerial/snappy-java" xlink:title="org.xerial.snappy/snappy&#45;java/1.1.2.4" target="_blank">
<polygon fill="none" stroke="black" points="390.5,-887 390.5,-937 501.5,-937 501.5,-887 390.5,-887"/>
<text text-anchor="start" x="398.5" y="-922.8" font-family="Times,serif" font-size="14.00">org.xerial.snappy</text>
<text text-anchor="start" x="410.5" y="-908.8" font-family="Times,serif" font-weight="bold" font-size="14.00">snappy&#45;java</text>
<text text-anchor="start" x="426.5" y="-894.8" font-family="Times,serif" font-size="14.00">1.1.2.4</text>
</a>
</g>
</g>
<!-- org.apache.kafka:kafka&#45;clients:0.10.0.0&#45;&gt;org.xerial.snappy:snappy&#45;java:1.1.2.4 -->
<g id="edge3" class="edge"><title>org.apache.kafka:kafka&#45;clients:0.10.0.0&#45;&gt;org.xerial.snappy:snappy&#45;java:1.1.2.4</title>
<path fill="none" stroke="black" d="M299.165,-801.864C314.031,-807.102 329.485,-814.283 342,-824 364.492,-841.464 356.738,-858.058 378,-877 379.507,-878.342 381.074,-879.649 382.689,-880.921"/>
<polygon fill="black" stroke="black" points="380.945,-883.978 391.106,-886.979 385.035,-878.297 380.945,-883.978"/>
</g>
<!-- net.jpountz.lz4:lz4:1.3.0 -->
<g id="node5" class="node"><title>net.jpountz.lz4:lz4:1.3.0</title>
<g id="a_node5"><a xlink:href="https://github.com/jpountz/lz4-java" xlink:title="net.jpountz.lz4/lz4/1.3.0" target="_blank">
<polygon fill="none" stroke="black" points="397,-818 397,-868 495,-868 495,-818 397,-818"/>
<text text-anchor="start" x="405" y="-853.8" font-family="Times,serif" font-size="14.00">net.jpountz.lz4</text>
<text text-anchor="start" x="437.5" y="-839.8" font-family="Times,serif" font-weight="bold" font-size="14.00">lz4</text>
<text text-anchor="start" x="432" y="-825.8" font-family="Times,serif" font-size="14.00">1.3.0</text>
</a>
</g>
</g>
<!-- org.apache.kafka:kafka&#45;clients:0.10.0.0&#45;&gt;net.jpountz.lz4:lz4:1.3.0 -->
<g id="edge4" class="edge"><title>org.apache.kafka:kafka&#45;clients:0.10.0.0&#45;&gt;net.jpountz.lz4:lz4:1.3.0</title>
<path fill="none" stroke="black" d="M299.123,-803.613C326.323,-810.957 359.306,-819.862 387.023,-827.346"/>
<polygon fill="black" stroke="black" points="386.409,-830.806 396.976,-830.033 388.234,-824.048 386.409,-830.806"/>
</g>
<!-- org.slf4j:slf4j&#45;api:1.7.21 -->
<g id="node9" class="node"><title>org.slf4j:slf4j&#45;api:1.7.21</title>
<g id="a_node9"><a xlink:href="http://www.slf4j.org" xlink:title="org.slf4j/slf4j&#45;api/1.7.21" target="_blank">
<polygon fill="none" stroke="black" points="690,-688 690,-738 754,-738 754,-688 690,-688"/>
<text text-anchor="start" x="699" y="-723.8" font-family="Times,serif" font-size="14.00">org.slf4j</text>
<text text-anchor="start" x="698" y="-709.8" font-family="Times,serif" font-weight="bold" font-size="14.00">slf4j&#45;api</text>
<text text-anchor="start" x="704.5" y="-695.8" font-family="Times,serif" font-size="14.00">1.7.21</text>
</a>
</g>
</g>
<!-- org.apache.kafka:kafka&#45;clients:0.10.0.0&#45;&gt;org.slf4j:slf4j&#45;api:1.7.21 -->
<g id="edge11" class="edge"><title>org.apache.kafka:kafka&#45;clients:0.10.0.0&#45;&gt;org.slf4j:slf4j&#45;api:1.7.21</title>
<path fill="none" stroke="black" d="M299.158,-787.317C375.661,-783.955 519.288,-774.018 638,-745 652.124,-741.548 667.085,-736.306 680.358,-731.059"/>
<polygon fill="black" stroke="black" points="681.744,-734.274 689.688,-727.263 679.106,-727.79 681.744,-734.274"/>
</g>
<!-- org.slf4j:slf4j&#45;api:1.7.2 -->
<g id="node8" class="node"><title>org.slf4j:slf4j&#45;api:1.7.2</title>
<g id="a_node8"><a xlink:href="http://www.slf4j.org" xlink:title="org.slf4j/slf4j&#45;api/1.7.2" target="_blank">
<polygon fill="none" stroke="black" points="414,-672 414,-722 478,-722 478,-672 414,-672"/>
<text text-anchor="start" x="423" y="-707.8" font-family="Times,serif" font-size="14.00">org.slf4j</text>
<text text-anchor="start" x="422" y="-693.8" font-family="Times,serif" font-weight="bold" font-size="14.00">slf4j&#45;api</text>
<text text-anchor="start" x="432" y="-679.8" font-family="Times,serif" font-size="14.00">1.7.2</text>
</a>
</g>
</g>
<!-- com.yammer.metrics:metrics&#45;core:2.2.0&#45;&gt;org.slf4j:slf4j&#45;api:1.7.2 -->
<g id="edge7" class="edge"><title>com.yammer.metrics:metrics&#45;core:2.2.0&#45;&gt;org.slf4j:slf4j&#45;api:1.7.2</title>
<path fill="none" stroke="black" d="M311.042,-697C341.578,-697 376.907,-697 403.615,-697"/>
<polygon fill="black" stroke="black" points="403.764,-700.5 413.764,-697 403.764,-693.5 403.764,-700.5"/>
</g>
<!-- com.yammer.metrics:metrics&#45;core:2.2.0&#45;&gt;org.slf4j:slf4j&#45;api:1.7.21 -->
<g id="edge10" class="edge"><title>com.yammer.metrics:metrics&#45;core:2.2.0&#45;&gt;org.slf4j:slf4j&#45;api:1.7.21</title>
<path fill="none" stroke="black" d="M311.009,-717.345C332.19,-722.934 355.891,-728.219 378,-731 492.666,-745.425 523.004,-738.5 638,-727 651.789,-725.621 666.751,-723.343 680.125,-721.02"/>
<polygon fill="black" stroke="black" points="680.772,-724.46 689.997,-719.25 679.536,-717.57 680.772,-724.46"/>
</g>
<!-- org.slf4j:slf4j&#45;api:1.6.1 -->
<g id="node10" class="node"><title>org.slf4j:slf4j&#45;api:1.6.1</title>
<g id="a_node10"><a xlink:href="http://www.slf4j.org" xlink:title="org.slf4j/slf4j&#45;api/1.6.1" target="_blank">
<polygon fill="none" stroke="black" points="562,-280 562,-330 626,-330 626,-280 562,-280"/>
<text text-anchor="start" x="571" y="-315.8" font-family="Times,serif" font-size="14.00">org.slf4j</text>
<text text-anchor="start" x="570" y="-301.8" font-family="Times,serif" font-weight="bold" font-size="14.00">slf4j&#45;api</text>
<text text-anchor="start" x="580" y="-287.8" font-family="Times,serif" font-size="14.00">1.6.1</text>
</a>
</g>
</g>
<!-- org.slf4j:slf4j&#45;log4j12:1.7.21&#45;&gt;org.slf4j:slf4j&#45;api:1.7.21 -->
<g id="edge8" class="edge"><title>org.slf4j:slf4j&#45;log4j12:1.7.21&#45;&gt;org.slf4j:slf4j&#45;api:1.7.21</title>
<path fill="none" stroke="black" d="M638.01,-677.433C651.663,-683.284 666.714,-689.735 680.207,-695.517"/>
<polygon fill="black" stroke="black" points="679.143,-698.869 689.714,-699.592 681.901,-692.435 679.143,-698.869"/>
</g>
<!-- log4j:log4j:1.2.17 -->
<g id="node13" class="node"><title>log4j:log4j:1.2.17</title>
<g id="a_node13"><a xlink:href="http://logging.apache.org/log4j/1.2/" xlink:title="log4j/log4j/1.2.17" target="_blank">
<polygon fill="none" stroke="black" points="695,-395 695,-445 749,-445 749,-395 695,-395"/>
<text text-anchor="start" x="708" y="-430.8" font-family="Times,serif" font-size="14.00">log4j</text>
<text text-anchor="start" x="707.5" y="-416.8" font-family="Times,serif" font-weight="bold" font-size="14.00">log4j</text>
<text text-anchor="start" x="704.5" y="-402.8" font-family="Times,serif" font-size="14.00">1.2.17</text>
</a>
</g>
</g>
<!-- org.slf4j:slf4j&#45;log4j12:1.7.21&#45;&gt;log4j:log4j:1.2.17 -->
<g id="edge20" class="edge"><title>org.slf4j:slf4j&#45;log4j12:1.7.21&#45;&gt;log4j:log4j:1.2.17</title>
<path fill="none" stroke="black" d="M611.821,-633.817C620.56,-619.882 630.871,-601.99 638,-585 661.363,-529.322 639.59,-503.616 674,-454 677.456,-449.017 681.887,-444.496 686.643,-440.497"/>
<polygon fill="black" stroke="black" points="688.994,-443.106 694.838,-434.269 684.759,-437.533 688.994,-443.106"/>
</g>
<!-- org.slf4j:slf4j&#45;log4j12:1.6.1 -->
<g id="node12" class="node"><title>org.slf4j:slf4j&#45;log4j12:1.6.1</title>
<g id="a_node12"><a xlink:href="http://www.slf4j.org" xlink:title="org.slf4j/slf4j&#45;log4j12/1.6.1" target="_blank">
<polygon fill="none" stroke="black" points="550,-211 550,-261 638,-261 638,-211 550,-211"/>
<text text-anchor="start" x="571" y="-246.8" font-family="Times,serif" font-size="14.00">org.slf4j</text>
<text text-anchor="start" x="558" y="-232.8" font-family="Times,serif" font-weight="bold" font-size="14.00">slf4j&#45;log4j12</text>
<text text-anchor="start" x="580" y="-218.8" font-family="Times,serif" font-size="14.00">1.6.1</text>
</a>
</g>
</g>
<!-- log4j:log4j:1.2.15 -->
<g id="node14" class="node"><title>log4j:log4j:1.2.15</title>
<g id="a_node14"><a xlink:href="http://logging.apache.org:80/log4j/1.2/" xlink:title="log4j/log4j/1.2.15" target="_blank">
<polygon fill="none" stroke="black" points="567,-103 567,-153 621,-153 621,-103 567,-103"/>
<text text-anchor="start" x="580" y="-138.8" font-family="Times,serif" font-size="14.00">log4j</text>
<text text-anchor="start" x="579.5" y="-124.8" font-family="Times,serif" font-weight="bold" font-size="14.00">log4j</text>
<text text-anchor="start" x="576.5" y="-110.8" font-family="Times,serif" font-size="14.00">1.2.15</text>
</a>
</g>
</g>
<!-- com.sun.jmx:jmxri:1.2.1 -->
<g id="node20" class="node"><title>com.sun.jmx:jmxri:1.2.1</title>
<g id="a_node20"><a xlink:href="http://repo1.maven.org/maven2/com/sun/jmx/jmxri/1.2.1/jmxri-1.2.1.pom" xlink:title="com.sun.jmx/jmxri/1.2.1" target="_blank">
<polygon fill="none" stroke="black" points="677.5,-207 677.5,-257 766.5,-257 766.5,-207 677.5,-207"/>
<text text-anchor="start" x="685.5" y="-242.8" font-family="Times,serif" font-size="14.00">com.sun.jmx</text>
<text text-anchor="start" x="705" y="-228.8" font-family="Times,serif" font-weight="bold" font-size="14.00">jmxri</text>
<text text-anchor="start" x="708" y="-214.8" font-family="Times,serif" font-size="14.00">1.2.1</text>
</a>
</g>
</g>
<!-- log4j:log4j:1.2.15&#45;&gt;com.sun.jmx:jmxri:1.2.1 -->
<g id="edge32" class="edge"><title>log4j:log4j:1.2.15&#45;&gt;com.sun.jmx:jmxri:1.2.1</title>
<path fill="none" stroke="black" d="M621.253,-151.84C636.42,-165.381 656.003,-182.476 674,-197 675.514,-198.222 677.064,-199.457 678.637,-200.695"/>
<polygon fill="black" stroke="black" points="676.572,-203.523 686.62,-206.882 680.86,-197.99 676.572,-203.523"/>
</g>
<!-- com.sun.jdmk:jmxtools:1.2.1 -->
<g id="node21" class="node"><title>com.sun.jdmk:jmxtools:1.2.1</title>
<g id="a_node21"><a xlink:href="http://java.sun.com/products/JavaManagement/" xlink:title="com.sun.jdmk/jmxtools/1.2.1" target="_blank">
<polygon fill="none" stroke="black" points="674.5,-138 674.5,-188 769.5,-188 769.5,-138 674.5,-138"/>
<text text-anchor="start" x="682.5" y="-173.8" font-family="Times,serif" font-size="14.00">com.sun.jdmk</text>
<text text-anchor="start" x="696.5" y="-159.8" font-family="Times,serif" font-weight="bold" font-size="14.00">jmxtools</text>
<text text-anchor="start" x="708" y="-145.8" font-family="Times,serif" font-size="14.00">1.2.1</text>
</a>
</g>
</g>
<!-- log4j:log4j:1.2.15&#45;&gt;com.sun.jdmk:jmxtools:1.2.1 -->
<g id="edge33" class="edge"><title>log4j:log4j:1.2.15&#45;&gt;com.sun.jdmk:jmxtools:1.2.1</title>
<path fill="none" stroke="black" d="M621.107,-135.252C633.702,-138.751 649.334,-143.093 664.464,-147.295"/>
<polygon fill="black" stroke="black" points="663.724,-150.723 674.296,-150.027 665.598,-143.978 663.724,-150.723"/>
</g>
<!-- javax.jms:jms:1.1 -->
<g id="node22" class="node"><title>javax.jms:jms:1.1</title>
<g id="a_node22"><a xlink:href="http://java.sun.com/products/jms" xlink:title="javax.jms/jms/1.1" target="_blank">
<polygon fill="none" stroke="black" points="687,-69 687,-119 757,-119 757,-69 687,-69"/>
<text text-anchor="start" x="695" y="-104.8" font-family="Times,serif" font-size="14.00">javax.jms</text>
<text text-anchor="start" x="711" y="-90.8" font-family="Times,serif" font-weight="bold" font-size="14.00">jms</text>
<text text-anchor="start" x="713" y="-76.8" font-family="Times,serif" font-size="14.00">1.1</text>
</a>
</g>
</g>
<!-- log4j:log4j:1.2.15&#45;&gt;javax.jms:jms:1.1 -->
<g id="edge34" class="edge"><title>log4j:log4j:1.2.15&#45;&gt;javax.jms:jms:1.1</title>
<path fill="none" stroke="black" d="M621.107,-120.955C637.238,-116.602 658.351,-110.905 677.009,-105.871"/>
<polygon fill="black" stroke="black" points="678.046,-109.216 686.788,-103.232 676.222,-102.458 678.046,-109.216"/>
</g>
<!-- javax.mail:mail:1.4 -->
<g id="node23" class="node"><title>javax.mail:mail:1.4</title>
<g id="a_node23"><a xlink:href="https://glassfish.dev.java.net/javaee5/mail/" xlink:title="javax.mail/mail/1.4" target="_blank">
<polygon fill="none" stroke="black" points="685,-0 685,-50 759,-50 759,-0 685,-0"/>
<text text-anchor="start" x="693" y="-35.8" font-family="Times,serif" font-size="14.00">javax.mail</text>
<text text-anchor="start" x="708.5" y="-21.8" font-family="Times,serif" font-weight="bold" font-size="14.00">mail</text>
<text text-anchor="start" x="713" y="-7.8" font-family="Times,serif" font-size="14.00">1.4</text>
</a>
</g>
</g>
<!-- log4j:log4j:1.2.15&#45;&gt;javax.mail:mail:1.4 -->
<g id="edge35" class="edge"><title>log4j:log4j:1.2.15&#45;&gt;javax.mail:mail:1.4</title>
<path fill="none" stroke="black" d="M621.177,-104.065C636.319,-90.4935 655.903,-73.3995 674,-59 675.157,-58.079 676.337,-57.1518 677.532,-56.2221"/>
<polygon fill="black" stroke="black" points="679.746,-58.9354 685.577,-50.0898 675.502,-53.3682 679.746,-58.9354"/>
</g>
<!-- log4j:log4j:1.2.16 -->
<g id="node15" class="node"><title>log4j:log4j:1.2.16</title>
<g id="a_node15"><a xlink:href="http://logging.apache.org/log4j/1.2/" xlink:title="log4j/log4j/1.2.16" target="_blank">
<polygon fill="none" stroke="black" points="567,-349 567,-399 621,-399 621,-349 567,-349"/>
<text text-anchor="start" x="580" y="-384.8" font-family="Times,serif" font-size="14.00">log4j</text>
<text text-anchor="start" x="579.5" y="-370.8" font-family="Times,serif" font-weight="bold" font-size="14.00">log4j</text>
<text text-anchor="start" x="576.5" y="-356.8" font-family="Times,serif" font-size="14.00">1.2.16</text>
</a>
</g>
</g>
<!-- com.101tec:zkclient:0.8&#45;&gt;org.slf4j:slf4j&#45;api:1.7.21 -->
<g id="edge12" class="edge"><title>com.101tec:zkclient:0.8&#45;&gt;org.slf4j:slf4j&#45;api:1.7.21</title>
<path fill="none" stroke="black" d="M263.575,-426.065C288.03,-458.287 333.192,-515.18 378,-558 433.207,-610.758 454.436,-615.215 514,-663 530.246,-676.033 530.862,-684.782 550,-693 591.746,-710.925 644.201,-714.615 679.932,-714.655"/>
<polygon fill="black" stroke="black" points="680.028,-718.154 689.998,-714.57 679.969,-711.155 680.028,-718.154"/>
</g>
<!-- com.101tec:zkclient:0.8&#45;&gt;org.slf4j:slf4j&#45;api:1.6.1 -->
<g id="edge14" class="edge"><title>com.101tec:zkclient:0.8&#45;&gt;org.slf4j:slf4j&#45;api:1.6.1</title>
<path fill="none" stroke="black" d="M284.244,-390.174C350.521,-371.891 484.011,-335.066 551.67,-316.401"/>
<polygon fill="black" stroke="black" points="552.843,-319.709 561.552,-313.675 550.981,-312.961 552.843,-319.709"/>
</g>
<!-- com.101tec:zkclient:0.8&#45;&gt;org.slf4j:slf4j&#45;log4j12:1.7.21 -->
<g id="edge16" class="edge"><title>com.101tec:zkclient:0.8&#45;&gt;org.slf4j:slf4j&#45;log4j12:1.7.21</title>
<path fill="none" stroke="black" d="M282.803,-426.023C335.618,-461.358 434.002,-528.55 514,-591 528.548,-602.357 544.042,-615.457 557.42,-627.109"/>
<polygon fill="black" stroke="black" points="555.202,-629.819 565.029,-633.778 559.816,-624.554 555.202,-629.819"/>
</g>
<!-- com.101tec:zkclient:0.8&#45;&gt;org.slf4j:slf4j&#45;log4j12:1.6.1 -->
<g id="edge19" class="edge"><title>com.101tec:zkclient:0.8&#45;&gt;org.slf4j:slf4j&#45;log4j12:1.6.1</title>
<path fill="none" stroke="black" d="M284.428,-391.684C302.943,-386.122 324.692,-377.797 342,-366 362.038,-352.342 358.283,-339.117 378,-325 427.881,-289.287 494.238,-264.626 539.971,-250.472"/>
<polygon fill="black" stroke="black" points="541.136,-253.776 549.691,-247.526 539.105,-247.077 541.136,-253.776"/>
</g>
<!-- com.101tec:zkclient:0.8&#45;&gt;log4j:log4j:1.2.17 -->
<g id="edge22" class="edge"><title>com.101tec:zkclient:0.8&#45;&gt;log4j:log4j:1.2.17</title>
<path fill="none" stroke="black" d="M284.405,-395.154C304.046,-390.358 326.789,-381.674 342,-366 377.824,-329.085 341.503,-292.25 378,-256 461.802,-172.766 540.803,-133.894 638,-201 653.815,-211.919 691.54,-326.157 710.187,-385.151"/>
<polygon fill="black" stroke="black" points="706.885,-386.316 713.224,-394.804 713.562,-384.215 706.885,-386.316"/>
</g>
<!-- com.101tec:zkclient:0.8&#45;&gt;log4j:log4j:1.2.15 -->
<g id="edge24" class="edge"><title>com.101tec:zkclient:0.8&#45;&gt;log4j:log4j:1.2.15</title>
<path fill="none" stroke="black" d="M284.336,-396.198C304.455,-391.689 327.662,-382.948 342,-366 399.77,-297.716 314.884,-231.375 378,-168 425.076,-120.731 508.816,-119.506 556.713,-123.387"/>
<polygon fill="black" stroke="black" points="556.652,-126.896 566.933,-124.338 557.301,-119.927 556.652,-126.896"/>
</g>
<!-- com.101tec:zkclient:0.8&#45;&gt;log4j:log4j:1.2.16 -->
<g id="edge26" class="edge"><title>com.101tec:zkclient:0.8&#45;&gt;log4j:log4j:1.2.16</title>
<path fill="none" stroke="black" d="M284.244,-397.955C352.101,-392.69 490.414,-381.959 556.395,-376.84"/>
<polygon fill="black" stroke="black" points="557.018,-380.302 566.718,-376.039 556.477,-373.323 557.018,-380.302"/>
</g>
<!-- com.101tec:zkclient:0.8&#45;&gt;org.apache.zookeeper:zookeeper:3.4.6 -->
<g id="edge28" class="edge"><title>com.101tec:zkclient:0.8&#45;&gt;org.apache.zookeeper:zookeeper:3.4.6</title>
<path fill="none" stroke="black" d="M284.037,-406.27C308.035,-409.51 339.609,-413.772 368.431,-417.663"/>
<polygon fill="black" stroke="black" points="368.116,-421.152 378.494,-419.022 369.052,-414.215 368.116,-421.152"/>
</g>
<!-- org.apache.zookeeper:zookeeper:3.4.6&#45;&gt;org.slf4j:slf4j&#45;api:1.7.21 -->
<g id="edge9" class="edge"><title>org.apache.zookeeper:zookeeper:3.4.6&#45;&gt;org.slf4j:slf4j&#45;api:1.7.21</title>
<path fill="none" stroke="black" d="M478.955,-453.258C491.168,-464.158 504.441,-477.687 514,-492 538.615,-528.858 519.57,-552.775 550,-585 579.496,-616.236 603.05,-600.016 638,-625 659.483,-640.357 679.886,-661.859 695.088,-679.764"/>
<polygon fill="black" stroke="black" points="692.605,-682.253 701.691,-687.702 697.987,-677.776 692.605,-682.253"/>
</g>
<!-- org.apache.zookeeper:zookeeper:3.4.6&#45;&gt;org.slf4j:slf4j&#45;api:1.6.1 -->
<g id="edge13" class="edge"><title>org.apache.zookeeper:zookeeper:3.4.6&#45;&gt;org.slf4j:slf4j&#45;api:1.6.1</title>
<path fill="none" stroke="black" d="M475.572,-402.725C496.086,-384.723 524.5,-360.082 550,-339 551.311,-337.916 552.649,-336.818 554.003,-335.712"/>
<polygon fill="black" stroke="black" points="556.291,-338.363 561.868,-329.354 551.891,-332.919 556.291,-338.363"/>
</g>
<!-- org.apache.zookeeper:zookeeper:3.4.6&#45;&gt;org.slf4j:slf4j&#45;log4j12:1.7.21 -->
<g id="edge15" class="edge"><title>org.apache.zookeeper:zookeeper:3.4.6&#45;&gt;org.slf4j:slf4j&#45;log4j12:1.7.21</title>
<path fill="none" stroke="black" d="M471.682,-453.17C485.664,-468.552 502.588,-489.211 514,-510 538.55,-554.723 522.458,-576.055 550,-619 551.548,-621.414 553.275,-623.78 555.123,-626.08"/>
<polygon fill="black" stroke="black" points="552.541,-628.444 561.787,-633.617 557.785,-623.807 552.541,-628.444"/>
</g>
<!-- org.apache.zookeeper:zookeeper:3.4.6&#45;&gt;org.slf4j:slf4j&#45;log4j12:1.6.1 -->
<g id="edge18" class="edge"><title>org.apache.zookeeper:zookeeper:3.4.6&#45;&gt;org.slf4j:slf4j&#45;log4j12:1.6.1</title>
<path fill="none" stroke="black" d="M459.96,-402.988C477.618,-370.285 511.483,-312.206 550,-270 550.505,-269.446 551.02,-268.895 551.543,-268.345"/>
<polygon fill="black" stroke="black" points="553.999,-270.84 558.741,-261.365 549.126,-265.814 553.999,-270.84"/>
</g>
<!-- org.apache.zookeeper:zookeeper:3.4.6&#45;&gt;log4j:log4j:1.2.17 -->
<g id="edge21" class="edge"><title>org.apache.zookeeper:zookeeper:3.4.6&#45;&gt;log4j:log4j:1.2.17</title>
<path fill="none" stroke="black" d="M513.678,-426.053C567.531,-424.481 641.275,-422.328 684.751,-421.058"/>
<polygon fill="black" stroke="black" points="684.966,-424.554 694.86,-420.763 684.762,-417.557 684.966,-424.554"/>
</g>
<!-- org.apache.zookeeper:zookeeper:3.4.6&#45;&gt;log4j:log4j:1.2.15 -->
<g id="edge23" class="edge"><title>org.apache.zookeeper:zookeeper:3.4.6&#45;&gt;log4j:log4j:1.2.15</title>
<path fill="none" stroke="black" d="M457.425,-402.729C475.131,-360.366 512.791,-272.623 550,-201 556.701,-188.102 564.635,-174.286 571.852,-162.181"/>
<polygon fill="black" stroke="black" points="575.039,-163.673 577.199,-153.301 569.042,-160.062 575.039,-163.673"/>
</g>
<!-- org.apache.zookeeper:zookeeper:3.4.6&#45;&gt;log4j:log4j:1.2.16 -->
<g id="edge25" class="edge"><title>org.apache.zookeeper:zookeeper:3.4.6&#45;&gt;log4j:log4j:1.2.16</title>
<path fill="none" stroke="black" d="M513.591,-403.37C528.574,-397.829 543.919,-392.153 557.077,-387.287"/>
<polygon fill="black" stroke="black" points="558.505,-390.49 566.67,-383.738 556.077,-383.925 558.505,-390.49"/>
</g>
<!-- io.netty:netty:3.7.0.Final -->
<g id="node18" class="node"><title>io.netty:netty:3.7.0.Final</title>
<g id="a_node18"><a xlink:href="http://netty.io/" xlink:title="io.netty/netty/3.7.0.Final" target="_blank">
<polygon fill="none" stroke="black" points="556,-526 556,-576 632,-576 632,-526 556,-526"/>
<text text-anchor="start" x="573" y="-561.8" font-family="Times,serif" font-size="14.00">io.netty</text>
<text text-anchor="start" x="579" y="-547.8" font-family="Times,serif" font-weight="bold" font-size="14.00">netty</text>
<text text-anchor="start" x="564" y="-533.8" font-family="Times,serif" font-size="14.00">3.7.0.Final</text>
</a>
</g>
</g>
<!-- org.apache.zookeeper:zookeeper:3.4.6&#45;&gt;io.netty:netty:3.7.0.Final -->
<g id="edge30" class="edge"><title>org.apache.zookeeper:zookeeper:3.4.6&#45;&gt;io.netty:netty:3.7.0.Final</title>
<path fill="none" stroke="black" d="M476.145,-453.221C496.685,-470.917 524.893,-495.062 550,-516 551.321,-517.102 552.668,-518.221 554.03,-519.348"/>
<polygon fill="black" stroke="black" points="551.981,-522.196 561.925,-525.853 556.432,-516.793 551.981,-522.196"/>
</g>
<!-- jline:jline:0.9.94 -->
<g id="node19" class="node"><title>jline:jline:0.9.94</title>
<g id="a_node19"><a xlink:href="http://jline.sourceforge.net" xlink:title="jline/jline/0.9.94" target="_blank">
<polygon fill="none" stroke="black" points="567,-457 567,-507 621,-507 621,-457 567,-457"/>
<text text-anchor="start" x="581.5" y="-492.8" font-family="Times,serif" font-size="14.00">jline</text>
<text text-anchor="start" x="581" y="-478.8" font-family="Times,serif" font-weight="bold" font-size="14.00">jline</text>
<text text-anchor="start" x="576.5" y="-464.8" font-family="Times,serif" font-size="14.00">0.9.94</text>
</a>
</g>
</g>
<!-- org.apache.zookeeper:zookeeper:3.4.6&#45;&gt;jline:jline:0.9.94 -->
<g id="edge31" class="edge"><title>org.apache.zookeeper:zookeeper:3.4.6&#45;&gt;jline:jline:0.9.94</title>
<path fill="none" stroke="black" d="M513.591,-452.63C528.574,-458.171 543.919,-463.847 557.077,-468.713"/>
<polygon fill="black" stroke="black" points="556.077,-472.075 566.67,-472.262 558.505,-465.51 556.077,-472.075"/>
</g>
<!-- junit:junit:3.8.1 -->
<g id="node25" class="node"><title>junit:junit:3.8.1</title>
<g id="a_node25"><a xlink:href="http://junit.org" xlink:title="junit/junit/3.8.1" target="_blank">
<polygon fill="none" stroke="black" points="695,-464 695,-514 749,-514 749,-464 695,-464"/>
<text text-anchor="start" x="709.5" y="-499.8" font-family="Times,serif" font-size="14.00">junit</text>
<text text-anchor="start" x="708" y="-485.8" font-family="Times,serif" font-weight="bold" font-size="14.00">junit</text>
<text text-anchor="start" x="708" y="-471.8" font-family="Times,serif" font-size="14.00">3.8.1</text>
</a>
</g>
</g>
<!-- jline:jline:0.9.94&#45;&gt;junit:junit:3.8.1 -->
<g id="edge37" class="edge"><title>jline:jline:0.9.94&#45;&gt;junit:junit:3.8.1</title>
<path fill="none" stroke="black" d="M621.107,-483.45C639.522,-484.473 664.43,-485.857 684.767,-486.987"/>
<polygon fill="black" stroke="black" points="684.747,-490.491 694.926,-487.551 685.136,-483.502 684.747,-490.491"/>
</g>
<!-- javax.activation:activation:1.1 -->
<g id="node24" class="node"><title>javax.activation:activation:1.1</title>
<g id="a_node24"><a xlink:href="http://java.sun.com/products/javabeans/jaf/index.jsp" xlink:title="javax.activation/activation/1.1" target="_blank">
<polygon fill="none" stroke="black" points="806.5,-0 806.5,-50 909.5,-50 909.5,-0 806.5,-0"/>
<text text-anchor="start" x="814.5" y="-35.8" font-family="Times,serif" font-size="14.00">javax.activation</text>
<text text-anchor="start" x="829" y="-21.8" font-family="Times,serif" font-weight="bold" font-size="14.00">activation</text>
<text text-anchor="start" x="849" y="-7.8" font-family="Times,serif" font-size="14.00">1.1</text>
</a>
</g>
</g>
<!-- javax.mail:mail:1.4&#45;&gt;javax.activation:activation:1.1 -->
<g id="edge36" class="edge"><title>javax.mail:mail:1.4&#45;&gt;javax.activation:activation:1.1</title>
<path fill="none" stroke="black" d="M759.262,-25C770.699,-25 783.662,-25 796.32,-25"/>
<polygon fill="black" stroke="black" points="796.372,-28.5001 806.372,-25 796.372,-21.5001 796.372,-28.5001"/>
</g>
</g>
</svg>
