<?xml version="1.0" encoding="UTF-8" standalone="no"?>
<!DOCTYPE svg PUBLIC "-//W3C//DTD SVG 1.1//EN"
 "http://www.w3.org/Graphics/SVG/1.1/DTD/svg11.dtd">
<!-- Generated by graphviz version 2.36.0 (20140111.2315)
 -->
<!-- Title: org.apache.maven/maven&#45;jxr/2.5 dependency graph Pages: 1 -->
<svg width="462pt" height="265pt"
 viewBox="0.00 0.00 462.00 265.00" xmlns="http://www.w3.org/2000/svg" xmlns:xlink="http://www.w3.org/1999/xlink">
<g id="graph0" class="graph" transform="scale(1 1) rotate(0) translate(4 261)">
<title>org.apache.maven/maven&#45;jxr/2.5 dependency graph</title>
<polygon fill="white" stroke="none" points="-4,4 -4,-261 458,-261 458,4 -4,4"/>
<!-- org.apache.maven:maven&#45;jxr:2.5 -->
<g id="node1" class="node"><title>org.apache.maven:maven&#45;jxr:2.5</title>
<g id="a_node1"><a xlink:href="http://repo1.maven.org/maven2/org/apache/maven/maven-jxr/2.5/maven-jxr-2.5.pom" xlink:title="org.apache.maven/maven&#45;jxr/2.5" target="_blank">
<polygon fill="none" stroke="black" points="0,-118 0,-168 116,-168 116,-118 0,-118"/>
<text text-anchor="start" x="8" y="-153.8" font-family="Times,serif" font-size="14.00">org.apache.maven</text>
<text text-anchor="start" x="27.5" y="-139.8" font-family="Times,serif" font-weight="bold" font-size="14.00">maven&#45;jxr</text>
<text text-anchor="start" x="49" y="-125.8" font-family="Times,serif" font-size="14.00">2.5</text>
</a>
</g>
</g>
<!-- commons&#45;lang:commons&#45;lang:2.6 -->
<g id="node2" class="node"><title>commons&#45;lang:commons&#45;lang:2.6</title>
<g id="a_node2"><a xlink:href="http://commons.apache.org/lang/" xlink:title="commons&#45;lang/commons&#45;lang/2.6" target="_blank">
<polygon fill="none" stroke="black" points="334,-207 334,-257 436,-257 436,-207 334,-207"/>
<text text-anchor="start" x="344" y="-242.8" font-family="Times,serif" font-size="14.00">commons&#45;lang</text>
<text text-anchor="start" x="342" y="-228.8" font-family="Times,serif" font-weight="bold" font-size="14.00">commons&#45;lang</text>
<text text-anchor="start" x="376" y="-214.8" font-family="Times,serif" font-size="14.00">2.6</text>
</a>
</g>
</g>
<!-- org.apache.maven:maven&#45;jxr:2.5&#45;&gt;commons&#45;lang:commons&#45;lang:2.6 -->
<g id="edge2" class="edge"><title>org.apache.maven:maven&#45;jxr:2.5&#45;&gt;commons&#45;lang:commons&#45;lang:2.6</title>
<path fill="none" stroke="black" d="M84.6791,-168.228C102.145,-183.722 126.62,-202.384 152,-212 207.472,-233.017 275.573,-236.511 323.601,-235.666"/>
<polygon fill="black" stroke="black" points="323.925,-239.159 333.836,-235.415 323.754,-232.161 323.925,-239.159"/>
</g>
<!-- commons&#45;io:commons&#45;io:2.0.1 -->
<g id="node4" class="node"><title>commons&#45;io:commons&#45;io:2.0.1</title>
<g id="a_node4"><a xlink:href="http://commons.apache.org/io/" xlink:title="commons&#45;io/commons&#45;io/2.0.1" target="_blank">
<polygon fill="none" stroke="black" points="172,-153 172,-203 260,-203 260,-153 172,-153"/>
<text text-anchor="start" x="181" y="-188.8" font-family="Times,serif" font-size="14.00">commons&#45;io</text>
<text text-anchor="start" x="180" y="-174.8" font-family="Times,serif" font-weight="bold" font-size="14.00">commons&#45;io</text>
<text text-anchor="start" x="202" y="-160.8" font-family="Times,serif" font-size="14.00">2.0.1</text>
</a>
</g>
</g>
<!-- org.apache.maven:maven&#45;jxr:2.5&#45;&gt;commons&#45;io:commons&#45;io:2.0.1 -->
<g id="edge4" class="edge"><title>org.apache.maven:maven&#45;jxr:2.5&#45;&gt;commons&#45;io:commons&#45;io:2.0.1</title>
<path fill="none" stroke="black" d="M116.203,-155.834C131.181,-159.195 147.264,-162.803 162.012,-166.112"/>
<polygon fill="black" stroke="black" points="161.455,-169.574 171.979,-168.348 162.988,-162.743 161.455,-169.574"/>
</g>
<!-- org.apache.velocity:velocity:1.5 -->
<g id="node5" class="node"><title>org.apache.velocity:velocity:1.5</title>
<g id="a_node5"><a xlink:href="http://velocity.apache.org/engine/releases/velocity-1.5/" xlink:title="org.apache.velocity/velocity/1.5" target="_blank">
<polygon fill="none" stroke="black" points="154.5,-84 154.5,-134 277.5,-134 277.5,-84 154.5,-84"/>
<text text-anchor="start" x="162.5" y="-119.8" font-family="Times,serif" font-size="14.00">org.apache.velocity</text>
<text text-anchor="start" x="193.5" y="-105.8" font-family="Times,serif" font-weight="bold" font-size="14.00">velocity</text>
<text text-anchor="start" x="207" y="-91.8" font-family="Times,serif" font-size="14.00">1.5</text>
</a>
</g>
</g>
<!-- org.apache.maven:maven&#45;jxr:2.5&#45;&gt;org.apache.velocity:velocity:1.5 -->
<g id="edge5" class="edge"><title>org.apache.maven:maven&#45;jxr:2.5&#45;&gt;org.apache.velocity:velocity:1.5</title>
<path fill="none" stroke="black" d="M116.203,-130.533C125.432,-128.521 135.08,-126.418 144.577,-124.349"/>
<polygon fill="black" stroke="black" points="145.37,-127.758 154.395,-122.209 143.879,-120.919 145.37,-127.758"/>
</g>
<!-- org.codehaus.plexus:plexus&#45;utils:3.0.20 -->
<g id="node8" class="node"><title>org.codehaus.plexus:plexus&#45;utils:3.0.20</title>
<g id="a_node8"><a xlink:href="http://plexus.codehaus.org/plexus-utils" xlink:title="org.codehaus.plexus/plexus&#45;utils/3.0.20" target="_blank">
<polygon fill="none" stroke="black" points="152,-15 152,-65 280,-65 280,-15 152,-15"/>
<text text-anchor="start" x="160" y="-50.8" font-family="Times,serif" font-size="14.00">org.codehaus.plexus</text>
<text text-anchor="start" x="182.5" y="-36.8" font-family="Times,serif" font-weight="bold" font-size="14.00">plexus&#45;utils</text>
<text text-anchor="start" x="198.5" y="-22.8" font-family="Times,serif" font-size="14.00">3.0.20</text>
</a>
</g>
</g>
<!-- org.apache.maven:maven&#45;jxr:2.5&#45;&gt;org.codehaus.plexus:plexus&#45;utils:3.0.20 -->
<g id="edge8" class="edge"><title>org.apache.maven:maven&#45;jxr:2.5&#45;&gt;org.codehaus.plexus:plexus&#45;utils:3.0.20</title>
<path fill="none" stroke="black" d="M90.4778,-117.884C108.127,-104.256 130.797,-87.4893 152,-74 153.917,-72.7804 155.882,-71.5616 157.877,-70.3497"/>
<polygon fill="black" stroke="black" points="159.94,-73.1964 166.773,-65.0993 156.382,-67.1681 159.94,-73.1964"/>
</g>
<!-- commons&#45;lang:commons&#45;lang:2.1 -->
<g id="node3" class="node"><title>commons&#45;lang:commons&#45;lang:2.1</title>
<g id="a_node3"><a xlink:href="http://jakarta.apache.org/commons/${pom.artifactId.substring(8)}/" xlink:title="commons&#45;lang/commons&#45;lang/2.1" target="_blank">
<polygon fill="none" stroke="black" points="334,-138 334,-188 436,-188 436,-138 334,-138"/>
<text text-anchor="start" x="344" y="-173.8" font-family="Times,serif" font-size="14.00">commons&#45;lang</text>
<text text-anchor="start" x="342" y="-159.8" font-family="Times,serif" font-weight="bold" font-size="14.00">commons&#45;lang</text>
<text text-anchor="start" x="376" y="-145.8" font-family="Times,serif" font-size="14.00">2.1</text>
</a>
</g>
</g>
<!-- org.apache.velocity:velocity:1.5&#45;&gt;commons&#45;lang:commons&#45;lang:2.6 -->
<g id="edge1" class="edge"><title>org.apache.velocity:velocity:1.5&#45;&gt;commons&#45;lang:commons&#45;lang:2.6</title>
<path fill="none" stroke="black" d="M267.338,-134.05C271.82,-137.13 276.121,-140.454 280,-144 301.017,-163.214 294.681,-178.122 316,-197 318.936,-199.599 322.099,-202.065 325.398,-204.393"/>
<polygon fill="black" stroke="black" points="323.54,-207.359 333.827,-209.893 327.365,-201.497 323.54,-207.359"/>
</g>
<!-- org.apache.velocity:velocity:1.5&#45;&gt;commons&#45;lang:commons&#45;lang:2.1 -->
<g id="edge3" class="edge"><title>org.apache.velocity:velocity:1.5&#45;&gt;commons&#45;lang:commons&#45;lang:2.1</title>
<path fill="none" stroke="black" d="M277.763,-128.648C292.911,-133.546 309.139,-138.793 324.238,-143.676"/>
<polygon fill="black" stroke="black" points="323.382,-147.077 333.974,-146.824 325.536,-140.417 323.382,-147.077"/>
</g>
<!-- oro:oro:2.0.8 -->
<g id="node6" class="node"><title>oro:oro:2.0.8</title>
<g id="a_node6"><a xlink:href="http://repo1.maven.org/maven2/oro/oro/2.0.8/oro-2.0.8.pom" xlink:title="oro/oro/2.0.8" target="_blank">
<polygon fill="none" stroke="black" points="358,-69 358,-119 412,-119 412,-69 358,-69"/>
<text text-anchor="start" x="375.5" y="-104.8" font-family="Times,serif" font-size="14.00">oro</text>
<text text-anchor="start" x="375" y="-90.8" font-family="Times,serif" font-weight="bold" font-size="14.00">oro</text>
<text text-anchor="start" x="371" y="-76.8" font-family="Times,serif" font-size="14.00">2.0.8</text>
</a>
</g>
</g>
<!-- org.apache.velocity:velocity:1.5&#45;&gt;oro:oro:2.0.8 -->
<g id="edge6" class="edge"><title>org.apache.velocity:velocity:1.5&#45;&gt;oro:oro:2.0.8</title>
<path fill="none" stroke="black" d="M277.763,-103.542C301.271,-101.431 327.381,-99.0856 347.833,-97.2485"/>
<polygon fill="black" stroke="black" points="348.323,-100.719 357.969,-96.3381 347.696,-93.7468 348.323,-100.719"/>
</g>
<!-- commons&#45;collections:commons&#45;collections:3.1 -->
<g id="node7" class="node"><title>commons&#45;collections:commons&#45;collections:3.1</title>
<g id="a_node7"><a xlink:href="http://www.apache.org" xlink:title="commons&#45;collections/commons&#45;collections/3.1" target="_blank">
<polygon fill="none" stroke="black" points="316.5,-0 316.5,-50 453.5,-50 453.5,-0 316.5,-0"/>
<text text-anchor="start" x="326" y="-35.8" font-family="Times,serif" font-size="14.00">commons&#45;collections</text>
<text text-anchor="start" x="324.5" y="-21.8" font-family="Times,serif" font-weight="bold" font-size="14.00">commons&#45;collections</text>
<text text-anchor="start" x="376" y="-7.8" font-family="Times,serif" font-size="14.00">3.1</text>
</a>
</g>
</g>
<!-- org.apache.velocity:velocity:1.5&#45;&gt;commons&#45;collections:commons&#45;collections:3.1 -->
<g id="edge7" class="edge"><title>org.apache.velocity:velocity:1.5&#45;&gt;commons&#45;collections:commons&#45;collections:3.1</title>
<path fill="none" stroke="black" d="M266.583,-83.909C282.371,-75.9326 299.913,-67.0839 316,-59 318.889,-57.548 321.849,-56.0625 324.838,-54.5632"/>
<polygon fill="black" stroke="black" points="326.483,-57.6535 333.855,-50.0438 323.347,-51.3955 326.483,-57.6535"/>
</g>
</g>
</svg>
