<?xml version="1.0" encoding="UTF-8" standalone="no"?>
<!DOCTYPE svg PUBLIC "-//W3C//DTD SVG 1.1//EN"
 "http://www.w3.org/Graphics/SVG/1.1/DTD/svg11.dtd">
<!-- Generated by graphviz version 2.36.0 (20140111.2315)
 -->
<!-- Title: org.scalameta/scalameta_2.11/1.0.0 dependency graph Pages: 1 -->
<svg width="1288pt" height="729pt"
 viewBox="0.00 0.00 1288.00 729.08" xmlns="http://www.w3.org/2000/svg" xmlns:xlink="http://www.w3.org/1999/xlink">
<g id="graph0" class="graph" transform="scale(1 1) rotate(0) translate(4 725.075)">
<title>org.scalameta/scalameta_2.11/1.0.0 dependency graph</title>
<polygon fill="white" stroke="none" points="-4,4 -4,-725.075 1284,-725.075 1284,4 -4,4"/>
<!-- org.scalameta:scalameta_2.11:1.0.0 -->
<g id="node1" class="node"><title>org.scalameta:scalameta_2.11:1.0.0</title>
<g id="a_node1"><a xlink:href="https://github.com/scalameta/scalameta" xlink:title="org.scalameta/scalameta_2.11/1.0.0" target="_blank">
<polygon fill="none" stroke="black" points="0.5,-445 0.5,-495 105.5,-495 105.5,-445 0.5,-445"/>
<text text-anchor="start" x="15" y="-480.8" font-family="Times,serif" font-size="14.00">org.scalameta</text>
<text text-anchor="start" x="8.5" y="-466.8" font-family="Times,serif" font-weight="bold" font-size="14.00">scalameta_2.11</text>
<text text-anchor="start" x="39" y="-452.8" font-family="Times,serif" font-size="14.00">1.0.0</text>
</a>
</g>
</g>
<!-- org.scalameta:inline_2.11:1.0.0 -->
<g id="node2" class="node"><title>org.scalameta:inline_2.11:1.0.0</title>
<g id="a_node2"><a xlink:href="https://github.com/scalameta/scalameta" xlink:title="org.scalameta/inline_2.11/1.0.0" target="_blank">
<polygon fill="none" stroke="black" points="450,-602 450,-652 542,-652 542,-602 450,-602"/>
<text text-anchor="start" x="458" y="-637.8" font-family="Times,serif" font-size="14.00">org.scalameta</text>
<text text-anchor="start" x="464" y="-623.8" font-family="Times,serif" font-weight="bold" font-size="14.00">inline_2.11</text>
<text text-anchor="start" x="482" y="-609.8" font-family="Times,serif" font-size="14.00">1.0.0</text>
</a>
</g>
</g>
<!-- org.scalameta:scalameta_2.11:1.0.0&#45;&gt;org.scalameta:inline_2.11:1.0.0 -->
<g id="edge1" class="edge"><title>org.scalameta:scalameta_2.11:1.0.0&#45;&gt;org.scalameta:inline_2.11:1.0.0</title>
<path fill="none" stroke="black" d="M71.8429,-495.422C88.3134,-517.682 114.345,-549.975 142,-573 201.99,-622.946 218.612,-640.751 294,-661 345.508,-674.835 361.716,-671.528 414,-661 422.69,-659.25 431.61,-656.542 440.207,-653.401"/>
<polygon fill="black" stroke="black" points="441.69,-656.58 449.747,-649.699 439.158,-650.054 441.69,-656.58"/>
</g>
<!-- org.scalameta:transversers_2.11:1.0.0 -->
<g id="node3" class="node"><title>org.scalameta:transversers_2.11:1.0.0</title>
<g id="a_node3"><a xlink:href="https://github.com/scalameta/scalameta" xlink:title="org.scalameta/transversers_2.11/1.0.0" target="_blank">
<polygon fill="none" stroke="black" points="294.5,-602 294.5,-652 413.5,-652 413.5,-602 294.5,-602"/>
<text text-anchor="start" x="316" y="-637.8" font-family="Times,serif" font-size="14.00">org.scalameta</text>
<text text-anchor="start" x="302.5" y="-623.8" font-family="Times,serif" font-weight="bold" font-size="14.00">transversers_2.11</text>
<text text-anchor="start" x="340" y="-609.8" font-family="Times,serif" font-size="14.00">1.0.0</text>
</a>
</g>
</g>
<!-- org.scalameta:scalameta_2.11:1.0.0&#45;&gt;org.scalameta:transversers_2.11:1.0.0 -->
<g id="edge2" class="edge"><title>org.scalameta:scalameta_2.11:1.0.0&#45;&gt;org.scalameta:transversers_2.11:1.0.0</title>
<path fill="none" stroke="black" d="M87.3465,-495.221C103.424,-506.827 123.25,-520.35 142,-531 188.198,-557.24 242.86,-581.947 284.971,-599.723"/>
<polygon fill="black" stroke="black" points="283.726,-602.996 294.302,-603.635 286.433,-596.54 283.726,-602.996"/>
</g>
<!-- org.scalameta:quasiquotes_2.11:1.0.0 -->
<g id="node4" class="node"><title>org.scalameta:quasiquotes_2.11:1.0.0</title>
<g id="a_node4"><a xlink:href="https://github.com/scalameta/scalameta" xlink:title="org.scalameta/quasiquotes_2.11/1.0.0" target="_blank">
<polygon fill="none" stroke="black" points="142,-472 142,-522 258,-522 258,-472 142,-472"/>
<text text-anchor="start" x="162" y="-507.8" font-family="Times,serif" font-size="14.00">org.scalameta</text>
<text text-anchor="start" x="150" y="-493.8" font-family="Times,serif" font-weight="bold" font-size="14.00">quasiquotes_2.11</text>
<text text-anchor="start" x="186" y="-479.8" font-family="Times,serif" font-size="14.00">1.0.0</text>
</a>
</g>
</g>
<!-- org.scalameta:scalameta_2.11:1.0.0&#45;&gt;org.scalameta:quasiquotes_2.11:1.0.0 -->
<g id="edge3" class="edge"><title>org.scalameta:scalameta_2.11:1.0.0&#45;&gt;org.scalameta:quasiquotes_2.11:1.0.0</title>
<path fill="none" stroke="black" d="M105.53,-479.595C114.046,-481.181 122.985,-482.846 131.818,-484.49"/>
<polygon fill="black" stroke="black" points="131.246,-487.944 141.718,-486.334 132.528,-481.062 131.246,-487.944"/>
</g>
<!-- org.scalameta:parsers_2.11:1.0.0 -->
<g id="node5" class="node"><title>org.scalameta:parsers_2.11:1.0.0</title>
<g id="a_node5"><a xlink:href="https://github.com/scalameta/scalameta" xlink:title="org.scalameta/parsers_2.11/1.0.0" target="_blank">
<polygon fill="none" stroke="black" points="308,-364 308,-414 400,-414 400,-364 308,-364"/>
<text text-anchor="start" x="316" y="-399.8" font-family="Times,serif" font-size="14.00">org.scalameta</text>
<text text-anchor="start" x="317" y="-385.8" font-family="Times,serif" font-weight="bold" font-size="14.00">parsers_2.11</text>
<text text-anchor="start" x="340" y="-371.8" font-family="Times,serif" font-size="14.00">1.0.0</text>
</a>
</g>
</g>
<!-- org.scalameta:scalameta_2.11:1.0.0&#45;&gt;org.scalameta:parsers_2.11:1.0.0 -->
<g id="edge4" class="edge"><title>org.scalameta:scalameta_2.11:1.0.0&#45;&gt;org.scalameta:parsers_2.11:1.0.0</title>
<path fill="none" stroke="black" d="M102.466,-444.799C115.089,-438.968 128.845,-433.238 142,-429 193.581,-412.382 254.607,-401.74 297.726,-395.645"/>
<polygon fill="black" stroke="black" points="298.309,-399.098 307.737,-394.266 297.353,-392.163 298.309,-399.098"/>
</g>
<!-- org.scalameta:trees_2.11:1.0.0 -->
<g id="node6" class="node"><title>org.scalameta:trees_2.11:1.0.0</title>
<g id="a_node6"><a xlink:href="https://github.com/scalameta/scalameta" xlink:title="org.scalameta/trees_2.11/1.0.0" target="_blank">
<polygon fill="none" stroke="black" points="450,-418 450,-468 542,-468 542,-418 450,-418"/>
<text text-anchor="start" x="458" y="-453.8" font-family="Times,serif" font-size="14.00">org.scalameta</text>
<text text-anchor="start" x="466.5" y="-439.8" font-family="Times,serif" font-weight="bold" font-size="14.00">trees_2.11</text>
<text text-anchor="start" x="482" y="-425.8" font-family="Times,serif" font-size="14.00">1.0.0</text>
</a>
</g>
</g>
<!-- org.scalameta:scalameta_2.11:1.0.0&#45;&gt;org.scalameta:trees_2.11:1.0.0 -->
<g id="edge8" class="edge"><title>org.scalameta:scalameta_2.11:1.0.0&#45;&gt;org.scalameta:trees_2.11:1.0.0</title>
<path fill="none" stroke="black" d="M105.625,-464.986C117.563,-463.916 130.218,-462.852 142,-462 247.095,-454.397 369.996,-448.446 439.55,-445.351"/>
<polygon fill="black" stroke="black" points="439.995,-448.835 449.831,-444.897 439.686,-441.842 439.995,-448.835"/>
</g>
<!-- org.scalameta:tokenizers_2.11:1.0.0 -->
<g id="node7" class="node"><title>org.scalameta:tokenizers_2.11:1.0.0</title>
<g id="a_node7"><a xlink:href="https://github.com/scalameta/scalameta" xlink:title="org.scalameta/tokenizers_2.11/1.0.0" target="_blank">
<polygon fill="none" stroke="black" points="578.5,-190 578.5,-240 685.5,-240 685.5,-190 578.5,-190"/>
<text text-anchor="start" x="594" y="-225.8" font-family="Times,serif" font-size="14.00">org.scalameta</text>
<text text-anchor="start" x="586.5" y="-211.8" font-family="Times,serif" font-weight="bold" font-size="14.00">tokenizers_2.11</text>
<text text-anchor="start" x="618" y="-197.8" font-family="Times,serif" font-size="14.00">1.0.0</text>
</a>
</g>
</g>
<!-- org.scalameta:scalameta_2.11:1.0.0&#45;&gt;org.scalameta:tokenizers_2.11:1.0.0 -->
<g id="edge12" class="edge"><title>org.scalameta:scalameta_2.11:1.0.0&#45;&gt;org.scalameta:tokenizers_2.11:1.0.0</title>
<path fill="none" stroke="black" d="M81.0797,-444.897C97.7853,-430.265 120.137,-412.162 142,-399 283.855,-313.603 472.037,-256.438 568.355,-230.662"/>
<polygon fill="black" stroke="black" points="569.46,-233.99 578.229,-228.044 567.666,-227.224 569.46,-233.99"/>
</g>
<!-- org.scalameta:dialects_2.11:1.0.0 -->
<g id="node14" class="node"><title>org.scalameta:dialects_2.11:1.0.0</title>
<g id="a_node14"><a xlink:href="https://github.com/scalameta/scalameta" xlink:title="org.scalameta/dialects_2.11/1.0.0" target="_blank">
<polygon fill="none" stroke="black" points="870,-152 870,-202 962,-202 962,-152 870,-152"/>
<text text-anchor="start" x="878" y="-187.8" font-family="Times,serif" font-size="14.00">org.scalameta</text>
<text text-anchor="start" x="878.5" y="-173.8" font-family="Times,serif" font-weight="bold" font-size="14.00">dialects_2.11</text>
<text text-anchor="start" x="902" y="-159.8" font-family="Times,serif" font-size="14.00">1.0.0</text>
</a>
</g>
</g>
<!-- org.scalameta:scalameta_2.11:1.0.0&#45;&gt;org.scalameta:dialects_2.11:1.0.0 -->
<g id="edge31" class="edge"><title>org.scalameta:scalameta_2.11:1.0.0&#45;&gt;org.scalameta:dialects_2.11:1.0.0</title>
<path fill="none" stroke="black" d="M59.9447,-444.946C82.058,-358.649 167.99,-79 353,-79 353,-79 353,-79 633,-79 723.117,-79 746.492,-93.1256 830,-127 843.149,-132.334 856.694,-139.455 869,-146.647"/>
<polygon fill="black" stroke="black" points="867.341,-149.733 877.718,-151.872 870.94,-143.729 867.341,-149.733"/>
</g>
<!-- org.scalameta:common_2.11:1.0.0 -->
<g id="node15" class="node"><title>org.scalameta:common_2.11:1.0.0</title>
<g id="a_node15"><a xlink:href="https://github.com/scalameta/scalameta" xlink:title="org.scalameta/common_2.11/1.0.0" target="_blank">
<polygon fill="none" stroke="black" points="1018,-504 1018,-554 1116,-554 1116,-504 1018,-504"/>
<text text-anchor="start" x="1029" y="-539.8" font-family="Times,serif" font-size="14.00">org.scalameta</text>
<text text-anchor="start" x="1026" y="-525.8" font-family="Times,serif" font-weight="bold" font-size="14.00">common_2.11</text>
<text text-anchor="start" x="1053" y="-511.8" font-family="Times,serif" font-size="14.00">1.0.0</text>
</a>
</g>
</g>
<!-- org.scalameta:scalameta_2.11:1.0.0&#45;&gt;org.scalameta:common_2.11:1.0.0 -->
<g id="edge38" class="edge"><title>org.scalameta:scalameta_2.11:1.0.0&#45;&gt;org.scalameta:common_2.11:1.0.0</title>
<path fill="none" stroke="black" d="M62.4221,-495.128C74.909,-528.958 101.329,-589.149 142,-626 217.945,-694.812 250.517,-719 353,-719 353,-719 353,-719 777,-719 862.348,-719 895.051,-732.44 966,-685 1009.76,-655.743 1038.43,-600.16 1053.43,-563.854"/>
<polygon fill="black" stroke="black" points="1056.84,-564.748 1057.29,-554.163 1050.34,-562.152 1056.84,-564.748"/>
</g>
<!-- org.scalameta:inputs_2.11:1.0.0 -->
<g id="node13" class="node"><title>org.scalameta:inputs_2.11:1.0.0</title>
<g id="a_node13"><a xlink:href="https://github.com/scalameta/scalameta" xlink:title="org.scalameta/inputs_2.11/1.0.0" target="_blank">
<polygon fill="none" stroke="black" points="870,-428 870,-478 962,-478 962,-428 870,-428"/>
<text text-anchor="start" x="878" y="-463.8" font-family="Times,serif" font-size="14.00">org.scalameta</text>
<text text-anchor="start" x="882.5" y="-449.8" font-family="Times,serif" font-weight="bold" font-size="14.00">inputs_2.11</text>
<text text-anchor="start" x="902" y="-435.8" font-family="Times,serif" font-size="14.00">1.0.0</text>
</a>
</g>
</g>
<!-- org.scalameta:inline_2.11:1.0.0&#45;&gt;org.scalameta:inputs_2.11:1.0.0 -->
<g id="edge25" class="edge"><title>org.scalameta:inline_2.11:1.0.0&#45;&gt;org.scalameta:inputs_2.11:1.0.0</title>
<path fill="none" stroke="black" d="M542.05,-613.625C607.154,-593.604 730.627,-553.015 830,-505 842.91,-498.762 856.37,-491.113 868.672,-483.62"/>
<polygon fill="black" stroke="black" points="870.741,-486.455 877.399,-478.213 867.055,-480.504 870.741,-486.455"/>
</g>
<!-- org.scalameta:transversers_2.11:1.0.0&#45;&gt;org.scalameta:trees_2.11:1.0.0 -->
<g id="edge7" class="edge"><title>org.scalameta:transversers_2.11:1.0.0&#45;&gt;org.scalameta:trees_2.11:1.0.0</title>
<path fill="none" stroke="black" d="M374.173,-601.801C398.924,-569.272 442.068,-512.568 469.546,-476.454"/>
<polygon fill="black" stroke="black" points="472.565,-478.266 475.835,-468.189 466.994,-474.028 472.565,-478.266"/>
</g>
<!-- org.scalameta:transversers_2.11:1.0.0&#45;&gt;org.scalameta:common_2.11:1.0.0 -->
<g id="edge36" class="edge"><title>org.scalameta:transversers_2.11:1.0.0&#45;&gt;org.scalameta:common_2.11:1.0.0</title>
<path fill="none" stroke="black" d="M413.654,-650.396C425.535,-654.45 438.052,-658.242 450,-661 528.86,-679.204 550.066,-681 631,-681 631,-681 631,-681 777,-681 861.675,-681 892.39,-698.849 966,-657 1003.99,-635.402 1032.63,-593.047 1049.32,-562.981"/>
<polygon fill="black" stroke="black" points="1052.45,-564.545 1054.11,-554.081 1046.29,-561.226 1052.45,-564.545"/>
</g>
<!-- org.scalameta:quasiquotes_2.11:1.0.0&#45;&gt;org.scalameta:parsers_2.11:1.0.0 -->
<g id="edge5" class="edge"><title>org.scalameta:quasiquotes_2.11:1.0.0&#45;&gt;org.scalameta:parsers_2.11:1.0.0</title>
<path fill="none" stroke="black" d="M236.254,-471.951C258.046,-456.467 286.184,-436.475 309.375,-419.997"/>
<polygon fill="black" stroke="black" points="311.55,-422.745 317.674,-414.1 307.495,-417.039 311.55,-422.745"/>
</g>
<!-- org.scalameta:quasiquotes_2.11:1.0.0&#45;&gt;org.scalameta:trees_2.11:1.0.0 -->
<g id="edge9" class="edge"><title>org.scalameta:quasiquotes_2.11:1.0.0&#45;&gt;org.scalameta:trees_2.11:1.0.0</title>
<path fill="none" stroke="black" d="M258.035,-486.524C310.479,-476.892 387.746,-462.7 439.65,-453.166"/>
<polygon fill="black" stroke="black" points="440.474,-456.574 449.677,-451.325 439.21,-449.689 440.474,-456.574"/>
</g>
<!-- org.scalameta:quasiquotes_2.11:1.0.0&#45;&gt;org.scalameta:inputs_2.11:1.0.0 -->
<g id="edge27" class="edge"><title>org.scalameta:quasiquotes_2.11:1.0.0&#45;&gt;org.scalameta:inputs_2.11:1.0.0</title>
<path fill="none" stroke="black" d="M258.344,-495.456C369.043,-492.15 619.816,-483.086 830,-464 839.569,-463.131 849.718,-462.001 859.546,-460.796"/>
<polygon fill="black" stroke="black" points="860.152,-464.247 869.634,-459.522 859.275,-457.303 860.152,-464.247"/>
</g>
<!-- org.scalameta:quasiquotes_2.11:1.0.0&#45;&gt;org.scalameta:dialects_2.11:1.0.0 -->
<g id="edge33" class="edge"><title>org.scalameta:quasiquotes_2.11:1.0.0&#45;&gt;org.scalameta:dialects_2.11:1.0.0</title>
<path fill="none" stroke="black" d="M212.948,-471.857C228.408,-441.261 257.712,-389.323 294,-354 400.072,-250.747 435.707,-220.808 578,-180 674.025,-152.461 791.864,-160.321 859.707,-168.612"/>
<polygon fill="black" stroke="black" points="859.389,-172.099 869.75,-169.887 860.271,-165.155 859.389,-172.099"/>
</g>
<!-- org.scalameta:quasiquotes_2.11:1.0.0&#45;&gt;org.scalameta:common_2.11:1.0.0 -->
<g id="edge41" class="edge"><title>org.scalameta:quasiquotes_2.11:1.0.0&#45;&gt;org.scalameta:common_2.11:1.0.0</title>
<path fill="none" stroke="black" d="M258.222,-506.34C353.904,-521.387 552.574,-550.2 722,-559 769.935,-561.49 782,-559.176 830,-559 890.446,-558.778 906.187,-566.722 966,-558 979.818,-555.985 994.402,-552.545 1008.03,-548.724"/>
<polygon fill="black" stroke="black" points="1009.14,-552.047 1017.76,-545.89 1007.18,-545.326 1009.14,-552.047"/>
</g>
<!-- org.scalameta:parsers_2.11:1.0.0&#45;&gt;org.scalameta:trees_2.11:1.0.0 -->
<g id="edge6" class="edge"><title>org.scalameta:parsers_2.11:1.0.0&#45;&gt;org.scalameta:trees_2.11:1.0.0</title>
<path fill="none" stroke="black" d="M400.068,-406.383C412.803,-411.296 426.806,-416.696 440.053,-421.806"/>
<polygon fill="black" stroke="black" points="438.947,-425.131 449.537,-425.464 441.466,-418.6 438.947,-425.131"/>
</g>
<!-- org.scalameta:parsers_2.11:1.0.0&#45;&gt;org.scalameta:tokenizers_2.11:1.0.0 -->
<g id="edge10" class="edge"><title>org.scalameta:parsers_2.11:1.0.0&#45;&gt;org.scalameta:tokenizers_2.11:1.0.0</title>
<path fill="none" stroke="black" d="M391.277,-363.981C408.877,-351.992 430.405,-337.545 450,-325 493.252,-297.309 543.183,-267.092 579.632,-245.348"/>
<polygon fill="black" stroke="black" points="581.796,-248.133 588.596,-240.008 578.214,-242.119 581.796,-248.133"/>
</g>
<!-- org.scalameta:tokens_2.11:1.0.0 -->
<g id="node12" class="node"><title>org.scalameta:tokens_2.11:1.0.0</title>
<g id="a_node12"><a xlink:href="https://github.com/scalameta/scalameta" xlink:title="org.scalameta/tokens_2.11/1.0.0" target="_blank">
<polygon fill="none" stroke="black" points="730,-336 730,-386 822,-386 822,-336 730,-336"/>
<text text-anchor="start" x="738" y="-371.8" font-family="Times,serif" font-size="14.00">org.scalameta</text>
<text text-anchor="start" x="741.5" y="-357.8" font-family="Times,serif" font-weight="bold" font-size="14.00">tokens_2.11</text>
<text text-anchor="start" x="762" y="-343.8" font-family="Times,serif" font-size="14.00">1.0.0</text>
</a>
</g>
</g>
<!-- org.scalameta:parsers_2.11:1.0.0&#45;&gt;org.scalameta:tokens_2.11:1.0.0 -->
<g id="edge19" class="edge"><title>org.scalameta:parsers_2.11:1.0.0&#45;&gt;org.scalameta:tokens_2.11:1.0.0</title>
<path fill="none" stroke="black" d="M400.307,-381.349C416.002,-378.958 433.735,-376.545 450,-375 544.4,-366.035 654.776,-362.808 719.563,-361.648"/>
<polygon fill="black" stroke="black" points="720.009,-365.141 729.949,-361.473 719.891,-358.142 720.009,-365.141"/>
</g>
<!-- org.scalameta:parsers_2.11:1.0.0&#45;&gt;org.scalameta:inputs_2.11:1.0.0 -->
<g id="edge22" class="edge"><title>org.scalameta:parsers_2.11:1.0.0&#45;&gt;org.scalameta:inputs_2.11:1.0.0</title>
<path fill="none" stroke="black" d="M400.37,-393.369C438.255,-397.075 493.675,-402.63 542,-408 654.919,-420.547 786.857,-436.853 859.657,-445.994"/>
<polygon fill="black" stroke="black" points="859.601,-449.514 869.96,-447.289 860.475,-442.569 859.601,-449.514"/>
</g>
<!-- org.scalameta:parsers_2.11:1.0.0&#45;&gt;org.scalameta:dialects_2.11:1.0.0 -->
<g id="edge28" class="edge"><title>org.scalameta:parsers_2.11:1.0.0&#45;&gt;org.scalameta:dialects_2.11:1.0.0</title>
<path fill="none" stroke="black" d="M371.186,-363.763C388.656,-337.696 418.271,-296.741 450,-267 500.185,-219.959 515.497,-208.72 578,-180 680.982,-132.68 718.933,-118.449 830,-141 840.117,-143.054 850.524,-146.354 860.434,-150.142"/>
<polygon fill="black" stroke="black" points="859.175,-153.408 869.759,-153.899 861.791,-146.915 859.175,-153.408"/>
</g>
<!-- org.scalameta:parsers_2.11:1.0.0&#45;&gt;org.scalameta:common_2.11:1.0.0 -->
<g id="edge34" class="edge"><title>org.scalameta:parsers_2.11:1.0.0&#45;&gt;org.scalameta:common_2.11:1.0.0</title>
<path fill="none" stroke="black" d="M374.278,-414.092C391.661,-434.719 419.174,-462.78 450,-477 638.538,-563.972 893.909,-549.19 1007.43,-536.778"/>
<polygon fill="black" stroke="black" points="1008.1,-540.225 1017.64,-535.625 1007.31,-533.269 1008.1,-540.225"/>
</g>
<!-- org.scalameta:trees_2.11:1.0.0&#45;&gt;org.scalameta:tokenizers_2.11:1.0.0 -->
<g id="edge11" class="edge"><title>org.scalameta:trees_2.11:1.0.0&#45;&gt;org.scalameta:tokenizers_2.11:1.0.0</title>
<path fill="none" stroke="black" d="M503.38,-417.709C513.969,-379.435 538.06,-305.877 578,-255 580.1,-252.325 582.42,-249.735 584.881,-247.247"/>
<polygon fill="black" stroke="black" points="587.643,-249.46 592.609,-240.101 582.89,-244.32 587.643,-249.46"/>
</g>
<!-- org.scalameta:trees_2.11:1.0.0&#45;&gt;org.scalameta:tokens_2.11:1.0.0 -->
<g id="edge21" class="edge"><title>org.scalameta:trees_2.11:1.0.0&#45;&gt;org.scalameta:tokens_2.11:1.0.0</title>
<path fill="none" stroke="black" d="M542.284,-429.643C590.85,-415.318 667.986,-392.565 720.005,-377.222"/>
<polygon fill="black" stroke="black" points="721.134,-380.538 729.735,-374.352 719.153,-373.824 721.134,-380.538"/>
</g>
<!-- org.scalameta:trees_2.11:1.0.0&#45;&gt;org.scalameta:inputs_2.11:1.0.0 -->
<g id="edge24" class="edge"><title>org.scalameta:trees_2.11:1.0.0&#45;&gt;org.scalameta:inputs_2.11:1.0.0</title>
<path fill="none" stroke="black" d="M542.13,-444.08C619.24,-445.924 776.101,-449.677 859.677,-451.676"/>
<polygon fill="black" stroke="black" points="859.661,-455.177 869.742,-451.917 859.828,-448.179 859.661,-455.177"/>
</g>
<!-- org.scalameta:trees_2.11:1.0.0&#45;&gt;org.scalameta:dialects_2.11:1.0.0 -->
<g id="edge30" class="edge"><title>org.scalameta:trees_2.11:1.0.0&#45;&gt;org.scalameta:dialects_2.11:1.0.0</title>
<path fill="none" stroke="black" d="M530.472,-417.71C544.909,-407.041 562.1,-394.65 578,-384 676.82,-317.809 796.204,-246.418 863.078,-207.17"/>
<polygon fill="black" stroke="black" points="864.903,-210.157 871.761,-202.082 861.364,-204.118 864.903,-210.157"/>
</g>
<!-- org.scalameta:trees_2.11:1.0.0&#45;&gt;org.scalameta:common_2.11:1.0.0 -->
<g id="edge37" class="edge"><title>org.scalameta:trees_2.11:1.0.0&#45;&gt;org.scalameta:common_2.11:1.0.0</title>
<path fill="none" stroke="black" d="M542.281,-453.735C553.887,-456.301 566.375,-458.902 578,-461 732.211,-488.832 915.606,-511.652 1007.45,-522.381"/>
<polygon fill="black" stroke="black" points="1007.32,-525.889 1017.66,-523.567 1008.13,-518.936 1007.32,-525.889"/>
</g>
<!-- com.lihaoyi:scalaparse_2.11:0.3.7 -->
<g id="node8" class="node"><title>com.lihaoyi:scalaparse_2.11:0.3.7</title>
<g id="a_node8"><a xlink:href="https://github.com/lihaoyi/scala-parser" xlink:title="com.lihaoyi/scalaparse_2.11/0.3.7" target="_blank">
<polygon fill="none" stroke="black" points="722.5,-0 722.5,-50 829.5,-50 829.5,-0 722.5,-0"/>
<text text-anchor="start" x="743" y="-35.8" font-family="Times,serif" font-size="14.00">com.lihaoyi</text>
<text text-anchor="start" x="730.5" y="-21.8" font-family="Times,serif" font-weight="bold" font-size="14.00">scalaparse_2.11</text>
<text text-anchor="start" x="762" y="-7.8" font-family="Times,serif" font-size="14.00">0.3.7</text>
</a>
</g>
</g>
<!-- org.scalameta:tokenizers_2.11:1.0.0&#45;&gt;com.lihaoyi:scalaparse_2.11:0.3.7 -->
<g id="edge13" class="edge"><title>org.scalameta:tokenizers_2.11:1.0.0&#45;&gt;com.lihaoyi:scalaparse_2.11:0.3.7</title>
<path fill="none" stroke="black" d="M651.857,-189.769C677.176,-155.891 722.215,-95.6284 750.241,-58.1287"/>
<polygon fill="black" stroke="black" points="753.109,-60.1377 756.292,-50.0323 747.502,-55.9471 753.109,-60.1377"/>
</g>
<!-- org.scalameta:tokenizers_2.11:1.0.0&#45;&gt;org.scalameta:tokens_2.11:1.0.0 -->
<g id="edge20" class="edge"><title>org.scalameta:tokenizers_2.11:1.0.0&#45;&gt;org.scalameta:tokens_2.11:1.0.0</title>
<path fill="none" stroke="black" d="M651.68,-240.377C668.755,-262.768 695.337,-295.687 722,-321 725.01,-323.857 728.221,-326.702 731.518,-329.481"/>
<polygon fill="black" stroke="black" points="729.345,-332.225 739.31,-335.822 733.763,-326.796 729.345,-332.225"/>
</g>
<!-- org.scalameta:tokenizers_2.11:1.0.0&#45;&gt;org.scalameta:inputs_2.11:1.0.0 -->
<g id="edge23" class="edge"><title>org.scalameta:tokenizers_2.11:1.0.0&#45;&gt;org.scalameta:inputs_2.11:1.0.0</title>
<path fill="none" stroke="black" d="M685.841,-236.52C728.19,-255.591 787.372,-286.522 830,-326 858.944,-352.805 882.941,-391.317 897.973,-418.893"/>
<polygon fill="black" stroke="black" points="894.926,-420.617 902.721,-427.793 901.102,-417.322 894.926,-420.617"/>
</g>
<!-- org.scalameta:tokenizers_2.11:1.0.0&#45;&gt;org.scalameta:dialects_2.11:1.0.0 -->
<g id="edge29" class="edge"><title>org.scalameta:tokenizers_2.11:1.0.0&#45;&gt;org.scalameta:dialects_2.11:1.0.0</title>
<path fill="none" stroke="black" d="M685.711,-207.897C735.375,-201.205 809.492,-191.217 859.917,-184.423"/>
<polygon fill="black" stroke="black" points="860.543,-187.87 869.986,-183.066 859.608,-180.933 860.543,-187.87"/>
</g>
<!-- org.scalameta:tokenizers_2.11:1.0.0&#45;&gt;org.scalameta:common_2.11:1.0.0 -->
<g id="edge35" class="edge"><title>org.scalameta:tokenizers_2.11:1.0.0&#45;&gt;org.scalameta:common_2.11:1.0.0</title>
<path fill="none" stroke="black" d="M685.641,-216.797C726.798,-220.003 784.47,-228.556 830,-251 938.565,-304.518 1016.6,-433.151 1049.15,-494.855"/>
<polygon fill="black" stroke="black" points="1046.09,-496.549 1053.81,-503.809 1052.3,-493.322 1046.09,-496.549"/>
</g>
<!-- com.lihaoyi:fastparse_2.11:0.3.7 -->
<g id="node9" class="node"><title>com.lihaoyi:fastparse_2.11:0.3.7</title>
<g id="a_node9"><a xlink:href="https://github.com/lihaoyi/scala-parser" xlink:title="com.lihaoyi/fastparse_2.11/0.3.7" target="_blank">
<polygon fill="none" stroke="black" points="866,-27 866,-77 966,-77 966,-27 866,-27"/>
<text text-anchor="start" x="883" y="-62.8" font-family="Times,serif" font-size="14.00">com.lihaoyi</text>
<text text-anchor="start" x="874" y="-48.8" font-family="Times,serif" font-weight="bold" font-size="14.00">fastparse_2.11</text>
<text text-anchor="start" x="902" y="-34.8" font-family="Times,serif" font-size="14.00">0.3.7</text>
</a>
</g>
</g>
<!-- com.lihaoyi:scalaparse_2.11:0.3.7&#45;&gt;com.lihaoyi:fastparse_2.11:0.3.7 -->
<g id="edge14" class="edge"><title>com.lihaoyi:scalaparse_2.11:0.3.7&#45;&gt;com.lihaoyi:fastparse_2.11:0.3.7</title>
<path fill="none" stroke="black" d="M829.566,-35.2846C838.106,-36.9555 847.003,-38.6963 855.691,-40.3961"/>
<polygon fill="black" stroke="black" points="855.274,-43.8808 865.76,-42.3661 856.618,-37.0111 855.274,-43.8808"/>
</g>
<!-- com.lihaoyi:sourcecode_2.11:0.1.1 -->
<g id="node11" class="node"><title>com.lihaoyi:sourcecode_2.11:0.1.1</title>
<g id="a_node11"><a xlink:href="https://github.com/lihaoyi/sourcecode" xlink:title="com.lihaoyi/sourcecode_2.11/0.1.1" target="_blank">
<polygon fill="none" stroke="black" points="1168.5,-27 1168.5,-77 1279.5,-77 1279.5,-27 1168.5,-27"/>
<text text-anchor="start" x="1191" y="-62.8" font-family="Times,serif" font-size="14.00">com.lihaoyi</text>
<text text-anchor="start" x="1176.5" y="-48.8" font-family="Times,serif" font-weight="bold" font-size="14.00">sourcecode_2.11</text>
<text text-anchor="start" x="1210" y="-34.8" font-family="Times,serif" font-size="14.00">0.1.1</text>
</a>
</g>
</g>
<!-- com.lihaoyi:scalaparse_2.11:0.3.7&#45;&gt;com.lihaoyi:sourcecode_2.11:0.1.1 -->
<g id="edge16" class="edge"><title>com.lihaoyi:scalaparse_2.11:0.3.7&#45;&gt;com.lihaoyi:sourcecode_2.11:0.1.1</title>
<path fill="none" stroke="black" d="M829.572,-17.1508C899.348,-8.24395 1026.08,2.66675 1132,-17 1140.71,-18.6165 1149.65,-21.0339 1158.38,-23.8573"/>
<polygon fill="black" stroke="black" points="1157.52,-27.2626 1168.12,-27.1965 1159.79,-20.6412 1157.52,-27.2626"/>
</g>
<!-- com.lihaoyi:fastparse&#45;utils_2.11:0.3.7 -->
<g id="node10" class="node"><title>com.lihaoyi:fastparse&#45;utils_2.11:0.3.7</title>
<g id="a_node10"><a xlink:href="https://github.com/lihaoyi/scala-parser" xlink:title="com.lihaoyi/fastparse&#45;utils_2.11/0.3.7" target="_blank">
<polygon fill="none" stroke="black" points="1002.5,-27 1002.5,-77 1131.5,-77 1131.5,-27 1002.5,-27"/>
<text text-anchor="start" x="1034" y="-62.8" font-family="Times,serif" font-size="14.00">com.lihaoyi</text>
<text text-anchor="start" x="1010.5" y="-48.8" font-family="Times,serif" font-weight="bold" font-size="14.00">fastparse&#45;utils_2.11</text>
<text text-anchor="start" x="1053" y="-34.8" font-family="Times,serif" font-size="14.00">0.3.7</text>
</a>
</g>
</g>
<!-- com.lihaoyi:fastparse_2.11:0.3.7&#45;&gt;com.lihaoyi:fastparse&#45;utils_2.11:0.3.7 -->
<g id="edge15" class="edge"><title>com.lihaoyi:fastparse_2.11:0.3.7&#45;&gt;com.lihaoyi:fastparse&#45;utils_2.11:0.3.7</title>
<path fill="none" stroke="black" d="M966.201,-52C974.487,-52 983.247,-52 991.997,-52"/>
<polygon fill="black" stroke="black" points="992.237,-55.5001 1002.24,-52 992.236,-48.5001 992.237,-55.5001"/>
</g>
<!-- com.lihaoyi:fastparse_2.11:0.3.7&#45;&gt;com.lihaoyi:sourcecode_2.11:0.1.1 -->
<g id="edge18" class="edge"><title>com.lihaoyi:fastparse_2.11:0.3.7&#45;&gt;com.lihaoyi:sourcecode_2.11:0.1.1</title>
<path fill="none" stroke="black" d="M966.382,-75.4015C977.829,-79.7912 990.139,-83.7157 1002,-86 1058.74,-96.9262 1075.14,-96.2747 1132,-86 1140.68,-84.431 1149.62,-82.0836 1158.34,-79.3413"/>
<polygon fill="black" stroke="black" points="1159.69,-82.5808 1168.07,-76.0978 1157.47,-75.9401 1159.69,-82.5808"/>
</g>
<!-- com.lihaoyi:fastparse&#45;utils_2.11:0.3.7&#45;&gt;com.lihaoyi:sourcecode_2.11:0.1.1 -->
<g id="edge17" class="edge"><title>com.lihaoyi:fastparse&#45;utils_2.11:0.3.7&#45;&gt;com.lihaoyi:sourcecode_2.11:0.1.1</title>
<path fill="none" stroke="black" d="M1131.94,-52C1140.57,-52 1149.43,-52 1158.08,-52"/>
<polygon fill="black" stroke="black" points="1158.11,-55.5001 1168.11,-52 1158.11,-48.5001 1158.11,-55.5001"/>
</g>
<!-- org.scalameta:tokens_2.11:1.0.0&#45;&gt;org.scalameta:inputs_2.11:1.0.0 -->
<g id="edge26" class="edge"><title>org.scalameta:tokens_2.11:1.0.0&#45;&gt;org.scalameta:inputs_2.11:1.0.0</title>
<path fill="none" stroke="black" d="M814.709,-386.139C831.443,-397.295 851.292,-410.528 868.897,-422.265"/>
<polygon fill="black" stroke="black" points="867.075,-425.256 877.336,-427.891 870.957,-419.432 867.075,-425.256"/>
</g>
<!-- org.scalameta:tokens_2.11:1.0.0&#45;&gt;org.scalameta:dialects_2.11:1.0.0 -->
<g id="edge32" class="edge"><title>org.scalameta:tokens_2.11:1.0.0&#45;&gt;org.scalameta:dialects_2.11:1.0.0</title>
<path fill="none" stroke="black" d="M795.899,-335.801C820.296,-303.272 862.824,-246.568 889.909,-210.454"/>
<polygon fill="black" stroke="black" points="892.908,-212.289 896.108,-202.189 887.308,-208.089 892.908,-212.289"/>
</g>
<!-- org.scalameta:tokens_2.11:1.0.0&#45;&gt;org.scalameta:common_2.11:1.0.0 -->
<g id="edge40" class="edge"><title>org.scalameta:tokens_2.11:1.0.0&#45;&gt;org.scalameta:common_2.11:1.0.0</title>
<path fill="none" stroke="black" d="M822.268,-367.545C862.473,-374.944 921.574,-389.824 966,-418 997.546,-438.007 1025.25,-470.634 1043.45,-495.349"/>
<polygon fill="black" stroke="black" points="1040.79,-497.656 1049.48,-503.727 1046.48,-493.567 1040.79,-497.656"/>
</g>
<!-- org.scalameta:inputs_2.11:1.0.0&#45;&gt;org.scalameta:common_2.11:1.0.0 -->
<g id="edge42" class="edge"><title>org.scalameta:inputs_2.11:1.0.0&#45;&gt;org.scalameta:common_2.11:1.0.0</title>
<path fill="none" stroke="black" d="M962.109,-476.009C976.859,-483.532 993.439,-491.989 1008.95,-499.901"/>
<polygon fill="black" stroke="black" points="1007.44,-503.059 1017.94,-504.485 1010.62,-496.823 1007.44,-503.059"/>
</g>
<!-- org.scalameta:dialects_2.11:1.0.0&#45;&gt;org.scalameta:common_2.11:1.0.0 -->
<g id="edge39" class="edge"><title>org.scalameta:dialects_2.11:1.0.0&#45;&gt;org.scalameta:common_2.11:1.0.0</title>
<path fill="none" stroke="black" d="M953.157,-202.325C957.937,-206.805 962.413,-211.737 966,-217 1026.28,-305.462 1051.98,-432.48 1061.36,-493.554"/>
<polygon fill="black" stroke="black" points="1057.95,-494.438 1062.88,-503.819 1064.88,-493.415 1057.95,-494.438"/>
</g>
</g>
</svg>
