<?xml version="1.0" encoding="UTF-8" standalone="no"?>
<!DOCTYPE svg PUBLIC "-//W3C//DTD SVG 1.1//EN"
 "http://www.w3.org/Graphics/SVG/1.1/DTD/svg11.dtd">
<!-- Generated by graphviz version 2.36.0 (20140111.2315)
 -->
<!-- Title: scalaz 7.1.4 class diagram Pages: 1 -->
<svg width="1478pt" height="490pt"
 viewBox="0.00 0.00 1478.00 490.00" xmlns="http://www.w3.org/2000/svg" xmlns:xlink="http://www.w3.org/1999/xlink">
<g id="graph0" class="graph" transform="scale(1 1) rotate(0) translate(4 486)">
<title>scalaz 7.1.4 class diagram</title>
<polygon fill="white" stroke="none" points="-4,4 -4,-486 1474,-486 1474,4 -4,4"/>
<!-- Align -->
<g id="node1" class="node"><title>Align</title>
<g id="a_node1"><a xlink:href="https://github.com/scalaz/scalaz/tree/v7.1.4/core/src/main/scala/scalaz/Align.scala" xlink:title="scalaz.Align" target="_blank">
<polygon fill="#799f5a" stroke="black" points="78,-149 78,-185 132,-185 132,-149 78,-149"/>
<text text-anchor="middle" x="104.945" y="-162.8" font-family="Times,serif" font-size="14.00">Align</text>
</a>
</g>
</g>
<!-- Functor -->
<g id="node27" class="node"><title>Functor</title>
<g id="a_node27"><a xlink:href="https://github.com/scalaz/scalaz/tree/v7.1.4/core/src/main/scala/scalaz/Functor.scala" xlink:title="scalaz.Functor" target="_blank">
<polygon fill="#799f5a" stroke="black" points="256.224,-75 256.224,-111 315.776,-111 315.776,-75 256.224,-75"/>
<text text-anchor="middle" x="286" y="-88.8" font-family="Times,serif" font-size="14.00">Functor</text>
</a>
</g>
</g>
<!-- Align&#45;&gt;Functor -->
<g id="edge42" class="edge"><title>Align&#45;&gt;Functor</title>
<path fill="none" stroke="black" d="M132.374,-151.934C135.266,-150.562 138.18,-149.226 141,-148 176.192,-132.701 217.259,-117.662 246.686,-107.356"/>
<polygon fill="black" stroke="black" points="247.899,-110.64 256.194,-104.049 245.599,-104.028 247.899,-110.64"/>
</g>
<!-- Applicative -->
<g id="node2" class="node"><title>Applicative</title>
<g id="a_node2"><a xlink:href="https://github.com/scalaz/scalaz/tree/v7.1.4/core/src/main/scala/scalaz/Applicative.scala" xlink:title="scalaz.Applicative" target="_blank">
<polygon fill="#799f5a" stroke="black" points="193.345,-223 193.345,-259 274.655,-259 274.655,-223 193.345,-223"/>
<text text-anchor="middle" x="234" y="-236.8" font-family="Times,serif" font-size="14.00">Applicative</text>
</a>
</g>
</g>
<!-- Apply -->
<g id="node4" class="node"><title>Apply</title>
<g id="a_node4"><a xlink:href="https://github.com/scalaz/scalaz/tree/v7.1.4/core/src/main/scala/scalaz/Apply.scala" xlink:title="scalaz.Apply" target="_blank">
<polygon fill="#799f5a" stroke="black" points="222,-149 222,-185 276,-185 276,-149 222,-149"/>
<text text-anchor="middle" x="249" y="-162.8" font-family="Times,serif" font-size="14.00">Apply</text>
</a>
</g>
</g>
<!-- Applicative&#45;&gt;Apply -->
<g id="edge6" class="edge"><title>Applicative&#45;&gt;Apply</title>
<path fill="none" stroke="black" d="M237.555,-222.937C239.267,-214.719 241.362,-204.66 243.29,-195.406"/>
<polygon fill="black" stroke="black" points="246.753,-195.944 245.367,-185.441 239.9,-194.517 246.753,-195.944"/>
</g>
<!-- ApplicativePlus -->
<g id="node3" class="node"><title>ApplicativePlus</title>
<g id="a_node3"><a xlink:href="https://github.com/scalaz/scalaz/tree/v7.1.4/core/src/main/scala/scalaz/ApplicativePlus.scala" xlink:title="scalaz.ApplicativePlus" target="_blank">
<polygon fill="#799f5a" stroke="black" points="122.283,-297 122.283,-333 227.717,-333 227.717,-297 122.283,-297"/>
<text text-anchor="middle" x="175" y="-310.8" font-family="Times,serif" font-size="14.00">ApplicativePlus</text>
</a>
</g>
</g>
<!-- ApplicativePlus&#45;&gt;Applicative -->
<g id="edge3" class="edge"><title>ApplicativePlus&#45;&gt;Applicative</title>
<path fill="none" stroke="black" d="M188.982,-296.937C196.223,-288.1 205.209,-277.135 213.243,-267.331"/>
<polygon fill="black" stroke="black" points="216.077,-269.394 219.708,-259.441 210.663,-264.957 216.077,-269.394"/>
</g>
<!-- PlusEmpty -->
<g id="node42" class="node"><title>PlusEmpty</title>
<g id="a_node42"><a xlink:href="https://github.com/scalaz/scalaz/tree/v7.1.4/core/src/main/scala/scalaz/PlusEmpty.scala" xlink:title="scalaz.PlusEmpty" target="_blank">
<polygon fill="#799f5a" stroke="black" points="98.2725,-223 98.2725,-259 175.728,-259 175.728,-223 98.2725,-223"/>
<text text-anchor="middle" x="137" y="-236.8" font-family="Times,serif" font-size="14.00">PlusEmpty</text>
</a>
</g>
</g>
<!-- ApplicativePlus&#45;&gt;PlusEmpty -->
<g id="edge4" class="edge"><title>ApplicativePlus&#45;&gt;PlusEmpty</title>
<path fill="none" stroke="black" d="M165.995,-296.937C161.517,-288.454 156.005,-278.009 150.993,-268.513"/>
<polygon fill="black" stroke="black" points="153.968,-266.651 146.205,-259.441 147.777,-269.918 153.968,-266.651"/>
</g>
<!-- Apply&#45;&gt;Functor -->
<g id="edge2" class="edge"><title>Apply&#45;&gt;Functor</title>
<path fill="none" stroke="black" d="M257.768,-148.937C262.128,-140.454 267.495,-130.009 272.375,-120.513"/>
<polygon fill="black" stroke="black" points="275.58,-121.935 277.037,-111.441 269.354,-118.735 275.58,-121.935"/>
</g>
<!-- Arrow -->
<g id="node5" class="node"><title>Arrow</title>
<g id="a_node5"><a xlink:href="https://github.com/scalaz/scalaz/tree/v7.1.4/core/src/main/scala/scalaz/Arrow.scala" xlink:title="scalaz.Arrow" target="_blank">
<polygon fill="#799f5a" stroke="black" points="792,-445 792,-481 846,-481 846,-445 792,-445"/>
<text text-anchor="middle" x="818.772" y="-458.8" font-family="Times,serif" font-size="14.00">Arrow</text>
</a>
</g>
</g>
<!-- Category -->
<g id="node11" class="node"><title>Category</title>
<g id="a_node11"><a xlink:href="https://github.com/scalaz/scalaz/tree/v7.1.4/core/src/main/scala/scalaz/Category.scala" xlink:title="scalaz.Category" target="_blank">
<polygon fill="#799f5a" stroke="black" points="706.341,-371 706.341,-407 773.659,-407 773.659,-371 706.341,-371"/>
<text text-anchor="middle" x="740" y="-384.8" font-family="Times,serif" font-size="14.00">Category</text>
</a>
</g>
</g>
<!-- Arrow&#45;&gt;Category -->
<g id="edge39" class="edge"><title>Arrow&#45;&gt;Category</title>
<path fill="none" stroke="black" d="M800.278,-444.937C790.12,-435.679 777.4,-424.086 766.265,-413.938"/>
<polygon fill="black" stroke="black" points="768.61,-411.339 758.861,-407.19 763.895,-416.513 768.61,-411.339"/>
</g>
<!-- Profunctor -->
<g id="node44" class="node"><title>Profunctor</title>
<g id="a_node44"><a xlink:href="https://github.com/scalaz/scalaz/tree/v7.1.4/core/src/main/scala/scalaz/Profunctor.scala" xlink:title="scalaz.Profunctor" target="_blank">
<polygon fill="#799f5a" stroke="black" points="864.062,-371 864.062,-407 939.938,-407 939.938,-371 864.062,-371"/>
<text text-anchor="middle" x="902" y="-384.8" font-family="Times,serif" font-size="14.00">Profunctor</text>
</a>
</g>
</g>
<!-- Arrow&#45;&gt;Profunctor -->
<g id="edge38" class="edge"><title>Arrow&#45;&gt;Profunctor</title>
<path fill="none" stroke="black" d="M838.67,-444.937C849.342,-435.679 862.707,-424.086 874.405,-413.938"/>
<polygon fill="black" stroke="black" points="876.923,-416.387 882.184,-407.19 872.336,-411.099 876.923,-416.387"/>
</g>
<!-- Split -->
<g id="node45" class="node"><title>Split</title>
<g id="a_node45"><a xlink:href="https://github.com/scalaz/scalaz/tree/v7.1.4/core/src/main/scala/scalaz/Split.scala" xlink:title="scalaz.Split" target="_blank">
<polygon fill="#799f5a" stroke="black" points="792,-371 792,-407 846,-407 846,-371 792,-371"/>
<text text-anchor="middle" x="818.728" y="-384.8" font-family="Times,serif" font-size="14.00">Split</text>
</a>
</g>
</g>
<!-- Arrow&#45;&gt;Split -->
<g id="edge37" class="edge"><title>Arrow&#45;&gt;Split</title>
<path fill="none" stroke="black" d="M819,-444.937C819,-436.807 819,-426.876 819,-417.705"/>
<polygon fill="black" stroke="black" points="822.5,-417.441 819,-407.441 815.5,-417.441 822.5,-417.441"/>
</g>
<!-- Associative -->
<g id="node6" class="node"><title>Associative</title>
<g id="a_node6"><a xlink:href="https://github.com/scalaz/scalaz/tree/v7.1.4/core/src/main/scala/scalaz/Associative.scala" xlink:title="scalaz.Associative" target="_blank">
<polygon fill="#799f5a" stroke="black" points="957.341,-445 957.341,-481 1038.66,-481 1038.66,-445 957.341,-445"/>
<text text-anchor="middle" x="998" y="-458.8" font-family="Times,serif" font-size="14.00">Associative</text>
</a>
</g>
</g>
<!-- Bifoldable -->
<g id="node7" class="node"><title>Bifoldable</title>
<g id="a_node7"><a xlink:href="https://github.com/scalaz/scalaz/tree/v7.1.4/core/src/main/scala/scalaz/Bifoldable.scala" xlink:title="scalaz.Bifoldable" target="_blank">
<polygon fill="#799f5a" stroke="black" points="1010.45,-371 1010.45,-407 1085.55,-407 1085.55,-371 1010.45,-371"/>
<text text-anchor="middle" x="1048" y="-384.8" font-family="Times,serif" font-size="14.00">Bifoldable</text>
</a>
</g>
</g>
<!-- Bifunctor -->
<g id="node8" class="node"><title>Bifunctor</title>
<g id="a_node8"><a xlink:href="https://github.com/scalaz/scalaz/tree/v7.1.4/core/src/main/scala/scalaz/Bifunctor.scala" xlink:title="scalaz.Bifunctor" target="_blank">
<polygon fill="#799f5a" stroke="black" points="1103.17,-371 1103.17,-407 1172.83,-407 1172.83,-371 1103.17,-371"/>
<text text-anchor="middle" x="1138" y="-384.8" font-family="Times,serif" font-size="14.00">Bifunctor</text>
</a>
</g>
</g>
<!-- Bind -->
<g id="node9" class="node"><title>Bind</title>
<g id="a_node9"><a xlink:href="https://github.com/scalaz/scalaz/tree/v7.1.4/core/src/main/scala/scalaz/Bind.scala" xlink:title="scalaz.Bind" target="_blank">
<polygon fill="#799f5a" stroke="black" points="293,-223 293,-259 347,-259 347,-223 293,-223"/>
<text text-anchor="middle" x="319.614" y="-236.8" font-family="Times,serif" font-size="14.00">Bind</text>
</a>
</g>
</g>
<!-- Bind&#45;&gt;Apply -->
<g id="edge9" class="edge"><title>Bind&#45;&gt;Apply</title>
<path fill="none" stroke="black" d="M303.174,-222.937C294.286,-213.924 283.214,-202.696 273.401,-192.744"/>
<polygon fill="black" stroke="black" points="275.712,-190.104 266.198,-185.441 270.728,-195.019 275.712,-190.104"/>
</g>
<!-- Bitraverse -->
<g id="node10" class="node"><title>Bitraverse</title>
<g id="a_node10"><a xlink:href="https://github.com/scalaz/scalaz/tree/v7.1.4/core/src/main/scala/scalaz/Bitraverse.scala" xlink:title="scalaz.Bitraverse" target="_blank">
<polygon fill="#799f5a" stroke="black" points="1056.23,-445 1056.23,-481 1129.77,-481 1129.77,-445 1056.23,-445"/>
<text text-anchor="middle" x="1093" y="-458.8" font-family="Times,serif" font-size="14.00">Bitraverse</text>
</a>
</g>
</g>
<!-- Bitraverse&#45;&gt;Bifoldable -->
<g id="edge35" class="edge"><title>Bitraverse&#45;&gt;Bifoldable</title>
<path fill="none" stroke="black" d="M1082.34,-444.937C1076.92,-436.277 1070.23,-425.573 1064.2,-415.921"/>
<polygon fill="black" stroke="black" points="1067.17,-414.066 1058.9,-407.441 1061.23,-417.776 1067.17,-414.066"/>
</g>
<!-- Bitraverse&#45;&gt;Bifunctor -->
<g id="edge34" class="edge"><title>Bitraverse&#45;&gt;Bifunctor</title>
<path fill="none" stroke="black" d="M1103.66,-444.937C1109.08,-436.277 1115.77,-425.573 1121.8,-415.921"/>
<polygon fill="black" stroke="black" points="1124.77,-417.776 1127.1,-407.441 1118.83,-414.066 1124.77,-417.776"/>
</g>
<!-- Compose -->
<g id="node18" class="node"><title>Compose</title>
<g id="a_node18"><a xlink:href="https://github.com/scalaz/scalaz/tree/v7.1.4/core/src/main/scala/scalaz/Compose.scala" xlink:title="scalaz.Compose" target="_blank">
<polygon fill="#799f5a" stroke="black" points="745.555,-297 745.555,-333 814.445,-333 814.445,-297 745.555,-297"/>
<text text-anchor="middle" x="780" y="-310.8" font-family="Times,serif" font-size="14.00">Compose</text>
</a>
</g>
</g>
<!-- Category&#45;&gt;Compose -->
<g id="edge19" class="edge"><title>Category&#45;&gt;Compose</title>
<path fill="none" stroke="black" d="M749.479,-370.937C754.241,-362.365 760.116,-351.791 765.435,-342.217"/>
<polygon fill="black" stroke="black" points="768.514,-343.882 770.311,-333.441 762.395,-340.482 768.514,-343.882"/>
</g>
<!-- Choice -->
<g id="node12" class="node"><title>Choice</title>
<g id="a_node12"><a xlink:href="https://github.com/scalaz/scalaz/tree/v7.1.4/core/src/main/scala/scalaz/Choice.scala" xlink:title="scalaz.Choice" target="_blank">
<polygon fill="#799f5a" stroke="black" points="712.172,-445 712.172,-481 767.828,-481 767.828,-445 712.172,-445"/>
<text text-anchor="middle" x="740" y="-458.8" font-family="Times,serif" font-size="14.00">Choice</text>
</a>
</g>
</g>
<!-- Choice&#45;&gt;Category -->
<g id="edge36" class="edge"><title>Choice&#45;&gt;Category</title>
<path fill="none" stroke="black" d="M740,-444.937C740,-436.807 740,-426.876 740,-417.705"/>
<polygon fill="black" stroke="black" points="743.5,-417.441 740,-407.441 736.5,-417.441 743.5,-417.441"/>
</g>
<!-- Cobind -->
<g id="node13" class="node"><title>Cobind</title>
<g id="a_node13"><a xlink:href="https://github.com/scalaz/scalaz/tree/v7.1.4/core/src/main/scala/scalaz/Cobind.scala" xlink:title="scalaz.Cobind" target="_blank">
<polygon fill="#799f5a" stroke="black" points="294.386,-149 294.386,-185 351.614,-185 351.614,-149 294.386,-149"/>
<text text-anchor="middle" x="323" y="-162.8" font-family="Times,serif" font-size="14.00">Cobind</text>
</a>
</g>
</g>
<!-- Cobind&#45;&gt;Functor -->
<g id="edge11" class="edge"><title>Cobind&#45;&gt;Functor</title>
<path fill="none" stroke="black" d="M314.232,-148.937C309.872,-140.454 304.505,-130.009 299.625,-120.513"/>
<polygon fill="black" stroke="black" points="302.646,-118.735 294.963,-111.441 296.42,-121.935 302.646,-118.735"/>
</g>
<!-- Cohoist -->
<g id="node14" class="node"><title>Cohoist</title>
<g id="a_node14"><a xlink:href="https://github.com/scalaz/scalaz/tree/v7.1.4/core/src/main/scala/scalaz/ComonadTrans.scala" xlink:title="scalaz.Cohoist" target="_blank">
<polygon fill="#799f5a" stroke="black" points="1212.22,-445 1212.22,-481 1271.78,-481 1271.78,-445 1212.22,-445"/>
<text text-anchor="middle" x="1242" y="-458.8" font-family="Times,serif" font-size="14.00">Cohoist</text>
</a>
</g>
</g>
<!-- ComonadTrans -->
<g id="node17" class="node"><title>ComonadTrans</title>
<g id="a_node17"><a xlink:href="https://github.com/scalaz/scalaz/tree/v7.1.4/core/src/main/scala/scalaz/ComonadTrans.scala" xlink:title="scalaz.ComonadTrans" target="_blank">
<polygon fill="#799f5a" stroke="black" points="1191.08,-371 1191.08,-407 1292.92,-407 1292.92,-371 1191.08,-371"/>
<text text-anchor="middle" x="1242" y="-384.8" font-family="Times,serif" font-size="14.00">ComonadTrans</text>
</a>
</g>
</g>
<!-- Cohoist&#45;&gt;ComonadTrans -->
<g id="edge43" class="edge"><title>Cohoist&#45;&gt;ComonadTrans</title>
<path fill="none" stroke="black" d="M1242,-444.937C1242,-436.807 1242,-426.876 1242,-417.705"/>
<polygon fill="black" stroke="black" points="1245.5,-417.441 1242,-407.441 1238.5,-417.441 1245.5,-417.441"/>
</g>
<!-- Comonad -->
<g id="node15" class="node"><title>Comonad</title>
<g id="a_node15"><a xlink:href="https://github.com/scalaz/scalaz/tree/v7.1.4/core/src/main/scala/scalaz/Comonad.scala" xlink:title="scalaz.Comonad" target="_blank">
<polygon fill="#799f5a" stroke="black" points="368.779,-223 368.779,-259 439.221,-259 439.221,-223 368.779,-223"/>
<text text-anchor="middle" x="404" y="-236.8" font-family="Times,serif" font-size="14.00">Comonad</text>
</a>
</g>
</g>
<!-- Comonad&#45;&gt;Cobind -->
<g id="edge10" class="edge"><title>Comonad&#45;&gt;Cobind</title>
<path fill="none" stroke="black" d="M384.804,-222.937C374.389,-213.679 361.346,-202.086 349.93,-191.938"/>
<polygon fill="black" stroke="black" points="352.138,-189.218 342.339,-185.19 347.488,-194.45 352.138,-189.218"/>
</g>
<!-- ComonadStore -->
<g id="node16" class="node"><title>ComonadStore</title>
<g id="a_node16"><a xlink:href="https://github.com/scalaz/scalaz/tree/v7.1.4/core/src/main/scala/scalaz/ComonadStore.scala" xlink:title="scalaz.ComonadStore" target="_blank">
<polygon fill="#799f5a" stroke="black" points="362.003,-297 362.003,-333 461.997,-333 461.997,-297 362.003,-297"/>
<text text-anchor="middle" x="412" y="-310.8" font-family="Times,serif" font-size="14.00">ComonadStore</text>
</a>
</g>
</g>
<!-- ComonadStore&#45;&gt;Comonad -->
<g id="edge23" class="edge"><title>ComonadStore&#45;&gt;Comonad</title>
<path fill="none" stroke="black" d="M410.104,-296.937C409.191,-288.719 408.073,-278.66 407.045,-269.406"/>
<polygon fill="black" stroke="black" points="410.521,-268.993 405.938,-259.441 403.564,-269.766 410.521,-268.993"/>
</g>
<!-- Contravariant -->
<g id="node19" class="node"><title>Contravariant</title>
<g id="a_node19"><a xlink:href="https://github.com/scalaz/scalaz/tree/v7.1.4/core/src/main/scala/scalaz/Contravariant.scala" xlink:title="scalaz.Contravariant" target="_blank">
<polygon fill="#799f5a" stroke="black" points="84.5137,-75 84.5137,-111 177.486,-111 177.486,-75 84.5137,-75"/>
<text text-anchor="middle" x="131" y="-88.8" font-family="Times,serif" font-size="14.00">Contravariant</text>
</a>
</g>
</g>
<!-- InvariantFunctor -->
<g id="node29" class="node"><title>InvariantFunctor</title>
<g id="a_node29"><a xlink:href="https://github.com/scalaz/scalaz/tree/v7.1.4/core/src/main/scala/scalaz/InvariantFunctor.scala" xlink:title="scalaz.InvariantFunctor" target="_blank">
<polygon fill="#799f5a" stroke="black" points="152.958,-1 152.958,-37 263.042,-37 263.042,-1 152.958,-1"/>
<text text-anchor="middle" x="208" y="-14.8" font-family="Times,serif" font-size="14.00">InvariantFunctor</text>
</a>
</g>
</g>
<!-- Contravariant&#45;&gt;InvariantFunctor -->
<g id="edge16" class="edge"><title>Contravariant&#45;&gt;InvariantFunctor</title>
<path fill="none" stroke="black" d="M149.248,-74.937C159.053,-65.7682 171.309,-54.3084 182.086,-44.2311"/>
<polygon fill="black" stroke="black" points="184.702,-46.5765 189.616,-37.19 179.921,-41.4635 184.702,-46.5765"/>
</g>
<!-- Distributive -->
<g id="node20" class="node"><title>Distributive</title>
<g id="a_node20"><a xlink:href="https://github.com/scalaz/scalaz/tree/v7.1.4/core/src/main/scala/scalaz/Distributive.scala" xlink:title="scalaz.Distributive" target="_blank">
<polygon fill="#799f5a" stroke="black" points="369.559,-149 369.559,-185 452.441,-185 452.441,-149 369.559,-149"/>
<text text-anchor="middle" x="411" y="-162.8" font-family="Times,serif" font-size="14.00">Distributive</text>
</a>
</g>
</g>
<!-- Distributive&#45;&gt;Functor -->
<g id="edge41" class="edge"><title>Distributive&#45;&gt;Functor</title>
<path fill="none" stroke="black" d="M381.377,-148.937C364.377,-139.145 342.841,-126.74 324.536,-116.197"/>
<polygon fill="black" stroke="black" points="326.256,-113.148 315.844,-111.19 322.762,-119.214 326.256,-113.148"/>
</g>
<!-- Divide -->
<g id="node21" class="node"><title>Divide</title>
<g id="a_node21"><a xlink:href="https://github.com/scalaz/scalaz/tree/v7.1.4/core/src/main/scala/scalaz/Divide.scala" xlink:title="scalaz.Divide" target="_blank">
<polygon fill="#799f5a" stroke="black" points="5.94824,-149 5.94824,-185 60.0518,-185 60.0518,-149 5.94824,-149"/>
<text text-anchor="middle" x="33" y="-162.8" font-family="Times,serif" font-size="14.00">Divide</text>
</a>
</g>
</g>
<!-- Divide&#45;&gt;Contravariant -->
<g id="edge17" class="edge"><title>Divide&#45;&gt;Contravariant</title>
<path fill="none" stroke="black" d="M56.2246,-148.937C69.0678,-139.501 85.2137,-127.639 99.2125,-117.354"/>
<polygon fill="black" stroke="black" points="101.616,-119.931 107.602,-111.19 97.4713,-114.29 101.616,-119.931"/>
</g>
<!-- Divisible -->
<g id="node22" class="node"><title>Divisible</title>
<g id="a_node22"><a xlink:href="https://github.com/scalaz/scalaz/tree/v7.1.4/core/src/main/scala/scalaz/Divisible.scala" xlink:title="scalaz.Divisible" target="_blank">
<polygon fill="#799f5a" stroke="black" points="-0.665527,-223 -0.665527,-259 66.6655,-259 66.6655,-223 -0.665527,-223"/>
<text text-anchor="middle" x="33" y="-236.8" font-family="Times,serif" font-size="14.00">Divisible</text>
</a>
</g>
</g>
<!-- Divisible&#45;&gt;Divide -->
<g id="edge32" class="edge"><title>Divisible&#45;&gt;Divide</title>
<path fill="none" stroke="black" d="M33,-222.937C33,-214.807 33,-204.876 33,-195.705"/>
<polygon fill="black" stroke="black" points="36.5001,-195.441 33,-185.441 29.5001,-195.441 36.5001,-195.441"/>
</g>
<!-- Enum -->
<g id="node23" class="node"><title>Enum</title>
<g id="a_node23"><a xlink:href="https://github.com/scalaz/scalaz/tree/v7.1.4/core/src/main/scala/scalaz/Enum.scala" xlink:title="scalaz.Enum" target="_blank">
<polygon fill="#799f5a" stroke="black" points="1311,-445 1311,-481 1365,-481 1365,-445 1311,-445"/>
<text text-anchor="middle" x="1337.72" y="-458.8" font-family="Times,serif" font-size="14.00">Enum</text>
</a>
</g>
</g>
<!-- Order -->
<g id="node40" class="node"><title>Order</title>
<g id="a_node40"><a xlink:href="https://github.com/scalaz/scalaz/tree/v7.1.4/core/src/main/scala/scalaz/Order.scala" xlink:title="scalaz.Order" target="_blank">
<polygon fill="#799f5a" stroke="black" points="1311,-371 1311,-407 1365,-407 1365,-371 1311,-371"/>
<text text-anchor="middle" x="1337.82" y="-384.8" font-family="Times,serif" font-size="14.00">Order</text>
</a>
</g>
</g>
<!-- Enum&#45;&gt;Order -->
<g id="edge33" class="edge"><title>Enum&#45;&gt;Order</title>
<path fill="none" stroke="black" d="M1338,-444.937C1338,-436.807 1338,-426.876 1338,-417.705"/>
<polygon fill="black" stroke="black" points="1341.5,-417.441 1338,-407.441 1334.5,-417.441 1341.5,-417.441"/>
</g>
<!-- Equal -->
<g id="node24" class="node"><title>Equal</title>
<g id="a_node24"><a xlink:href="https://github.com/scalaz/scalaz/tree/v7.1.4/core/src/main/scala/scalaz/Equal.scala" xlink:title="scalaz.Equal" target="_blank">
<polygon fill="#799f5a" stroke="black" points="1311,-297 1311,-333 1365,-333 1365,-297 1311,-297"/>
<text text-anchor="middle" x="1337.83" y="-310.8" font-family="Times,serif" font-size="14.00">Equal</text>
</a>
</g>
</g>
<!-- Foldable -->
<g id="node25" class="node"><title>Foldable</title>
<g id="a_node25"><a xlink:href="https://github.com/scalaz/scalaz/tree/v7.1.4/core/src/main/scala/scalaz/Foldable.scala" xlink:title="scalaz.Foldable" target="_blank">
<polygon fill="#799f5a" stroke="black" points="513.503,-75 513.503,-111 578.497,-111 578.497,-75 513.503,-75"/>
<text text-anchor="middle" x="546" y="-88.8" font-family="Times,serif" font-size="14.00">Foldable</text>
</a>
</g>
</g>
<!-- Foldable1 -->
<g id="node26" class="node"><title>Foldable1</title>
<g id="a_node26"><a xlink:href="https://github.com/scalaz/scalaz/tree/v7.1.4/core/src/main/scala/scalaz/Foldable1.scala" xlink:title="scalaz.Foldable1" target="_blank">
<polygon fill="#799f5a" stroke="black" points="553.003,-149 553.003,-185 624.997,-185 624.997,-149 553.003,-149"/>
<text text-anchor="middle" x="589" y="-162.8" font-family="Times,serif" font-size="14.00">Foldable1</text>
</a>
</g>
</g>
<!-- Foldable1&#45;&gt;Foldable -->
<g id="edge14" class="edge"><title>Foldable1&#45;&gt;Foldable</title>
<path fill="none" stroke="black" d="M578.81,-148.937C573.69,-140.365 567.375,-129.791 561.657,-120.217"/>
<polygon fill="black" stroke="black" points="564.548,-118.232 556.416,-111.441 558.539,-121.821 564.548,-118.232"/>
</g>
<!-- Functor&#45;&gt;InvariantFunctor -->
<g id="edge1" class="edge"><title>Functor&#45;&gt;InvariantFunctor</title>
<path fill="none" stroke="black" d="M267.515,-74.937C257.582,-65.7682 245.167,-54.3084 234.25,-44.2311"/>
<polygon fill="black" stroke="black" points="236.345,-41.401 226.623,-37.19 231.597,-46.5447 236.345,-41.401"/>
</g>
<!-- Hoist -->
<g id="node28" class="node"><title>Hoist</title>
<g id="a_node28"><a xlink:href="https://github.com/scalaz/scalaz/tree/v7.1.4/core/src/main/scala/scalaz/MonadTrans.scala" xlink:title="scalaz.Hoist" target="_blank">
<polygon fill="#799f5a" stroke="black" points="1400,-445 1400,-481 1454,-481 1454,-445 1400,-445"/>
<text text-anchor="middle" x="1426.67" y="-458.8" font-family="Times,serif" font-size="14.00">Hoist</text>
</a>
</g>
</g>
<!-- MonadTrans -->
<g id="node38" class="node"><title>MonadTrans</title>
<g id="a_node38"><a xlink:href="https://github.com/scalaz/scalaz/tree/v7.1.4/core/src/main/scala/scalaz/MonadTrans.scala" xlink:title="scalaz.MonadTrans" target="_blank">
<polygon fill="#799f5a" stroke="black" points="1383.47,-371 1383.47,-407 1470.53,-407 1470.53,-371 1383.47,-371"/>
<text text-anchor="middle" x="1427" y="-384.8" font-family="Times,serif" font-size="14.00">MonadTrans</text>
</a>
</g>
</g>
<!-- Hoist&#45;&gt;MonadTrans -->
<g id="edge44" class="edge"><title>Hoist&#45;&gt;MonadTrans</title>
<path fill="none" stroke="black" d="M1427,-444.937C1427,-436.807 1427,-426.876 1427,-417.705"/>
<polygon fill="black" stroke="black" points="1430.5,-417.441 1427,-407.441 1423.5,-417.441 1430.5,-417.441"/>
</g>
<!-- IsEmpty -->
<g id="node30" class="node"><title>IsEmpty</title>
<g id="a_node30"><a xlink:href="https://github.com/scalaz/scalaz/tree/v7.1.4/core/src/main/scala/scalaz/IsEmpty.scala" xlink:title="scalaz.IsEmpty" target="_blank">
<polygon fill="#799f5a" stroke="black" points="41.2793,-297 41.2793,-333 104.721,-333 104.721,-297 41.2793,-297"/>
<text text-anchor="middle" x="73" y="-310.8" font-family="Times,serif" font-size="14.00">IsEmpty</text>
</a>
</g>
</g>
<!-- IsEmpty&#45;&gt;PlusEmpty -->
<g id="edge26" class="edge"><title>IsEmpty&#45;&gt;PlusEmpty</title>
<path fill="none" stroke="black" d="M88.1671,-296.937C96.1005,-288.012 105.964,-276.916 114.745,-267.037"/>
<polygon fill="black" stroke="black" points="117.469,-269.24 121.497,-259.441 112.238,-264.59 117.469,-269.24"/>
</g>
<!-- Monad -->
<g id="node31" class="node"><title>Monad</title>
<g id="a_node31"><a xlink:href="https://github.com/scalaz/scalaz/tree/v7.1.4/core/src/main/scala/scalaz/Monad.scala" xlink:title="scalaz.Monad" target="_blank">
<polygon fill="#799f5a" stroke="black" points="288.169,-297 288.169,-333 343.831,-333 343.831,-297 288.169,-297"/>
<text text-anchor="middle" x="316" y="-310.8" font-family="Times,serif" font-size="14.00">Monad</text>
</a>
</g>
</g>
<!-- Monad&#45;&gt;Applicative -->
<g id="edge7" class="edge"><title>Monad&#45;&gt;Applicative</title>
<path fill="none" stroke="black" d="M296.567,-296.937C286.024,-287.679 272.82,-276.086 261.263,-265.938"/>
<polygon fill="black" stroke="black" points="263.401,-263.158 253.578,-259.19 258.783,-268.418 263.401,-263.158"/>
</g>
<!-- Monad&#45;&gt;Bind -->
<g id="edge8" class="edge"><title>Monad&#45;&gt;Bind</title>
<path fill="none" stroke="black" d="M316.948,-296.937C317.4,-288.807 317.951,-278.876 318.461,-269.705"/>
<polygon fill="black" stroke="black" points="321.971,-269.619 319.031,-259.441 314.982,-269.231 321.971,-269.619"/>
</g>
<!-- MonadError -->
<g id="node32" class="node"><title>MonadError</title>
<g id="a_node32"><a xlink:href="https://github.com/scalaz/scalaz/tree/v7.1.4/core/src/main/scala/scalaz/MonadError.scala" xlink:title="scalaz.MonadError" target="_blank">
<polygon fill="#799f5a" stroke="black" points="165.4,-371 165.4,-407 250.6,-407 250.6,-371 165.4,-371"/>
<text text-anchor="middle" x="208" y="-384.8" font-family="Times,serif" font-size="14.00">MonadError</text>
</a>
</g>
</g>
<!-- MonadError&#45;&gt;Monad -->
<g id="edge29" class="edge"><title>MonadError&#45;&gt;Monad</title>
<path fill="none" stroke="black" d="M233.594,-370.937C248.015,-361.323 266.214,-349.19 281.839,-338.774"/>
<polygon fill="black" stroke="black" points="283.836,-341.649 290.215,-333.19 279.953,-335.825 283.836,-341.649"/>
</g>
<!-- MonadListen -->
<g id="node33" class="node"><title>MonadListen</title>
<g id="a_node33"><a xlink:href="https://github.com/scalaz/scalaz/tree/v7.1.4/core/src/main/scala/scalaz/MonadListen.scala" xlink:title="scalaz.MonadListen" target="_blank">
<polygon fill="#799f5a" stroke="black" points="475.672,-445 475.672,-481 566.328,-481 566.328,-445 475.672,-445"/>
<text text-anchor="middle" x="521" y="-458.8" font-family="Times,serif" font-size="14.00">MonadListen</text>
</a>
</g>
</g>
<!-- MonadTell -->
<g id="node37" class="node"><title>MonadTell</title>
<g id="a_node37"><a xlink:href="https://github.com/scalaz/scalaz/tree/v7.1.4/core/src/main/scala/scalaz/MonadTell.scala" xlink:title="scalaz.MonadTell" target="_blank">
<polygon fill="#799f5a" stroke="black" points="482.385,-371 482.385,-407 559.615,-407 559.615,-371 482.385,-371"/>
<text text-anchor="middle" x="521" y="-384.8" font-family="Times,serif" font-size="14.00">MonadTell</text>
</a>
</g>
</g>
<!-- MonadListen&#45;&gt;MonadTell -->
<g id="edge30" class="edge"><title>MonadListen&#45;&gt;MonadTell</title>
<path fill="none" stroke="black" d="M521,-444.937C521,-436.807 521,-426.876 521,-417.705"/>
<polygon fill="black" stroke="black" points="524.5,-417.441 521,-407.441 517.5,-417.441 524.5,-417.441"/>
</g>
<!-- MonadPlus -->
<g id="node34" class="node"><title>MonadPlus</title>
<g id="a_node34"><a xlink:href="https://github.com/scalaz/scalaz/tree/v7.1.4/core/src/main/scala/scalaz/MonadPlus.scala" xlink:title="scalaz.MonadPlus" target="_blank">
<polygon fill="#799f5a" stroke="black" points="68.1069,-371 68.1069,-407 147.893,-407 147.893,-371 68.1069,-371"/>
<text text-anchor="middle" x="108" y="-384.8" font-family="Times,serif" font-size="14.00">MonadPlus</text>
</a>
</g>
</g>
<!-- MonadPlus&#45;&gt;ApplicativePlus -->
<g id="edge22" class="edge"><title>MonadPlus&#45;&gt;ApplicativePlus</title>
<path fill="none" stroke="black" d="M123.878,-370.937C132.183,-362.012 142.509,-350.916 151.701,-341.037"/>
<polygon fill="black" stroke="black" points="154.52,-343.146 158.77,-333.441 149.396,-338.377 154.52,-343.146"/>
</g>
<!-- MonadPlus&#45;&gt;Monad -->
<g id="edge21" class="edge"><title>MonadPlus&#45;&gt;Monad</title>
<path fill="none" stroke="black" d="M148.036,-372.873C150.727,-371.891 153.401,-370.926 156,-370 197.798,-355.114 246.095,-338.956 278.599,-328.232"/>
<polygon fill="black" stroke="black" points="279.751,-331.538 288.155,-325.086 277.562,-324.889 279.751,-331.538"/>
</g>
<!-- MonadReader -->
<g id="node35" class="node"><title>MonadReader</title>
<g id="a_node35"><a xlink:href="https://github.com/scalaz/scalaz/tree/v7.1.4/core/src/main/scala/scalaz/MonadReader.scala" xlink:title="scalaz.MonadReader" target="_blank">
<polygon fill="#799f5a" stroke="black" points="268.348,-371 268.348,-407 363.652,-407 363.652,-371 268.348,-371"/>
<text text-anchor="middle" x="316" y="-384.8" font-family="Times,serif" font-size="14.00">MonadReader</text>
</a>
</g>
</g>
<!-- MonadReader&#45;&gt;Monad -->
<g id="edge27" class="edge"><title>MonadReader&#45;&gt;Monad</title>
<path fill="none" stroke="black" d="M316,-370.937C316,-362.807 316,-352.876 316,-343.705"/>
<polygon fill="black" stroke="black" points="319.5,-343.441 316,-333.441 312.5,-343.441 319.5,-343.441"/>
</g>
<!-- MonadState -->
<g id="node36" class="node"><title>MonadState</title>
<g id="a_node36"><a xlink:href="https://github.com/scalaz/scalaz/tree/v7.1.4/core/src/main/scala/scalaz/MonadState.scala" xlink:title="scalaz.MonadState" target="_blank">
<polygon fill="#799f5a" stroke="black" points="381.172,-371 381.172,-407 464.828,-407 464.828,-371 381.172,-371"/>
<text text-anchor="middle" x="423" y="-384.8" font-family="Times,serif" font-size="14.00">MonadState</text>
</a>
</g>
</g>
<!-- MonadState&#45;&gt;Monad -->
<g id="edge28" class="edge"><title>MonadState&#45;&gt;Monad</title>
<path fill="none" stroke="black" d="M397.642,-370.937C383.355,-361.323 365.325,-349.19 349.844,-338.774"/>
<polygon fill="black" stroke="black" points="351.797,-335.869 341.546,-333.19 347.889,-341.677 351.797,-335.869"/>
</g>
<!-- MonadTell&#45;&gt;Monad -->
<g id="edge15" class="edge"><title>MonadTell&#45;&gt;Monad</title>
<path fill="none" stroke="black" d="M482.308,-373.235C479.168,-372.115 476.036,-371.023 473,-370 423.121,-353.187 406.663,-354.082 353.653,-333.949"/>
<polygon fill="black" stroke="black" points="354.662,-330.586 344.073,-330.236 352.132,-337.113 354.662,-330.586"/>
</g>
<!-- Nondeterminism -->
<g id="node39" class="node"><title>Nondeterminism</title>
<g id="a_node39"><a xlink:href="https://github.com/scalaz/scalaz/tree/v7.1.4/core/src/main/scala/scalaz/Nondeterminism.scala" xlink:title="scalaz.Nondeterminism" target="_blank">
<polygon fill="#799f5a" stroke="black" points="577.952,-371 577.952,-407 688.048,-407 688.048,-371 577.952,-371"/>
<text text-anchor="middle" x="633" y="-384.8" font-family="Times,serif" font-size="14.00">Nondeterminism</text>
</a>
</g>
</g>
<!-- Nondeterminism&#45;&gt;Monad -->
<g id="edge31" class="edge"><title>Nondeterminism&#45;&gt;Monad</title>
<path fill="none" stroke="black" d="M577.78,-372.286C574.479,-371.479 571.201,-370.709 568,-370 476.456,-349.719 447.169,-362.6 353.512,-333.653"/>
<polygon fill="black" stroke="black" points="354.527,-330.303 343.937,-330.619 352.413,-336.976 354.527,-330.303"/>
</g>
<!-- Order&#45;&gt;Equal -->
<g id="edge18" class="edge"><title>Order&#45;&gt;Equal</title>
<path fill="none" stroke="black" d="M1338,-370.937C1338,-362.807 1338,-352.876 1338,-343.705"/>
<polygon fill="black" stroke="black" points="1341.5,-343.441 1338,-333.441 1334.5,-343.441 1341.5,-343.441"/>
</g>
<!-- Plus -->
<g id="node41" class="node"><title>Plus</title>
<g id="a_node41"><a xlink:href="https://github.com/scalaz/scalaz/tree/v7.1.4/core/src/main/scala/scalaz/Plus.scala" xlink:title="scalaz.Plus" target="_blank">
<polygon fill="#799f5a" stroke="black" points="150,-149 150,-185 204,-185 204,-149 150,-149"/>
<text text-anchor="middle" x="176.562" y="-162.8" font-family="Times,serif" font-size="14.00">Plus</text>
</a>
</g>
</g>
<!-- PlusEmpty&#45;&gt;Plus -->
<g id="edge5" class="edge"><title>PlusEmpty&#45;&gt;Plus</title>
<path fill="none" stroke="black" d="M146.479,-222.937C151.241,-214.365 157.116,-203.791 162.435,-194.217"/>
<polygon fill="black" stroke="black" points="165.514,-195.882 167.311,-185.441 159.395,-192.482 165.514,-195.882"/>
</g>
<!-- ProChoice -->
<g id="node43" class="node"><title>ProChoice</title>
<g id="a_node43"><a xlink:href="https://github.com/scalaz/scalaz/tree/v7.1.4/core/src/main/scala/scalaz/ProChoice.scala" xlink:title="scalaz.ProChoice" target="_blank">
<polygon fill="#799f5a" stroke="black" points="864.448,-445 864.448,-481 939.552,-481 939.552,-445 864.448,-445"/>
<text text-anchor="middle" x="902" y="-458.8" font-family="Times,serif" font-size="14.00">ProChoice</text>
</a>
</g>
</g>
<!-- ProChoice&#45;&gt;Profunctor -->
<g id="edge40" class="edge"><title>ProChoice&#45;&gt;Profunctor</title>
<path fill="none" stroke="black" d="M902,-444.937C902,-436.807 902,-426.876 902,-417.705"/>
<polygon fill="black" stroke="black" points="905.5,-417.441 902,-407.441 898.5,-417.441 905.5,-417.441"/>
</g>
<!-- Split&#45;&gt;Compose -->
<g id="edge20" class="edge"><title>Split&#45;&gt;Compose</title>
<path fill="none" stroke="black" d="M809.758,-370.937C805.162,-362.454 799.505,-352.009 794.361,-342.513"/>
<polygon fill="black" stroke="black" points="797.287,-340.567 789.447,-333.441 791.132,-343.901 797.287,-340.567"/>
</g>
<!-- Traverse -->
<g id="node46" class="node"><title>Traverse</title>
<g id="a_node46"><a xlink:href="https://github.com/scalaz/scalaz/tree/v7.1.4/core/src/main/scala/scalaz/Traverse.scala" xlink:title="scalaz.Traverse" target="_blank">
<polygon fill="#799f5a" stroke="black" points="470.76,-149 470.76,-185 535.24,-185 535.24,-149 470.76,-149"/>
<text text-anchor="middle" x="503" y="-162.8" font-family="Times,serif" font-size="14.00">Traverse</text>
</a>
</g>
</g>
<!-- Traverse&#45;&gt;Foldable -->
<g id="edge13" class="edge"><title>Traverse&#45;&gt;Foldable</title>
<path fill="none" stroke="black" d="M513.19,-148.937C518.31,-140.365 524.625,-129.791 530.343,-120.217"/>
<polygon fill="black" stroke="black" points="533.461,-121.821 535.584,-111.441 527.452,-118.232 533.461,-121.821"/>
</g>
<!-- Traverse&#45;&gt;Functor -->
<g id="edge12" class="edge"><title>Traverse&#45;&gt;Functor</title>
<path fill="none" stroke="black" d="M470.577,-151.703C467.359,-150.406 464.127,-149.149 461,-148 415.365,-131.234 361.813,-115.231 326.081,-105.062"/>
<polygon fill="black" stroke="black" points="326.62,-101.577 316.045,-102.225 324.717,-108.313 326.62,-101.577"/>
</g>
<!-- Traverse1 -->
<g id="node47" class="node"><title>Traverse1</title>
<g id="a_node47"><a xlink:href="https://github.com/scalaz/scalaz/tree/v7.1.4/core/src/main/scala/scalaz/Traverse1.scala" xlink:title="scalaz.Traverse1" target="_blank">
<polygon fill="#799f5a" stroke="black" points="510.26,-223 510.26,-259 581.74,-259 581.74,-223 510.26,-223"/>
<text text-anchor="middle" x="546" y="-236.8" font-family="Times,serif" font-size="14.00">Traverse1</text>
</a>
</g>
</g>
<!-- Traverse1&#45;&gt;Foldable1 -->
<g id="edge25" class="edge"><title>Traverse1&#45;&gt;Foldable1</title>
<path fill="none" stroke="black" d="M556.19,-222.937C561.31,-214.365 567.625,-203.791 573.343,-194.217"/>
<polygon fill="black" stroke="black" points="576.461,-195.821 578.584,-185.441 570.452,-192.232 576.461,-195.821"/>
</g>
<!-- Traverse1&#45;&gt;Traverse -->
<g id="edge24" class="edge"><title>Traverse1&#45;&gt;Traverse</title>
<path fill="none" stroke="black" d="M535.81,-222.937C530.69,-214.365 524.375,-203.791 518.657,-194.217"/>
<polygon fill="black" stroke="black" points="521.548,-192.232 513.416,-185.441 515.539,-195.821 521.548,-192.232"/>
</g>
</g>
</svg>
