<?xml version="1.0" encoding="UTF-8" standalone="no"?>
<!DOCTYPE svg PUBLIC "-//W3C//DTD SVG 1.1//EN"
 "http://www.w3.org/Graphics/SVG/1.1/DTD/svg11.dtd">
<!-- Generated by graphviz version 2.36.0 (20140111.2315)
 -->
<!-- Title: diagram Pages: 1 -->
<svg width="695pt" height="434pt"
 viewBox="0.00 0.00 695.00 434.00" xmlns="http://www.w3.org/2000/svg" xmlns:xlink="http://www.w3.org/1999/xlink">
<g id="graph0" class="graph" transform="scale(1 1) rotate(0) translate(4 430)">
<title>diagram</title>
<polygon fill="white" stroke="none" points="-4,4 -4,-430 691,-430 691,4 -4,4"/>
<!-- scalaz.Applicative -->
<g id="node1" class="node"><title>scalaz.Applicative</title>
<g id="a_node1"><a xlink:href="https://github.com/scalaz/scalaz/tree/7f5bbf571/core/src/main/scala/scalaz/Applicative.scala" xlink:title="scalaz.Applicative" target="_blank">
<polygon fill="#799f5a" stroke="black" points="295.675,-198.5 295.675,-227.5 358.325,-227.5 358.325,-198.5 295.675,-198.5"/>
<text text-anchor="middle" x="327" y="-210" font-family="Times,serif" font-size="10.00">Applicative</text>
</a>
</g>
</g>
<!-- scalaz.ApplicativeDivisible -->
<g id="node2" class="node"><title>scalaz.ApplicativeDivisible</title>
<g id="a_node2"><a xlink:href="https://github.com/scalaz/scalaz/tree/7f5bbf571/core/src/main/scala/scalaz/ApplicativeDivisible.scala" xlink:title="scalaz.ApplicativeDivisible" target="_blank">
<polygon fill="#799f5a" stroke="black" points="243.342,-132.5 243.342,-161.5 342.658,-161.5 342.658,-132.5 243.342,-132.5"/>
<text text-anchor="middle" x="293" y="-144" font-family="Times,serif" font-size="10.00">ApplicativeDivisible</text>
</a>
</g>
</g>
<!-- scalaz.Applicative&#45;&gt;scalaz.ApplicativeDivisible -->
<g id="edge11" class="edge"><title>scalaz.Applicative&#45;&gt;scalaz.ApplicativeDivisible</title>
<path fill="none" stroke="black" d="M319.789,-198.427C315.507,-190.366 309.968,-179.939 305.038,-170.66"/>
<polygon fill="black" stroke="black" points="307.983,-168.742 300.2,-161.553 301.801,-172.026 307.983,-168.742"/>
</g>
<!-- scalaz.Apply -->
<g id="node4" class="node"><title>scalaz.Apply</title>
<g id="a_node4"><a xlink:href="https://github.com/scalaz/scalaz/tree/7f5bbf571/core/src/main/scala/scalaz/Apply.scala" xlink:title="scalaz.Apply" target="_blank">
<polygon fill="#799f5a" stroke="black" points="368.5,-132.5 368.5,-161.5 409.5,-161.5 409.5,-132.5 368.5,-132.5"/>
<text text-anchor="middle" x="389" y="-144" font-family="Times,serif" font-size="10.00">Apply</text>
</a>
</g>
</g>
<!-- scalaz.Applicative&#45;&gt;scalaz.Apply -->
<g id="edge10" class="edge"><title>scalaz.Applicative&#45;&gt;scalaz.Apply</title>
<path fill="none" stroke="black" d="M340.149,-198.427C348.451,-189.857 359.344,-178.612 368.737,-168.916"/>
<polygon fill="black" stroke="black" points="371.426,-171.171 375.87,-161.553 366.399,-166.3 371.426,-171.171"/>
</g>
<!-- scalaz.ApplyDivide -->
<g id="node5" class="node"><title>scalaz.ApplyDivide</title>
<g id="a_node5"><a xlink:href="https://github.com/scalaz/scalaz/tree/7f5bbf571/core/src/main/scala/scalaz/ApplyDivide.scala" xlink:title="scalaz.ApplyDivide" target="_blank">
<polygon fill="#799f5a" stroke="black" points="258.892,-66.5 258.892,-95.5 327.108,-95.5 327.108,-66.5 258.892,-66.5"/>
<text text-anchor="middle" x="293" y="-78" font-family="Times,serif" font-size="10.00">ApplyDivide</text>
</a>
</g>
</g>
<!-- scalaz.ApplicativeDivisible&#45;&gt;scalaz.ApplyDivide -->
<g id="edge13" class="edge"><title>scalaz.ApplicativeDivisible&#45;&gt;scalaz.ApplyDivide</title>
<path fill="none" stroke="black" d="M293,-132.427C293,-124.706 293,-114.813 293,-105.838"/>
<polygon fill="black" stroke="black" points="296.5,-105.553 293,-95.5532 289.5,-105.553 296.5,-105.553"/>
</g>
<!-- scalaz.ApplicativePlus -->
<g id="node3" class="node"><title>scalaz.ApplicativePlus</title>
<g id="a_node3"><a xlink:href="https://github.com/scalaz/scalaz/tree/7f5bbf571/core/src/main/scala/scalaz/ApplicativePlus.scala" xlink:title="scalaz.ApplicativePlus" target="_blank">
<polygon fill="#799f5a" stroke="black" points="436.059,-264.5 436.059,-293.5 515.941,-293.5 515.941,-264.5 436.059,-264.5"/>
<text text-anchor="middle" x="476" y="-276" font-family="Times,serif" font-size="10.00">ApplicativePlus</text>
</a>
</g>
</g>
<!-- scalaz.ApplicativePlus&#45;&gt;scalaz.Applicative -->
<g id="edge3" class="edge"><title>scalaz.ApplicativePlus&#45;&gt;scalaz.Applicative</title>
<path fill="none" stroke="black" d="M444.401,-264.427C422.078,-254.839 391.961,-241.903 367.819,-231.533"/>
<polygon fill="black" stroke="black" points="369.123,-228.284 358.554,-227.553 366.36,-234.716 369.123,-228.284"/>
</g>
<!-- scalaz.PlusEmpty -->
<g id="node34" class="node"><title>scalaz.PlusEmpty</title>
<g id="a_node34"><a xlink:href="https://github.com/scalaz/scalaz/tree/7f5bbf571/core/src/main/scala/scalaz/PlusEmpty.scala" xlink:title="scalaz.PlusEmpty" target="_blank">
<polygon fill="#799f5a" stroke="black" points="446.052,-198.5 446.052,-227.5 505.948,-227.5 505.948,-198.5 446.052,-198.5"/>
<text text-anchor="middle" x="476" y="-210" font-family="Times,serif" font-size="10.00">PlusEmpty</text>
</a>
</g>
</g>
<!-- scalaz.ApplicativePlus&#45;&gt;scalaz.PlusEmpty -->
<g id="edge4" class="edge"><title>scalaz.ApplicativePlus&#45;&gt;scalaz.PlusEmpty</title>
<path fill="none" stroke="black" d="M476,-264.427C476,-256.706 476,-246.813 476,-237.838"/>
<polygon fill="black" stroke="black" points="479.5,-237.553 476,-227.553 472.5,-237.553 479.5,-237.553"/>
</g>
<!-- scalaz.Apply&#45;&gt;scalaz.ApplyDivide -->
<g id="edge8" class="edge"><title>scalaz.Apply&#45;&gt;scalaz.ApplyDivide</title>
<path fill="none" stroke="black" d="M368.641,-132.427C355.022,-123.348 336.9,-111.267 321.809,-101.206"/>
<polygon fill="black" stroke="black" points="323.592,-98.1881 313.33,-95.5532 319.709,-104.012 323.592,-98.1881"/>
</g>
<!-- scalaz.Functor -->
<g id="node22" class="node"><title>scalaz.Functor</title>
<g id="a_node22"><a xlink:href="https://github.com/scalaz/scalaz/tree/7f5bbf571/core/src/main/scala/scalaz/Functor.scala" xlink:title="scalaz.Functor" target="_blank">
<polygon fill="#799f5a" stroke="black" points="432.446,-66.5 432.446,-95.5 479.554,-95.5 479.554,-66.5 432.446,-66.5"/>
<text text-anchor="middle" x="456" y="-78" font-family="Times,serif" font-size="10.00">Functor</text>
</a>
</g>
</g>
<!-- scalaz.Apply&#45;&gt;scalaz.Functor -->
<g id="edge7" class="edge"><title>scalaz.Apply&#45;&gt;scalaz.Functor</title>
<path fill="none" stroke="black" d="M403.209,-132.427C412.27,-123.772 424.186,-112.389 434.404,-102.629"/>
<polygon fill="black" stroke="black" points="436.998,-104.991 441.812,-95.5532 432.163,-99.9296 436.998,-104.991"/>
</g>
<!-- scalaz.InvariantFunctor -->
<g id="node23" class="node"><title>scalaz.InvariantFunctor</title>
<g id="a_node23"><a xlink:href="https://github.com/scalaz/scalaz/tree/7f5bbf571/core/src/main/scala/scalaz/InvariantFunctor.scala" xlink:title="scalaz.InvariantFunctor" target="_blank">
<polygon fill="#799f5a" stroke="black" points="251.399,-0.5 251.399,-29.5 334.601,-29.5 334.601,-0.5 251.399,-0.5"/>
<text text-anchor="middle" x="293" y="-12" font-family="Times,serif" font-size="10.00">InvariantFunctor</text>
</a>
</g>
</g>
<!-- scalaz.ApplyDivide&#45;&gt;scalaz.InvariantFunctor -->
<g id="edge9" class="edge"><title>scalaz.ApplyDivide&#45;&gt;scalaz.InvariantFunctor</title>
<path fill="none" stroke="black" d="M293,-66.4272C293,-58.7057 293,-48.8128 293,-39.8378"/>
<polygon fill="black" stroke="black" points="296.5,-39.5532 293,-29.5532 289.5,-39.5532 296.5,-39.5532"/>
</g>
<!-- scalaz.Bind -->
<g id="node6" class="node"><title>scalaz.Bind</title>
<g id="a_node6"><a xlink:href="https://github.com/scalaz/scalaz/tree/7f5bbf571/core/src/main/scala/scalaz/Bind.scala" xlink:title="scalaz.Bind" target="_blank">
<polygon fill="#799f5a" stroke="black" points="376.276,-198.5 376.276,-227.5 411.724,-227.5 411.724,-198.5 376.276,-198.5"/>
<text text-anchor="middle" x="394" y="-210" font-family="Times,serif" font-size="10.00">Bind</text>
</a>
</g>
</g>
<!-- scalaz.Bind&#45;&gt;scalaz.Apply -->
<g id="edge12" class="edge"><title>scalaz.Bind&#45;&gt;scalaz.Apply</title>
<path fill="none" stroke="black" d="M392.94,-198.427C392.33,-190.621 391.546,-180.595 390.839,-171.542"/>
<polygon fill="black" stroke="black" points="394.327,-171.25 390.059,-161.553 387.348,-171.795 394.327,-171.25"/>
</g>
<!-- scalaz.BindRec -->
<g id="node7" class="node"><title>scalaz.BindRec</title>
<g id="a_node7"><a xlink:href="https://github.com/scalaz/scalaz/tree/7f5bbf571/core/src/main/scala/scalaz/BindRec.scala" xlink:title="scalaz.BindRec" target="_blank">
<polygon fill="#799f5a" stroke="black" points="367.502,-264.5 367.502,-293.5 418.498,-293.5 418.498,-264.5 367.502,-264.5"/>
<text text-anchor="middle" x="393" y="-276" font-family="Times,serif" font-size="10.00">BindRec</text>
</a>
</g>
</g>
<!-- scalaz.BindRec&#45;&gt;scalaz.Bind -->
<g id="edge40" class="edge"><title>scalaz.BindRec&#45;&gt;scalaz.Bind</title>
<path fill="none" stroke="black" d="M393.212,-264.427C393.333,-256.706 393.487,-246.813 393.628,-237.838"/>
<polygon fill="black" stroke="black" points="397.131,-237.607 393.788,-227.553 390.132,-237.497 397.131,-237.607"/>
</g>
<!-- scalaz.Coapplicative -->
<g id="node8" class="node"><title>scalaz.Coapplicative</title>
<g id="a_node8"><a xlink:href="https://github.com/scalaz/scalaz/tree/7f5bbf571/core/src/main/scala/scalaz/Coapplicative.scala" xlink:title="scalaz.Coapplicative" target="_blank">
<polygon fill="#799f5a" stroke="black" points="70.2314,-198.5 70.2314,-227.5 141.769,-227.5 141.769,-198.5 70.2314,-198.5"/>
<text text-anchor="middle" x="106" y="-210" font-family="Times,serif" font-size="10.00">Coapplicative</text>
</a>
</g>
</g>
<!-- scalaz.CoapplicativeCodivide -->
<g id="node9" class="node"><title>scalaz.CoapplicativeCodivide</title>
<g id="a_node9"><a xlink:href="https://github.com/scalaz/scalaz/tree/7f5bbf571/core/src/main/scala/scalaz/CoapplicativeCodivide.scala" xlink:title="scalaz.CoapplicativeCodivide" target="_blank">
<polygon fill="#799f5a" stroke="black" points="51.8989,-132.5 51.8989,-161.5 160.101,-161.5 160.101,-132.5 51.8989,-132.5"/>
<text text-anchor="middle" x="106" y="-144" font-family="Times,serif" font-size="10.00">CoapplicativeCodivide</text>
</a>
</g>
</g>
<!-- scalaz.Coapplicative&#45;&gt;scalaz.CoapplicativeCodivide -->
<g id="edge28" class="edge"><title>scalaz.Coapplicative&#45;&gt;scalaz.CoapplicativeCodivide</title>
<path fill="none" stroke="black" d="M106,-198.427C106,-190.706 106,-180.813 106,-171.838"/>
<polygon fill="black" stroke="black" points="109.5,-171.553 106,-161.553 102.5,-171.553 109.5,-171.553"/>
</g>
<!-- scalaz.Cobind -->
<g id="node10" class="node"><title>scalaz.Cobind</title>
<g id="a_node10"><a xlink:href="https://github.com/scalaz/scalaz/tree/7f5bbf571/core/src/main/scala/scalaz/Cobind.scala" xlink:title="scalaz.Cobind" target="_blank">
<polygon fill="#799f5a" stroke="black" points="500.276,-132.5 500.276,-161.5 545.724,-161.5 545.724,-132.5 500.276,-132.5"/>
<text text-anchor="middle" x="523" y="-144" font-family="Times,serif" font-size="10.00">Cobind</text>
</a>
</g>
</g>
<!-- scalaz.Cobind&#45;&gt;scalaz.Functor -->
<g id="edge15" class="edge"><title>scalaz.Cobind&#45;&gt;scalaz.Functor</title>
<path fill="none" stroke="black" d="M508.791,-132.427C499.73,-123.772 487.814,-112.389 477.596,-102.629"/>
<polygon fill="black" stroke="black" points="479.837,-99.9296 470.188,-95.5532 475.002,-104.991 479.837,-99.9296"/>
</g>
<!-- scalaz.Codivide -->
<g id="node11" class="node"><title>scalaz.Codivide</title>
<g id="a_node11"><a xlink:href="https://github.com/scalaz/scalaz/tree/7f5bbf571/core/src/main/scala/scalaz/Codivide.scala" xlink:title="scalaz.Codivide" target="_blank">
<polygon fill="#799f5a" stroke="black" points="-0.33252,-198.5 -0.33252,-227.5 52.3325,-227.5 52.3325,-198.5 -0.33252,-198.5"/>
<text text-anchor="middle" x="26" y="-210" font-family="Times,serif" font-size="10.00">Codivide</text>
</a>
</g>
</g>
<!-- scalaz.Codivide&#45;&gt;scalaz.CoapplicativeCodivide -->
<g id="edge23" class="edge"><title>scalaz.Codivide&#45;&gt;scalaz.CoapplicativeCodivide</title>
<path fill="none" stroke="black" d="M42.9659,-198.427C53.9967,-189.603 68.5726,-177.942 80.9293,-168.057"/>
<polygon fill="black" stroke="black" points="83.4362,-170.533 89.0585,-161.553 79.0634,-165.067 83.4362,-170.533"/>
</g>
<!-- scalaz.Comonad -->
<g id="node12" class="node"><title>scalaz.Comonad</title>
<g id="a_node12"><a xlink:href="https://github.com/scalaz/scalaz/tree/7f5bbf571/core/src/main/scala/scalaz/Comonad.scala" xlink:title="scalaz.Comonad" target="_blank">
<polygon fill="#799f5a" stroke="black" points="541.557,-198.5 541.557,-227.5 596.443,-227.5 596.443,-198.5 541.557,-198.5"/>
<text text-anchor="middle" x="569" y="-210" font-family="Times,serif" font-size="10.00">Comonad</text>
</a>
</g>
</g>
<!-- scalaz.Comonad&#45;&gt;scalaz.Cobind -->
<g id="edge14" class="edge"><title>scalaz.Comonad&#45;&gt;scalaz.Cobind</title>
<path fill="none" stroke="black" d="M559.245,-198.427C553.268,-190.112 545.481,-179.278 538.658,-169.784"/>
<polygon fill="black" stroke="black" points="541.42,-167.631 532.741,-161.553 535.736,-171.716 541.42,-167.631"/>
</g>
<!-- scalaz.ComonadStore -->
<g id="node13" class="node"><title>scalaz.ComonadStore</title>
<g id="a_node13"><a xlink:href="https://github.com/scalaz/scalaz/tree/7f5bbf571/core/src/main/scala/scalaz/ComonadStore.scala" xlink:title="scalaz.ComonadStore" target="_blank">
<polygon fill="#799f5a" stroke="black" points="602.002,-264.5 602.002,-293.5 677.998,-293.5 677.998,-264.5 602.002,-264.5"/>
<text text-anchor="middle" x="640" y="-276" font-family="Times,serif" font-size="10.00">ComonadStore</text>
</a>
</g>
</g>
<!-- scalaz.ComonadStore&#45;&gt;scalaz.Comonad -->
<g id="edge31" class="edge"><title>scalaz.ComonadStore&#45;&gt;scalaz.Comonad</title>
<path fill="none" stroke="black" d="M624.943,-264.427C615.247,-255.688 602.465,-244.166 591.567,-234.342"/>
<polygon fill="black" stroke="black" points="593.807,-231.649 584.036,-227.553 589.12,-236.848 593.807,-231.649"/>
</g>
<!-- scalaz.Contravariant -->
<g id="node14" class="node"><title>scalaz.Contravariant</title>
<g id="a_node14"><a xlink:href="https://github.com/scalaz/scalaz/tree/7f5bbf571/core/src/main/scala/scalaz/Contravariant.scala" xlink:title="scalaz.Contravariant" target="_blank">
<polygon fill="#799f5a" stroke="black" points="169.51,-66.5 169.51,-95.5 240.49,-95.5 240.49,-66.5 169.51,-66.5"/>
<text text-anchor="middle" x="205" y="-78" font-family="Times,serif" font-size="10.00">Contravariant</text>
</a>
</g>
</g>
<!-- scalaz.Contravariant&#45;&gt;scalaz.InvariantFunctor -->
<g id="edge20" class="edge"><title>scalaz.Contravariant&#45;&gt;scalaz.InvariantFunctor</title>
<path fill="none" stroke="black" d="M223.663,-66.4272C236.03,-57.433 252.448,-45.4924 266.204,-35.4883"/>
<polygon fill="black" stroke="black" points="268.336,-38.2655 274.364,-29.5532 264.218,-32.6044 268.336,-38.2655"/>
</g>
<!-- scalaz.ContravariantDerives -->
<g id="node15" class="node"><title>scalaz.ContravariantDerives</title>
<g id="a_node15"><a xlink:href="https://github.com/scalaz/scalaz/tree/7f5bbf571/core/src/main/scala/scalaz/ContravariantDerives.scala" xlink:title="scalaz.ContravariantDerives" target="_blank">
<polygon fill="#799f5a" stroke="black" points="80.9604,-264.5 80.9604,-293.5 183.04,-293.5 183.04,-264.5 80.9604,-264.5"/>
<text text-anchor="middle" x="132" y="-276" font-family="Times,serif" font-size="10.00">ContravariantDerives</text>
</a>
</g>
</g>
<!-- scalaz.ContravariantDerives&#45;&gt;scalaz.Codivide -->
<g id="edge42" class="edge"><title>scalaz.ContravariantDerives&#45;&gt;scalaz.Codivide</title>
<path fill="none" stroke="black" d="M109.52,-264.427C94.3423,-255.263 74.0988,-243.041 57.3431,-232.924"/>
<polygon fill="black" stroke="black" points="58.8172,-229.726 48.4475,-227.553 55.1991,-235.718 58.8172,-229.726"/>
</g>
<!-- scalaz.Derives -->
<g id="node17" class="node"><title>scalaz.Derives</title>
<g id="a_node17"><a xlink:href="https://github.com/scalaz/scalaz/tree/7f5bbf571/core/src/main/scala/scalaz/Derives.scala" xlink:title="scalaz.Derives" target="_blank">
<polygon fill="#799f5a" stroke="black" points="230.451,-198.5 230.451,-227.5 277.549,-227.5 277.549,-198.5 230.451,-198.5"/>
<text text-anchor="middle" x="254" y="-210" font-family="Times,serif" font-size="10.00">Derives</text>
</a>
</g>
</g>
<!-- scalaz.ContravariantDerives&#45;&gt;scalaz.Derives -->
<g id="edge41" class="edge"><title>scalaz.ContravariantDerives&#45;&gt;scalaz.Derives</title>
<path fill="none" stroke="black" d="M157.873,-264.427C176.35,-254.734 201.35,-241.62 221.223,-231.195"/>
<polygon fill="black" stroke="black" points="223.003,-234.213 230.233,-226.468 219.751,-228.014 223.003,-234.213"/>
</g>
<!-- scalaz.Divisible -->
<g id="node19" class="node"><title>scalaz.Divisible</title>
<g id="a_node19"><a xlink:href="https://github.com/scalaz/scalaz/tree/7f5bbf571/core/src/main/scala/scalaz/Divisible.scala" xlink:title="scalaz.Divisible" target="_blank">
<polygon fill="#799f5a" stroke="black" points="159.667,-198.5 159.667,-227.5 212.333,-227.5 212.333,-198.5 159.667,-198.5"/>
<text text-anchor="middle" x="186" y="-210" font-family="Times,serif" font-size="10.00">Divisible</text>
</a>
</g>
</g>
<!-- scalaz.ContravariantDerives&#45;&gt;scalaz.Divisible -->
<g id="edge43" class="edge"><title>scalaz.ContravariantDerives&#45;&gt;scalaz.Divisible</title>
<path fill="none" stroke="black" d="M143.452,-264.427C150.611,-255.942 159.983,-244.835 168.108,-235.205"/>
<polygon fill="black" stroke="black" points="170.791,-237.453 174.564,-227.553 165.441,-232.939 170.791,-237.453"/>
</g>
<!-- scalaz.CovariantDerives -->
<g id="node16" class="node"><title>scalaz.CovariantDerives</title>
<g id="a_node16"><a xlink:href="https://github.com/scalaz/scalaz/tree/7f5bbf571/core/src/main/scala/scalaz/CovariantDerives.scala" xlink:title="scalaz.CovariantDerives" target="_blank">
<polygon fill="#799f5a" stroke="black" points="200.734,-264.5 200.734,-293.5 287.266,-293.5 287.266,-264.5 200.734,-264.5"/>
<text text-anchor="middle" x="244" y="-276" font-family="Times,serif" font-size="10.00">CovariantDerives</text>
</a>
</g>
</g>
<!-- scalaz.CovariantDerives&#45;&gt;scalaz.Applicative -->
<g id="edge46" class="edge"><title>scalaz.CovariantDerives&#45;&gt;scalaz.Applicative</title>
<path fill="none" stroke="black" d="M261.602,-264.427C273.157,-255.518 288.46,-243.717 301.358,-233.772"/>
<polygon fill="black" stroke="black" points="303.641,-236.431 309.423,-227.553 299.367,-230.888 303.641,-236.431"/>
</g>
<!-- scalaz.CovariantDerives&#45;&gt;scalaz.Coapplicative -->
<g id="edge45" class="edge"><title>scalaz.CovariantDerives&#45;&gt;scalaz.Coapplicative</title>
<path fill="none" stroke="black" d="M214.734,-264.427C194.242,-254.924 166.658,-242.131 144.401,-231.809"/>
<polygon fill="black" stroke="black" points="145.769,-228.585 135.224,-227.553 142.823,-234.936 145.769,-228.585"/>
</g>
<!-- scalaz.CovariantDerives&#45;&gt;scalaz.Derives -->
<g id="edge44" class="edge"><title>scalaz.CovariantDerives&#45;&gt;scalaz.Derives</title>
<path fill="none" stroke="black" d="M246.121,-264.427C247.34,-256.621 248.907,-246.595 250.322,-237.542"/>
<polygon fill="black" stroke="black" points="253.797,-237.974 251.882,-227.553 246.88,-236.893 253.797,-237.974"/>
</g>
<!-- scalaz.Derives&#45;&gt;scalaz.ApplicativeDivisible -->
<g id="edge25" class="edge"><title>scalaz.Derives&#45;&gt;scalaz.ApplicativeDivisible</title>
<path fill="none" stroke="black" d="M262.271,-198.427C267.235,-190.281 273.671,-179.719 279.37,-170.367"/>
<polygon fill="black" stroke="black" points="282.526,-171.914 284.741,-161.553 276.548,-168.271 282.526,-171.914"/>
</g>
<!-- scalaz.Derives&#45;&gt;scalaz.CoapplicativeCodivide -->
<g id="edge24" class="edge"><title>scalaz.Derives&#45;&gt;scalaz.CoapplicativeCodivide</title>
<path fill="none" stroke="black" d="M230.221,-201.717C207.807,-192.025 173.753,-177.299 146.966,-165.715"/>
<polygon fill="black" stroke="black" points="148.028,-162.361 137.461,-161.605 145.25,-168.786 148.028,-162.361"/>
</g>
<!-- scalaz.Divide -->
<g id="node18" class="node"><title>scalaz.Divide</title>
<g id="a_node18"><a xlink:href="https://github.com/scalaz/scalaz/tree/7f5bbf571/core/src/main/scala/scalaz/Divide.scala" xlink:title="scalaz.Divide" target="_blank">
<polygon fill="#799f5a" stroke="black" points="182.392,-132.5 182.392,-161.5 225.608,-161.5 225.608,-132.5 182.392,-132.5"/>
<text text-anchor="middle" x="204" y="-144" font-family="Times,serif" font-size="10.00">Divide</text>
</a>
</g>
</g>
<!-- scalaz.Divide&#45;&gt;scalaz.ApplyDivide -->
<g id="edge22" class="edge"><title>scalaz.Divide&#45;&gt;scalaz.ApplyDivide</title>
<path fill="none" stroke="black" d="M222.875,-132.427C235.382,-123.433 251.987,-111.492 265.899,-101.488"/>
<polygon fill="black" stroke="black" points="268.077,-104.233 274.153,-95.5532 263.99,-98.5499 268.077,-104.233"/>
</g>
<!-- scalaz.Divide&#45;&gt;scalaz.Contravariant -->
<g id="edge21" class="edge"><title>scalaz.Divide&#45;&gt;scalaz.Contravariant</title>
<path fill="none" stroke="black" d="M204.212,-132.427C204.333,-124.706 204.487,-114.813 204.628,-105.838"/>
<polygon fill="black" stroke="black" points="208.131,-105.607 204.788,-95.5532 201.132,-105.497 208.131,-105.607"/>
</g>
<!-- scalaz.Divisible&#45;&gt;scalaz.ApplicativeDivisible -->
<g id="edge27" class="edge"><title>scalaz.Divisible&#45;&gt;scalaz.ApplicativeDivisible</title>
<path fill="none" stroke="black" d="M208.692,-198.427C224.013,-189.263 244.447,-177.041 261.361,-166.924"/>
<polygon fill="black" stroke="black" points="263.555,-169.69 270.341,-161.553 259.962,-163.683 263.555,-169.69"/>
</g>
<!-- scalaz.Divisible&#45;&gt;scalaz.Divide -->
<g id="edge26" class="edge"><title>scalaz.Divisible&#45;&gt;scalaz.Divide</title>
<path fill="none" stroke="black" d="M189.817,-198.427C192.037,-190.536 194.894,-180.377 197.462,-171.247"/>
<polygon fill="black" stroke="black" points="200.85,-172.127 200.188,-161.553 194.111,-170.232 200.85,-172.127"/>
</g>
<!-- scalaz.Foldable -->
<g id="node20" class="node"><title>scalaz.Foldable</title>
<g id="a_node20"><a xlink:href="https://github.com/scalaz/scalaz/tree/7f5bbf571/core/src/main/scala/scalaz/Foldable.scala" xlink:title="scalaz.Foldable" target="_blank">
<polygon fill="#799f5a" stroke="black" points="598.502,-66.5 598.502,-95.5 649.498,-95.5 649.498,-66.5 598.502,-66.5"/>
<text text-anchor="middle" x="624" y="-78" font-family="Times,serif" font-size="10.00">Foldable</text>
</a>
</g>
</g>
<!-- scalaz.Foldable1 -->
<g id="node21" class="node"><title>scalaz.Foldable1</title>
<g id="a_node21"><a xlink:href="https://github.com/scalaz/scalaz/tree/7f5bbf571/core/src/main/scala/scalaz/Foldable1.scala" xlink:title="scalaz.Foldable1" target="_blank">
<polygon fill="#799f5a" stroke="black" points="632.002,-132.5 632.002,-161.5 687.998,-161.5 687.998,-132.5 632.002,-132.5"/>
<text text-anchor="middle" x="660" y="-144" font-family="Times,serif" font-size="10.00">Foldable1</text>
</a>
</g>
</g>
<!-- scalaz.Foldable1&#45;&gt;scalaz.Foldable -->
<g id="edge18" class="edge"><title>scalaz.Foldable1&#45;&gt;scalaz.Foldable</title>
<path fill="none" stroke="black" d="M652.365,-132.427C647.783,-124.281 641.842,-113.719 636.582,-104.367"/>
<polygon fill="black" stroke="black" points="639.577,-102.553 631.624,-95.5532 633.476,-105.985 639.577,-102.553"/>
</g>
<!-- scalaz.Functor&#45;&gt;scalaz.InvariantFunctor -->
<g id="edge2" class="edge"><title>scalaz.Functor&#45;&gt;scalaz.InvariantFunctor</title>
<path fill="none" stroke="black" d="M432.298,-70.6939C407.44,-60.9336 367.802,-45.3702 337.154,-33.3366"/>
<polygon fill="black" stroke="black" points="338.137,-29.9624 327.549,-29.5654 335.578,-36.4781 338.137,-29.9624"/>
</g>
<!-- scalaz.IsEmpty -->
<g id="node24" class="node"><title>scalaz.IsEmpty</title>
<g id="a_node24"><a xlink:href="https://github.com/scalaz/scalaz/tree/7f5bbf571/core/src/main/scala/scalaz/IsEmpty.scala" xlink:title="scalaz.IsEmpty" target="_blank">
<polygon fill="#799f5a" stroke="black" points="534.057,-264.5 534.057,-293.5 583.943,-293.5 583.943,-264.5 534.057,-264.5"/>
<text text-anchor="middle" x="559" y="-276" font-family="Times,serif" font-size="10.00">IsEmpty</text>
</a>
</g>
</g>
<!-- scalaz.IsEmpty&#45;&gt;scalaz.PlusEmpty -->
<g id="edge34" class="edge"><title>scalaz.IsEmpty&#45;&gt;scalaz.PlusEmpty</title>
<path fill="none" stroke="black" d="M541.398,-264.427C529.843,-255.518 514.54,-243.717 501.642,-233.772"/>
<polygon fill="black" stroke="black" points="503.633,-230.888 493.577,-227.553 499.359,-236.431 503.633,-230.888"/>
</g>
<!-- scalaz.Monad -->
<g id="node25" class="node"><title>scalaz.Monad</title>
<g id="a_node25"><a xlink:href="https://github.com/scalaz/scalaz/tree/7f5bbf571/core/src/main/scala/scalaz/Monad.scala" xlink:title="scalaz.Monad" target="_blank">
<polygon fill="#799f5a" stroke="black" points="304.835,-264.5 304.835,-293.5 349.165,-293.5 349.165,-264.5 304.835,-264.5"/>
<text text-anchor="middle" x="327" y="-276" font-family="Times,serif" font-size="10.00">Monad</text>
</a>
</g>
</g>
<!-- scalaz.Monad&#45;&gt;scalaz.Applicative -->
<g id="edge5" class="edge"><title>scalaz.Monad&#45;&gt;scalaz.Applicative</title>
<path fill="none" stroke="black" d="M327,-264.427C327,-256.706 327,-246.813 327,-237.838"/>
<polygon fill="black" stroke="black" points="330.5,-237.553 327,-227.553 323.5,-237.553 330.5,-237.553"/>
</g>
<!-- scalaz.Monad&#45;&gt;scalaz.Bind -->
<g id="edge6" class="edge"><title>scalaz.Monad&#45;&gt;scalaz.Bind</title>
<path fill="none" stroke="black" d="M341.209,-264.427C350.27,-255.772 362.186,-244.389 372.404,-234.629"/>
<polygon fill="black" stroke="black" points="374.998,-236.991 379.812,-227.553 370.163,-231.93 374.998,-236.991"/>
</g>
<!-- scalaz.MonadError -->
<g id="node26" class="node"><title>scalaz.MonadError</title>
<g id="a_node26"><a xlink:href="https://github.com/scalaz/scalaz/tree/7f5bbf571/core/src/main/scala/scalaz/MonadError.scala" xlink:title="scalaz.MonadError" target="_blank">
<polygon fill="#799f5a" stroke="black" points="207.286,-330.5 207.286,-359.5 272.714,-359.5 272.714,-330.5 207.286,-330.5"/>
<text text-anchor="middle" x="240" y="-342" font-family="Times,serif" font-size="10.00">MonadError</text>
</a>
</g>
</g>
<!-- scalaz.MonadError&#45;&gt;scalaz.Monad -->
<g id="edge37" class="edge"><title>scalaz.MonadError&#45;&gt;scalaz.Monad</title>
<path fill="none" stroke="black" d="M258.45,-330.427C270.677,-321.433 286.909,-309.492 300.508,-299.488"/>
<polygon fill="black" stroke="black" points="302.595,-302.298 308.576,-293.553 298.447,-296.66 302.595,-302.298"/>
</g>
<!-- scalaz.MonadListen -->
<g id="node27" class="node"><title>scalaz.MonadListen</title>
<g id="a_node27"><a xlink:href="https://github.com/scalaz/scalaz/tree/7f5bbf571/core/src/main/scala/scalaz/MonadListen.scala" xlink:title="scalaz.MonadListen" target="_blank">
<polygon fill="#799f5a" stroke="black" points="24.3374,-396.5 24.3374,-425.5 93.6626,-425.5 93.6626,-396.5 24.3374,-396.5"/>
<text text-anchor="middle" x="59" y="-408" font-family="Times,serif" font-size="10.00">MonadListen</text>
</a>
</g>
</g>
<!-- scalaz.MonadTell -->
<g id="node31" class="node"><title>scalaz.MonadTell</title>
<g id="a_node31"><a xlink:href="https://github.com/scalaz/scalaz/tree/7f5bbf571/core/src/main/scala/scalaz/MonadTell.scala" xlink:title="scalaz.MonadTell" target="_blank">
<polygon fill="#799f5a" stroke="black" points="29.1323,-330.5 29.1323,-359.5 88.8677,-359.5 88.8677,-330.5 29.1323,-330.5"/>
<text text-anchor="middle" x="59" y="-342" font-family="Times,serif" font-size="10.00">MonadTell</text>
</a>
</g>
</g>
<!-- scalaz.MonadListen&#45;&gt;scalaz.MonadTell -->
<g id="edge38" class="edge"><title>scalaz.MonadListen&#45;&gt;scalaz.MonadTell</title>
<path fill="none" stroke="black" d="M59,-396.427C59,-388.706 59,-378.813 59,-369.838"/>
<polygon fill="black" stroke="black" points="62.5001,-369.553 59,-359.553 55.5001,-369.553 62.5001,-369.553"/>
</g>
<!-- scalaz.MonadPlus -->
<g id="node28" class="node"><title>scalaz.MonadPlus</title>
<g id="a_node28"><a xlink:href="https://github.com/scalaz/scalaz/tree/7f5bbf571/core/src/main/scala/scalaz/MonadPlus.scala" xlink:title="scalaz.MonadPlus" target="_blank">
<polygon fill="#799f5a" stroke="black" points="463.219,-330.5 463.219,-359.5 524.781,-359.5 524.781,-330.5 463.219,-330.5"/>
<text text-anchor="middle" x="494" y="-342" font-family="Times,serif" font-size="10.00">MonadPlus</text>
</a>
</g>
</g>
<!-- scalaz.MonadPlus&#45;&gt;scalaz.ApplicativePlus -->
<g id="edge30" class="edge"><title>scalaz.MonadPlus&#45;&gt;scalaz.ApplicativePlus</title>
<path fill="none" stroke="black" d="M490.183,-330.427C487.963,-322.536 485.106,-312.377 482.538,-303.247"/>
<polygon fill="black" stroke="black" points="485.889,-302.232 479.812,-293.553 479.15,-304.127 485.889,-302.232"/>
</g>
<!-- scalaz.MonadPlus&#45;&gt;scalaz.Monad -->
<g id="edge29" class="edge"><title>scalaz.MonadPlus&#45;&gt;scalaz.Monad</title>
<path fill="none" stroke="black" d="M462.975,-333.084C435.486,-323.276 394.345,-308.263 359,-294 358.902,-293.96 358.803,-293.92 358.704,-293.881"/>
<polygon fill="black" stroke="black" points="359.886,-290.581 349.31,-289.956 357.188,-297.04 359.886,-290.581"/>
</g>
<!-- scalaz.MonadReader -->
<g id="node29" class="node"><title>scalaz.MonadReader</title>
<g id="a_node29"><a xlink:href="https://github.com/scalaz/scalaz/tree/7f5bbf571/core/src/main/scala/scalaz/MonadReader.scala" xlink:title="scalaz.MonadReader" target="_blank">
<polygon fill="#799f5a" stroke="black" points="290.677,-330.5 290.677,-359.5 363.323,-359.5 363.323,-330.5 290.677,-330.5"/>
<text text-anchor="middle" x="327" y="-342" font-family="Times,serif" font-size="10.00">MonadReader</text>
</a>
</g>
</g>
<!-- scalaz.MonadReader&#45;&gt;scalaz.Monad -->
<g id="edge35" class="edge"><title>scalaz.MonadReader&#45;&gt;scalaz.Monad</title>
<path fill="none" stroke="black" d="M327,-330.427C327,-322.706 327,-312.813 327,-303.838"/>
<polygon fill="black" stroke="black" points="330.5,-303.553 327,-293.553 323.5,-303.553 330.5,-303.553"/>
</g>
<!-- scalaz.MonadState -->
<g id="node30" class="node"><title>scalaz.MonadState</title>
<g id="a_node30"><a xlink:href="https://github.com/scalaz/scalaz/tree/7f5bbf571/core/src/main/scala/scalaz/MonadState.scala" xlink:title="scalaz.MonadState" target="_blank">
<polygon fill="#799f5a" stroke="black" points="380.837,-330.5 380.837,-359.5 445.163,-359.5 445.163,-330.5 380.837,-330.5"/>
<text text-anchor="middle" x="413" y="-342" font-family="Times,serif" font-size="10.00">MonadState</text>
</a>
</g>
</g>
<!-- scalaz.MonadState&#45;&gt;scalaz.Monad -->
<g id="edge36" class="edge"><title>scalaz.MonadState&#45;&gt;scalaz.Monad</title>
<path fill="none" stroke="black" d="M394.762,-330.427C382.79,-321.518 366.933,-309.717 353.569,-299.772"/>
<polygon fill="black" stroke="black" points="355.324,-296.716 345.212,-293.553 351.145,-302.331 355.324,-296.716"/>
</g>
<!-- scalaz.MonadTell&#45;&gt;scalaz.Monad -->
<g id="edge19" class="edge"><title>scalaz.MonadTell&#45;&gt;scalaz.Monad</title>
<path fill="none" stroke="black" d="M89.129,-332.362C91.7725,-331.505 94.4223,-330.702 97,-330 180.671,-307.205 208.242,-319.737 294.854,-293.885"/>
<polygon fill="black" stroke="black" points="296.031,-297.185 304.563,-290.903 293.976,-290.494 296.031,-297.185"/>
</g>
<!-- scalaz.Nondeterminism -->
<g id="node32" class="node"><title>scalaz.Nondeterminism</title>
<g id="a_node32"><a xlink:href="https://github.com/scalaz/scalaz/tree/7f5bbf571/core/src/main/scala/scalaz/Nondeterminism.scala" xlink:title="scalaz.Nondeterminism" target="_blank">
<polygon fill="#799f5a" stroke="black" points="106.394,-330.5 106.394,-359.5 189.606,-359.5 189.606,-330.5 106.394,-330.5"/>
<text text-anchor="middle" x="148" y="-342" font-family="Times,serif" font-size="10.00">Nondeterminism</text>
</a>
</g>
</g>
<!-- scalaz.Nondeterminism&#45;&gt;scalaz.Monad -->
<g id="edge39" class="edge"><title>scalaz.Nondeterminism&#45;&gt;scalaz.Monad</title>
<path fill="none" stroke="black" d="M189.861,-331.072C217.561,-322.245 254.808,-309.858 295.254,-294.102"/>
<polygon fill="black" stroke="black" points="296.739,-297.279 304.761,-290.359 294.174,-290.766 296.739,-297.279"/>
</g>
<!-- scalaz.Plus -->
<g id="node33" class="node"><title>scalaz.Plus</title>
<g id="a_node33"><a xlink:href="https://github.com/scalaz/scalaz/tree/7f5bbf571/core/src/main/scala/scalaz/Plus.scala" xlink:title="scalaz.Plus" target="_blank">
<polygon fill="#799f5a" stroke="black" points="449.384,-132.5 449.384,-161.5 482.616,-161.5 482.616,-132.5 449.384,-132.5"/>
<text text-anchor="middle" x="466" y="-144" font-family="Times,serif" font-size="10.00">Plus</text>
</a>
</g>
</g>
<!-- scalaz.PlusEmpty&#45;&gt;scalaz.Plus -->
<g id="edge1" class="edge"><title>scalaz.PlusEmpty&#45;&gt;scalaz.Plus</title>
<path fill="none" stroke="black" d="M473.879,-198.427C472.66,-190.621 471.093,-180.595 469.678,-171.542"/>
<polygon fill="black" stroke="black" points="473.12,-170.893 468.118,-161.553 466.203,-171.974 473.12,-170.893"/>
</g>
<!-- scalaz.Traverse -->
<g id="node35" class="node"><title>scalaz.Traverse</title>
<g id="a_node35"><a xlink:href="https://github.com/scalaz/scalaz/tree/7f5bbf571/core/src/main/scala/scalaz/Traverse.scala" xlink:title="scalaz.Traverse" target="_blank">
<polygon fill="#799f5a" stroke="black" points="563.686,-132.5 563.686,-161.5 614.314,-161.5 614.314,-132.5 563.686,-132.5"/>
<text text-anchor="middle" x="589" y="-144" font-family="Times,serif" font-size="10.00">Traverse</text>
</a>
</g>
</g>
<!-- scalaz.Traverse&#45;&gt;scalaz.Foldable -->
<g id="edge17" class="edge"><title>scalaz.Traverse&#45;&gt;scalaz.Foldable</title>
<path fill="none" stroke="black" d="M596.423,-132.427C600.877,-124.281 606.654,-113.719 611.768,-104.367"/>
<polygon fill="black" stroke="black" points="614.861,-106.006 616.588,-95.5532 608.719,-102.648 614.861,-106.006"/>
</g>
<!-- scalaz.Traverse&#45;&gt;scalaz.Functor -->
<g id="edge16" class="edge"><title>scalaz.Traverse&#45;&gt;scalaz.Functor</title>
<path fill="none" stroke="black" d="M563.671,-133.811C542.473,-123.611 512.075,-108.983 488.98,-97.8699"/>
<polygon fill="black" stroke="black" points="490.422,-94.6797 479.893,-93.4973 487.386,-100.987 490.422,-94.6797"/>
</g>
<!-- scalaz.Traverse1 -->
<g id="node36" class="node"><title>scalaz.Traverse1</title>
<g id="a_node36"><a xlink:href="https://github.com/scalaz/scalaz/tree/7f5bbf571/core/src/main/scala/scalaz/Traverse1.scala" xlink:title="scalaz.Traverse1" target="_blank">
<polygon fill="#799f5a" stroke="black" points="623.186,-198.5 623.186,-227.5 678.814,-227.5 678.814,-198.5 623.186,-198.5"/>
<text text-anchor="middle" x="651" y="-210" font-family="Times,serif" font-size="10.00">Traverse1</text>
</a>
</g>
</g>
<!-- scalaz.Traverse1&#45;&gt;scalaz.Foldable1 -->
<g id="edge33" class="edge"><title>scalaz.Traverse1&#45;&gt;scalaz.Foldable1</title>
<path fill="none" stroke="black" d="M652.909,-198.427C654.006,-190.621 655.416,-180.595 656.689,-171.542"/>
<polygon fill="black" stroke="black" points="660.167,-171.943 658.094,-161.553 653.236,-170.968 660.167,-171.943"/>
</g>
<!-- scalaz.Traverse1&#45;&gt;scalaz.Traverse -->
<g id="edge32" class="edge"><title>scalaz.Traverse1&#45;&gt;scalaz.Traverse</title>
<path fill="none" stroke="black" d="M637.851,-198.427C629.549,-189.857 618.656,-178.612 609.263,-168.916"/>
<polygon fill="black" stroke="black" points="611.601,-166.3 602.13,-161.553 606.574,-171.171 611.601,-166.3"/>
</g>
</g>
</svg>

