<?xml version="1.0" encoding="UTF-8" standalone="no"?>
<!DOCTYPE svg PUBLIC "-//W3C//DTD SVG 1.1//EN"
 "http://www.w3.org/Graphics/SVG/1.1/DTD/svg11.dtd">
<!-- Generated by graphviz version 2.36.0 (20140111.2315)
 -->
<!-- Title: diagram Pages: 1 -->
<svg width="1701pt" height="490pt"
 viewBox="0.00 0.00 1701.00 490.00" xmlns="http://www.w3.org/2000/svg" xmlns:xlink="http://www.w3.org/1999/xlink">
<g id="graph0" class="graph" transform="scale(1 1) rotate(0) translate(4 486)">
<title>scalaz 7.1.0 typeclasses</title>
<polygon fill="white" stroke="none" points="-4,4 -4,-486 1697,-486 1697,4 -4,4"/>
<!-- scalaz.Applicative -->
<g id="node1" class="node"><title>scalaz.Applicative</title>
<g id="a_node1"><a xlink:href="https://github.com/scalaz/scalaz/blob/v7.1.0/core/src/main/scala/scalaz/Applicative.scala" xlink:title="\N" target="_blank">
<polygon fill="lightgrey" stroke="black" points="292.498,-223 292.498,-259 411.502,-259 411.502,-223 292.498,-223"/>
<text text-anchor="middle" x="352" y="-236.8" font-family="Times,serif" font-size="14.00">scalaz.Applicative</text>
</a>
</g>
</g>
<!-- scalaz.Apply -->
<g id="node3" class="node"><title>scalaz.Apply</title>
<g id="a_node3"><a xlink:href="https://github.com/scalaz/scalaz/blob/v7.1.0/core/src/main/scala/scalaz/Apply.scala" xlink:title="\N" target="_blank">
<polygon fill="lightgrey" stroke="black" points="307.653,-149 307.653,-185 396.347,-185 396.347,-149 307.653,-149"/>
<text text-anchor="middle" x="352" y="-162.8" font-family="Times,serif" font-size="14.00">scalaz.Apply</text>
</a>
</g>
</g>
<!-- scalaz.Applicative&#45;&gt;scalaz.Apply -->
<g id="edge9" class="edge"><title>scalaz.Applicative&#45;&gt;scalaz.Apply</title>
<path fill="none" stroke="black" d="M352,-222.937C352,-214.807 352,-204.876 352,-195.705"/>
<polygon fill="black" stroke="black" points="355.5,-195.441 352,-185.441 348.5,-195.441 355.5,-195.441"/>
</g>
<!-- scalaz.ApplicativePlus -->
<g id="node2" class="node"><title>scalaz.ApplicativePlus</title>
<g id="a_node2"><a xlink:href="https://github.com/scalaz/scalaz/blob/v7.1.0/core/src/main/scala/scalaz/ApplicativePlus.scala" xlink:title="\N" target="_blank">
<polygon fill="lightgrey" stroke="black" points="273.436,-297 273.436,-333 416.564,-333 416.564,-297 273.436,-297"/>
<text text-anchor="middle" x="345" y="-310.8" font-family="Times,serif" font-size="14.00">scalaz.ApplicativePlus</text>
</a>
</g>
</g>
<!-- scalaz.ApplicativePlus&#45;&gt;scalaz.Applicative -->
<g id="edge1" class="edge"><title>scalaz.ApplicativePlus&#45;&gt;scalaz.Applicative</title>
<path fill="none" stroke="black" d="M346.659,-296.937C347.458,-288.719 348.436,-278.66 349.336,-269.406"/>
<polygon fill="black" stroke="black" points="352.82,-269.732 350.304,-259.441 345.853,-269.055 352.82,-269.732"/>
</g>
<!-- scalaz.PlusEmpty -->
<g id="node32" class="node"><title>scalaz.PlusEmpty</title>
<g id="a_node32"><a xlink:href="https://github.com/scalaz/scalaz/blob/v7.1.0/core/src/main/scala/scalaz/PlusEmpty.scala" xlink:title="\N" target="_blank">
<polygon fill="lightgrey" stroke="black" points="153.426,-223 153.426,-259 268.574,-259 268.574,-223 153.426,-223"/>
<text text-anchor="middle" x="211" y="-236.8" font-family="Times,serif" font-size="14.00">scalaz.PlusEmpty</text>
</a>
</g>
</g>
<!-- scalaz.ApplicativePlus&#45;&gt;scalaz.PlusEmpty -->
<g id="edge2" class="edge"><title>scalaz.ApplicativePlus&#45;&gt;scalaz.PlusEmpty</title>
<path fill="none" stroke="black" d="M313.244,-296.937C294.937,-287.101 271.723,-274.627 252.043,-264.053"/>
<polygon fill="black" stroke="black" points="253.458,-260.84 242.993,-259.19 250.145,-267.006 253.458,-260.84"/>
</g>
<!-- scalaz.Functor -->
<g id="node19" class="node"><title>scalaz.Functor</title>
<g id="a_node19"><a xlink:href="https://github.com/scalaz/scalaz/blob/v7.1.0/core/src/main/scala/scalaz/Functor.scala" xlink:title="\N" target="_blank">
<polygon fill="lightgrey" stroke="black" points="303.377,-75 303.377,-111 400.623,-111 400.623,-75 303.377,-75"/>
<text text-anchor="middle" x="352" y="-88.8" font-family="Times,serif" font-size="14.00">scalaz.Functor</text>
</a>
</g>
</g>
<!-- scalaz.Apply&#45;&gt;scalaz.Functor -->
<g id="edge3" class="edge"><title>scalaz.Apply&#45;&gt;scalaz.Functor</title>
<path fill="none" stroke="black" d="M352,-148.937C352,-140.807 352,-130.876 352,-121.705"/>
<polygon fill="black" stroke="black" points="355.5,-121.441 352,-111.441 348.5,-121.441 355.5,-121.441"/>
</g>
<!-- scalaz.Arrow -->
<g id="node4" class="node"><title>scalaz.Arrow</title>
<g id="a_node4"><a xlink:href="https://github.com/scalaz/scalaz/blob/v7.1.0/core/src/main/scala/scalaz/Arrow.scala" xlink:title="\N" target="_blank">
<polygon fill="lightgrey" stroke="black" points="1132.88,-445 1132.88,-481 1223.12,-481 1223.12,-445 1132.88,-445"/>
<text text-anchor="middle" x="1178" y="-458.8" font-family="Times,serif" font-size="14.00">scalaz.Arrow</text>
</a>
</g>
</g>
<!-- scalaz.Category -->
<g id="node9" class="node"><title>scalaz.Category</title>
<g id="a_node9"><a xlink:href="https://github.com/scalaz/scalaz/blob/v7.1.0/core/src/main/scala/scalaz/Category.scala" xlink:title="\N" target="_blank">
<polygon fill="lightgrey" stroke="black" points="998.495,-371 998.495,-407 1103.51,-407 1103.51,-371 998.495,-371"/>
<text text-anchor="middle" x="1051" y="-384.8" font-family="Times,serif" font-size="14.00">scalaz.Category</text>
</a>
</g>
</g>
<!-- scalaz.Arrow&#45;&gt;scalaz.Category -->
<g id="edge36" class="edge"><title>scalaz.Arrow&#45;&gt;scalaz.Category</title>
<path fill="none" stroke="black" d="M1147.9,-444.937C1130.63,-435.145 1108.75,-422.74 1090.15,-412.197"/>
<polygon fill="black" stroke="black" points="1091.75,-409.077 1081.32,-407.19 1088.29,-415.167 1091.75,-409.077"/>
</g>
<!-- scalaz.Profunctor -->
<g id="node33" class="node"><title>scalaz.Profunctor</title>
<g id="a_node33"><a xlink:href="https://github.com/scalaz/scalaz/blob/v7.1.0/core/src/main/scala/scalaz/Profunctor.scala" xlink:title="\N" target="_blank">
<polygon fill="lightgrey" stroke="black" points="1121.22,-371 1121.22,-407 1234.78,-407 1234.78,-371 1121.22,-371"/>
<text text-anchor="middle" x="1178" y="-384.8" font-family="Times,serif" font-size="14.00">scalaz.Profunctor</text>
</a>
</g>
</g>
<!-- scalaz.Arrow&#45;&gt;scalaz.Profunctor -->
<g id="edge35" class="edge"><title>scalaz.Arrow&#45;&gt;scalaz.Profunctor</title>
<path fill="none" stroke="black" d="M1178,-444.937C1178,-436.807 1178,-426.876 1178,-417.705"/>
<polygon fill="black" stroke="black" points="1181.5,-417.441 1178,-407.441 1174.5,-417.441 1181.5,-417.441"/>
</g>
<!-- scalaz.Split -->
<g id="node34" class="node"><title>scalaz.Split</title>
<g id="a_node34"><a xlink:href="https://github.com/scalaz/scalaz/blob/v7.1.0/core/src/main/scala/scalaz/Split.scala" xlink:title="\N" target="_blank">
<polygon fill="lightgrey" stroke="black" points="1252.93,-371 1252.93,-407 1333.07,-407 1333.07,-371 1252.93,-371"/>
<text text-anchor="middle" x="1293" y="-384.8" font-family="Times,serif" font-size="14.00">scalaz.Split</text>
</a>
</g>
</g>
<!-- scalaz.Arrow&#45;&gt;scalaz.Split -->
<g id="edge34" class="edge"><title>scalaz.Arrow&#45;&gt;scalaz.Split</title>
<path fill="none" stroke="black" d="M1205.25,-444.937C1220.61,-435.323 1239.99,-423.19 1256.63,-412.774"/>
<polygon fill="black" stroke="black" points="1258.93,-415.463 1265.54,-407.19 1255.21,-409.53 1258.93,-415.463"/>
</g>
<!-- scalaz.Bifoldable -->
<g id="node5" class="node"><title>scalaz.Bifoldable</title>
<g id="a_node5"><a xlink:href="https://github.com/scalaz/scalaz/blob/v7.1.0/core/src/main/scala/scalaz/Bifoldable.scala" xlink:title="\N" target="_blank">
<polygon fill="lightgrey" stroke="black" points="1350.6,-371 1350.6,-407 1463.4,-407 1463.4,-371 1350.6,-371"/>
<text text-anchor="middle" x="1407" y="-384.8" font-family="Times,serif" font-size="14.00">scalaz.Bifoldable</text>
</a>
</g>
</g>
<!-- scalaz.Bifunctor -->
<g id="node6" class="node"><title>scalaz.Bifunctor</title>
<g id="a_node6"><a xlink:href="https://github.com/scalaz/scalaz/blob/v7.1.0/core/src/main/scala/scalaz/Bifunctor.scala" xlink:title="\N" target="_blank">
<polygon fill="lightgrey" stroke="black" points="1481.33,-371 1481.33,-407 1588.67,-407 1588.67,-371 1481.33,-371"/>
<text text-anchor="middle" x="1535" y="-384.8" font-family="Times,serif" font-size="14.00">scalaz.Bifunctor</text>
</a>
</g>
</g>
<!-- scalaz.Bind -->
<g id="node7" class="node"><title>scalaz.Bind</title>
<g id="a_node7"><a xlink:href="https://github.com/scalaz/scalaz/blob/v7.1.0/core/src/main/scala/scalaz/Bind.scala" xlink:title="\N" target="_blank">
<polygon fill="lightgrey" stroke="black" points="431.54,-223 431.54,-259 512.46,-259 512.46,-223 431.54,-223"/>
<text text-anchor="middle" x="472" y="-236.8" font-family="Times,serif" font-size="14.00">scalaz.Bind</text>
</a>
</g>
</g>
<!-- scalaz.Bind&#45;&gt;scalaz.Apply -->
<g id="edge8" class="edge"><title>scalaz.Bind&#45;&gt;scalaz.Apply</title>
<path fill="none" stroke="black" d="M443.562,-222.937C427.39,-213.234 406.943,-200.966 389.475,-190.485"/>
<polygon fill="black" stroke="black" points="391.026,-187.334 380.65,-185.19 387.424,-193.336 391.026,-187.334"/>
</g>
<!-- scalaz.Bitraverse -->
<g id="node8" class="node"><title>scalaz.Bitraverse</title>
<g id="a_node8"><a xlink:href="https://github.com/scalaz/scalaz/blob/v7.1.0/core/src/main/scala/scalaz/Bitraverse.scala" xlink:title="\N" target="_blank">
<polygon fill="lightgrey" stroke="black" points="1414.39,-445 1414.39,-481 1525.61,-481 1525.61,-445 1414.39,-445"/>
<text text-anchor="middle" x="1470" y="-458.8" font-family="Times,serif" font-size="14.00">scalaz.Bitraverse</text>
</a>
</g>
</g>
<!-- scalaz.Bitraverse&#45;&gt;scalaz.Bifoldable -->
<g id="edge32" class="edge"><title>scalaz.Bitraverse&#45;&gt;scalaz.Bifoldable</title>
<path fill="none" stroke="black" d="M1455.07,-444.937C1447.26,-436.012 1437.55,-424.916 1428.91,-415.037"/>
<polygon fill="black" stroke="black" points="1431.48,-412.662 1422.26,-407.441 1426.21,-417.271 1431.48,-412.662"/>
</g>
<!-- scalaz.Bitraverse&#45;&gt;scalaz.Bifunctor -->
<g id="edge31" class="edge"><title>scalaz.Bitraverse&#45;&gt;scalaz.Bifunctor</title>
<path fill="none" stroke="black" d="M1485.4,-444.937C1493.46,-436.012 1503.48,-424.916 1512.4,-415.037"/>
<polygon fill="black" stroke="black" points="1515.15,-417.209 1519.25,-407.441 1509.96,-412.518 1515.15,-417.209"/>
</g>
<!-- scalaz.Compose -->
<g id="node14" class="node"><title>scalaz.Compose</title>
<g id="a_node14"><a xlink:href="https://github.com/scalaz/scalaz/blob/v7.1.0/core/src/main/scala/scalaz/Compose.scala" xlink:title="\N" target="_blank">
<polygon fill="lightgrey" stroke="black" points="1118.71,-297 1118.71,-333 1225.29,-333 1225.29,-297 1118.71,-297"/>
<text text-anchor="middle" x="1172" y="-310.8" font-family="Times,serif" font-size="14.00">scalaz.Compose</text>
</a>
</g>
</g>
<!-- scalaz.Category&#45;&gt;scalaz.Compose -->
<g id="edge17" class="edge"><title>scalaz.Category&#45;&gt;scalaz.Compose</title>
<path fill="none" stroke="black" d="M1079.68,-370.937C1095.98,-361.234 1116.6,-348.966 1134.21,-338.485"/>
<polygon fill="black" stroke="black" points="1136.31,-341.311 1143.11,-333.19 1132.73,-335.296 1136.31,-341.311"/>
</g>
<!-- scalaz.Choice -->
<g id="node10" class="node"><title>scalaz.Choice</title>
<g id="a_node10"><a xlink:href="https://github.com/scalaz/scalaz/blob/v7.1.0/core/src/main/scala/scalaz/Choice.scala" xlink:title="\N" target="_blank">
<polygon fill="lightgrey" stroke="black" points="1004.33,-445 1004.33,-481 1097.67,-481 1097.67,-445 1004.33,-445"/>
<text text-anchor="middle" x="1051" y="-458.8" font-family="Times,serif" font-size="14.00">scalaz.Choice</text>
</a>
</g>
</g>
<!-- scalaz.Choice&#45;&gt;scalaz.Category -->
<g id="edge33" class="edge"><title>scalaz.Choice&#45;&gt;scalaz.Category</title>
<path fill="none" stroke="black" d="M1051,-444.937C1051,-436.807 1051,-426.876 1051,-417.705"/>
<polygon fill="black" stroke="black" points="1054.5,-417.441 1051,-407.441 1047.5,-417.441 1054.5,-417.441"/>
</g>
<!-- scalaz.Cobind -->
<g id="node11" class="node"><title>scalaz.Cobind</title>
<g id="a_node11"><a xlink:href="https://github.com/scalaz/scalaz/blob/v7.1.0/core/src/main/scala/scalaz/Cobind.scala" xlink:title="\N" target="_blank">
<polygon fill="lightgrey" stroke="black" points="45.5396,-149 45.5396,-185 140.46,-185 140.46,-149 45.5396,-149"/>
<text text-anchor="middle" x="93" y="-162.8" font-family="Times,serif" font-size="14.00">scalaz.Cobind</text>
</a>
</g>
</g>
<!-- scalaz.Cobind&#45;&gt;scalaz.Functor -->
<g id="edge10" class="edge"><title>scalaz.Cobind&#45;&gt;scalaz.Functor</title>
<path fill="none" stroke="black" d="M140.505,-152.794C183.498,-140.842 246.974,-123.196 293.163,-110.356"/>
<polygon fill="black" stroke="black" points="294.34,-113.662 303.037,-107.611 292.465,-106.918 294.34,-113.662"/>
</g>
<!-- scalaz.Comonad -->
<g id="node12" class="node"><title>scalaz.Comonad</title>
<g id="a_node12"><a xlink:href="https://github.com/scalaz/scalaz/blob/v7.1.0/core/src/main/scala/scalaz/Comonad.scala" xlink:title="\N" target="_blank">
<polygon fill="lightgrey" stroke="black" points="23.9326,-223 23.9326,-259 132.067,-259 132.067,-223 23.9326,-223"/>
<text text-anchor="middle" x="78" y="-236.8" font-family="Times,serif" font-size="14.00">scalaz.Comonad</text>
</a>
</g>
</g>
<!-- scalaz.Comonad&#45;&gt;scalaz.Cobind -->
<g id="edge11" class="edge"><title>scalaz.Comonad&#45;&gt;scalaz.Cobind</title>
<path fill="none" stroke="black" d="M81.5548,-222.937C83.2669,-214.719 85.3625,-204.66 87.2904,-195.406"/>
<polygon fill="black" stroke="black" points="90.7533,-195.944 89.3665,-185.441 83.9005,-194.517 90.7533,-195.944"/>
</g>
<!-- scalaz.ComonadStore -->
<g id="node13" class="node"><title>scalaz.ComonadStore</title>
<g id="a_node13"><a xlink:href="https://github.com/scalaz/scalaz/blob/v7.1.0/core/src/main/scala/scalaz/ComonadStore.scala" xlink:title="\N" target="_blank">
<polygon fill="lightgrey" stroke="black" points="-0.843262,-297 -0.843262,-333 136.843,-333 136.843,-297 -0.843262,-297"/>
<text text-anchor="middle" x="68" y="-310.8" font-family="Times,serif" font-size="14.00">scalaz.ComonadStore</text>
</a>
</g>
</g>
<!-- scalaz.ComonadStore&#45;&gt;scalaz.Comonad -->
<g id="edge21" class="edge"><title>scalaz.ComonadStore&#45;&gt;scalaz.Comonad</title>
<path fill="none" stroke="black" d="M70.3699,-296.937C71.5113,-288.719 72.9083,-278.66 74.1936,-269.406"/>
<polygon fill="black" stroke="black" points="77.6686,-269.827 75.5777,-259.441 70.7352,-268.864 77.6686,-269.827"/>
</g>
<!-- scalaz.Enum -->
<g id="node15" class="node"><title>scalaz.Enum</title>
<g id="a_node15"><a xlink:href="https://github.com/scalaz/scalaz/blob/v7.1.0/core/src/main/scala/scalaz/Enum.scala" xlink:title="\N" target="_blank">
<polygon fill="lightgrey" stroke="black" points="1606.43,-445 1606.43,-481 1693.57,-481 1693.57,-445 1606.43,-445"/>
<text text-anchor="middle" x="1650" y="-458.8" font-family="Times,serif" font-size="14.00">scalaz.Enum</text>
</a>
</g>
</g>
<!-- scalaz.Order -->
<g id="node30" class="node"><title>scalaz.Order</title>
<g id="a_node30"><a xlink:href="https://github.com/scalaz/scalaz/blob/v7.1.0/core/src/main/scala/scalaz/Order.scala" xlink:title="\N" target="_blank">
<polygon fill="lightgrey" stroke="black" points="1606.83,-371 1606.83,-407 1693.17,-407 1693.17,-371 1606.83,-371"/>
<text text-anchor="middle" x="1650" y="-384.8" font-family="Times,serif" font-size="14.00">scalaz.Order</text>
</a>
</g>
</g>
<!-- scalaz.Enum&#45;&gt;scalaz.Order -->
<g id="edge30" class="edge"><title>scalaz.Enum&#45;&gt;scalaz.Order</title>
<path fill="none" stroke="black" d="M1650,-444.937C1650,-436.807 1650,-426.876 1650,-417.705"/>
<polygon fill="black" stroke="black" points="1653.5,-417.441 1650,-407.441 1646.5,-417.441 1653.5,-417.441"/>
</g>
<!-- scalaz.Equal -->
<g id="node16" class="node"><title>scalaz.Equal</title>
<g id="a_node16"><a xlink:href="https://github.com/scalaz/scalaz/blob/v7.1.0/core/src/main/scala/scalaz/Equal.scala" xlink:title="\N" target="_blank">
<polygon fill="lightgrey" stroke="black" points="1606.83,-297 1606.83,-333 1693.17,-333 1693.17,-297 1606.83,-297"/>
<text text-anchor="middle" x="1650" y="-310.8" font-family="Times,serif" font-size="14.00">scalaz.Equal</text>
</a>
</g>
</g>
<!-- scalaz.Foldable -->
<g id="node17" class="node"><title>scalaz.Foldable</title>
<g id="a_node17"><a xlink:href="https://github.com/scalaz/scalaz/blob/v7.1.0/core/src/main/scala/scalaz/Foldable.scala" xlink:title="\N" target="_blank">
<polygon fill="lightgrey" stroke="black" points="477.657,-75 477.657,-111 580.343,-111 580.343,-75 477.657,-75"/>
<text text-anchor="middle" x="529" y="-88.8" font-family="Times,serif" font-size="14.00">scalaz.Foldable</text>
</a>
</g>
</g>
<!-- scalaz.Foldable1 -->
<g id="node18" class="node"><title>scalaz.Foldable1</title>
<g id="a_node18"><a xlink:href="https://github.com/scalaz/scalaz/blob/v7.1.0/core/src/main/scala/scalaz/Foldable1.scala" xlink:title="\N" target="_blank">
<polygon fill="lightgrey" stroke="black" points="534.157,-149 534.157,-185 643.843,-185 643.843,-149 534.157,-149"/>
<text text-anchor="middle" x="589" y="-162.8" font-family="Times,serif" font-size="14.00">scalaz.Foldable1</text>
</a>
</g>
</g>
<!-- scalaz.Foldable1&#45;&gt;scalaz.Foldable -->
<g id="edge12" class="edge"><title>scalaz.Foldable1&#45;&gt;scalaz.Foldable</title>
<path fill="none" stroke="black" d="M574.781,-148.937C567.417,-140.1 558.279,-129.135 550.109,-119.331"/>
<polygon fill="black" stroke="black" points="552.625,-116.882 543.534,-111.441 547.247,-121.364 552.625,-116.882"/>
</g>
<!-- scalaz.InvariantFunctor -->
<g id="node20" class="node"><title>scalaz.InvariantFunctor</title>
<g id="a_node20"><a xlink:href="https://github.com/scalaz/scalaz/blob/v7.1.0/core/src/main/scala/scalaz/InvariantFunctor.scala" xlink:title="\N" target="_blank">
<polygon fill="lightgrey" stroke="black" points="278.112,-1 278.112,-37 425.888,-37 425.888,-1 278.112,-1"/>
<text text-anchor="middle" x="352" y="-14.8" font-family="Times,serif" font-size="14.00">scalaz.InvariantFunctor</text>
</a>
</g>
</g>
<!-- scalaz.Functor&#45;&gt;scalaz.InvariantFunctor -->
<g id="edge6" class="edge"><title>scalaz.Functor&#45;&gt;scalaz.InvariantFunctor</title>
<path fill="none" stroke="black" d="M352,-74.937C352,-66.8072 352,-56.8761 352,-47.7047"/>
<polygon fill="black" stroke="black" points="355.5,-47.4406 352,-37.4407 348.5,-47.4407 355.5,-47.4406"/>
</g>
<!-- scalaz.IsEmpty -->
<g id="node21" class="node"><title>scalaz.IsEmpty</title>
<g id="a_node21"><a xlink:href="https://github.com/scalaz/scalaz/blob/v7.1.0/core/src/main/scala/scalaz/IsEmpty.scala" xlink:title="\N" target="_blank">
<polygon fill="lightgrey" stroke="black" points="154.433,-297 154.433,-333 255.567,-333 255.567,-297 154.433,-297"/>
<text text-anchor="middle" x="205" y="-310.8" font-family="Times,serif" font-size="14.00">scalaz.IsEmpty</text>
</a>
</g>
</g>
<!-- scalaz.IsEmpty&#45;&gt;scalaz.PlusEmpty -->
<g id="edge24" class="edge"><title>scalaz.IsEmpty&#45;&gt;scalaz.PlusEmpty</title>
<path fill="none" stroke="black" d="M206.422,-296.937C207.099,-288.807 207.927,-278.876 208.691,-269.705"/>
<polygon fill="black" stroke="black" points="212.204,-269.697 209.547,-259.441 205.228,-269.115 212.204,-269.697"/>
</g>
<!-- scalaz.Monad -->
<g id="node22" class="node"><title>scalaz.Monad</title>
<g id="a_node22"><a xlink:href="https://github.com/scalaz/scalaz/blob/v7.1.0/core/src/main/scala/scalaz/Monad.scala" xlink:title="\N" target="_blank">
<polygon fill="lightgrey" stroke="black" points="434.322,-297 434.322,-333 527.678,-333 527.678,-297 434.322,-297"/>
<text text-anchor="middle" x="481" y="-310.8" font-family="Times,serif" font-size="14.00">scalaz.Monad</text>
</a>
</g>
</g>
<!-- scalaz.Monad&#45;&gt;scalaz.Applicative -->
<g id="edge4" class="edge"><title>scalaz.Monad&#45;&gt;scalaz.Applicative</title>
<path fill="none" stroke="black" d="M450.429,-296.937C432.885,-287.145 410.659,-274.74 391.769,-264.197"/>
<polygon fill="black" stroke="black" points="393.237,-261.008 382.799,-259.19 389.825,-267.12 393.237,-261.008"/>
</g>
<!-- scalaz.Monad&#45;&gt;scalaz.Bind -->
<g id="edge5" class="edge"><title>scalaz.Monad&#45;&gt;scalaz.Bind</title>
<path fill="none" stroke="black" d="M478.867,-296.937C477.84,-288.719 476.583,-278.66 475.426,-269.406"/>
<polygon fill="black" stroke="black" points="478.893,-268.929 474.18,-259.441 471.948,-269.798 478.893,-268.929"/>
</g>
<!-- scalaz.MonadError -->
<g id="node23" class="node"><title>scalaz.MonadError</title>
<g id="a_node23"><a xlink:href="https://github.com/scalaz/scalaz/blob/v7.1.0/core/src/main/scala/scalaz/MonadError.scala" xlink:title="\N" target="_blank">
<polygon fill="lightgrey" stroke="black" points="857.553,-371 857.553,-407 980.447,-407 980.447,-371 857.553,-371"/>
<text text-anchor="middle" x="919" y="-384.8" font-family="Times,serif" font-size="14.00">scalaz.MonadError</text>
</a>
</g>
</g>
<!-- scalaz.MonadError&#45;&gt;scalaz.Monad -->
<g id="edge27" class="edge"><title>scalaz.MonadError&#45;&gt;scalaz.Monad</title>
<path fill="none" stroke="black" d="M857.514,-372.003C854.303,-371.296 851.117,-370.623 848,-370 739.201,-348.263 610.632,-331.327 538.174,-322.575"/>
<polygon fill="black" stroke="black" points="538.245,-319.058 527.9,-321.343 537.412,-326.008 538.245,-319.058"/>
</g>
<!-- scalaz.MonadListen -->
<g id="node24" class="node"><title>scalaz.MonadListen</title>
<g id="a_node24"><a xlink:href="https://github.com/scalaz/scalaz/blob/v7.1.0/core/src/main/scala/scalaz/MonadListen.scala" xlink:title="\N" target="_blank">
<polygon fill="lightgrey" stroke="black" points="552.826,-445 552.826,-481 681.174,-481 681.174,-445 552.826,-445"/>
<text text-anchor="middle" x="617" y="-458.8" font-family="Times,serif" font-size="14.00">scalaz.MonadListen</text>
</a>
</g>
</g>
<!-- scalaz.MonadTell -->
<g id="node28" class="node"><title>scalaz.MonadTell</title>
<g id="a_node28"><a xlink:href="https://github.com/scalaz/scalaz/blob/v7.1.0/core/src/main/scala/scalaz/MonadTell.scala" xlink:title="\N" target="_blank">
<polygon fill="lightgrey" stroke="black" points="559.539,-371 559.539,-407 674.461,-407 674.461,-371 559.539,-371"/>
<text text-anchor="middle" x="617" y="-384.8" font-family="Times,serif" font-size="14.00">scalaz.MonadTell</text>
</a>
</g>
</g>
<!-- scalaz.MonadListen&#45;&gt;scalaz.MonadTell -->
<g id="edge28" class="edge"><title>scalaz.MonadListen&#45;&gt;scalaz.MonadTell</title>
<path fill="none" stroke="black" d="M617,-444.937C617,-436.807 617,-426.876 617,-417.705"/>
<polygon fill="black" stroke="black" points="620.5,-417.441 617,-407.441 613.5,-417.441 620.5,-417.441"/>
</g>
<!-- scalaz.MonadPlus -->
<g id="node25" class="node"><title>scalaz.MonadPlus</title>
<g id="a_node25"><a xlink:href="https://github.com/scalaz/scalaz/blob/v7.1.0/core/src/main/scala/scalaz/MonadPlus.scala" xlink:title="\N" target="_blank">
<polygon fill="lightgrey" stroke="black" points="134.26,-371 134.26,-407 251.74,-407 251.74,-371 134.26,-371"/>
<text text-anchor="middle" x="193" y="-384.8" font-family="Times,serif" font-size="14.00">scalaz.MonadPlus</text>
</a>
</g>
</g>
<!-- scalaz.MonadPlus&#45;&gt;scalaz.ApplicativePlus -->
<g id="edge20" class="edge"><title>scalaz.MonadPlus&#45;&gt;scalaz.ApplicativePlus</title>
<path fill="none" stroke="black" d="M229.022,-370.937C250.241,-360.886 277.272,-348.082 299.899,-337.364"/>
<polygon fill="black" stroke="black" points="301.435,-340.509 308.974,-333.065 298.438,-334.183 301.435,-340.509"/>
</g>
<!-- scalaz.MonadPlus&#45;&gt;scalaz.Monad -->
<g id="edge19" class="edge"><title>scalaz.MonadPlus&#45;&gt;scalaz.Monad</title>
<path fill="none" stroke="black" d="M251.933,-372.236C254.996,-371.468 258.033,-370.718 261,-370 330.556,-353.168 351.27,-353.39 424.368,-334.043"/>
<polygon fill="black" stroke="black" points="425.289,-337.42 434.043,-331.45 423.477,-330.658 425.289,-337.42"/>
</g>
<!-- scalaz.MonadReader -->
<g id="node26" class="node"><title>scalaz.MonadReader</title>
<g id="a_node26"><a xlink:href="https://github.com/scalaz/scalaz/blob/v7.1.0/core/src/main/scala/scalaz/MonadReader.scala" xlink:title="\N" target="_blank">
<polygon fill="lightgrey" stroke="black" points="269.501,-371 269.501,-407 402.499,-407 402.499,-371 269.501,-371"/>
<text text-anchor="middle" x="336" y="-384.8" font-family="Times,serif" font-size="14.00">scalaz.MonadReader</text>
</a>
</g>
</g>
<!-- scalaz.MonadReader&#45;&gt;scalaz.Monad -->
<g id="edge25" class="edge"><title>scalaz.MonadReader&#45;&gt;scalaz.Monad</title>
<path fill="none" stroke="black" d="M370.363,-370.937C390.425,-360.975 415.933,-348.309 437.399,-337.65"/>
<polygon fill="black" stroke="black" points="439.233,-340.647 446.633,-333.065 436.12,-334.378 439.233,-340.647"/>
</g>
<!-- scalaz.MonadState -->
<g id="node27" class="node"><title>scalaz.MonadState</title>
<g id="a_node27"><a xlink:href="https://github.com/scalaz/scalaz/blob/v7.1.0/core/src/main/scala/scalaz/MonadState.scala" xlink:title="\N" target="_blank">
<polygon fill="lightgrey" stroke="black" points="420.326,-371 420.326,-407 541.674,-407 541.674,-371 420.326,-371"/>
<text text-anchor="middle" x="481" y="-384.8" font-family="Times,serif" font-size="14.00">scalaz.MonadState</text>
</a>
</g>
</g>
<!-- scalaz.MonadState&#45;&gt;scalaz.Monad -->
<g id="edge26" class="edge"><title>scalaz.MonadState&#45;&gt;scalaz.Monad</title>
<path fill="none" stroke="black" d="M481,-370.937C481,-362.807 481,-352.876 481,-343.705"/>
<polygon fill="black" stroke="black" points="484.5,-343.441 481,-333.441 477.5,-343.441 484.5,-343.441"/>
</g>
<!-- scalaz.MonadTell&#45;&gt;scalaz.Monad -->
<g id="edge15" class="edge"><title>scalaz.MonadTell&#45;&gt;scalaz.Monad</title>
<path fill="none" stroke="black" d="M584.77,-370.937C566.106,-361.056 542.416,-348.514 522.385,-337.91"/>
<polygon fill="black" stroke="black" points="523.946,-334.776 513.47,-333.19 520.67,-340.962 523.946,-334.776"/>
</g>
<!-- scalaz.Nondeterminism -->
<g id="node29" class="node"><title>scalaz.Nondeterminism</title>
<g id="a_node29"><a xlink:href="https://github.com/scalaz/scalaz/blob/v7.1.0/core/src/main/scala/scalaz/Nondeterminism.scala" xlink:title="\N" target="_blank">
<polygon fill="lightgrey" stroke="black" points="692.105,-371 692.105,-407 839.895,-407 839.895,-371 692.105,-371"/>
<text text-anchor="middle" x="766" y="-384.8" font-family="Times,serif" font-size="14.00">scalaz.Nondeterminism</text>
</a>
</g>
</g>
<!-- scalaz.Nondeterminism&#45;&gt;scalaz.Monad -->
<g id="edge29" class="edge"><title>scalaz.Nondeterminism&#45;&gt;scalaz.Monad</title>
<path fill="none" stroke="black" d="M698.459,-370.937C649.539,-358.578 584.143,-342.057 537.88,-330.37"/>
<polygon fill="black" stroke="black" points="538.572,-326.935 528.02,-327.879 536.858,-333.721 538.572,-326.935"/>
</g>
<!-- scalaz.Order&#45;&gt;scalaz.Equal -->
<g id="edge16" class="edge"><title>scalaz.Order&#45;&gt;scalaz.Equal</title>
<path fill="none" stroke="black" d="M1650,-370.937C1650,-362.807 1650,-352.876 1650,-343.705"/>
<polygon fill="black" stroke="black" points="1653.5,-343.441 1650,-333.441 1646.5,-343.441 1653.5,-343.441"/>
</g>
<!-- scalaz.Plus -->
<g id="node31" class="node"><title>scalaz.Plus</title>
<g id="a_node31"><a xlink:href="https://github.com/scalaz/scalaz/blob/v7.1.0/core/src/main/scala/scalaz/Plus.scala" xlink:title="\N" target="_blank">
<polygon fill="lightgrey" stroke="black" points="172.091,-149 172.091,-185 249.909,-185 249.909,-149 172.091,-149"/>
<text text-anchor="middle" x="211" y="-162.8" font-family="Times,serif" font-size="14.00">scalaz.Plus</text>
</a>
</g>
</g>
<!-- scalaz.PlusEmpty&#45;&gt;scalaz.Plus -->
<g id="edge7" class="edge"><title>scalaz.PlusEmpty&#45;&gt;scalaz.Plus</title>
<path fill="none" stroke="black" d="M211,-222.937C211,-214.807 211,-204.876 211,-195.705"/>
<polygon fill="black" stroke="black" points="214.5,-195.441 211,-185.441 207.5,-195.441 214.5,-195.441"/>
</g>
<!-- scalaz.Split&#45;&gt;scalaz.Compose -->
<g id="edge18" class="edge"><title>scalaz.Split&#45;&gt;scalaz.Compose</title>
<path fill="none" stroke="black" d="M1264.32,-370.937C1248.02,-361.234 1227.4,-348.966 1209.79,-338.485"/>
<polygon fill="black" stroke="black" points="1211.27,-335.296 1200.89,-333.19 1207.69,-341.311 1211.27,-335.296"/>
</g>
<!-- scalaz.Traverse -->
<g id="node35" class="node"><title>scalaz.Traverse</title>
<g id="a_node35"><a xlink:href="https://github.com/scalaz/scalaz/blob/v7.1.0/core/src/main/scala/scalaz/Traverse.scala" xlink:title="\N" target="_blank">
<polygon fill="lightgrey" stroke="black" points="413.913,-149 413.913,-185 516.087,-185 516.087,-149 413.913,-149"/>
<text text-anchor="middle" x="465" y="-162.8" font-family="Times,serif" font-size="14.00">scalaz.Traverse</text>
</a>
</g>
</g>
<!-- scalaz.Traverse&#45;&gt;scalaz.Foldable -->
<g id="edge14" class="edge"><title>scalaz.Traverse&#45;&gt;scalaz.Foldable</title>
<path fill="none" stroke="black" d="M480.167,-148.937C488.101,-140.012 497.964,-128.916 506.745,-119.037"/>
<polygon fill="black" stroke="black" points="509.469,-121.24 513.497,-111.441 504.238,-116.59 509.469,-121.24"/>
</g>
<!-- scalaz.Traverse&#45;&gt;scalaz.Functor -->
<g id="edge13" class="edge"><title>scalaz.Traverse&#45;&gt;scalaz.Functor</title>
<path fill="none" stroke="black" d="M438.221,-148.937C423.132,-139.323 404.09,-127.19 387.742,-116.774"/>
<polygon fill="black" stroke="black" points="389.293,-113.612 378.979,-111.19 385.532,-119.515 389.293,-113.612"/>
</g>
<!-- scalaz.Traverse1 -->
<g id="node36" class="node"><title>scalaz.Traverse1</title>
<g id="a_node36"><a xlink:href="https://github.com/scalaz/scalaz/blob/v7.1.0/core/src/main/scala/scalaz/Traverse1.scala" xlink:title="\N" target="_blank">
<polygon fill="lightgrey" stroke="black" points="533.413,-223 533.413,-259 642.587,-259 642.587,-223 533.413,-223"/>
<text text-anchor="middle" x="588" y="-236.8" font-family="Times,serif" font-size="14.00">scalaz.Traverse1</text>
</a>
</g>
</g>
<!-- scalaz.Traverse1&#45;&gt;scalaz.Foldable1 -->
<g id="edge23" class="edge"><title>scalaz.Traverse1&#45;&gt;scalaz.Foldable1</title>
<path fill="none" stroke="black" d="M588.237,-222.937C588.35,-214.807 588.488,-204.876 588.615,-195.705"/>
<polygon fill="black" stroke="black" points="592.118,-195.488 588.758,-185.441 585.119,-195.391 592.118,-195.488"/>
</g>
<!-- scalaz.Traverse1&#45;&gt;scalaz.Traverse -->
<g id="edge22" class="edge"><title>scalaz.Traverse1&#45;&gt;scalaz.Traverse</title>
<path fill="none" stroke="black" d="M558.851,-222.937C542.275,-213.234 521.316,-200.966 503.411,-190.485"/>
<polygon fill="black" stroke="black" points="504.765,-187.221 494.366,-185.19 501.228,-193.262 504.765,-187.221"/>
</g>
</g>
</svg>

