<?xml version="1.0" encoding="UTF-8" standalone="no"?>
<!DOCTYPE svg PUBLIC "-//W3C//DTD SVG 1.1//EN"
 "http://www.w3.org/Graphics/SVG/1.1/DTD/svg11.dtd">
<!-- Generated by graphviz version 2.38.0 (20140413.2041)
 -->
<!-- Title: diagram Pages: 1 -->
<svg width="1717pt" height="483pt"
 viewBox="0.00 0.00 1717.41 483.00" xmlns="http://www.w3.org/2000/svg" xmlns:xlink="http://www.w3.org/1999/xlink">
<g id="graph0" class="graph" transform="scale(1 1) rotate(0) translate(4 479)">
<title>Scalaz 7.1.1 typeclasses</title>
<polygon fill="white" stroke="none" points="-4,4 -4,-479 1713.41,-479 1713.41,4 -4,4"/>
<!-- scalaz.Applicative -->
<g id="node1" class="node"><title>scalaz.Applicative</title>
<g id="a_node1"><a xlink:href="https://github.com/scalaz/scalaz/tree/v7.1.1/core/src/main/scala/scalaz/Applicative.scala" xlink:title="\N" target="_blank">
<polygon fill="#799f5a" stroke="black" points="293.341,-219.5 293.341,-255.5 412.345,-255.5 412.345,-219.5 293.341,-219.5"/>
<text text-anchor="middle" x="352.843" y="-233.3" font-family="Times,serif" font-size="14.00">scalaz.Applicative</text>
</a>
</g>
</g>
<!-- scalaz.Apply -->
<g id="node3" class="node"><title>scalaz.Apply</title>
<g id="a_node3"><a xlink:href="https://github.com/scalaz/scalaz/tree/v7.1.1/core/src/main/scala/scalaz/Apply.scala" xlink:title="\N" target="_blank">
<polygon fill="#799f5a" stroke="black" points="308.497,-146.5 308.497,-182.5 397.19,-182.5 397.19,-146.5 308.497,-146.5"/>
<text text-anchor="middle" x="352.843" y="-160.3" font-family="Times,serif" font-size="14.00">scalaz.Apply</text>
</a>
</g>
</g>
<!-- scalaz.Applicative&#45;&gt;scalaz.Apply -->
<g id="edge9" class="edge"><title>scalaz.Applicative&#45;&gt;scalaz.Apply</title>
<path fill="none" stroke="black" d="M352.843,-219.313C352.843,-211.289 352.843,-201.547 352.843,-192.569"/>
<polygon fill="black" stroke="black" points="356.343,-192.529 352.843,-182.529 349.343,-192.529 356.343,-192.529"/>
</g>
<!-- scalaz.ApplicativePlus -->
<g id="node2" class="node"><title>scalaz.ApplicativePlus</title>
<g id="a_node2"><a xlink:href="https://github.com/scalaz/scalaz/tree/v7.1.1/core/src/main/scala/scalaz/ApplicativePlus.scala" xlink:title="\N" target="_blank">
<polygon fill="#799f5a" stroke="black" points="274.279,-292.5 274.279,-328.5 417.407,-328.5 417.407,-292.5 274.279,-292.5"/>
<text text-anchor="middle" x="345.843" y="-306.3" font-family="Times,serif" font-size="14.00">scalaz.ApplicativePlus</text>
</a>
</g>
</g>
<!-- scalaz.ApplicativePlus&#45;&gt;scalaz.Applicative -->
<g id="edge2" class="edge"><title>scalaz.ApplicativePlus&#45;&gt;scalaz.Applicative</title>
<path fill="none" stroke="black" d="M347.538,-292.313C348.329,-284.289 349.289,-274.547 350.174,-265.569"/>
<polygon fill="black" stroke="black" points="353.666,-265.824 351.164,-255.529 346.7,-265.137 353.666,-265.824"/>
</g>
<!-- scalaz.PlusEmpty -->
<g id="node33" class="node"><title>scalaz.PlusEmpty</title>
<g id="a_node33"><a xlink:href="https://github.com/scalaz/scalaz/tree/v7.1.1/core/src/main/scala/scalaz/PlusEmpty.scala" xlink:title="\N" target="_blank">
<polygon fill="#799f5a" stroke="black" points="154.269,-219.5 154.269,-255.5 269.417,-255.5 269.417,-219.5 154.269,-219.5"/>
<text text-anchor="middle" x="211.843" y="-233.3" font-family="Times,serif" font-size="14.00">scalaz.PlusEmpty</text>
</a>
</g>
</g>
<!-- scalaz.ApplicativePlus&#45;&gt;scalaz.PlusEmpty -->
<g id="edge3" class="edge"><title>scalaz.ApplicativePlus&#45;&gt;scalaz.PlusEmpty</title>
<path fill="none" stroke="black" d="M313.747,-292.494C295.566,-282.861 272.628,-270.707 253.12,-260.37"/>
<polygon fill="black" stroke="black" points="254.617,-257.203 244.142,-255.614 251.34,-263.388 254.617,-257.203"/>
</g>
<!-- scalaz.Functor -->
<g id="node20" class="node"><title>scalaz.Functor</title>
<g id="a_node20"><a xlink:href="https://github.com/scalaz/scalaz/tree/v7.1.1/core/src/main/scala/scalaz/Functor.scala" xlink:title="\N" target="_blank">
<polygon fill="#799f5a" stroke="black" points="304.221,-73.5 304.221,-109.5 401.466,-109.5 401.466,-73.5 304.221,-73.5"/>
<text text-anchor="middle" x="352.843" y="-87.3" font-family="Times,serif" font-size="14.00">scalaz.Functor</text>
</a>
</g>
</g>
<!-- scalaz.Apply&#45;&gt;scalaz.Functor -->
<g id="edge6" class="edge"><title>scalaz.Apply&#45;&gt;scalaz.Functor</title>
<path fill="none" stroke="black" d="M352.843,-146.313C352.843,-138.289 352.843,-128.547 352.843,-119.569"/>
<polygon fill="black" stroke="black" points="356.343,-119.529 352.843,-109.529 349.343,-119.529 356.343,-119.529"/>
</g>
<!-- scalaz.Arrow -->
<g id="node4" class="node"><title>scalaz.Arrow</title>
<g id="a_node4"><a xlink:href="https://github.com/scalaz/scalaz/tree/v7.1.1/core/src/main/scala/scalaz/Arrow.scala" xlink:title="\N" target="_blank">
<polygon fill="#799f5a" stroke="black" points="1116.72,-438.5 1116.72,-474.5 1206.96,-474.5 1206.96,-438.5 1116.72,-438.5"/>
<text text-anchor="middle" x="1161.84" y="-452.3" font-family="Times,serif" font-size="14.00">scalaz.Arrow</text>
</a>
</g>
</g>
<!-- scalaz.Category -->
<g id="node10" class="node"><title>scalaz.Category</title>
<g id="a_node10"><a xlink:href="https://github.com/scalaz/scalaz/tree/v7.1.1/core/src/main/scala/scalaz/Category.scala" xlink:title="\N" target="_blank">
<polygon fill="#799f5a" stroke="black" points="999.338,-365.5 999.338,-401.5 1104.35,-401.5 1104.35,-365.5 999.338,-365.5"/>
<text text-anchor="middle" x="1051.84" y="-379.3" font-family="Times,serif" font-size="14.00">scalaz.Category</text>
</a>
</g>
</g>
<!-- scalaz.Arrow&#45;&gt;scalaz.Category -->
<g id="edge36" class="edge"><title>scalaz.Arrow&#45;&gt;scalaz.Category</title>
<path fill="none" stroke="black" d="M1135.5,-438.494C1120.91,-429.079 1102.59,-417.255 1086.82,-407.075"/>
<polygon fill="black" stroke="black" points="1088.66,-404.096 1078.36,-401.614 1084.86,-409.977 1088.66,-404.096"/>
</g>
<!-- scalaz.Profunctor -->
<g id="node35" class="node"><title>scalaz.Profunctor</title>
<g id="a_node35"><a xlink:href="https://github.com/scalaz/scalaz/tree/v7.1.1/core/src/main/scala/scalaz/Profunctor.scala" xlink:title="\N" target="_blank">
<polygon fill="#799f5a" stroke="black" points="1223.06,-365.5 1223.06,-401.5 1336.63,-401.5 1336.63,-365.5 1223.06,-365.5"/>
<text text-anchor="middle" x="1279.84" y="-379.3" font-family="Times,serif" font-size="14.00">scalaz.Profunctor</text>
</a>
</g>
</g>
<!-- scalaz.Arrow&#45;&gt;scalaz.Profunctor -->
<g id="edge35" class="edge"><title>scalaz.Arrow&#45;&gt;scalaz.Profunctor</title>
<path fill="none" stroke="black" d="M1190.11,-438.494C1205.9,-428.991 1225.77,-417.036 1242.79,-406.792"/>
<polygon fill="black" stroke="black" points="1244.64,-409.768 1251.4,-401.614 1241.03,-403.77 1244.64,-409.768"/>
</g>
<!-- scalaz.Split -->
<g id="node36" class="node"><title>scalaz.Split</title>
<g id="a_node36"><a xlink:href="https://github.com/scalaz/scalaz/tree/v7.1.1/core/src/main/scala/scalaz/Split.scala" xlink:title="\N" target="_blank">
<polygon fill="#799f5a" stroke="black" points="1122.77,-365.5 1122.77,-401.5 1202.92,-401.5 1202.92,-365.5 1122.77,-365.5"/>
<text text-anchor="middle" x="1162.84" y="-379.3" font-family="Times,serif" font-size="14.00">scalaz.Split</text>
</a>
</g>
</g>
<!-- scalaz.Arrow&#45;&gt;scalaz.Split -->
<g id="edge34" class="edge"><title>scalaz.Arrow&#45;&gt;scalaz.Split</title>
<path fill="none" stroke="black" d="M1162.09,-438.313C1162.2,-430.289 1162.34,-420.547 1162.46,-411.569"/>
<polygon fill="black" stroke="black" points="1165.96,-411.577 1162.6,-401.529 1158.96,-411.479 1165.96,-411.577"/>
</g>
<!-- scalaz.Associative -->
<g id="node5" class="node"><title>scalaz.Associative</title>
<g id="a_node5"><a xlink:href="https://github.com/scalaz/scalaz/tree/v7.1.1/core/src/main/scala/scalaz/Associative.scala" xlink:title="\N" target="_blank">
<polygon fill="#799f5a" stroke="black" points="1356.34,-438.5 1356.34,-474.5 1475.35,-474.5 1475.35,-438.5 1356.34,-438.5"/>
<text text-anchor="middle" x="1415.84" y="-452.3" font-family="Times,serif" font-size="14.00">scalaz.Associative</text>
</a>
</g>
</g>
<!-- scalaz.Bifoldable -->
<g id="node6" class="node"><title>scalaz.Bifoldable</title>
<g id="a_node6"><a xlink:href="https://github.com/scalaz/scalaz/tree/v7.1.1/core/src/main/scala/scalaz/Bifoldable.scala" xlink:title="\N" target="_blank">
<polygon fill="#799f5a" stroke="black" points="1365.45,-365.5 1365.45,-401.5 1478.24,-401.5 1478.24,-365.5 1365.45,-365.5"/>
<text text-anchor="middle" x="1421.84" y="-379.3" font-family="Times,serif" font-size="14.00">scalaz.Bifoldable</text>
</a>
</g>
</g>
<!-- scalaz.Bifunctor -->
<g id="node7" class="node"><title>scalaz.Bifunctor</title>
<g id="a_node7"><a xlink:href="https://github.com/scalaz/scalaz/tree/v7.1.1/core/src/main/scala/scalaz/Bifunctor.scala" xlink:title="\N" target="_blank">
<polygon fill="#799f5a" stroke="black" points="1496.17,-365.5 1496.17,-401.5 1603.52,-401.5 1603.52,-365.5 1496.17,-365.5"/>
<text text-anchor="middle" x="1549.84" y="-379.3" font-family="Times,serif" font-size="14.00">scalaz.Bifunctor</text>
</a>
</g>
</g>
<!-- scalaz.Bind -->
<g id="node8" class="node"><title>scalaz.Bind</title>
<g id="a_node8"><a xlink:href="https://github.com/scalaz/scalaz/tree/v7.1.1/core/src/main/scala/scalaz/Bind.scala" xlink:title="\N" target="_blank">
<polygon fill="#799f5a" stroke="black" points="432.383,-219.5 432.383,-255.5 513.304,-255.5 513.304,-219.5 432.383,-219.5"/>
<text text-anchor="middle" x="472.843" y="-233.3" font-family="Times,serif" font-size="14.00">scalaz.Bind</text>
</a>
</g>
</g>
<!-- scalaz.Bind&#45;&gt;scalaz.Apply -->
<g id="edge5" class="edge"><title>scalaz.Bind&#45;&gt;scalaz.Apply</title>
<path fill="none" stroke="black" d="M444.1,-219.494C428.04,-209.991 407.834,-198.036 390.521,-187.792"/>
<polygon fill="black" stroke="black" points="392.156,-184.694 381.768,-182.614 388.592,-190.718 392.156,-184.694"/>
</g>
<!-- scalaz.Bitraverse -->
<g id="node9" class="node"><title>scalaz.Bitraverse</title>
<g id="a_node9"><a xlink:href="https://github.com/scalaz/scalaz/tree/v7.1.1/core/src/main/scala/scalaz/Bitraverse.scala" xlink:title="\N" target="_blank">
<polygon fill="#799f5a" stroke="black" points="1493.23,-438.5 1493.23,-474.5 1604.46,-474.5 1604.46,-438.5 1493.23,-438.5"/>
<text text-anchor="middle" x="1548.84" y="-452.3" font-family="Times,serif" font-size="14.00">scalaz.Bitraverse</text>
</a>
</g>
</g>
<!-- scalaz.Bitraverse&#45;&gt;scalaz.Bifoldable -->
<g id="edge32" class="edge"><title>scalaz.Bitraverse&#45;&gt;scalaz.Bifoldable</title>
<path fill="none" stroke="black" d="M1518.42,-438.494C1501.27,-428.904 1479.65,-416.817 1461.21,-406.511"/>
<polygon fill="black" stroke="black" points="1462.89,-403.438 1452.45,-401.614 1459.48,-409.548 1462.89,-403.438"/>
</g>
<!-- scalaz.Bitraverse&#45;&gt;scalaz.Bifunctor -->
<g id="edge31" class="edge"><title>scalaz.Bitraverse&#45;&gt;scalaz.Bifunctor</title>
<path fill="none" stroke="black" d="M1549.09,-438.313C1549.2,-430.289 1549.34,-420.547 1549.46,-411.569"/>
<polygon fill="black" stroke="black" points="1552.96,-411.577 1549.6,-401.529 1545.96,-411.479 1552.96,-411.577"/>
</g>
<!-- scalaz.Compose -->
<g id="node15" class="node"><title>scalaz.Compose</title>
<g id="a_node15"><a xlink:href="https://github.com/scalaz/scalaz/tree/v7.1.1/core/src/main/scala/scalaz/Compose.scala" xlink:title="\N" target="_blank">
<polygon fill="#799f5a" stroke="black" points="1053.55,-292.5 1053.55,-328.5 1160.13,-328.5 1160.13,-292.5 1053.55,-292.5"/>
<text text-anchor="middle" x="1106.84" y="-306.3" font-family="Times,serif" font-size="14.00">scalaz.Compose</text>
</a>
</g>
</g>
<!-- scalaz.Category&#45;&gt;scalaz.Compose -->
<g id="edge17" class="edge"><title>scalaz.Category&#45;&gt;scalaz.Compose</title>
<path fill="none" stroke="black" d="M1065.16,-365.313C1071.85,-356.679 1080.08,-346.055 1087.45,-336.534"/>
<polygon fill="black" stroke="black" points="1090.29,-338.578 1093.65,-328.529 1084.76,-334.291 1090.29,-338.578"/>
</g>
<!-- scalaz.Choice -->
<g id="node11" class="node"><title>scalaz.Choice</title>
<g id="a_node11"><a xlink:href="https://github.com/scalaz/scalaz/tree/v7.1.1/core/src/main/scala/scalaz/Choice.scala" xlink:title="\N" target="_blank">
<polygon fill="#799f5a" stroke="black" points="1005.17,-438.5 1005.17,-474.5 1098.52,-474.5 1098.52,-438.5 1005.17,-438.5"/>
<text text-anchor="middle" x="1051.84" y="-452.3" font-family="Times,serif" font-size="14.00">scalaz.Choice</text>
</a>
</g>
</g>
<!-- scalaz.Choice&#45;&gt;scalaz.Category -->
<g id="edge33" class="edge"><title>scalaz.Choice&#45;&gt;scalaz.Category</title>
<path fill="none" stroke="black" d="M1051.84,-438.313C1051.84,-430.289 1051.84,-420.547 1051.84,-411.569"/>
<polygon fill="black" stroke="black" points="1055.34,-411.529 1051.84,-401.529 1048.34,-411.529 1055.34,-411.529"/>
</g>
<!-- scalaz.Cobind -->
<g id="node12" class="node"><title>scalaz.Cobind</title>
<g id="a_node12"><a xlink:href="https://github.com/scalaz/scalaz/tree/v7.1.1/core/src/main/scala/scalaz/Cobind.scala" xlink:title="\N" target="_blank">
<polygon fill="#799f5a" stroke="black" points="46.3828,-146.5 46.3828,-182.5 141.304,-182.5 141.304,-146.5 46.3828,-146.5"/>
<text text-anchor="middle" x="93.8433" y="-160.3" font-family="Times,serif" font-size="14.00">scalaz.Cobind</text>
</a>
</g>
</g>
<!-- scalaz.Cobind&#45;&gt;scalaz.Functor -->
<g id="edge10" class="edge"><title>scalaz.Cobind&#45;&gt;scalaz.Functor</title>
<path fill="none" stroke="black" d="M141.348,-150.478C184.341,-138.692 247.817,-121.291 294.007,-108.629"/>
<polygon fill="black" stroke="black" points="295.161,-111.942 303.88,-105.922 293.31,-105.191 295.161,-111.942"/>
</g>
<!-- scalaz.Comonad -->
<g id="node13" class="node"><title>scalaz.Comonad</title>
<g id="a_node13"><a xlink:href="https://github.com/scalaz/scalaz/tree/v7.1.1/core/src/main/scala/scalaz/Comonad.scala" xlink:title="\N" target="_blank">
<polygon fill="#799f5a" stroke="black" points="24.7759,-219.5 24.7759,-255.5 132.911,-255.5 132.911,-219.5 24.7759,-219.5"/>
<text text-anchor="middle" x="78.8433" y="-233.3" font-family="Times,serif" font-size="14.00">scalaz.Comonad</text>
</a>
</g>
</g>
<!-- scalaz.Comonad&#45;&gt;scalaz.Cobind -->
<g id="edge11" class="edge"><title>scalaz.Comonad&#45;&gt;scalaz.Cobind</title>
<path fill="none" stroke="black" d="M82.4743,-219.313C84.1694,-211.289 86.2276,-201.547 88.1244,-192.569"/>
<polygon fill="black" stroke="black" points="91.6029,-193.036 90.2456,-182.529 84.7541,-191.589 91.6029,-193.036"/>
</g>
<!-- scalaz.ComonadStore -->
<g id="node14" class="node"><title>scalaz.ComonadStore</title>
<g id="a_node14"><a xlink:href="https://github.com/scalaz/scalaz/tree/v7.1.1/core/src/main/scala/scalaz/ComonadStore.scala" xlink:title="\N" target="_blank">
<polygon fill="#799f5a" stroke="black" points="0,-292.5 0,-328.5 137.687,-328.5 137.687,-292.5 0,-292.5"/>
<text text-anchor="middle" x="68.8433" y="-306.3" font-family="Times,serif" font-size="14.00">scalaz.ComonadStore</text>
</a>
</g>
</g>
<!-- scalaz.ComonadStore&#45;&gt;scalaz.Comonad -->
<g id="edge21" class="edge"><title>scalaz.ComonadStore&#45;&gt;scalaz.Comonad</title>
<path fill="none" stroke="black" d="M71.264,-292.313C72.394,-284.289 73.7661,-274.547 75.0307,-265.569"/>
<polygon fill="black" stroke="black" points="78.5159,-265.919 76.4448,-255.529 71.5843,-264.943 78.5159,-265.919"/>
</g>
<!-- scalaz.Enum -->
<g id="node16" class="node"><title>scalaz.Enum</title>
<g id="a_node16"><a xlink:href="https://github.com/scalaz/scalaz/tree/v7.1.1/core/src/main/scala/scalaz/Enum.scala" xlink:title="\N" target="_blank">
<polygon fill="#799f5a" stroke="black" points="1622.28,-438.5 1622.28,-474.5 1709.41,-474.5 1709.41,-438.5 1622.28,-438.5"/>
<text text-anchor="middle" x="1665.84" y="-452.3" font-family="Times,serif" font-size="14.00">scalaz.Enum</text>
</a>
</g>
</g>
<!-- scalaz.Order -->
<g id="node31" class="node"><title>scalaz.Order</title>
<g id="a_node31"><a xlink:href="https://github.com/scalaz/scalaz/tree/v7.1.1/core/src/main/scala/scalaz/Order.scala" xlink:title="\N" target="_blank">
<polygon fill="#799f5a" stroke="black" points="1622.67,-365.5 1622.67,-401.5 1709.01,-401.5 1709.01,-365.5 1622.67,-365.5"/>
<text text-anchor="middle" x="1665.84" y="-379.3" font-family="Times,serif" font-size="14.00">scalaz.Order</text>
</a>
</g>
</g>
<!-- scalaz.Enum&#45;&gt;scalaz.Order -->
<g id="edge30" class="edge"><title>scalaz.Enum&#45;&gt;scalaz.Order</title>
<path fill="none" stroke="black" d="M1665.84,-438.313C1665.84,-430.289 1665.84,-420.547 1665.84,-411.569"/>
<polygon fill="black" stroke="black" points="1669.34,-411.529 1665.84,-401.529 1662.34,-411.529 1669.34,-411.529"/>
</g>
<!-- scalaz.Equal -->
<g id="node17" class="node"><title>scalaz.Equal</title>
<g id="a_node17"><a xlink:href="https://github.com/scalaz/scalaz/tree/v7.1.1/core/src/main/scala/scalaz/Equal.scala" xlink:title="\N" target="_blank">
<polygon fill="#799f5a" stroke="black" points="1622.67,-292.5 1622.67,-328.5 1709.02,-328.5 1709.02,-292.5 1622.67,-292.5"/>
<text text-anchor="middle" x="1665.84" y="-306.3" font-family="Times,serif" font-size="14.00">scalaz.Equal</text>
</a>
</g>
</g>
<!-- scalaz.Foldable -->
<g id="node18" class="node"><title>scalaz.Foldable</title>
<g id="a_node18"><a xlink:href="https://github.com/scalaz/scalaz/tree/v7.1.1/core/src/main/scala/scalaz/Foldable.scala" xlink:title="\N" target="_blank">
<polygon fill="#799f5a" stroke="black" points="478.5,-73.5 478.5,-109.5 581.187,-109.5 581.187,-73.5 478.5,-73.5"/>
<text text-anchor="middle" x="529.843" y="-87.3" font-family="Times,serif" font-size="14.00">scalaz.Foldable</text>
</a>
</g>
</g>
<!-- scalaz.Foldable1 -->
<g id="node19" class="node"><title>scalaz.Foldable1</title>
<g id="a_node19"><a xlink:href="https://github.com/scalaz/scalaz/tree/v7.1.1/core/src/main/scala/scalaz/Foldable1.scala" xlink:title="\N" target="_blank">
<polygon fill="#799f5a" stroke="black" points="535,-146.5 535,-182.5 644.687,-182.5 644.687,-146.5 535,-146.5"/>
<text text-anchor="middle" x="589.843" y="-160.3" font-family="Times,serif" font-size="14.00">scalaz.Foldable1</text>
</a>
</g>
</g>
<!-- scalaz.Foldable1&#45;&gt;scalaz.Foldable -->
<g id="edge12" class="edge"><title>scalaz.Foldable1&#45;&gt;scalaz.Foldable</title>
<path fill="none" stroke="black" d="M575.319,-146.313C567.949,-137.592 558.863,-126.84 550.755,-117.246"/>
<polygon fill="black" stroke="black" points="553.362,-114.908 544.234,-109.529 548.015,-119.426 553.362,-114.908"/>
</g>
<!-- scalaz.InvariantFunctor -->
<g id="node21" class="node"><title>scalaz.InvariantFunctor</title>
<g id="a_node21"><a xlink:href="https://github.com/scalaz/scalaz/tree/v7.1.1/core/src/main/scala/scalaz/InvariantFunctor.scala" xlink:title="\N" target="_blank">
<polygon fill="#799f5a" stroke="black" points="278.955,-0.5 278.955,-36.5 426.731,-36.5 426.731,-0.5 278.955,-0.5"/>
<text text-anchor="middle" x="352.843" y="-14.3" font-family="Times,serif" font-size="14.00">scalaz.InvariantFunctor</text>
</a>
</g>
</g>
<!-- scalaz.Functor&#45;&gt;scalaz.InvariantFunctor -->
<g id="edge1" class="edge"><title>scalaz.Functor&#45;&gt;scalaz.InvariantFunctor</title>
<path fill="none" stroke="black" d="M352.843,-73.3129C352.843,-65.2895 352.843,-55.5475 352.843,-46.5691"/>
<polygon fill="black" stroke="black" points="356.343,-46.5288 352.843,-36.5288 349.343,-46.5289 356.343,-46.5288"/>
</g>
<!-- scalaz.IsEmpty -->
<g id="node22" class="node"><title>scalaz.IsEmpty</title>
<g id="a_node22"><a xlink:href="https://github.com/scalaz/scalaz/tree/v7.1.1/core/src/main/scala/scalaz/IsEmpty.scala" xlink:title="\N" target="_blank">
<polygon fill="#799f5a" stroke="black" points="155.276,-292.5 155.276,-328.5 256.411,-328.5 256.411,-292.5 155.276,-292.5"/>
<text text-anchor="middle" x="205.843" y="-306.3" font-family="Times,serif" font-size="14.00">scalaz.IsEmpty</text>
</a>
</g>
</g>
<!-- scalaz.IsEmpty&#45;&gt;scalaz.PlusEmpty -->
<g id="edge24" class="edge"><title>scalaz.IsEmpty&#45;&gt;scalaz.PlusEmpty</title>
<path fill="none" stroke="black" d="M207.296,-292.313C207.974,-284.289 208.797,-274.547 209.556,-265.569"/>
<polygon fill="black" stroke="black" points="213.05,-265.788 210.404,-255.529 206.074,-265.199 213.05,-265.788"/>
</g>
<!-- scalaz.Monad -->
<g id="node23" class="node"><title>scalaz.Monad</title>
<g id="a_node23"><a xlink:href="https://github.com/scalaz/scalaz/tree/v7.1.1/core/src/main/scala/scalaz/Monad.scala" xlink:title="\N" target="_blank">
<polygon fill="#799f5a" stroke="black" points="435.166,-292.5 435.166,-328.5 528.521,-328.5 528.521,-292.5 435.166,-292.5"/>
<text text-anchor="middle" x="481.843" y="-306.3" font-family="Times,serif" font-size="14.00">scalaz.Monad</text>
</a>
</g>
</g>
<!-- scalaz.Monad&#45;&gt;scalaz.Applicative -->
<g id="edge7" class="edge"><title>scalaz.Monad&#45;&gt;scalaz.Applicative</title>
<path fill="none" stroke="black" d="M450.945,-292.494C433.521,-282.904 411.56,-270.817 392.835,-260.511"/>
<polygon fill="black" stroke="black" points="394.385,-257.369 383.937,-255.614 391.01,-263.502 394.385,-257.369"/>
</g>
<!-- scalaz.Monad&#45;&gt;scalaz.Bind -->
<g id="edge8" class="edge"><title>scalaz.Monad&#45;&gt;scalaz.Bind</title>
<path fill="none" stroke="black" d="M479.665,-292.313C478.648,-284.289 477.413,-274.547 476.275,-265.569"/>
<polygon fill="black" stroke="black" points="479.732,-265.009 475.002,-255.529 472.787,-265.89 479.732,-265.009"/>
</g>
<!-- scalaz.MonadError -->
<g id="node24" class="node"><title>scalaz.MonadError</title>
<g id="a_node24"><a xlink:href="https://github.com/scalaz/scalaz/tree/v7.1.1/core/src/main/scala/scalaz/MonadError.scala" xlink:title="\N" target="_blank">
<polygon fill="#799f5a" stroke="black" points="858.396,-365.5 858.396,-401.5 981.29,-401.5 981.29,-365.5 858.396,-365.5"/>
<text text-anchor="middle" x="919.843" y="-379.3" font-family="Times,serif" font-size="14.00">scalaz.MonadError</text>
</a>
</g>
</g>
<!-- scalaz.MonadError&#45;&gt;scalaz.Monad -->
<g id="edge27" class="edge"><title>scalaz.MonadError&#45;&gt;scalaz.Monad</title>
<path fill="none" stroke="black" d="M858.083,-366.702C855.303,-366.104 852.547,-365.533 849.843,-365 740.57,-343.455 611.454,-326.652 538.863,-317.984"/>
<polygon fill="black" stroke="black" points="538.915,-314.466 528.572,-316.765 538.091,-321.417 538.915,-314.466"/>
</g>
<!-- scalaz.MonadListen -->
<g id="node25" class="node"><title>scalaz.MonadListen</title>
<g id="a_node25"><a xlink:href="https://github.com/scalaz/scalaz/tree/v7.1.1/core/src/main/scala/scalaz/MonadListen.scala" xlink:title="\N" target="_blank">
<polygon fill="#799f5a" stroke="black" points="553.669,-438.5 553.669,-474.5 682.018,-474.5 682.018,-438.5 553.669,-438.5"/>
<text text-anchor="middle" x="617.843" y="-452.3" font-family="Times,serif" font-size="14.00">scalaz.MonadListen</text>
</a>
</g>
</g>
<!-- scalaz.MonadTell -->
<g id="node29" class="node"><title>scalaz.MonadTell</title>
<g id="a_node29"><a xlink:href="https://github.com/scalaz/scalaz/tree/v7.1.1/core/src/main/scala/scalaz/MonadTell.scala" xlink:title="\N" target="_blank">
<polygon fill="#799f5a" stroke="black" points="560.382,-365.5 560.382,-401.5 675.305,-401.5 675.305,-365.5 560.382,-365.5"/>
<text text-anchor="middle" x="617.843" y="-379.3" font-family="Times,serif" font-size="14.00">scalaz.MonadTell</text>
</a>
</g>
</g>
<!-- scalaz.MonadListen&#45;&gt;scalaz.MonadTell -->
<g id="edge28" class="edge"><title>scalaz.MonadListen&#45;&gt;scalaz.MonadTell</title>
<path fill="none" stroke="black" d="M617.843,-438.313C617.843,-430.289 617.843,-420.547 617.843,-411.569"/>
<polygon fill="black" stroke="black" points="621.343,-411.529 617.843,-401.529 614.343,-411.529 621.343,-411.529"/>
</g>
<!-- scalaz.MonadPlus -->
<g id="node26" class="node"><title>scalaz.MonadPlus</title>
<g id="a_node26"><a xlink:href="https://github.com/scalaz/scalaz/tree/v7.1.1/core/src/main/scala/scalaz/MonadPlus.scala" xlink:title="\N" target="_blank">
<polygon fill="#799f5a" stroke="black" points="135.104,-365.5 135.104,-401.5 252.583,-401.5 252.583,-365.5 135.104,-365.5"/>
<text text-anchor="middle" x="193.843" y="-379.3" font-family="Times,serif" font-size="14.00">scalaz.MonadPlus</text>
</a>
</g>
</g>
<!-- scalaz.MonadPlus&#45;&gt;scalaz.ApplicativePlus -->
<g id="edge20" class="edge"><title>scalaz.MonadPlus&#45;&gt;scalaz.ApplicativePlus</title>
<path fill="none" stroke="black" d="M230.251,-365.494C251.154,-355.73 277.601,-343.376 299.921,-332.951"/>
<polygon fill="black" stroke="black" points="301.627,-336.017 309.206,-328.614 298.664,-329.675 301.627,-336.017"/>
</g>
<!-- scalaz.MonadPlus&#45;&gt;scalaz.Monad -->
<g id="edge19" class="edge"><title>scalaz.MonadPlus&#45;&gt;scalaz.Monad</title>
<path fill="none" stroke="black" d="M252.782,-367.189C255.844,-366.439 258.878,-365.705 261.843,-365 331.73,-348.389 352.563,-348.369 425.039,-329.369"/>
<polygon fill="black" stroke="black" points="426.356,-332.641 435.123,-326.692 424.56,-325.875 426.356,-332.641"/>
</g>
<!-- scalaz.MonadReader -->
<g id="node27" class="node"><title>scalaz.MonadReader</title>
<g id="a_node27"><a xlink:href="https://github.com/scalaz/scalaz/tree/v7.1.1/core/src/main/scala/scalaz/MonadReader.scala" xlink:title="\N" target="_blank">
<polygon fill="#799f5a" stroke="black" points="270.345,-365.5 270.345,-401.5 403.342,-401.5 403.342,-365.5 270.345,-365.5"/>
<text text-anchor="middle" x="336.843" y="-379.3" font-family="Times,serif" font-size="14.00">scalaz.MonadReader</text>
</a>
</g>
</g>
<!-- scalaz.MonadReader&#45;&gt;scalaz.Monad -->
<g id="edge25" class="edge"><title>scalaz.MonadReader&#45;&gt;scalaz.Monad</title>
<path fill="none" stroke="black" d="M371.574,-365.494C391.426,-355.773 416.519,-343.487 437.75,-333.09"/>
<polygon fill="black" stroke="black" points="439.451,-336.155 446.893,-328.614 436.373,-329.868 439.451,-336.155"/>
</g>
<!-- scalaz.MonadState -->
<g id="node28" class="node"><title>scalaz.MonadState</title>
<g id="a_node28"><a xlink:href="https://github.com/scalaz/scalaz/tree/v7.1.1/core/src/main/scala/scalaz/MonadState.scala" xlink:title="\N" target="_blank">
<polygon fill="#799f5a" stroke="black" points="421.169,-365.5 421.169,-401.5 542.518,-401.5 542.518,-365.5 421.169,-365.5"/>
<text text-anchor="middle" x="481.843" y="-379.3" font-family="Times,serif" font-size="14.00">scalaz.MonadState</text>
</a>
</g>
</g>
<!-- scalaz.MonadState&#45;&gt;scalaz.Monad -->
<g id="edge26" class="edge"><title>scalaz.MonadState&#45;&gt;scalaz.Monad</title>
<path fill="none" stroke="black" d="M481.843,-365.313C481.843,-357.289 481.843,-347.547 481.843,-338.569"/>
<polygon fill="black" stroke="black" points="485.343,-338.529 481.843,-328.529 478.343,-338.529 485.343,-338.529"/>
</g>
<!-- scalaz.MonadTell&#45;&gt;scalaz.Monad -->
<g id="edge15" class="edge"><title>scalaz.MonadTell&#45;&gt;scalaz.Monad</title>
<path fill="none" stroke="black" d="M585.268,-365.494C566.816,-355.861 543.535,-343.707 523.736,-333.37"/>
<polygon fill="black" stroke="black" points="525.109,-330.139 514.624,-328.614 521.869,-336.344 525.109,-330.139"/>
</g>
<!-- scalaz.Nondeterminism -->
<g id="node30" class="node"><title>scalaz.Nondeterminism</title>
<g id="a_node30"><a xlink:href="https://github.com/scalaz/scalaz/tree/v7.1.1/core/src/main/scala/scalaz/Nondeterminism.scala" xlink:title="\N" target="_blank">
<polygon fill="#799f5a" stroke="black" points="692.948,-365.5 692.948,-401.5 840.738,-401.5 840.738,-365.5 692.948,-365.5"/>
<text text-anchor="middle" x="766.843" y="-379.3" font-family="Times,serif" font-size="14.00">scalaz.Nondeterminism</text>
</a>
</g>
</g>
<!-- scalaz.Nondeterminism&#45;&gt;scalaz.Monad -->
<g id="edge29" class="edge"><title>scalaz.Nondeterminism&#45;&gt;scalaz.Monad</title>
<path fill="none" stroke="black" d="M698.579,-365.494C649.638,-353.301 584.488,-337.071 538.437,-325.599"/>
<polygon fill="black" stroke="black" points="539.172,-322.175 528.622,-323.154 537.48,-328.967 539.172,-322.175"/>
</g>
<!-- scalaz.Order&#45;&gt;scalaz.Equal -->
<g id="edge16" class="edge"><title>scalaz.Order&#45;&gt;scalaz.Equal</title>
<path fill="none" stroke="black" d="M1665.84,-365.313C1665.84,-357.289 1665.84,-347.547 1665.84,-338.569"/>
<polygon fill="black" stroke="black" points="1669.34,-338.529 1665.84,-328.529 1662.34,-338.529 1669.34,-338.529"/>
</g>
<!-- scalaz.Plus -->
<g id="node32" class="node"><title>scalaz.Plus</title>
<g id="a_node32"><a xlink:href="https://github.com/scalaz/scalaz/tree/v7.1.1/core/src/main/scala/scalaz/Plus.scala" xlink:title="\N" target="_blank">
<polygon fill="#799f5a" stroke="black" points="172.935,-146.5 172.935,-182.5 250.752,-182.5 250.752,-146.5 172.935,-146.5"/>
<text text-anchor="middle" x="211.843" y="-160.3" font-family="Times,serif" font-size="14.00">scalaz.Plus</text>
</a>
</g>
</g>
<!-- scalaz.PlusEmpty&#45;&gt;scalaz.Plus -->
<g id="edge4" class="edge"><title>scalaz.PlusEmpty&#45;&gt;scalaz.Plus</title>
<path fill="none" stroke="black" d="M211.843,-219.313C211.843,-211.289 211.843,-201.547 211.843,-192.569"/>
<polygon fill="black" stroke="black" points="215.343,-192.529 211.843,-182.529 208.343,-192.529 215.343,-192.529"/>
</g>
<!-- scalaz.ProChoice -->
<g id="node34" class="node"><title>scalaz.ProChoice</title>
<g id="a_node34"><a xlink:href="https://github.com/scalaz/scalaz/tree/v7.1.1/core/src/main/scala/scalaz/ProChoice.scala" xlink:title="\N" target="_blank">
<polygon fill="#799f5a" stroke="black" points="1225.44,-438.5 1225.44,-474.5 1338.24,-474.5 1338.24,-438.5 1225.44,-438.5"/>
<text text-anchor="middle" x="1281.84" y="-452.3" font-family="Times,serif" font-size="14.00">scalaz.ProChoice</text>
</a>
</g>
</g>
<!-- scalaz.ProChoice&#45;&gt;scalaz.Profunctor -->
<g id="edge37" class="edge"><title>scalaz.ProChoice&#45;&gt;scalaz.Profunctor</title>
<path fill="none" stroke="black" d="M1281.36,-438.313C1281.13,-430.289 1280.86,-420.547 1280.61,-411.569"/>
<polygon fill="black" stroke="black" points="1284.1,-411.426 1280.32,-401.529 1277.11,-411.623 1284.1,-411.426"/>
</g>
<!-- scalaz.Split&#45;&gt;scalaz.Compose -->
<g id="edge18" class="edge"><title>scalaz.Split&#45;&gt;scalaz.Compose</title>
<path fill="none" stroke="black" d="M1149.29,-365.313C1142.48,-356.679 1134.1,-346.055 1126.59,-336.534"/>
<polygon fill="black" stroke="black" points="1129.22,-334.213 1120.27,-328.529 1123.72,-338.548 1129.22,-334.213"/>
</g>
<!-- scalaz.Traverse -->
<g id="node37" class="node"><title>scalaz.Traverse</title>
<g id="a_node37"><a xlink:href="https://github.com/scalaz/scalaz/tree/v7.1.1/core/src/main/scala/scalaz/Traverse.scala" xlink:title="\N" target="_blank">
<polygon fill="#799f5a" stroke="black" points="414.756,-146.5 414.756,-182.5 516.93,-182.5 516.93,-146.5 414.756,-146.5"/>
<text text-anchor="middle" x="465.843" y="-160.3" font-family="Times,serif" font-size="14.00">scalaz.Traverse</text>
</a>
</g>
</g>
<!-- scalaz.Traverse&#45;&gt;scalaz.Foldable -->
<g id="edge14" class="edge"><title>scalaz.Traverse&#45;&gt;scalaz.Foldable</title>
<path fill="none" stroke="black" d="M481.336,-146.313C489.276,-137.505 499.083,-126.625 507.796,-116.958"/>
<polygon fill="black" stroke="black" points="510.398,-119.3 514.493,-109.529 505.198,-114.613 510.398,-119.3"/>
</g>
<!-- scalaz.Traverse&#45;&gt;scalaz.Functor -->
<g id="edge13" class="edge"><title>scalaz.Traverse&#45;&gt;scalaz.Functor</title>
<path fill="none" stroke="black" d="M438.777,-146.494C423.792,-137.079 404.975,-125.255 388.772,-115.075"/>
<polygon fill="black" stroke="black" points="390.41,-111.97 380.08,-109.614 386.686,-117.897 390.41,-111.97"/>
</g>
<!-- scalaz.Traverse1 -->
<g id="node38" class="node"><title>scalaz.Traverse1</title>
<g id="a_node38"><a xlink:href="https://github.com/scalaz/scalaz/tree/v7.1.1/core/src/main/scala/scalaz/Traverse1.scala" xlink:title="\N" target="_blank">
<polygon fill="#799f5a" stroke="black" points="534.256,-219.5 534.256,-255.5 643.43,-255.5 643.43,-219.5 534.256,-219.5"/>
<text text-anchor="middle" x="588.843" y="-233.3" font-family="Times,serif" font-size="14.00">scalaz.Traverse1</text>
</a>
</g>
</g>
<!-- scalaz.Traverse1&#45;&gt;scalaz.Foldable1 -->
<g id="edge23" class="edge"><title>scalaz.Traverse1&#45;&gt;scalaz.Foldable1</title>
<path fill="none" stroke="black" d="M589.085,-219.313C589.198,-211.289 589.336,-201.547 589.462,-192.569"/>
<polygon fill="black" stroke="black" points="592.962,-192.577 589.603,-182.529 585.963,-192.479 592.962,-192.577"/>
</g>
<!-- scalaz.Traverse1&#45;&gt;scalaz.Traverse -->
<g id="edge22" class="edge"><title>scalaz.Traverse1&#45;&gt;scalaz.Traverse</title>
<path fill="none" stroke="black" d="M559.382,-219.494C542.92,-209.991 522.209,-198.036 504.463,-187.792"/>
<polygon fill="black" stroke="black" points="505.901,-184.582 495.491,-182.614 502.402,-190.644 505.901,-184.582"/>
</g>
</g>
</svg>

