<?xml version="1.0" encoding="UTF-8" standalone="no"?>
<!DOCTYPE svg PUBLIC "-//W3C//DTD SVG 1.1//EN"
 "http://www.w3.org/Graphics/SVG/1.1/DTD/svg11.dtd">
<!-- Generated by graphviz version 2.36.0 (20140111.2315)
 -->
<!-- Title: diagram Pages: 1 -->
<svg width="1677pt" height="490pt"
 viewBox="0.00 0.00 1677.00 490.00" xmlns="http://www.w3.org/2000/svg" xmlns:xlink="http://www.w3.org/1999/xlink">
<g id="graph0" class="graph" transform="scale(1 1) rotate(0) translate(4 486)">
<title>scalaz 7.2.0-M5 class diagram</title>
<polygon fill="white" stroke="none" points="-4,4 -4,-486 1673,-486 1673,4 -4,4"/>
<!-- scalaz.Applicative -->
<g id="node1" class="node"><title>scalaz.Applicative</title>
<g id="a_node1"><a xlink:href="https://github.com/scalaz/scalaz/tree/v7.2.0-M5/core/src/main/scala/scalaz/Applicative.scala" xlink:title="scalaz.Applicative" target="_blank">
<polygon fill="#799f5a" stroke="black" points="430.498,-223 430.498,-259 549.502,-259 549.502,-223 430.498,-223"/>
<text text-anchor="middle" x="490" y="-236.8" font-family="Times,serif" font-size="14.00">scalaz.Applicative</text>
</a>
</g>
</g>
<!-- scalaz.Apply -->
<g id="node3" class="node"><title>scalaz.Apply</title>
<g id="a_node3"><a xlink:href="https://github.com/scalaz/scalaz/tree/v7.2.0-M5/core/src/main/scala/scalaz/Apply.scala" xlink:title="scalaz.Apply" target="_blank">
<polygon fill="#799f5a" stroke="black" points="429.653,-149 429.653,-185 518.347,-185 518.347,-149 429.653,-149"/>
<text text-anchor="middle" x="474" y="-162.8" font-family="Times,serif" font-size="14.00">scalaz.Apply</text>
</a>
</g>
</g>
<!-- scalaz.Applicative&#45;&gt;scalaz.Apply -->
<g id="edge7" class="edge"><title>scalaz.Applicative&#45;&gt;scalaz.Apply</title>
<path fill="none" stroke="black" d="M486.208,-222.937C484.382,-214.719 482.147,-204.66 480.09,-195.406"/>
<polygon fill="black" stroke="black" points="483.462,-194.443 477.876,-185.441 476.628,-195.962 483.462,-194.443"/>
</g>
<!-- scalaz.ApplicativePlus -->
<g id="node2" class="node"><title>scalaz.ApplicativePlus</title>
<g id="a_node2"><a xlink:href="https://github.com/scalaz/scalaz/tree/v7.2.0-M5/core/src/main/scala/scalaz/ApplicativePlus.scala" xlink:title="scalaz.ApplicativePlus" target="_blank">
<polygon fill="#799f5a" stroke="black" points="553.436,-297 553.436,-333 696.564,-333 696.564,-297 553.436,-297"/>
<text text-anchor="middle" x="625" y="-310.8" font-family="Times,serif" font-size="14.00">scalaz.ApplicativePlus</text>
</a>
</g>
</g>
<!-- scalaz.ApplicativePlus&#45;&gt;scalaz.Applicative -->
<g id="edge8" class="edge"><title>scalaz.ApplicativePlus&#45;&gt;scalaz.Applicative</title>
<path fill="none" stroke="black" d="M593.007,-296.937C574.48,-287.056 550.965,-274.514 531.081,-263.91"/>
<polygon fill="black" stroke="black" points="532.702,-260.808 522.231,-259.19 529.408,-266.984 532.702,-260.808"/>
</g>
<!-- scalaz.PlusEmpty -->
<g id="node37" class="node"><title>scalaz.PlusEmpty</title>
<g id="a_node37"><a xlink:href="https://github.com/scalaz/scalaz/tree/v7.2.0-M5/core/src/main/scala/scalaz/PlusEmpty.scala" xlink:title="scalaz.PlusEmpty" target="_blank">
<polygon fill="#799f5a" stroke="black" points="567.426,-223 567.426,-259 682.574,-259 682.574,-223 567.426,-223"/>
<text text-anchor="middle" x="625" y="-236.8" font-family="Times,serif" font-size="14.00">scalaz.PlusEmpty</text>
</a>
</g>
</g>
<!-- scalaz.ApplicativePlus&#45;&gt;scalaz.PlusEmpty -->
<g id="edge9" class="edge"><title>scalaz.ApplicativePlus&#45;&gt;scalaz.PlusEmpty</title>
<path fill="none" stroke="black" d="M625,-296.937C625,-288.807 625,-278.876 625,-269.705"/>
<polygon fill="black" stroke="black" points="628.5,-269.441 625,-259.441 621.5,-269.441 628.5,-269.441"/>
</g>
<!-- scalaz.Functor -->
<g id="node24" class="node"><title>scalaz.Functor</title>
<g id="a_node24"><a xlink:href="https://github.com/scalaz/scalaz/tree/v7.2.0-M5/core/src/main/scala/scalaz/Functor.scala" xlink:title="scalaz.Functor" target="_blank">
<polygon fill="#799f5a" stroke="black" points="484.377,-75 484.377,-111 581.623,-111 581.623,-75 484.377,-75"/>
<text text-anchor="middle" x="533" y="-88.8" font-family="Times,serif" font-size="14.00">scalaz.Functor</text>
</a>
</g>
</g>
<!-- scalaz.Apply&#45;&gt;scalaz.Functor -->
<g id="edge5" class="edge"><title>scalaz.Apply&#45;&gt;scalaz.Functor</title>
<path fill="none" stroke="black" d="M487.982,-148.937C495.223,-140.1 504.209,-129.135 512.243,-119.331"/>
<polygon fill="black" stroke="black" points="515.077,-121.394 518.708,-111.441 509.663,-116.957 515.077,-121.394"/>
</g>
<!-- scalaz.Arrow -->
<g id="node4" class="node"><title>scalaz.Arrow</title>
<g id="a_node4"><a xlink:href="https://github.com/scalaz/scalaz/tree/v7.2.0-M5/core/src/main/scala/scalaz/Arrow.scala" xlink:title="scalaz.Arrow" target="_blank">
<polygon fill="#799f5a" stroke="black" points="982.881,-445 982.881,-481 1073.12,-481 1073.12,-445 982.881,-445"/>
<text text-anchor="middle" x="1028" y="-458.8" font-family="Times,serif" font-size="14.00">scalaz.Arrow</text>
</a>
</g>
</g>
<!-- scalaz.Category -->
<g id="node11" class="node"><title>scalaz.Category</title>
<g id="a_node11"><a xlink:href="https://github.com/scalaz/scalaz/tree/v7.2.0-M5/core/src/main/scala/scalaz/Category.scala" xlink:title="scalaz.Category" target="_blank">
<polygon fill="#799f5a" stroke="black" points="864.495,-371 864.495,-407 969.505,-407 969.505,-371 864.495,-371"/>
<text text-anchor="middle" x="917" y="-384.8" font-family="Times,serif" font-size="14.00">scalaz.Category</text>
</a>
</g>
</g>
<!-- scalaz.Arrow&#45;&gt;scalaz.Category -->
<g id="edge40" class="edge"><title>scalaz.Arrow&#45;&gt;scalaz.Category</title>
<path fill="none" stroke="black" d="M1001.69,-444.937C986.873,-435.323 968.169,-423.19 952.109,-412.774"/>
<polygon fill="black" stroke="black" points="953.796,-409.696 943.501,-407.19 949.986,-415.568 953.796,-409.696"/>
</g>
<!-- scalaz.Split -->
<g id="node40" class="node"><title>scalaz.Split</title>
<g id="a_node40"><a xlink:href="https://github.com/scalaz/scalaz/tree/v7.2.0-M5/core/src/main/scala/scalaz/Split.scala" xlink:title="scalaz.Split" target="_blank">
<polygon fill="#799f5a" stroke="black" points="987.926,-371 987.926,-407 1068.07,-407 1068.07,-371 987.926,-371"/>
<text text-anchor="middle" x="1028" y="-384.8" font-family="Times,serif" font-size="14.00">scalaz.Split</text>
</a>
</g>
</g>
<!-- scalaz.Arrow&#45;&gt;scalaz.Split -->
<g id="edge38" class="edge"><title>scalaz.Arrow&#45;&gt;scalaz.Split</title>
<path fill="none" stroke="black" d="M1028,-444.937C1028,-436.807 1028,-426.876 1028,-417.705"/>
<polygon fill="black" stroke="black" points="1031.5,-417.441 1028,-407.441 1024.5,-417.441 1031.5,-417.441"/>
</g>
<!-- scalaz.Strong -->
<g id="node41" class="node"><title>scalaz.Strong</title>
<g id="a_node41"><a xlink:href="https://github.com/scalaz/scalaz/tree/v7.2.0-M5/core/src/main/scala/scalaz/Strong.scala" xlink:title="scalaz.Strong" target="_blank">
<polygon fill="#799f5a" stroke="black" points="1086.48,-371 1086.48,-407 1177.52,-407 1177.52,-371 1086.48,-371"/>
<text text-anchor="middle" x="1132" y="-384.8" font-family="Times,serif" font-size="14.00">scalaz.Strong</text>
</a>
</g>
</g>
<!-- scalaz.Arrow&#45;&gt;scalaz.Strong -->
<g id="edge39" class="edge"><title>scalaz.Arrow&#45;&gt;scalaz.Strong</title>
<path fill="none" stroke="black" d="M1052.65,-444.937C1066.4,-435.412 1083.73,-423.415 1098.69,-413.063"/>
<polygon fill="black" stroke="black" points="1100.94,-415.76 1107.17,-407.19 1096.96,-410.004 1100.94,-415.76"/>
</g>
<!-- scalaz.Associative -->
<g id="node5" class="node"><title>scalaz.Associative</title>
<g id="a_node5"><a xlink:href="https://github.com/scalaz/scalaz/tree/v7.2.0-M5/core/src/main/scala/scalaz/Associative.scala" xlink:title="scalaz.Associative" target="_blank">
<polygon fill="#799f5a" stroke="black" points="1204.49,-445 1204.49,-481 1323.51,-481 1323.51,-445 1204.49,-445"/>
<text text-anchor="middle" x="1264" y="-458.8" font-family="Times,serif" font-size="14.00">scalaz.Associative</text>
</a>
</g>
</g>
<!-- scalaz.Bifoldable -->
<g id="node6" class="node"><title>scalaz.Bifoldable</title>
<g id="a_node6"><a xlink:href="https://github.com/scalaz/scalaz/tree/v7.2.0-M5/core/src/main/scala/scalaz/Bifoldable.scala" xlink:title="scalaz.Bifoldable" target="_blank">
<polygon fill="#799f5a" stroke="black" points="1326.6,-371 1326.6,-407 1439.4,-407 1439.4,-371 1326.6,-371"/>
<text text-anchor="middle" x="1383" y="-384.8" font-family="Times,serif" font-size="14.00">scalaz.Bifoldable</text>
</a>
</g>
</g>
<!-- scalaz.Bifunctor -->
<g id="node7" class="node"><title>scalaz.Bifunctor</title>
<g id="a_node7"><a xlink:href="https://github.com/scalaz/scalaz/tree/v7.2.0-M5/core/src/main/scala/scalaz/Bifunctor.scala" xlink:title="scalaz.Bifunctor" target="_blank">
<polygon fill="#799f5a" stroke="black" points="1457.33,-371 1457.33,-407 1564.67,-407 1564.67,-371 1457.33,-371"/>
<text text-anchor="middle" x="1511" y="-384.8" font-family="Times,serif" font-size="14.00">scalaz.Bifunctor</text>
</a>
</g>
</g>
<!-- scalaz.Bind -->
<g id="node8" class="node"><title>scalaz.Bind</title>
<g id="a_node8"><a xlink:href="https://github.com/scalaz/scalaz/tree/v7.2.0-M5/core/src/main/scala/scalaz/Bind.scala" xlink:title="scalaz.Bind" target="_blank">
<polygon fill="#799f5a" stroke="black" points="331.54,-223 331.54,-259 412.46,-259 412.46,-223 331.54,-223"/>
<text text-anchor="middle" x="372" y="-236.8" font-family="Times,serif" font-size="14.00">scalaz.Bind</text>
</a>
</g>
</g>
<!-- scalaz.Bind&#45;&gt;scalaz.Apply -->
<g id="edge4" class="edge"><title>scalaz.Bind&#45;&gt;scalaz.Apply</title>
<path fill="none" stroke="black" d="M396.173,-222.937C409.666,-213.412 426.662,-201.415 441.327,-191.063"/>
<polygon fill="black" stroke="black" points="443.496,-193.816 449.647,-185.19 439.459,-188.098 443.496,-193.816"/>
</g>
<!-- scalaz.BindRec -->
<g id="node9" class="node"><title>scalaz.BindRec</title>
<g id="a_node9"><a xlink:href="https://github.com/scalaz/scalaz/tree/v7.2.0-M5/core/src/main/scala/scalaz/BindRec.scala" xlink:title="scalaz.BindRec" target="_blank">
<polygon fill="#799f5a" stroke="black" points="320.657,-297 320.657,-333 423.343,-333 423.343,-297 320.657,-297"/>
<text text-anchor="middle" x="372" y="-310.8" font-family="Times,serif" font-size="14.00">scalaz.BindRec</text>
</a>
</g>
</g>
<!-- scalaz.BindRec&#45;&gt;scalaz.Bind -->
<g id="edge42" class="edge"><title>scalaz.BindRec&#45;&gt;scalaz.Bind</title>
<path fill="none" stroke="black" d="M372,-296.937C372,-288.807 372,-278.876 372,-269.705"/>
<polygon fill="black" stroke="black" points="375.5,-269.441 372,-259.441 368.5,-269.441 375.5,-269.441"/>
</g>
<!-- scalaz.Bitraverse -->
<g id="node10" class="node"><title>scalaz.Bitraverse</title>
<g id="a_node10"><a xlink:href="https://github.com/scalaz/scalaz/tree/v7.2.0-M5/core/src/main/scala/scalaz/Bitraverse.scala" xlink:title="scalaz.Bitraverse" target="_blank">
<polygon fill="#799f5a" stroke="black" points="1390.39,-445 1390.39,-481 1501.61,-481 1501.61,-445 1390.39,-445"/>
<text text-anchor="middle" x="1446" y="-458.8" font-family="Times,serif" font-size="14.00">scalaz.Bitraverse</text>
</a>
</g>
</g>
<!-- scalaz.Bitraverse&#45;&gt;scalaz.Bifoldable -->
<g id="edge36" class="edge"><title>scalaz.Bitraverse&#45;&gt;scalaz.Bifoldable</title>
<path fill="none" stroke="black" d="M1431.07,-444.937C1423.26,-436.012 1413.55,-424.916 1404.91,-415.037"/>
<polygon fill="black" stroke="black" points="1407.48,-412.662 1398.26,-407.441 1402.21,-417.271 1407.48,-412.662"/>
</g>
<!-- scalaz.Bitraverse&#45;&gt;scalaz.Bifunctor -->
<g id="edge35" class="edge"><title>scalaz.Bitraverse&#45;&gt;scalaz.Bifunctor</title>
<path fill="none" stroke="black" d="M1461.4,-444.937C1469.46,-436.012 1479.48,-424.916 1488.4,-415.037"/>
<polygon fill="black" stroke="black" points="1491.15,-417.209 1495.25,-407.441 1485.96,-412.518 1491.15,-417.209"/>
</g>
<!-- scalaz.Compose -->
<g id="node16" class="node"><title>scalaz.Compose</title>
<g id="a_node16"><a xlink:href="https://github.com/scalaz/scalaz/tree/v7.2.0-M5/core/src/main/scala/scalaz/Compose.scala" xlink:title="scalaz.Compose" target="_blank">
<polygon fill="#799f5a" stroke="black" points="918.708,-297 918.708,-333 1025.29,-333 1025.29,-297 918.708,-297"/>
<text text-anchor="middle" x="972" y="-310.8" font-family="Times,serif" font-size="14.00">scalaz.Compose</text>
</a>
</g>
</g>
<!-- scalaz.Category&#45;&gt;scalaz.Compose -->
<g id="edge19" class="edge"><title>scalaz.Category&#45;&gt;scalaz.Compose</title>
<path fill="none" stroke="black" d="M930.034,-370.937C936.717,-362.189 944.993,-351.354 952.425,-341.626"/>
<polygon fill="black" stroke="black" points="955.388,-343.512 958.677,-333.441 949.825,-339.263 955.388,-343.512"/>
</g>
<!-- scalaz.Choice -->
<g id="node12" class="node"><title>scalaz.Choice</title>
<g id="a_node12"><a xlink:href="https://github.com/scalaz/scalaz/tree/v7.2.0-M5/core/src/main/scala/scalaz/Choice.scala" xlink:title="scalaz.Choice" target="_blank">
<polygon fill="#799f5a" stroke="black" points="870.326,-445 870.326,-481 963.674,-481 963.674,-445 870.326,-445"/>
<text text-anchor="middle" x="917" y="-458.8" font-family="Times,serif" font-size="14.00">scalaz.Choice</text>
</a>
</g>
</g>
<!-- scalaz.Choice&#45;&gt;scalaz.Category -->
<g id="edge37" class="edge"><title>scalaz.Choice&#45;&gt;scalaz.Category</title>
<path fill="none" stroke="black" d="M917,-444.937C917,-436.807 917,-426.876 917,-417.705"/>
<polygon fill="black" stroke="black" points="920.5,-417.441 917,-407.441 913.5,-417.441 920.5,-417.441"/>
</g>
<!-- scalaz.Cobind -->
<g id="node13" class="node"><title>scalaz.Cobind</title>
<g id="a_node13"><a xlink:href="https://github.com/scalaz/scalaz/tree/v7.2.0-M5/core/src/main/scala/scalaz/Cobind.scala" xlink:title="scalaz.Cobind" target="_blank">
<polygon fill="#799f5a" stroke="black" points="258.54,-149 258.54,-185 353.46,-185 353.46,-149 258.54,-149"/>
<text text-anchor="middle" x="306" y="-162.8" font-family="Times,serif" font-size="14.00">scalaz.Cobind</text>
</a>
</g>
</g>
<!-- scalaz.Cobind&#45;&gt;scalaz.Functor -->
<g id="edge11" class="edge"><title>scalaz.Cobind&#45;&gt;scalaz.Functor</title>
<path fill="none" stroke="black" d="M353.587,-150.906C388.793,-139.74 436.947,-124.466 474.504,-112.554"/>
<polygon fill="black" stroke="black" points="475.828,-115.806 484.302,-109.446 473.711,-109.133 475.828,-115.806"/>
</g>
<!-- scalaz.Comonad -->
<g id="node14" class="node"><title>scalaz.Comonad</title>
<g id="a_node14"><a xlink:href="https://github.com/scalaz/scalaz/tree/v7.2.0-M5/core/src/main/scala/scalaz/Comonad.scala" xlink:title="scalaz.Comonad" target="_blank">
<polygon fill="#799f5a" stroke="black" points="192.933,-223 192.933,-259 301.067,-259 301.067,-223 192.933,-223"/>
<text text-anchor="middle" x="247" y="-236.8" font-family="Times,serif" font-size="14.00">scalaz.Comonad</text>
</a>
</g>
</g>
<!-- scalaz.Comonad&#45;&gt;scalaz.Cobind -->
<g id="edge10" class="edge"><title>scalaz.Comonad&#45;&gt;scalaz.Cobind</title>
<path fill="none" stroke="black" d="M260.982,-222.937C268.223,-214.1 277.209,-203.135 285.243,-193.331"/>
<polygon fill="black" stroke="black" points="288.077,-195.394 291.708,-185.441 282.663,-190.957 288.077,-195.394"/>
</g>
<!-- scalaz.ComonadStore -->
<g id="node15" class="node"><title>scalaz.ComonadStore</title>
<g id="a_node15"><a xlink:href="https://github.com/scalaz/scalaz/tree/v7.2.0-M5/core/src/main/scala/scalaz/ComonadStore.scala" xlink:title="scalaz.ComonadStore" target="_blank">
<polygon fill="#799f5a" stroke="black" points="165.157,-297 165.157,-333 302.843,-333 302.843,-297 165.157,-297"/>
<text text-anchor="middle" x="234" y="-310.8" font-family="Times,serif" font-size="14.00">scalaz.ComonadStore</text>
</a>
</g>
</g>
<!-- scalaz.ComonadStore&#45;&gt;scalaz.Comonad -->
<g id="edge24" class="edge"><title>scalaz.ComonadStore&#45;&gt;scalaz.Comonad</title>
<path fill="none" stroke="black" d="M237.081,-296.937C238.565,-288.719 240.381,-278.66 242.052,-269.406"/>
<polygon fill="black" stroke="black" points="245.518,-269.903 243.851,-259.441 238.63,-268.66 245.518,-269.903"/>
</g>
<!-- scalaz.Contravariant -->
<g id="node17" class="node"><title>scalaz.Contravariant</title>
<g id="a_node17"><a xlink:href="https://github.com/scalaz/scalaz/tree/v7.2.0-M5/core/src/main/scala/scalaz/Contravariant.scala" xlink:title="scalaz.Contravariant" target="_blank">
<polygon fill="#799f5a" stroke="black" points="833.667,-75 833.667,-111 964.333,-111 964.333,-75 833.667,-75"/>
<text text-anchor="middle" x="899" y="-88.8" font-family="Times,serif" font-size="14.00">scalaz.Contravariant</text>
</a>
</g>
</g>
<!-- scalaz.InvariantFunctor -->
<g id="node25" class="node"><title>scalaz.InvariantFunctor</title>
<g id="a_node25"><a xlink:href="https://github.com/scalaz/scalaz/tree/v7.2.0-M5/core/src/main/scala/scalaz/InvariantFunctor.scala" xlink:title="scalaz.InvariantFunctor" target="_blank">
<polygon fill="#799f5a" stroke="black" points="642.112,-1 642.112,-37 789.888,-37 789.888,-1 642.112,-1"/>
<text text-anchor="middle" x="716" y="-14.8" font-family="Times,serif" font-size="14.00">scalaz.InvariantFunctor</text>
</a>
</g>
</g>
<!-- scalaz.Contravariant&#45;&gt;scalaz.InvariantFunctor -->
<g id="edge16" class="edge"><title>scalaz.Contravariant&#45;&gt;scalaz.InvariantFunctor</title>
<path fill="none" stroke="black" d="M855.632,-74.937C829.631,-64.7073 796.382,-51.6258 768.852,-40.7942"/>
<polygon fill="black" stroke="black" points="769.961,-37.4695 759.374,-37.0651 767.398,-43.9834 769.961,-37.4695"/>
</g>
<!-- scalaz.Divide -->
<g id="node18" class="node"><title>scalaz.Divide</title>
<g id="a_node18"><a xlink:href="https://github.com/scalaz/scalaz/tree/v7.2.0-M5/core/src/main/scala/scalaz/Divide.scala" xlink:title="scalaz.Divide" target="_blank">
<polygon fill="#799f5a" stroke="black" points="880.102,-149 880.102,-185 971.898,-185 971.898,-149 880.102,-149"/>
<text text-anchor="middle" x="926" y="-162.8" font-family="Times,serif" font-size="14.00">scalaz.Divide</text>
</a>
</g>
</g>
<!-- scalaz.Divide&#45;&gt;scalaz.Contravariant -->
<g id="edge17" class="edge"><title>scalaz.Divide&#45;&gt;scalaz.Contravariant</title>
<path fill="none" stroke="black" d="M919.601,-148.937C916.453,-140.542 912.585,-130.227 909.054,-120.81"/>
<polygon fill="black" stroke="black" points="912.329,-119.575 905.54,-111.441 905.774,-122.033 912.329,-119.575"/>
</g>
<!-- scalaz.Divisible -->
<g id="node19" class="node"><title>scalaz.Divisible</title>
<g id="a_node19"><a xlink:href="https://github.com/scalaz/scalaz/tree/v7.2.0-M5/core/src/main/scala/scalaz/Divisible.scala" xlink:title="scalaz.Divisible" target="_blank">
<polygon fill="#799f5a" stroke="black" points="873.488,-223 873.488,-259 978.512,-259 978.512,-223 873.488,-223"/>
<text text-anchor="middle" x="926" y="-236.8" font-family="Times,serif" font-size="14.00">scalaz.Divisible</text>
</a>
</g>
</g>
<!-- scalaz.Divisible&#45;&gt;scalaz.Divide -->
<g id="edge33" class="edge"><title>scalaz.Divisible&#45;&gt;scalaz.Divide</title>
<path fill="none" stroke="black" d="M926,-222.937C926,-214.807 926,-204.876 926,-195.705"/>
<polygon fill="black" stroke="black" points="929.5,-195.441 926,-185.441 922.5,-195.441 929.5,-195.441"/>
</g>
<!-- scalaz.Enum -->
<g id="node20" class="node"><title>scalaz.Enum</title>
<g id="a_node20"><a xlink:href="https://github.com/scalaz/scalaz/tree/v7.2.0-M5/core/src/main/scala/scalaz/Enum.scala" xlink:title="scalaz.Enum" target="_blank">
<polygon fill="#799f5a" stroke="black" points="1582.43,-445 1582.43,-481 1669.57,-481 1669.57,-445 1582.43,-445"/>
<text text-anchor="middle" x="1626" y="-458.8" font-family="Times,serif" font-size="14.00">scalaz.Enum</text>
</a>
</g>
</g>
<!-- scalaz.Order -->
<g id="node35" class="node"><title>scalaz.Order</title>
<g id="a_node35"><a xlink:href="https://github.com/scalaz/scalaz/tree/v7.2.0-M5/core/src/main/scala/scalaz/Order.scala" xlink:title="scalaz.Order" target="_blank">
<polygon fill="#799f5a" stroke="black" points="1582.83,-371 1582.83,-407 1669.17,-407 1669.17,-371 1582.83,-371"/>
<text text-anchor="middle" x="1626" y="-384.8" font-family="Times,serif" font-size="14.00">scalaz.Order</text>
</a>
</g>
</g>
<!-- scalaz.Enum&#45;&gt;scalaz.Order -->
<g id="edge34" class="edge"><title>scalaz.Enum&#45;&gt;scalaz.Order</title>
<path fill="none" stroke="black" d="M1626,-444.937C1626,-436.807 1626,-426.876 1626,-417.705"/>
<polygon fill="black" stroke="black" points="1629.5,-417.441 1626,-407.441 1622.5,-417.441 1629.5,-417.441"/>
</g>
<!-- scalaz.Equal -->
<g id="node21" class="node"><title>scalaz.Equal</title>
<g id="a_node21"><a xlink:href="https://github.com/scalaz/scalaz/tree/v7.2.0-M5/core/src/main/scala/scalaz/Equal.scala" xlink:title="scalaz.Equal" target="_blank">
<polygon fill="#799f5a" stroke="black" points="1582.83,-297 1582.83,-333 1669.17,-333 1669.17,-297 1582.83,-297"/>
<text text-anchor="middle" x="1626" y="-310.8" font-family="Times,serif" font-size="14.00">scalaz.Equal</text>
</a>
</g>
</g>
<!-- scalaz.Foldable -->
<g id="node22" class="node"><title>scalaz.Foldable</title>
<g id="a_node22"><a xlink:href="https://github.com/scalaz/scalaz/tree/v7.2.0-M5/core/src/main/scala/scalaz/Foldable.scala" xlink:title="scalaz.Foldable" target="_blank">
<polygon fill="#799f5a" stroke="black" points="658.657,-75 658.657,-111 761.343,-111 761.343,-75 658.657,-75"/>
<text text-anchor="middle" x="710" y="-88.8" font-family="Times,serif" font-size="14.00">scalaz.Foldable</text>
</a>
</g>
</g>
<!-- scalaz.Foldable1 -->
<g id="node23" class="node"><title>scalaz.Foldable1</title>
<g id="a_node23"><a xlink:href="https://github.com/scalaz/scalaz/tree/v7.2.0-M5/core/src/main/scala/scalaz/Foldable1.scala" xlink:title="scalaz.Foldable1" target="_blank">
<polygon fill="#799f5a" stroke="black" points="752.157,-149 752.157,-185 861.843,-185 861.843,-149 752.157,-149"/>
<text text-anchor="middle" x="807" y="-162.8" font-family="Times,serif" font-size="14.00">scalaz.Foldable1</text>
</a>
</g>
</g>
<!-- scalaz.Foldable1&#45;&gt;scalaz.Foldable -->
<g id="edge12" class="edge"><title>scalaz.Foldable1&#45;&gt;scalaz.Foldable</title>
<path fill="none" stroke="black" d="M784.012,-148.937C771.3,-139.501 755.319,-127.639 741.463,-117.354"/>
<polygon fill="black" stroke="black" points="743.275,-114.34 733.159,-111.19 739.102,-119.961 743.275,-114.34"/>
</g>
<!-- scalaz.Functor&#45;&gt;scalaz.InvariantFunctor -->
<g id="edge6" class="edge"><title>scalaz.Functor&#45;&gt;scalaz.InvariantFunctor</title>
<path fill="none" stroke="black" d="M576.368,-74.937C602.369,-64.7073 635.618,-51.6258 663.148,-40.7942"/>
<polygon fill="black" stroke="black" points="664.602,-43.9834 672.626,-37.0651 662.039,-37.4695 664.602,-43.9834"/>
</g>
<!-- scalaz.IsEmpty -->
<g id="node26" class="node"><title>scalaz.IsEmpty</title>
<g id="a_node26"><a xlink:href="https://github.com/scalaz/scalaz/tree/v7.2.0-M5/core/src/main/scala/scalaz/IsEmpty.scala" xlink:title="scalaz.IsEmpty" target="_blank">
<polygon fill="#799f5a" stroke="black" points="714.433,-297 714.433,-333 815.567,-333 815.567,-297 714.433,-297"/>
<text text-anchor="middle" x="765" y="-310.8" font-family="Times,serif" font-size="14.00">scalaz.IsEmpty</text>
</a>
</g>
</g>
<!-- scalaz.IsEmpty&#45;&gt;scalaz.PlusEmpty -->
<g id="edge27" class="edge"><title>scalaz.IsEmpty&#45;&gt;scalaz.PlusEmpty</title>
<path fill="none" stroke="black" d="M731.822,-296.937C712.523,-287.012 688.003,-274.401 667.324,-263.766"/>
<polygon fill="black" stroke="black" points="668.919,-260.651 658.425,-259.19 665.717,-266.876 668.919,-260.651"/>
</g>
<!-- scalaz.Monad -->
<g id="node27" class="node"><title>scalaz.Monad</title>
<g id="a_node27"><a xlink:href="https://github.com/scalaz/scalaz/tree/v7.2.0-M5/core/src/main/scala/scalaz/Monad.scala" xlink:title="scalaz.Monad" target="_blank">
<polygon fill="#799f5a" stroke="black" points="441.322,-297 441.322,-333 534.678,-333 534.678,-297 441.322,-297"/>
<text text-anchor="middle" x="488" y="-310.8" font-family="Times,serif" font-size="14.00">scalaz.Monad</text>
</a>
</g>
</g>
<!-- scalaz.Monad&#45;&gt;scalaz.Applicative -->
<g id="edge1" class="edge"><title>scalaz.Monad&#45;&gt;scalaz.Applicative</title>
<path fill="none" stroke="black" d="M488.474,-296.937C488.7,-288.807 488.976,-278.876 489.23,-269.705"/>
<polygon fill="black" stroke="black" points="492.736,-269.534 489.516,-259.441 485.739,-269.34 492.736,-269.534"/>
</g>
<!-- scalaz.Monad&#45;&gt;scalaz.Bind -->
<g id="edge2" class="edge"><title>scalaz.Monad&#45;&gt;scalaz.Bind</title>
<path fill="none" stroke="black" d="M460.51,-296.937C444.877,-287.234 425.111,-274.966 408.225,-264.485"/>
<polygon fill="black" stroke="black" points="410.037,-261.49 399.695,-259.19 406.346,-267.437 410.037,-261.49"/>
</g>
<!-- scalaz.MonadError -->
<g id="node28" class="node"><title>scalaz.MonadError</title>
<g id="a_node28"><a xlink:href="https://github.com/scalaz/scalaz/tree/v7.2.0-M5/core/src/main/scala/scalaz/MonadError.scala" xlink:title="scalaz.MonadError" target="_blank">
<polygon fill="#799f5a" stroke="black" points="-0.446777,-371 -0.446777,-407 122.447,-407 122.447,-371 -0.446777,-371"/>
<text text-anchor="middle" x="61" y="-384.8" font-family="Times,serif" font-size="14.00">scalaz.MonadError</text>
</a>
</g>
</g>
<!-- scalaz.MonadError&#45;&gt;scalaz.Monad -->
<g id="edge30" class="edge"><title>scalaz.MonadError&#45;&gt;scalaz.Monad</title>
<path fill="none" stroke="black" d="M122.466,-371.901C125.682,-371.221 128.874,-370.581 132,-370 260.803,-346.048 298.955,-361.862 431.03,-333.964"/>
<polygon fill="black" stroke="black" points="432.088,-337.317 441.125,-331.787 430.611,-330.474 432.088,-337.317"/>
</g>
<!-- scalaz.MonadListen -->
<g id="node29" class="node"><title>scalaz.MonadListen</title>
<g id="a_node29"><a xlink:href="https://github.com/scalaz/scalaz/tree/v7.2.0-M5/core/src/main/scala/scalaz/MonadListen.scala" xlink:title="scalaz.MonadListen" target="_blank">
<polygon fill="#799f5a" stroke="black" points="423.826,-445 423.826,-481 552.174,-481 552.174,-445 423.826,-445"/>
<text text-anchor="middle" x="488" y="-458.8" font-family="Times,serif" font-size="14.00">scalaz.MonadListen</text>
</a>
</g>
</g>
<!-- scalaz.MonadTell -->
<g id="node33" class="node"><title>scalaz.MonadTell</title>
<g id="a_node33"><a xlink:href="https://github.com/scalaz/scalaz/tree/v7.2.0-M5/core/src/main/scala/scalaz/MonadTell.scala" xlink:title="scalaz.MonadTell" target="_blank">
<polygon fill="#799f5a" stroke="black" points="430.539,-371 430.539,-407 545.461,-407 545.461,-371 430.539,-371"/>
<text text-anchor="middle" x="488" y="-384.8" font-family="Times,serif" font-size="14.00">scalaz.MonadTell</text>
</a>
</g>
</g>
<!-- scalaz.MonadListen&#45;&gt;scalaz.MonadTell -->
<g id="edge31" class="edge"><title>scalaz.MonadListen&#45;&gt;scalaz.MonadTell</title>
<path fill="none" stroke="black" d="M488,-444.937C488,-436.807 488,-426.876 488,-417.705"/>
<polygon fill="black" stroke="black" points="491.5,-417.441 488,-407.441 484.5,-417.441 491.5,-417.441"/>
</g>
<!-- scalaz.MonadPlus -->
<g id="node30" class="node"><title>scalaz.MonadPlus</title>
<g id="a_node30"><a xlink:href="https://github.com/scalaz/scalaz/tree/v7.2.0-M5/core/src/main/scala/scalaz/MonadPlus.scala" xlink:title="scalaz.MonadPlus" target="_blank">
<polygon fill="#799f5a" stroke="black" points="729.26,-371 729.26,-407 846.74,-407 846.74,-371 729.26,-371"/>
<text text-anchor="middle" x="788" y="-384.8" font-family="Times,serif" font-size="14.00">scalaz.MonadPlus</text>
</a>
</g>
</g>
<!-- scalaz.MonadPlus&#45;&gt;scalaz.ApplicativePlus -->
<g id="edge23" class="edge"><title>scalaz.MonadPlus&#45;&gt;scalaz.ApplicativePlus</title>
<path fill="none" stroke="black" d="M749.371,-370.937C726.516,-360.841 697.372,-347.968 673.042,-337.221"/>
<polygon fill="black" stroke="black" points="674.195,-333.904 663.634,-333.065 671.367,-340.307 674.195,-333.904"/>
</g>
<!-- scalaz.MonadPlus&#45;&gt;scalaz.Monad -->
<g id="edge22" class="edge"><title>scalaz.MonadPlus&#45;&gt;scalaz.Monad</title>
<path fill="none" stroke="black" d="M728.955,-372.38C725.592,-371.558 722.255,-370.759 719,-370 644.688,-352.676 622.516,-354.037 544.716,-334.043"/>
<polygon fill="black" stroke="black" points="545.505,-330.632 534.945,-331.496 543.739,-337.405 545.505,-330.632"/>
</g>
<!-- scalaz.MonadReader -->
<g id="node31" class="node"><title>scalaz.MonadReader</title>
<g id="a_node31"><a xlink:href="https://github.com/scalaz/scalaz/tree/v7.2.0-M5/core/src/main/scala/scalaz/MonadReader.scala" xlink:title="scalaz.MonadReader" target="_blank">
<polygon fill="#799f5a" stroke="black" points="140.501,-371 140.501,-407 273.499,-407 273.499,-371 140.501,-371"/>
<text text-anchor="middle" x="207" y="-384.8" font-family="Times,serif" font-size="14.00">scalaz.MonadReader</text>
</a>
</g>
</g>
<!-- scalaz.MonadReader&#45;&gt;scalaz.Monad -->
<g id="edge28" class="edge"><title>scalaz.MonadReader&#45;&gt;scalaz.Monad</title>
<path fill="none" stroke="black" d="M273.801,-371.972C329.693,-358.56 403.716,-340.797 431.052,-333.96"/>
<polygon fill="black" stroke="black" points="432.218,-337.274 441.024,-331.383 430.466,-330.497 432.218,-337.274"/>
</g>
<!-- scalaz.MonadState -->
<g id="node32" class="node"><title>scalaz.MonadState</title>
<g id="a_node32"><a xlink:href="https://github.com/scalaz/scalaz/tree/v7.2.0-M5/core/src/main/scala/scalaz/MonadState.scala" xlink:title="scalaz.MonadState" target="_blank">
<polygon fill="#799f5a" stroke="black" points="291.326,-371 291.326,-407 412.674,-407 412.674,-371 291.326,-371"/>
<text text-anchor="middle" x="352" y="-384.8" font-family="Times,serif" font-size="14.00">scalaz.MonadState</text>
</a>
</g>
</g>
<!-- scalaz.MonadState&#45;&gt;scalaz.Monad -->
<g id="edge29" class="edge"><title>scalaz.MonadState&#45;&gt;scalaz.Monad</title>
<path fill="none" stroke="black" d="M384.23,-370.937C402.894,-361.056 426.584,-348.514 446.615,-337.91"/>
<polygon fill="black" stroke="black" points="448.33,-340.962 455.53,-333.19 445.054,-334.776 448.33,-340.962"/>
</g>
<!-- scalaz.MonadTell&#45;&gt;scalaz.Monad -->
<g id="edge15" class="edge"><title>scalaz.MonadTell&#45;&gt;scalaz.Monad</title>
<path fill="none" stroke="black" d="M488,-370.937C488,-362.807 488,-352.876 488,-343.705"/>
<polygon fill="black" stroke="black" points="491.5,-343.441 488,-333.441 484.5,-343.441 491.5,-343.441"/>
</g>
<!-- scalaz.Nondeterminism -->
<g id="node34" class="node"><title>scalaz.Nondeterminism</title>
<g id="a_node34"><a xlink:href="https://github.com/scalaz/scalaz/tree/v7.2.0-M5/core/src/main/scala/scalaz/Nondeterminism.scala" xlink:title="scalaz.Nondeterminism" target="_blank">
<polygon fill="#799f5a" stroke="black" points="563.105,-371 563.105,-407 710.895,-407 710.895,-371 563.105,-371"/>
<text text-anchor="middle" x="637" y="-384.8" font-family="Times,serif" font-size="14.00">scalaz.Nondeterminism</text>
</a>
</g>
</g>
<!-- scalaz.Nondeterminism&#45;&gt;scalaz.Monad -->
<g id="edge32" class="edge"><title>scalaz.Nondeterminism&#45;&gt;scalaz.Monad</title>
<path fill="none" stroke="black" d="M601.689,-370.937C580.982,-360.931 554.627,-348.196 532.507,-337.507"/>
<polygon fill="black" stroke="black" points="533.842,-334.265 523.315,-333.065 530.796,-340.567 533.842,-334.265"/>
</g>
<!-- scalaz.Order&#45;&gt;scalaz.Equal -->
<g id="edge18" class="edge"><title>scalaz.Order&#45;&gt;scalaz.Equal</title>
<path fill="none" stroke="black" d="M1626,-370.937C1626,-362.807 1626,-352.876 1626,-343.705"/>
<polygon fill="black" stroke="black" points="1629.5,-343.441 1626,-333.441 1622.5,-343.441 1629.5,-343.441"/>
</g>
<!-- scalaz.Plus -->
<g id="node36" class="node"><title>scalaz.Plus</title>
<g id="a_node36"><a xlink:href="https://github.com/scalaz/scalaz/tree/v7.2.0-M5/core/src/main/scala/scalaz/Plus.scala" xlink:title="scalaz.Plus" target="_blank">
<polygon fill="#799f5a" stroke="black" points="536.091,-149 536.091,-185 613.909,-185 613.909,-149 536.091,-149"/>
<text text-anchor="middle" x="575" y="-162.8" font-family="Times,serif" font-size="14.00">scalaz.Plus</text>
</a>
</g>
</g>
<!-- scalaz.PlusEmpty&#45;&gt;scalaz.Plus -->
<g id="edge3" class="edge"><title>scalaz.PlusEmpty&#45;&gt;scalaz.Plus</title>
<path fill="none" stroke="black" d="M613.151,-222.937C607.137,-214.277 599.704,-203.573 593.001,-193.921"/>
<polygon fill="black" stroke="black" points="595.69,-191.658 587.112,-185.441 589.941,-195.651 595.69,-191.658"/>
</g>
<!-- scalaz.ProChoice -->
<g id="node38" class="node"><title>scalaz.ProChoice</title>
<g id="a_node38"><a xlink:href="https://github.com/scalaz/scalaz/tree/v7.2.0-M5/core/src/main/scala/scalaz/ProChoice.scala" xlink:title="scalaz.ProChoice" target="_blank">
<polygon fill="#799f5a" stroke="black" points="1195.6,-371 1195.6,-407 1308.4,-407 1308.4,-371 1195.6,-371"/>
<text text-anchor="middle" x="1252" y="-384.8" font-family="Times,serif" font-size="14.00">scalaz.ProChoice</text>
</a>
</g>
</g>
<!-- scalaz.Profunctor -->
<g id="node39" class="node"><title>scalaz.Profunctor</title>
<g id="a_node39"><a xlink:href="https://github.com/scalaz/scalaz/tree/v7.2.0-M5/core/src/main/scala/scalaz/Profunctor.scala" xlink:title="scalaz.Profunctor" target="_blank">
<polygon fill="#799f5a" stroke="black" points="1135.22,-297 1135.22,-333 1248.78,-333 1248.78,-297 1135.22,-297"/>
<text text-anchor="middle" x="1192" y="-310.8" font-family="Times,serif" font-size="14.00">scalaz.Profunctor</text>
</a>
</g>
</g>
<!-- scalaz.ProChoice&#45;&gt;scalaz.Profunctor -->
<g id="edge41" class="edge"><title>scalaz.ProChoice&#45;&gt;scalaz.Profunctor</title>
<path fill="none" stroke="black" d="M1237.78,-370.937C1230.42,-362.1 1221.28,-351.135 1213.11,-341.331"/>
<polygon fill="black" stroke="black" points="1215.62,-338.882 1206.53,-333.441 1210.25,-343.364 1215.62,-338.882"/>
</g>
<!-- scalaz.Split&#45;&gt;scalaz.Compose -->
<g id="edge21" class="edge"><title>scalaz.Split&#45;&gt;scalaz.Compose</title>
<path fill="none" stroke="black" d="M1014.73,-370.937C1007.92,-362.189 999.498,-351.354 991.931,-341.626"/>
<polygon fill="black" stroke="black" points="994.467,-339.185 985.565,-333.441 988.942,-343.483 994.467,-339.185"/>
</g>
<!-- scalaz.Strong&#45;&gt;scalaz.Profunctor -->
<g id="edge20" class="edge"><title>scalaz.Strong&#45;&gt;scalaz.Profunctor</title>
<path fill="none" stroke="black" d="M1146.22,-370.937C1153.58,-362.1 1162.72,-351.135 1170.89,-341.331"/>
<polygon fill="black" stroke="black" points="1173.75,-343.364 1177.47,-333.441 1168.38,-338.882 1173.75,-343.364"/>
</g>
<!-- scalaz.Traverse -->
<g id="node42" class="node"><title>scalaz.Traverse</title>
<g id="a_node42"><a xlink:href="https://github.com/scalaz/scalaz/tree/v7.2.0-M5/core/src/main/scala/scalaz/Traverse.scala" xlink:title="scalaz.Traverse" target="_blank">
<polygon fill="#799f5a" stroke="black" points="631.913,-149 631.913,-185 734.087,-185 734.087,-149 631.913,-149"/>
<text text-anchor="middle" x="683" y="-162.8" font-family="Times,serif" font-size="14.00">scalaz.Traverse</text>
</a>
</g>
</g>
<!-- scalaz.Traverse&#45;&gt;scalaz.Foldable -->
<g id="edge14" class="edge"><title>scalaz.Traverse&#45;&gt;scalaz.Foldable</title>
<path fill="none" stroke="black" d="M689.399,-148.937C692.547,-140.542 696.415,-130.227 699.946,-120.81"/>
<polygon fill="black" stroke="black" points="703.226,-122.033 703.46,-111.441 696.671,-119.575 703.226,-122.033"/>
</g>
<!-- scalaz.Traverse&#45;&gt;scalaz.Functor -->
<g id="edge13" class="edge"><title>scalaz.Traverse&#45;&gt;scalaz.Functor</title>
<path fill="none" stroke="black" d="M647.452,-148.937C626.606,-138.931 600.074,-126.196 577.806,-115.507"/>
<polygon fill="black" stroke="black" points="579.082,-112.237 568.552,-111.065 576.053,-118.548 579.082,-112.237"/>
</g>
<!-- scalaz.Traverse1 -->
<g id="node43" class="node"><title>scalaz.Traverse1</title>
<g id="a_node43"><a xlink:href="https://github.com/scalaz/scalaz/tree/v7.2.0-M5/core/src/main/scala/scalaz/Traverse1.scala" xlink:title="scalaz.Traverse1" target="_blank">
<polygon fill="#799f5a" stroke="black" points="731.413,-223 731.413,-259 840.587,-259 840.587,-223 731.413,-223"/>
<text text-anchor="middle" x="786" y="-236.8" font-family="Times,serif" font-size="14.00">scalaz.Traverse1</text>
</a>
</g>
</g>
<!-- scalaz.Traverse1&#45;&gt;scalaz.Foldable1 -->
<g id="edge26" class="edge"><title>scalaz.Traverse1&#45;&gt;scalaz.Foldable1</title>
<path fill="none" stroke="black" d="M790.977,-222.937C793.399,-214.63 796.371,-204.444 799.094,-195.108"/>
<polygon fill="black" stroke="black" points="802.473,-196.021 801.913,-185.441 795.753,-194.061 802.473,-196.021"/>
</g>
<!-- scalaz.Traverse1&#45;&gt;scalaz.Traverse -->
<g id="edge25" class="edge"><title>scalaz.Traverse1&#45;&gt;scalaz.Traverse</title>
<path fill="none" stroke="black" d="M761.59,-222.937C747.965,-213.412 730.802,-201.415 715.994,-191.063"/>
<polygon fill="black" stroke="black" points="717.793,-188.051 707.591,-185.19 713.782,-193.788 717.793,-188.051"/>
</g>
</g>
</svg>

